<?xml version="1.0" encoding="UTF-8"?>
<svg version="1.1" xmlns="http://www.w3.org/2000/svg" width="3083" height="456">
<path d="M0 0 C155.43 0 310.86 0 471 0 C471 150.48 471 300.96 471 456 C315.57 456 160.14 456 0 456 C0 305.52 0 155.04 0 0 Z " fill="#E2112D" transform="translate(0,0)"/>
<path d="M0 0 C44.88 0 89.76 0 136 0 C140 13 140 13 140 16 C140.66 16.33 141.32 16.66 142 17 C142.75819415 19.32943053 143.39131896 21.62977864 144 24 C144.51359216 25.85249032 145.03083013 27.70397193 145.55078125 29.5546875 C145.83493896 30.5741748 146.11909668 31.59366211 146.41186523 32.64404297 C146.85767944 34.2433667 146.85767944 34.2433667 147.3125 35.875 C147.77281616 37.52653076 147.77281616 37.52653076 148.24243164 39.21142578 C150.27671077 46.48480825 152.36189417 53.74000381 154.57739258 60.96044922 C155.42288398 63.76439311 156 66.05017867 156 69 C156.66 69.33 157.32 69.66 158 70 C158.8183922 72.69706593 159.52416209 75.36085868 160.18359375 78.09765625 C162.84152935 88.64512462 165.94817193 99.03063599 169.13891602 109.42749023 C170.06866715 112.45759907 170.99275939 115.48939096 171.91601562 118.52148438 C174.53350389 127.09782334 177.1843642 135.65102281 180.06323242 144.14379883 C181.84957727 149.59035822 183.44143752 155.09578488 185.03710938 160.60058594 C185.62673787 162.63098441 186.2233641 164.65924324 186.8203125 166.6875 C188.71130906 173.16835152 190.46562901 179.57875655 191.52099609 186.25537109 C191.67906738 186.83109863 191.83713867 187.40682617 192 188 C192.66 188.33 193.32 188.66 194 189 C194.8183922 191.69706593 195.52416209 194.36085868 196.18359375 197.09765625 C198.84152935 207.64512462 201.94817193 218.03063599 205.13891602 228.42749023 C206.06866715 231.45759907 206.99275939 234.48939096 207.91601562 237.52148438 C210.53350389 246.09782334 213.1843642 254.65102281 216.06323242 263.14379883 C217.84957727 268.59035822 219.44143752 274.09578488 221.03710938 279.60058594 C221.62673787 281.63098441 222.2233641 283.65924324 222.8203125 285.6875 C224.71130906 292.16835152 226.46562901 298.57875655 227.52099609 305.25537109 C227.67906738 305.83109863 227.83713867 306.40682617 228 307 C228.66 307.33 229.32 307.66 230 308 C230.81973477 310.70098001 231.52688313 313.36862095 232.1875 316.109375 C234.83087556 326.59658232 237.91294671 336.92456931 241.08398438 347.26269531 C242.00299675 350.25977299 242.91597068 353.25864129 243.828125 356.2578125 C246.74750545 365.82984172 249.75231768 375.35935185 252.95458984 384.84033203 C254.3739652 389.13027968 255.62838198 393.45261627 256.8125 397.8125 C257.02841797 398.58658203 257.24433594 399.36066406 257.46679688 400.15820312 C259 405.7312748 259 405.7312748 259 408 C262.3 408 265.6 408 269 408 C269 273.36 269 138.72 269 0 C292.1 0 315.2 0 339 0 C339 150.48 339 300.96 339 456 C293.79 456 248.58 456 202 456 C199.69 447.75 197.38 439.5 195 431 C192.57743143 423.75815113 192.57743143 423.75815113 190.06640625 416.546875 C189.13021425 413.43309354 188.7450657 411.20844145 189 408 C188.34 407.67 187.68 407.34 187 407 C186.28082275 404.72201538 186.28082275 404.72201538 185.61035156 401.72802734 C184.06721964 395.18305702 182.19964269 388.78067363 180.234375 382.3515625 C179.87788879 381.17774017 179.52140259 380.00391785 179.15411377 378.79452515 C178.40248104 376.32173832 177.64942848 373.84938266 176.89501953 371.37744141 C175.76391521 367.67060273 174.63742812 363.96238639 173.51171875 360.25390625 C172.77384545 357.82800088 172.03556761 355.40221852 171.296875 352.9765625 C170.93630005 351.79233704 170.5757251 350.60811157 170.20422363 349.38800049 C168.47657298 343.73856141 166.72083763 338.10115295 164.89257812 332.48339844 C164.56477356 331.47344818 164.23696899 330.46349792 163.89923096 329.42294312 C163.28744763 327.54802713 162.66933988 325.67515787 162.04364014 323.80484009 C159.58537312 316.2789933 159.58537312 316.2789933 160 312 C159.34 311.67 158.68 311.34 158 311 C157.28082275 308.72201538 157.28082275 308.72201538 156.61035156 305.72802734 C155.06721964 299.18305702 153.19964269 292.78067363 151.234375 286.3515625 C150.87788879 285.17774017 150.52140259 284.00391785 150.15411377 282.79452515 C149.40248104 280.32173832 148.64942848 277.84938266 147.89501953 275.37744141 C146.76391521 271.67060273 145.63742812 267.96238639 144.51171875 264.25390625 C143.77384545 261.82800088 143.03556761 259.40221852 142.296875 256.9765625 C141.93630005 255.79233704 141.5757251 254.60811157 141.20422363 253.38800049 C139.47657298 247.73856141 137.72083763 242.10115295 135.89257812 236.48339844 C135.56477356 235.47344818 135.23696899 234.46349792 134.89923096 233.42294312 C134.28744763 231.54802713 133.66933988 229.67515787 133.04364014 227.80484009 C130.58537312 220.2789933 130.58537312 220.2789933 131 216 C130.34 215.67 129.68 215.34 129 215 C128.28082275 212.72201538 128.28082275 212.72201538 127.61035156 209.72802734 C126.06721964 203.18305702 124.19964269 196.78067363 122.234375 190.3515625 C121.87788879 189.17774017 121.52140259 188.00391785 121.15411377 186.79452515 C120.40248104 184.32173832 119.64942848 181.84938266 118.89501953 179.37744141 C117.76391521 175.67060273 116.63742812 171.96238639 115.51171875 168.25390625 C114.77384545 165.82800088 114.03556761 163.40221852 113.296875 160.9765625 C112.93630005 159.79233704 112.5757251 158.60811157 112.20422363 157.38800049 C110.47657298 151.73856141 108.72083763 146.10115295 106.89257812 140.48339844 C106.56477356 139.47344818 106.23696899 138.46349792 105.89923096 137.42294312 C105.28744763 135.54802713 104.66933988 133.67515787 104.04364014 131.80484009 C101.58537312 124.2789933 101.58537312 124.2789933 102 120 C101.34 119.67 100.68 119.34 100 119 C99.39453125 117.09033203 99.39453125 117.09033203 98.8125 114.3828125 C97.35973846 108.21587626 95.60018444 102.1762511 93.75 96.1171875 C93.44908447 95.1309137 93.14816895 94.14463989 92.83813477 93.128479 C91.89439466 90.04327466 90.94732005 86.95910677 90 83.875 C89.36429773 81.79826449 88.72887896 79.72144217 88.09375 77.64453125 C87.19601483 74.70890097 86.29792565 71.77338677 85.39746094 68.83859253 C84.8604798 67.08798363 84.3249451 65.33693024 83.79101562 63.58538818 C83.24345355 61.79571364 82.68964809 60.00794182 82.13085938 58.22174072 C81.85564453 57.33146179 81.58042969 56.44118286 81.296875 55.52392578 C80.92320801 54.3276506 80.92320801 54.3276506 80.54199219 53.10720825 C80 51 80 51 80 48 C76.7 48 73.4 48 70 48 C70 182.64 70 317.28 70 456 C46.9 456 23.8 456 0 456 C0 305.52 0 155.04 0 0 Z " fill="#030305" transform="translate(530,0)"/>
<path d="M0 0 C10.49976383 -0.44173184 20.99729627 -0.7785229 31.50448322 -0.98443127 C36.38500473 -1.08331117 41.25914204 -1.21713181 46.13598633 -1.43334961 C77.79156339 -2.80198246 77.79156339 -2.80198246 84.84466553 1.89398193 C88.89684272 6.33264079 91.04230868 11.23541101 92.42472839 17.0476532 C92.89337198 19.21231649 92.89337198 19.21231649 95 21 C96.33358962 23.53040082 97.55041822 26.10575529 98.78125 28.6875 C99.91172409 31.10896902 99.91172409 31.10896902 102 33 C102.33 33.99 102.66 34.98 103 36 C103.99 35.01 103.99 35.01 105 34 C105.99 36.97 105.99 36.97 107 40 C106.67 40.33 106.34 40.66 106 41 C106.66 41.66 107.32 42.32 108 43 C108 43.99 108 44.98 108 46 C108.99 45.67 109.98 45.34 111 45 C112 48 112 48 111 51 C111.99 50.67 112.98 50.34 114 50 C114 51.32 114 52.64 114 54 C115.98 54.66 117.96 55.32 120 56 C120 57.98 120 59.96 120 62 C119.67 61.34 119.34 60.68 119 60 C119 63.39124746 119.71969391 64.65853816 121.375 67.5625 C121.81585937 68.34753906 122.25671875 69.13257812 122.7109375 69.94140625 C123.9639375 72.11329009 123.9639375 72.11329009 126 74 C126.33 74.99 126.66 75.98 127 77 C127.66 76.34 128.32 75.68 129 75 C129.66 76.98 130.32 78.96 131 81 C130.67 81.33 130.34 81.66 130 82 C130.66 82.66 131.32 83.32 132 84 C132 84.99 132 85.98 132 87 C132.99 86.67 133.98 86.34 135 86 C136 89 136 89 135 92 C135.99 91.67 136.98 91.34 138 91 C138 92.32 138 93.64 138 95 C140.97 95.99 140.97 95.99 144 97 C144 98.98 144 100.96 144 103 C143.67 102.34 143.34 101.68 143 101 C142.67 101.99 142.34 102.98 142 104 C142.66 104.33 143.32 104.66 144 105 C144.33 105.99 144.66 106.98 145 108 C147.97 108.495 147.97 108.495 151 109 C151 109.99 151 110.98 151 112 C150.01 112 149.02 112 148 112 C148.33 113.32 148.66 114.64 149 116 C149.99 115.67 150.98 115.34 152 115 C152.12375 115.9075 152.2475 116.815 152.375 117.75 C153.47020554 123.4450688 155.79202759 126.01349982 160 130 C159.67 130.99 159.34 131.98 159 133 C159.99 132.67 160.98 132.34 162 132 C162 133.32 162 134.64 162 136 C164.97 136.99 164.97 136.99 168 138 C168 139.98 168 141.96 168 144 C167.67 143.34 167.34 142.68 167 142 C166.67 142.99 166.34 143.98 166 145 C166.66 145.33 167.32 145.66 168 146 C168.33 146.99 168.66 147.98 169 149 C170.98 149.33 172.96 149.66 175 150 C175 150.99 175 151.98 175 153 C174.01 153 173.02 153 172 153 C172.33 154.32 172.66 155.64 173 157 C173.99 156.67 174.98 156.34 176 156 C176.12375 156.9075 176.2475 157.815 176.375 158.75 C177.11082904 162.63586729 177.11082904 162.63586729 179 166 C181.53770003 167.28254644 181.53770003 167.28254644 184 168 C184 168.66 184 169.32 184 170 C183.34 170 182.68 170 182 170 C182.66 171.98 183.32 173.96 184 176 C187.73301363 176.61567448 190.49647216 176.48899933 194 175 C198.69909649 169.89060926 201.51895724 163.03368809 204.53515625 156.85546875 C206.52174815 152.98293893 208.89834082 149.41832191 211.28125 145.78125 C213.03793636 143.03165816 213.03793636 143.03165816 214.4375 140.125 C216.60743579 135.78512842 219.1519992 131.70217952 221.68359375 127.56640625 C223.43368884 124.68493656 225.08095506 121.83749169 226.5859375 118.81640625 C228.31496343 115.37268333 230.45580944 112.37137041 232.6953125 109.24609375 C234.13852985 107.03986207 234.13852985 107.03986207 234.5234375 104.3828125 C235.21920385 100.90398073 237.50868963 99.42902761 240 97 C240.6425235 94.93125966 240.6425235 94.93125966 241 93 C241.495 92.525625 241.99 92.05125 242.5 91.5625 C244.22122165 90.06749003 244.22122165 90.06749003 244.375 87.625 C245.233033 84.02126139 247.38742225 82.5472633 250 80 C250.71447643 77.89667109 250.71447643 77.89667109 251 76 C251.66 75.34 252.32 74.68 253 74 C253 73.34 253 72.68 253 72 C253.84884766 71.17628906 253.84884766 71.17628906 254.71484375 70.3359375 C257.59897338 67.3877161 259.49268261 64.17126385 261.5625 60.625 C261.94857422 59.97789063 262.33464844 59.33078125 262.73242188 58.6640625 C264.989993 54.84888268 267.04527035 50.98124316 269 47 C269.84305111 45.43147465 270.6963171 43.86837086 271.5625 42.3125 C271.97628906 41.56613281 272.39007812 40.81976563 272.81640625 40.05078125 C273.81120455 38.32712082 274.89607289 36.65589066 276 35 C276.33 34.01 276.66 33.02 277 32 C277.66 32 278.32 32 279 32 C279.268125 31.113125 279.53625 30.22625 279.8125 29.3125 C281.36234469 24.98924902 283.56089032 21.62729954 286.1875 17.875 C288.26665046 15.14347787 288.26665046 15.14347787 288 12 C289.66666667 10.33333333 291.33333333 8.66666667 293 7 C294.32 4.69 295.64 2.38 297 0 C324.06 0 351.12 0 379 0 C377.41379277 3.96551807 375.78855413 7.23758366 373.625 10.875 C371.63581681 14.23432597 369.65350449 17.59139893 367.75 21 C366.29690319 23.4910231 364.79852899 25.75183876 363 28 C363.33 28.66 363.66 29.32 364 30 C363.01 30.33 362.02 30.66 361 31 C360.67 36.61 360.34 42.22 360 48 C358.02 48 356.04 48 354 48 C354 47.01 354 46.02 354 45 C351.65941363 47.12780579 350.29299694 49.11562221 349 52 C350.485 51.505 350.485 51.505 352 51 C352 55.29 352 59.58 352 64 C349.36 64 346.72 64 344 64 C343.67 64.66 343.34 65.32 343 66 C343 65.34 343 64.68 343 64 C342.01 64 341.02 64 340 64 C339.34 65.98 338.68 67.96 338 70 C339.485 69.505 339.485 69.505 341 69 C341 73.95 341 78.9 341 84 C338.03 84 335.06 84 332 84 C332 83.01 332 82.02 332 81 C329.65941363 83.12780579 328.29299694 85.11562221 327 88 C328.485 87.505 328.485 87.505 330 87 C330 89.97 330 92.94 330 96 C329.34 96 328.68 96 328 96 C328 97.32 328 98.64 328 100 C325.03 100 322.06 100 319 100 C317.515 102.97 317.515 102.97 316 106 C317.485 105.505 317.485 105.505 319 105 C319 107.31 319 109.62 319 112 C316.69 112 314.38 112 312 112 C312 114.64 312 117.28 312 120 C310.02 120 308.04 120 306 120 C304.74335022 122.90600261 304 124.79604584 304 128 C304 130.66666667 304 133.33333333 304 136 C302.68 136 301.36 136 300 136 C299.67 136.66 299.34 137.32 299 138 C299 137.34 299 136.68 299 136 C298.01 136 297.02 136 296 136 C296.185625 137.155 296.37125 138.31 296.5625 139.5 C297.1235724 143.86389648 296.69632186 147.66733065 296 152 C292.7 152 289.4 152 286 152 C286 152.99 286 153.98 286 155 C289.3 155.33 292.6 155.66 296 156 C296 157.32 296 158.64 296 160 C294.65808594 159.82984375 294.65808594 159.82984375 293.2890625 159.65625 C289.06634525 159.47617677 286.02897734 159.66119133 282 161 C277.40563741 165.32613099 274.77567287 171.42491863 272 177 C271.07068039 178.69201878 270.13516487 180.38068735 269.1875 182.0625 C268.82527344 182.75214844 268.46304687 183.44179687 268.08984375 184.15234375 C266.97775711 186.03770927 265.69681843 187.48964432 264.25 189.125 C260.33840768 194.2627968 261.08780127 201.79803788 261 208 C259.68 208 258.36 208 257 208 C257 208.66 257 209.32 257 210 C255.02 210 253.04 210 251 210 C249.50859979 213.62197194 248.2125738 217.27566618 247 221 C246.34 221 245.68 221 245 221 C245 221.99 245 222.98 245 224 C243.5 225.6875 243.5 225.6875 242 227 C243.98 227.33 245.96 227.66 248 228 C248.04898437 228.66386719 248.09796875 229.32773438 248.1484375 230.01171875 C248.52051593 236.81375886 248.52051593 236.81375886 251 243 C253.54775306 243.89386164 253.54775306 243.89386164 256 244 C256 244.66 256 245.32 256 246 C255.67 246.33 255.34 246.66 255 247 C255.45375 247.391875 255.9075 247.78375 256.375 248.1875 C258.28044315 250.31280198 258.94571829 252.36429572 260 255 C262.06619192 257.6296988 263.72085432 258.43463006 267 259 C267 259.99 267 260.98 267 262 C266.01 262 265.02 262 264 262 C264.33 263.32 264.66 264.64 265 266 C266.65 266.33 268.3 266.66 270 267 C270 267.66 270 268.32 270 269 C269.67 269.33 269.34 269.66 269 270 C271.20961747 272.54106009 272.73988358 273.30621489 276 274 C276.04898437 274.66386719 276.09796875 275.32773437 276.1484375 276.01171875 C276.52051593 282.81375886 276.52051593 282.81375886 279 289 C281.54775306 289.89386164 281.54775306 289.89386164 284 290 C284 290.66 284 291.32 284 292 C283.67 292.33 283.34 292.66 283 293 C283.61875 293.515625 284.2375 294.03125 284.875 294.5625 C287.49367724 297.56627683 288.09123658 300.15523167 289 304 C289.33 304.99 289.66 305.98 290 307 C291.65 307.33 293.3 307.66 295 308 C295 308.66 295 309.32 295 310 C294.67 310.33 294.34 310.66 294 311 C294.45375 311.391875 294.9075 311.78375 295.375 312.1875 C297.28044315 314.31280198 297.94571829 316.36429572 299 319 C301.06619192 321.6296988 302.72085432 322.43463006 306 323 C306 323.99 306 324.98 306 326 C305.01 326 304.02 326 303 326 C303.33 327.32 303.66 328.64 304 330 C305.65 330.33 307.3 330.66 309 331 C309 331.66 309 332.32 309 333 C308.67 333.33 308.34 333.66 308 334 C310.20961747 336.54106009 311.73988358 337.30621489 315 338 C315.04898437 338.66386719 315.09796875 339.32773437 315.1484375 340.01171875 C315.52051593 346.81375886 315.52051593 346.81375886 318 353 C320.54775306 353.89386164 320.54775306 353.89386164 323 354 C323 354.66 323 355.32 323 356 C322.67 356.33 322.34 356.66 322 357 C324.05233685 359.2477975 325.00667261 360.0022242 328 361 C328 363.31 328 365.62 328 368 C329.98 368.33 331.96 368.66 334 369 C334 369.99 334 370.98 334 372 C333.01 372 332.02 372 331 372 C331.33 373.32 331.66 374.64 332 376 C333.65 376.33 335.3 376.66 337 377 C337 377.66 337 378.32 337 379 C336.67 379.33 336.34 379.66 336 380 C338.20961747 382.54106009 339.73988358 383.30621489 343 384 C343.04898437 384.66386719 343.09796875 385.32773437 343.1484375 386.01171875 C343.52051593 392.81375886 343.52051593 392.81375886 346 399 C348.54775306 399.89386164 348.54775306 399.89386164 351 400 C351 400.66 351 401.32 351 402 C350.67 402.33 350.34 402.66 350 403 C350.61875 403.515625 351.2375 404.03125 351.875 404.5625 C354.49466434 407.5674091 354.94646029 410.18091855 356 414 C357.29788956 416.02318078 358.62464661 418.02866014 360 420 C360 420.66 360 421.32 360 422 C361.65 422.33 363.3 422.66 365 423 C365 424.32 365 425.64 365 427 C365.51603346 429.19907702 365.51603346 429.19907702 367 431 C370.04199472 432.29231642 370.04199472 432.29231642 373 433 C373 433.99 373 434.98 373 436 C372.01 436 371.02 436 370 436 C370.33 437.32 370.66 438.64 371 440 C372.65 440.33 374.3 440.66 376 441 C376 441.66 376 442.32 376 443 C375.67 443.33 375.34 443.66 375 444 C377.17424117 446.50037734 378.73045798 447.43628586 382 448 C382.04241723 450.33294775 382.04092937 452.66702567 382 455 C380.24560837 456.75439163 377.94502544 456.11982963 375.60829163 456.12442017 C374.8357756 456.12082489 374.06325958 456.11722961 373.26733398 456.11352539 C372.05279541 456.11374443 372.05279541 456.11374443 370.8137207 456.1139679 C368.12448492 456.11326854 365.43531751 456.1054751 362.74609375 456.09765625 C360.88664284 456.09579215 359.02719144 456.09436821 357.16773987 456.09336853 C352.26370904 456.08954271 347.35970764 456.07971188 342.45568848 456.06866455 C337.45548908 456.05845181 332.45528494 456.05387121 327.45507812 456.04882812 C317.63670579 456.03808967 307.81835534 456.02101248 298 456 C297.46890625 455.01257813 296.9378125 454.02515625 296.390625 453.0078125 C295.67766243 451.71322257 294.96408864 450.41896913 294.25 449.125 C293.90195313 448.47402344 293.55390625 447.82304687 293.1953125 447.15234375 C291.17548286 443.52413125 289.78731086 441.64873957 286 440 C285.48560044 438.08081451 284.98304396 436.15638776 284.58154297 434.21044922 C283.59228628 430.45027708 281.59603096 427.34440215 279.5625 424.0625 C279.16740234 423.39154297 278.77230469 422.72058594 278.36523438 422.02929688 C276.03272584 418.02815528 276.03272584 418.02815528 272 416 C271.59013011 414.15558551 271.18409358 412.31024004 270.796875 410.4609375 C269.47617959 406.38231933 267.0385431 403.0486868 264.65625 399.515625 C263 397 263 397 261.96875 394.734375 C261.05709568 392.64456888 261.05709568 392.64456888 258 392 C257.61673288 390.22303424 257.23436604 388.4458714 256.85546875 386.66796875 C255.70530191 383.08091874 253.96811244 379.89136529 252.125 376.625 C251.78509033 376.0060083 251.44518066 375.3870166 251.0949707 374.74926758 C249.13897582 371.22810983 249.13897582 371.22810983 245.8671875 369.0859375 C244 368 244 368 243.02734375 364.37109375 C242.88022949 363.65808105 242.73311523 362.94506836 242.58154297 362.21044922 C241.59228628 358.45027708 239.59603096 355.34440215 237.5625 352.0625 C237.16740234 351.39154297 236.77230469 350.72058594 236.36523438 350.02929688 C234.03272584 346.02815528 234.03272584 346.02815528 230 344 C229.59013011 342.15558551 229.18409358 340.31024004 228.796875 338.4609375 C227.47617959 334.38231933 225.0385431 331.0486868 222.65625 327.515625 C221 325 221 325 219.96875 322.734375 C219.05709568 320.64456888 219.05709568 320.64456888 216 320 C215.58795755 318.14580897 215.17855577 316.29099825 214.78125 314.43359375 C213.51103197 310.47686457 211.15090552 307.28885828 208.859375 303.8515625 C207.09427362 301.14457929 205.52612455 298.40962482 204 295.5625 C203.51015625 294.66917969 203.0203125 293.77585937 202.515625 292.85546875 C201.43561774 290.82071281 200.40980827 288.75679909 199.421875 286.67578125 C196.61749932 280.58995529 196.61749932 280.58995529 191.33203125 277.0234375 C188.81161903 276.77459567 186.51558142 276.73680033 184 277 C183.5978125 278.6396875 183.5978125 278.6396875 183.1875 280.3125 C182.12336261 283.61692663 181.65345336 284.94960422 179 287 C180.65 287.33 182.3 287.66 184 288 C184 288.66 184 289.32 184 290 C181.69 290.33 179.38 290.66 177 291 C176.34 292.65 175.68 294.3 175 296 C174.34 296 173.68 296 173 296 C172.71125 296.763125 172.4225 297.52625 172.125 298.3125 C171 301 171 301 169 304 C168.54860541 306.0492094 168.54860541 306.0492094 168.375 308.1875 C168.189375 310.0746875 168.189375 310.0746875 168 312 C167.401875 312.04125 166.80375 312.0825 166.1875 312.125 C163.70640335 312.87048515 163.70640335 312.87048515 162.25 315.75 C161.0655146 318.82966204 160.71366714 320.75489427 161 324 C160.401875 324.04125 159.80375 324.0825 159.1875 324.125 C156.64899168 324.87739901 156.64899168 324.87739901 155.25 328.0625 C154.8375 329.031875 154.425 330.00125 154 331 C154.66 331 155.32 331 156 331 C155.67 332.65 155.34 334.3 155 336 C153.8553125 336.061875 153.8553125 336.061875 152.6875 336.125 C149.73504404 336.76498433 149.73504404 336.76498433 148.3125 339.75 C147.52723666 341.6944616 146.76781029 343.65013118 146.0625 345.625 C144.82437241 348.39257932 143.12773897 349.87226103 141 352 C140.63837971 353.32594105 140.30271961 354.65938457 140 356 C139.30003906 356.69029297 139.30003906 356.69029297 138.5859375 357.39453125 C136.91824681 359.08276 136.15657015 360.47446077 135.1875 362.625 C133.25595176 366.68274862 130.86889932 370.26301767 128.26953125 373.921875 C127.00568067 375.99070118 126.5352385 377.66080953 126 380 C124.4375 381.75 124.4375 381.75 123 383 C124.65 383.33 126.3 383.66 128 384 C128 384.66 128 385.32 128 386 C125.69 386.33 123.38 386.66 121 387 C120.34 388.65 119.68 390.3 119 392 C118.34 392 117.68 392 117 392 C116.71125 392.763125 116.4225 393.52625 116.125 394.3125 C115 397 115 397 113 400 C112.54860541 402.0492094 112.54860541 402.0492094 112.375 404.1875 C112.189375 406.0746875 112.189375 406.0746875 112 408 C111.1028125 408.061875 111.1028125 408.061875 110.1875 408.125 C106.85955597 409.45617761 106.37948336 411.80210675 105 415 C104.33333333 416.33333333 103.66666667 417.66666667 103 419 C102.34 419 101.68 419 101 419 C101 420.32 101 421.64 101 423 C99.5 424.625 99.5 424.625 98 426 C98 426.66 98 427.32 98 428 C97.34 428 96.68 428 96 428 C95.71125 428.763125 95.4225 429.52625 95.125 430.3125 C94 433 94 433 92 436 C91.54860541 438.0492094 91.54860541 438.0492094 91.375 440.1875 C91.189375 442.0746875 91.189375 442.0746875 91 444 C90.1028125 444.061875 90.1028125 444.061875 89.1875 444.125 C86.70640335 444.87048515 86.70640335 444.87048515 85.25 447.75 C83.70085077 451.19743849 83.70085077 451.19743849 84 456 C55.62 456 27.24 456 -2 456 C-2 455.01 -2 454.02 -2 453 C-1.34 452.67 -0.68 452.34 0 452 C-0.66 451.34 -1.32 450.68 -2 450 C-0.68 450 0.64 450 2 450 C2.41958984 448.92105469 2.41958984 448.92105469 2.84765625 447.8203125 C3.95298987 445.11505529 5.15007318 442.49798176 6.4375 439.875 C7.05431641 438.60269531 7.05431641 438.60269531 7.68359375 437.3046875 C8.94811459 435.09083795 10.19730458 433.76609246 12 432 C13.10692664 430.36250269 14.1672498 428.69285958 15.1875 427 C15.71730469 426.13375 16.24710938 425.2675 16.79296875 424.375 C18.22653448 421.9982827 18.22653448 421.9982827 18 419 C19.31200404 417.64567325 20.64631404 416.31266518 22 415 C22.33 414.01 22.66 413.02 23 412 C23.66 412 24.32 412 25 412 C25.27183105 411.26934326 25.54366211 410.53868652 25.82373047 409.78588867 C26.95345308 407.1102422 28.23988584 404.85643089 29.8203125 402.42578125 C30.35527344 401.59369141 30.89023438 400.76160156 31.44140625 399.90429688 C32.57147382 398.16462209 33.70168406 396.42503998 34.83203125 394.68554688 C35.36441406 393.85732422 35.89679688 393.02910156 36.4453125 392.17578125 C36.93531738 391.42208252 37.42532227 390.66838379 37.93017578 389.8918457 C39.16407954 388.07207746 39.16407954 388.07207746 39 386 C39.66 386 40.32 386 41 386 C41 384.35 41 382.7 41 381 C41.99 381 42.98 381 44 381 C45.07525194 378.34771188 46.09456151 375.71631546 47 373 C47.66 373 48.32 373 49 373 C49.4021875 371.3603125 49.4021875 371.3603125 49.8125 369.6875 C50.95236989 366.14790402 51.4399439 365.3467181 54 363 C55.19027984 360.40084462 55.19027984 360.40084462 56 358 C56.66 358 57.32 358 58 358 C59.07525194 355.34771188 60.09456151 352.71631546 61 350 C61.66 350 62.32 350 63 350 C63.20625 349.195625 63.4125 348.39125 63.625 347.5625 C65.43149621 342.88203253 68.15465084 339.1048904 71 335 C73.52790584 331.30163489 73.52790584 331.30163489 74 327 C75.31200404 325.64567325 76.64631404 324.31266518 78 323 C78.33 322.01 78.66 321.02 79 320 C80 319 81 318 82 317 C84.50709011 313.32882462 84.50709011 313.32882462 85 309 C86.31200404 307.64567325 87.64631404 306.31266518 89 305 C89.33 304.01 89.66 303.02 90 302 C91 301 92 300 93 299 C93.33 298.01 93.66 297.02 94 296 C94.61875 295.236875 95.2375 294.47375 95.875 293.6875 C98.08139131 290.89706394 99.43670088 288.1891302 101 285 C101.74562644 283.75922036 102.50740777 282.52806851 103.28125 281.3046875 C103.72460693 280.60142334 104.16796387 279.89815918 104.62475586 279.17358398 C105.30550171 278.09765991 105.30550171 278.09765991 106 277 C107.26738592 274.9844187 108.53324672 272.96788661 109.79882812 270.95117188 C110.64413872 269.60416226 111.49050044 268.25781171 112.33789062 266.91210938 C114.37044127 263.66948207 116.33615966 260.41846042 118.18359375 257.06640625 C120 254 120 254 122 253 C122 251.35 122 249.7 122 248 C122.99 248 123.98 248 125 248 C126.07525194 245.34771188 127.09456151 242.71631546 128 240 C128.66 240 129.32 240 130 240 C130.268125 238.906875 130.53625 237.81375 130.8125 236.6875 C131.97504507 233.07749162 132.52491237 232.47508763 135 230 C136.18200271 226.19872368 136.2538264 224.52758681 134.5078125 220.8984375 C133.72967103 219.71321038 132.93382557 218.53950362 132.125 217.375 C131.20346695 215.98543011 130.28582308 214.59327681 129.37109375 213.19921875 C128.84628418 212.40306152 128.32147461 211.6069043 127.78076172 210.78662109 C125.68701293 207.51022287 123.70049454 204.17920864 121.72265625 200.83203125 C120.96802046 199.56131063 120.21329987 198.29064037 119.45849609 197.02001953 C118.32466587 195.11029241 117.19419879 193.1989687 116.07403564 191.28118896 C115.01195263 189.4659807 113.93526507 187.66018055 112.85546875 185.85546875 C112.23309326 184.79996826 111.61071777 183.74446777 110.96948242 182.65698242 C108.89101881 179.85297603 107.0939086 178.55314011 104 177 C104.33 176.01 104.66 175.02 105 174 C104.26372844 172.06381613 104.26372844 172.06381613 103.015625 170.09375 C102.57476563 169.34996094 102.13390625 168.60617188 101.6796875 167.83984375 C100.97199219 166.68162109 100.97199219 166.68162109 100.25 165.5 C99.79367187 164.72785156 99.33734375 163.95570313 98.8671875 163.16015625 C96.51925925 159.09141078 96.51925925 159.09141078 93.46777344 155.56835938 C91.59280715 153.56490238 90.98785247 151.55501551 90 149 C88.84148197 147.01195136 87.64196799 145.04751973 86.4140625 143.1015625 C83.43747205 138.34642271 80.54227519 133.55389196 77.7109375 128.7109375 C76.62984529 126.88007623 75.54668222 125.05045586 74.46289062 123.22119141 C73.72887016 121.975531 73.00013913 120.72674061 72.27636719 119.47509766 C71.20640888 117.62815717 70.11705703 115.79394091 69.0234375 113.9609375 C68.39356934 112.88634277 67.76370117 111.81174805 67.11474609 110.70458984 C64.70143914 107.61816472 62.52778949 106.59091569 59 105 C58.125 102.8125 58.125 102.8125 58 101 C58.99 101.33 59.98 101.66 61 102 C52.26101029 87.11243658 52.26101029 87.11243658 43.375 72.3125 C42.78460937 71.33925781 42.19421875 70.36601563 41.5859375 69.36328125 C40.13852659 67.02420278 40.13852659 67.02420278 38.4140625 65.48046875 C37 64 37 64 36.13671875 61.77929688 C34.8472217 58.62645444 33.21143745 55.93456302 31.3984375 53.05078125 C30.67628893 51.89433563 29.95462477 50.73758741 29.23339844 49.58056641 C28.67815491 48.69283539 28.67815491 48.69283539 28.11169434 47.78717041 C26.3336908 44.92883498 24.59370676 42.04831942 22.8515625 39.16796875 C22.1536155 38.01543133 21.45561704 36.86292506 20.75756836 35.71044922 C19.67654285 33.92470002 18.59558843 32.13890782 17.51467896 30.35308838 C12.65649647 22.33043323 7.77286331 14.32650358 2.69189453 6.44213867 C0 2.21346696 0 2.21346696 0 0 Z M349 54 C348.34 54.66 347.68 55.32 347 56 C347.99 56 348.98 56 350 56 C349.67 55.34 349.34 54.68 349 54 Z M338 72 C337.34 72.66 336.68 73.32 336 74 C336.99 74 337.98 74 339 74 C338.67 73.34 338.34 72.68 338 72 Z M327 90 C326.34 90.66 325.68 91.32 325 92 C325.99 92 326.98 92 328 92 C327.67 91.34 327.34 90.68 327 90 Z M316 108 C315.34 108.66 314.68 109.32 314 110 C314.99 110 315.98 110 317 110 C316.67 109.34 316.34 108.68 316 108 Z M293 141 C293 141.66 293 142.32 293 143 C293.99 142.67 294.98 142.34 296 142 C295.01 141.67 294.02 141.34 293 141 Z M294 144 C293.34 144.66 292.68 145.32 292 146 C292.99 146 293.98 146 295 146 C294.67 145.34 294.34 144.68 294 144 Z M153 332 C154 334 154 334 154 334 Z " fill="#050506" transform="translate(1176,0)"/>
<path d="M0 0 C24.42 0 48.84 0 74 0 C77 10 77 10 77 13 C77.99 13.495 77.99 13.495 79 14 C79 15.98 79 17.96 79 20 C79.66 20.33 80.32 20.66 81 21 C81.23897716 22.84353808 81.46809365 24.68886823 81.6484375 26.5390625 C82.18470364 30.29292546 83.29573194 33.85651847 84.37890625 37.484375 C85 40 85 40 85 44 C85.66 44.33 86.32 44.66 87 45 C87.68603516 46.9777832 87.68603516 46.9777832 88.2890625 49.55078125 C88.50820312 50.47697266 88.72734375 51.40316406 88.953125 52.35742188 C89.17484375 53.33259766 89.3965625 54.30777344 89.625 55.3125 C89.85445312 56.27607422 90.08390625 57.23964844 90.3203125 58.23242188 C91.26925188 62.30777761 92 65.78957213 92 70 C92.66 70.33 93.32 70.66 94 71 C94.62255859 72.80322266 94.62255859 72.80322266 95.1484375 75.1640625 C95.34735596 76.03232666 95.54627441 76.90059082 95.7512207 77.79516602 C95.95706787 78.72901123 96.16291504 79.66285645 96.375 80.625 C96.81199805 82.54338059 97.25081379 84.46134799 97.69140625 86.37890625 C97.90941895 87.33039551 98.12743164 88.28188477 98.35205078 89.26220703 C99.52904214 94.23537247 100.91367893 99.14849803 102.30078125 104.06640625 C103 107 103 107 103 111 C103.66 111.33 104.32 111.66 105 112 C105.68603516 113.9777832 105.68603516 113.9777832 106.2890625 116.55078125 C106.50820312 117.47697266 106.72734375 118.40316406 106.953125 119.35742188 C107.17484375 120.33259766 107.3965625 121.30777344 107.625 122.3125 C107.85445312 123.27607422 108.08390625 124.23964844 108.3203125 125.23242188 C109.26925188 129.30777761 110 132.78957213 110 137 C110.66 137.33 111.32 137.66 112 138 C112.67016602 139.9777832 112.67016602 139.9777832 113.25390625 142.55078125 C113.46853516 143.47697266 113.68316406 144.40316406 113.90429688 145.35742188 C114.12150391 146.33259766 114.33871094 147.30777344 114.5625 148.3125 C114.78357422 149.27607422 115.00464844 150.23964844 115.23242188 151.23242188 C115.64523203 153.0320746 116.0545267 154.83253977 116.45922852 156.6340332 C116.80711377 158.15609007 117.17580206 159.67361927 117.57006836 161.18432617 C118 163 118 163 118 165 C118.66 165.33 119.32 165.66 120 166 C120.27061827 167.86050062 120.52954449 169.72361507 120.72265625 171.59375 C121.02690627 174.23344033 121.45326428 176.82487935 121.9375 179.4375 C122.09089844 180.28183594 122.24429688 181.12617188 122.40234375 181.99609375 C122.59957031 182.65738281 122.79679687 183.31867188 123 184 C123.66 184.33 124.32 184.66 125 185 C125 186.98 125 188.96 125 191 C125.66 191.33 126.32 191.66 127 192 C127.23897716 193.84353808 127.46809365 195.68886823 127.6484375 197.5390625 C128.18470364 201.29292546 129.29573194 204.85651847 130.37890625 208.484375 C131 211 131 211 131 215 C131.66 215.33 132.32 215.66 133 216 C133.62255859 217.80322266 133.62255859 217.80322266 134.1484375 220.1640625 C134.44681519 221.46645874 134.44681519 221.46645874 134.7512207 222.79516602 C134.95706787 223.72901123 135.16291504 224.66285645 135.375 225.625 C135.81199805 227.54338059 136.25081379 229.46134799 136.69140625 231.37890625 C136.90941895 232.33039551 137.12743164 233.28188477 137.35205078 234.26220703 C138.52904214 239.23537247 139.91367893 244.14849803 141.30078125 249.06640625 C142 252 142 252 142 256 C142.66 256.33 143.32 256.66 144 257 C144.68603516 258.9777832 144.68603516 258.9777832 145.2890625 261.55078125 C145.61777344 262.94006836 145.61777344 262.94006836 145.953125 264.35742188 C146.17484375 265.33259766 146.3965625 266.30777344 146.625 267.3125 C146.85445312 268.27607422 147.08390625 269.23964844 147.3203125 270.23242188 C148.26925188 274.30777761 149 277.78957213 149 282 C149.66 282.33 150.32 282.66 151 283 C151.68603516 284.9777832 151.68603516 284.9777832 152.2890625 287.55078125 C152.61777344 288.94006836 152.61777344 288.94006836 152.953125 290.35742188 C153.17484375 291.33259766 153.3965625 292.30777344 153.625 293.3125 C153.85445312 294.27607422 154.08390625 295.23964844 154.3203125 296.23242188 C155.26925188 300.30777761 156 303.78957213 156 308 C156.66 308.33 157.32 308.66 158 309 C158.67016602 310.9777832 158.67016602 310.9777832 159.25390625 313.55078125 C159.46853516 314.47697266 159.68316406 315.40316406 159.90429688 316.35742188 C160.12150391 317.33259766 160.33871094 318.30777344 160.5625 319.3125 C160.78357422 320.27607422 161.00464844 321.23964844 161.23242188 322.23242188 C161.64523203 324.0320746 162.0545267 325.83253977 162.45922852 327.6340332 C162.80711377 329.15609007 163.17580206 330.67361927 163.57006836 332.18432617 C164 334 164 334 164 336 C164.66 336.33 165.32 336.66 166 337 C166.27061827 338.86050062 166.52954449 340.72361507 166.72265625 342.59375 C167.02690627 345.23344033 167.45326428 347.82487935 167.9375 350.4375 C168.09089844 351.28183594 168.24429688 352.12617188 168.40234375 352.99609375 C168.59957031 353.65738281 168.79679687 354.31867188 169 355 C169.66 355.33 170.32 355.66 171 356 C171 357.98 171 359.96 171 362 C171.66 362.33 172.32 362.66 173 363 C173.23897716 364.84353808 173.46809365 366.68886823 173.6484375 368.5390625 C174.18470364 372.29292546 175.29573194 375.85651847 176.37890625 379.484375 C177 382 177 382 177 386 C177.66 386.33 178.32 386.66 179 387 C179.68603516 388.99365234 179.68603516 388.99365234 180.2890625 391.5859375 C180.61777344 392.98199219 180.61777344 392.98199219 180.953125 394.40625 C181.17484375 395.3859375 181.3965625 396.365625 181.625 397.375 C181.85445312 398.34695313 182.08390625 399.31890625 182.3203125 400.3203125 C184 407.55896577 184 407.55896577 184 411 C186.64 411 189.28 411 192 411 C193.47007466 403.28352737 193.47007466 403.28352737 194.5 395.5 C195 392 195 392 197 389 C197.44703234 386.78415454 197.81463242 384.55158039 198.125 382.3125 C198.37636719 380.54326172 198.37636719 380.54326172 198.6328125 378.73828125 C198.75398438 377.83464844 198.87515625 376.93101562 199 376 C199.66 376 200.32 376 201 376 C201 374.35 201 372.7 201 371 C201.66 371 202.32 371 203 371 C203.144375 369.824375 203.28875 368.64875 203.4375 367.4375 C203.91410176 363.61787728 204.44453544 359.80889981 205 356 C205.66 356 206.32 356 207 356 C207.1546875 354.39125 207.1546875 354.39125 207.3125 352.75 C207.88867197 348.13250917 209.00962531 343.71724152 210.1796875 339.21875 C211.0181457 335.92879972 211.76434526 332.6268182 212.5 329.3125 C213.36107523 325.51470502 214.32583819 321.85794745 215.625 318.1875 C217.06237686 314.123712 217.61016723 310.28816048 218 306 C218.66 306 219.32 306 220 306 C220.99 298.08 220.99 298.08 222 290 C222.66 290 223.32 290 224 290 C225.32 283.4 226.64 276.8 228 270 C228.66 270 229.32 270 230 270 C230.185625 268.0509375 230.185625 268.0509375 230.375 266.0625 C230.82897651 261.90433836 231.61591426 257.91077823 232.59765625 253.84765625 C233.07092423 251.98945874 233.07092423 251.98945874 233 250 C233.66 250 234.32 250 235 250 C235.10957031 249.16597656 235.21914062 248.33195313 235.33203125 247.47265625 C236.18359445 241.4286345 237.23260393 235.87027263 239.3359375 230.14453125 C240.4703438 226.48106621 240.69738024 222.81300901 241 219 C241.66 219 242.32 219 243 219 C243.99 211.575 243.99 211.575 245 204 C245.66 204 246.32 204 247 204 C248.32 197.4 249.64 190.8 251 184 C251.66 184 252.32 184 253 184 C253.103125 182.9275 253.20625 181.855 253.3125 180.75 C253.88867197 176.13250917 255.00962531 171.71724152 256.1796875 167.21875 C257.0181457 163.92879972 257.76434526 160.6268182 258.5 157.3125 C259.36107523 153.51470502 260.32583819 149.85794745 261.625 146.1875 C263.06237686 142.123712 263.61016723 138.28816048 264 134 C264.66 134 265.32 134 266 134 C266.66 128.72 267.32 123.44 268 118 C268.66 118 269.32 118 270 118 C271.32 111.4 272.64 104.8 274 98 C274.66 98 275.32 98 276 98 C276.12375 96.700625 276.2475 95.40125 276.375 94.0625 C276.82897651 89.90433836 277.61591426 85.91077823 278.59765625 81.84765625 C279.07092423 79.98945874 279.07092423 79.98945874 279 78 C279.66 78 280.32 78 281 78 C281.10957031 77.16597656 281.21914062 76.33195312 281.33203125 75.47265625 C282.18560609 69.41435675 283.23034207 63.82065799 285.3359375 58.078125 C286.39802787 54.7544069 286.68479157 51.46729272 287 48 C287.66 48 288.32 48 289 48 C289.66 42.72 290.32 37.44 291 32 C291.66 32 292.32 32 293 32 C294.32 25.4 295.64 18.8 297 12 C297.66 12 298.32 12 299 12 C299.06058594 11.38511719 299.12117188 10.77023437 299.18359375 10.13671875 C299.26738281 9.32847656 299.35117188 8.52023437 299.4375 7.6875 C299.51871094 6.88699219 299.59992187 6.08648437 299.68359375 5.26171875 C300 3 300 3 301 0 C325.42 0 349.84 0 375 0 C374.3940185 4.24187048 373.81776006 8.10388444 372.80859375 12.20703125 C372.47504883 13.58084961 372.47504883 13.58084961 372.13476562 14.98242188 C371.90466797 15.91634766 371.67457031 16.85027344 371.4375 17.8125 C370.97583159 19.69351261 370.51609647 21.57500112 370.05859375 23.45703125 C369.85548584 24.28178955 369.65237793 25.10654785 369.44311523 25.95629883 C368.92936785 27.97723277 368.92936785 27.97723277 369 30 C368.45812401 32.39973653 367.77959573 34.66121282 367 37 C367 37.99 367 38.98 367 40 C366.34 40.33 365.68 40.66 365 41 C364.24789742 42.73633245 364.24789742 42.73633245 363.68725586 44.8737793 C363.45038559 45.6952092 363.21351532 46.5166391 362.96946716 47.36296082 C362.72044144 48.25767593 362.47141571 49.15239105 362.21484375 50.07421875 C361.82311729 51.4491021 361.82311729 51.4491021 361.42347717 52.85176086 C360.87095976 54.79684819 360.32227795 56.74302844 359.77709961 58.69018555 C358.94523647 61.65988133 358.10163294 64.62603646 357.25585938 67.59179688 C356.72065417 69.48157273 356.18612721 71.37154082 355.65234375 73.26171875 C355.40129379 74.14631271 355.15024384 75.03090668 354.8915863 75.94230652 C353.67922277 80.2850572 352.68168969 84.53649678 352 89 C351.65435767 90.37195816 351.28298919 91.7378537 350.87890625 93.09375 C350.66556641 93.81433594 350.45222656 94.53492187 350.23242188 95.27734375 C349.90081055 96.37755859 349.90081055 96.37755859 349.5625 97.5 C349.34529297 98.23347656 349.12808594 98.96695313 348.90429688 99.72265625 C347.9392341 102.96271685 346.94261174 106.16250537 345.81640625 109.3515625 C344.89595018 112.33753962 345.12810718 114.0355644 346 117 C345.34 117 344.68 117 344 117 C344 118.98 344 120.96 344 123 C343.34 123.33 342.68 123.66 342 124 C340.24016868 128.07539885 339.74207667 130.72306069 341 135 C340.34 135 339.68 135 339 135 C337.7726107 139.35571174 336.54583197 143.71159486 335.31958008 148.06762695 C334.90372574 149.5445604 334.48771445 151.02144966 334.0715332 152.49829102 C329.27463703 169.48530334 329.27463703 169.48530334 324.8125 186.5625 C324.63525391 187.25923828 324.45800781 187.95597656 324.27539062 188.67382812 C323.3284427 192.29243118 323.3284427 192.29243118 323 196 C322.42028588 198.99518961 321.76214261 200.35678608 320 203 C320.33 203.99 320.66 204.98 321 206 C320.34 206.33 319.68 206.66 319 207 C319 207.99 319 208.98 319 210 C318.34 210 317.68 210 317 210 C316.67 211.98 316.34 213.96 316 216 C316.66 216 317.32 216 318 216 C317.67 216.66 317.34 217.32 317 218 C315.84188612 220.94729537 315.84188612 220.94729537 316 224 C315.34 224.33 314.68 224.66 314 225 C313.24789742 226.73633245 313.24789742 226.73633245 312.68725586 228.8737793 C312.45038559 229.6952092 312.21351532 230.5166391 311.96946716 231.36296082 C311.72044144 232.25767593 311.47141571 233.15239105 311.21484375 234.07421875 C310.95369278 234.99080765 310.69254181 235.90739655 310.42347717 236.85176086 C309.87095976 238.79684819 309.32227795 240.74302844 308.77709961 242.69018555 C307.94523647 245.65988133 307.10163294 248.62603646 306.25585938 251.59179688 C305.72065417 253.48157273 305.18612721 255.37154082 304.65234375 257.26171875 C304.40129379 258.14631271 304.15024384 259.03090668 303.8915863 259.94230652 C302.67922277 264.2850572 301.68168969 268.53649678 301 273 C300.65435767 274.37195816 300.28298919 275.7378537 299.87890625 277.09375 C299.66556641 277.81433594 299.45222656 278.53492188 299.23242188 279.27734375 C299.01134766 280.01082031 298.79027344 280.74429687 298.5625 281.5 C298.34529297 282.23347656 298.12808594 282.96695312 297.90429688 283.72265625 C296.9392341 286.96271685 295.94261174 290.16250537 294.81640625 293.3515625 C293.89595018 296.33753962 294.12810718 298.0355644 295 301 C294.34 301 293.68 301 293 301 C293 302.98 293 304.96 293 307 C292.34 307.33 291.68 307.66 291 308 C289.24016868 312.07539885 288.74207667 314.72306069 290 319 C289.34 319 288.68 319 288 319 C286.7726107 323.35571174 285.54583197 327.71159486 284.31958008 332.06762695 C283.90372574 333.5445604 283.48771445 335.02144966 283.0715332 336.49829102 C278.27463703 353.48530334 278.27463703 353.48530334 273.8125 370.5625 C273.63525391 371.25923828 273.45800781 371.95597656 273.27539062 372.67382812 C272.3284427 376.29243118 272.3284427 376.29243118 272 380 C271.42028588 382.99518961 270.76214261 384.35678608 269 387 C269.33 387.99 269.66 388.98 270 390 C269.34 390.33 268.68 390.66 268 391 C268 391.99 268 392.98 268 394 C267.34 394 266.68 394 266 394 C265.95101562 394.99902344 265.90203125 395.99804688 265.8515625 397.02734375 C265.77679687 398.31769531 265.70203125 399.60804688 265.625 400.9375 C265.55539062 402.22527344 265.48578125 403.51304687 265.4140625 404.83984375 C265.27742188 405.88269531 265.14078125 406.92554688 265 408 C264.34 408.33 263.68 408.66 263 409 C262.07352622 411.77866053 261.2623102 414.52243079 260.50390625 417.34765625 C260.26969467 418.19291367 260.03548309 419.03817108 259.79417419 419.90904236 C259.04275447 422.62485289 258.30201335 425.34342542 257.5625 428.0625 C256.82510628 430.75614594 256.08537879 433.44910317 255.34153748 436.14097595 C254.87883474 437.81722938 254.41999858 439.49455669 253.9657135 441.17311096 C253.75216721 441.95008835 253.53862091 442.72706573 253.31860352 443.52758789 C253.13588394 444.1996376 252.95316437 444.87168732 252.76490784 445.56410217 C251.65699372 449.09232538 250.29848433 452.53737511 249 456 C208.74 456 168.48 456 127 456 C126.67 454.68 126.34 453.36 126 452 C125.01 451.67 124.02 451.34 123 451 C123.66 451 124.32 451 125 451 C124.7834375 450.32453125 124.566875 449.6490625 124.34375 448.953125 C124.0653125 448.06109375 123.786875 447.1690625 123.5 446.25 C123.2215625 445.36828125 122.943125 444.4865625 122.65625 443.578125 C122 441 122 441 122 437 C121.34 436.67 120.68 436.34 120 436 C120.33 435.34 120.66 434.68 121 434 C120.01 433.67 119.02 433.34 118 433 C118.66 433 119.32 433 120 433 C119.74438677 430.6568787 119.40729228 428.32156597 119 426 C118.34 425.67 117.68 425.34 117 425 C116.29565914 422.66939321 115.70835444 420.38969937 115.171875 418.01953125 C114.82277416 416.5511634 114.47179814 415.08324036 114.11914062 413.61572266 C113.93681885 412.85326233 113.75449707 412.090802 113.56665039 411.30523682 C112.66206999 407.62523926 111.65469058 403.97529969 110.640625 400.32421875 C110.44416382 399.61250519 110.24770264 398.90079163 110.04528809 398.16751099 C109.24198724 395.25959647 108.43535688 392.35262542 107.62548828 389.4465332 C107.02304514 387.28166583 106.42528219 385.11554914 105.828125 382.94921875 C105.4765332 381.68424561 105.12494141 380.41927246 104.76269531 379.1159668 C104 376 104 376 104 373 C103.01 372.67 102.02 372.34 101 372 C101.66 372 102.32 372 103 372 C102.7834375 371.32453125 102.566875 370.6490625 102.34375 369.953125 C102.0653125 369.06109375 101.786875 368.1690625 101.5 367.25 C101.2215625 366.36828125 100.943125 365.4865625 100.65625 364.578125 C100 362 100 362 100 358 C99.34 357.67 98.68 357.34 98 357 C98.33 356.34 98.66 355.68 99 355 C98.34 354.67 97.68 354.34 97 354 C97 351.69 97 349.38 97 347 C96.34 346.67 95.68 346.34 95 346 C94.27969695 343.62118403 93.67518176 341.29395087 93.125 338.875 C92.7799163 337.42027096 92.43352853 335.96585073 92.0859375 334.51171875 C91.90901367 333.76583496 91.73208984 333.01995117 91.54980469 332.25146484 C90.38395671 327.47728632 89.04309586 322.74828155 87.734375 318.01171875 C87 315 87 315 87 312 C86.01 311.67 85.02 311.34 84 311 C84.66 311 85.32 311 86 311 C85.7834375 310.32453125 85.566875 309.6490625 85.34375 308.953125 C85.0653125 308.06109375 84.786875 307.1690625 84.5 306.25 C84.2215625 305.36828125 83.943125 304.4865625 83.65625 303.578125 C83 301 83 301 83 297 C82.34 296.67 81.68 296.34 81 296 C81.33 295.34 81.66 294.68 82 294 C81.01 293.67 80.02 293.34 79 293 C79.66 293 80.32 293 81 293 C80.74438677 290.6568787 80.40729228 288.32156597 80 286 C79.34 285.67 78.68 285.34 78 285 C77.29565914 282.66939321 76.70835444 280.38969937 76.171875 278.01953125 C75.82277416 276.5511634 75.47179814 275.08324036 75.11914062 273.61572266 C74.93681885 272.85326233 74.75449707 272.090802 74.56665039 271.30523682 C73.66206999 267.62523926 72.65469058 263.97529969 71.640625 260.32421875 C71.44416382 259.61250519 71.24770264 258.90079163 71.04528809 258.16751099 C70.24198724 255.25959647 69.43535688 252.35262542 68.62548828 249.4465332 C68.02304514 247.28166583 67.42528219 245.11554914 66.828125 242.94921875 C66.4765332 241.68424561 66.12494141 240.41927246 65.76269531 239.1159668 C65 236 65 236 65 233 C64.01 232.67 63.02 232.34 62 232 C62.66 232 63.32 232 64 232 C63.7834375 231.32453125 63.566875 230.6490625 63.34375 229.953125 C63.0653125 229.06109375 62.786875 228.1690625 62.5 227.25 C62.2215625 226.36828125 61.943125 225.4865625 61.65625 224.578125 C61 222 61 222 61 218 C60.34 217.67 59.68 217.34 59 217 C59.33 216.34 59.66 215.68 60 215 C59.01 214.67 58.02 214.34 57 214 C57.66 214 58.32 214 59 214 C58.74438677 211.6568787 58.40729228 209.32156597 58 207 C57.34 206.67 56.68 206.34 56 206 C55.27969695 203.62118403 54.67518176 201.29395087 54.125 198.875 C53.7799163 197.42027096 53.43352853 195.96585073 53.0859375 194.51171875 C52.82055176 193.39289307 52.82055176 193.39289307 52.54980469 192.25146484 C51.38395671 187.47728632 50.04309586 182.74828155 48.734375 178.01171875 C48 175 48 175 48 172 C47.01 171.67 46.02 171.34 45 171 C45.66 171 46.32 171 47 171 C46.7834375 170.32453125 46.566875 169.6490625 46.34375 168.953125 C46.0653125 168.06109375 45.786875 167.1690625 45.5 166.25 C45.2215625 165.36828125 44.943125 164.4865625 44.65625 163.578125 C44 161 44 161 44 157 C43.34 156.67 42.68 156.34 42 156 C42.33 155.34 42.66 154.68 43 154 C42.01 153.67 41.02 153.34 40 153 C40.66 153 41.32 153 42 153 C41.74438677 150.6568787 41.40729228 148.32156597 41 146 C40.34 145.67 39.68 145.34 39 145 C38.29565914 142.66939321 37.70835444 140.38969937 37.171875 138.01953125 C36.82277416 136.5511634 36.47179814 135.08324036 36.11914062 133.61572266 C35.93681885 132.85326233 35.75449707 132.090802 35.56665039 131.30523682 C34.66206999 127.62523926 33.65469058 123.97529969 32.640625 120.32421875 C32.44416382 119.61250519 32.24770264 118.90079163 32.04528809 118.16751099 C31.24198724 115.25959647 30.43535688 112.35262542 29.62548828 109.4465332 C29.02304514 107.28166583 28.42528219 105.11554914 27.828125 102.94921875 C27.4765332 101.68424561 27.12494141 100.41927246 26.76269531 99.1159668 C26 96 26 96 26 93 C24.515 92.505 24.515 92.505 23 92 C23.66 92 24.32 92 25 92 C24.7834375 91.32453125 24.566875 90.6490625 24.34375 89.953125 C24.0653125 89.06109375 23.786875 88.1690625 23.5 87.25 C23.2215625 86.36828125 22.943125 85.4865625 22.65625 84.578125 C22 82 22 82 22 78 C21.34 77.67 20.68 77.34 20 77 C20.33 76.34 20.66 75.68 21 75 C19.515 74.505 19.515 74.505 18 74 C18.66 74 19.32 74 20 74 C19.74438677 71.6568787 19.40729228 69.32156597 19 67 C18.34 66.67 17.68 66.34 17 66 C16.27969695 63.62118403 15.67518176 61.29395087 15.125 58.875 C14.7799163 57.42027096 14.43352853 55.96585073 14.0859375 54.51171875 C13.90901367 53.76583496 13.73208984 53.01995117 13.54980469 52.25146484 C12.38395671 47.47728632 11.04309586 42.74828155 9.734375 38.01171875 C9 35 9 35 9 32 C8.34 31.67 7.68 31.34 7 31 C7.33 30.34 7.66 29.68 8 29 C7.34 29 6.68 29 6 29 C5.45533613 24.915021 5 21.1274515 5 17 C4.34 16.67 3.68 16.34 3 16 C3.33 15.34 3.66 14.68 4 14 C3.01 13.67 2.02 13.34 1 13 C1.66 13 2.32 13 3 13 C2.7834375 12.31292969 2.566875 11.62585937 2.34375 10.91796875 C2.0653125 10.01691406 1.786875 9.11585937 1.5 8.1875 C1.2215625 7.29417969 0.943125 6.40085937 0.65625 5.48046875 C0 3 0 3 0 0 Z M365 37 C366 39 366 39 366 39 Z M342 120 C343 122 343 122 343 122 Z M314 221 C315 223 315 223 315 223 Z M291 304 C292 306 292 306 292 306 Z M263 405 C264 407 264 407 264 407 Z " fill="#040406" transform="translate(2111,0)"/>
<path d="M0 0 C115.5 0 231 0 350 0 C350 21.45 350 42.9 350 65 C304.13 65 258.26 65 211 65 C211 194.03 211 323.06 211 456 C187.57 456 164.14 456 140 456 C140 326.97 140 197.94 140 65 C93.8 65 47.6 65 0 65 C0 43.55 0 22.1 0 0 Z " fill="#030304" transform="translate(1587,0)"/>
<path d="M0 0 C23.43 0 46.86 0 71 0 C71 129.03 71 258.06 71 391 C143.27 391 215.54 391 290 391 C290 412.45 290 433.9 290 456 C194.3 456 98.6 456 0 456 C0 305.52 0 155.04 0 0 Z " fill="#030304" transform="translate(2793,0)"/>
<path d="M0 0 C22.77 0 45.54 0 69 0 C72 8 72 8 72 10 C72.99 10.495 72.99 10.495 74 11 C74 12.98 74 14.96 74 17 C74.66 17.33 75.32 17.66 76 18 C76.23920774 19.60610914 76.46838415 21.21431346 76.6484375 22.828125 C77.19705745 26.21737714 78.30739651 29.4124248 79.37890625 32.66796875 C80 35 80 35 80 39 C80.66 39 81.32 39 82 39 C82.12375 40.010625 82.2475 41.02125 82.375 42.0625 C82.97417301 45.83728996 83.94238053 49.33358584 85 53 C85 53.99 85 54.98 85 56 C85.66 56.33 86.32 56.66 87 57 C86.67 57.99 86.34 58.98 86 60 C86.66 60.33 87.32 60.66 88 61 C87.67 61.66 87.34 62.32 87 63 C87.66 63.33 88.32 63.66 89 64 C89.5625 66.0390625 89.5625 66.0390625 90 68.625 C90.56687011 71.77427837 91.18106818 74.81719269 92.125 77.875 C93 81 93 81 93 85 C93.66 85.33 94.32 85.66 95 86 C95.72450734 88.33790605 96.32684081 90.61971771 96.875 93 C97.04499512 93.70390869 97.21499023 94.40781738 97.39013672 95.13305664 C98.32265111 99.01682067 99.20682162 102.91069926 100.078125 106.80859375 C100.34133545 107.9697168 100.34133545 107.9697168 100.60986328 109.15429688 C100.94965 110.6603089 101.28154023 112.16812726 101.60498047 113.67773438 C102.00752953 115.46702906 102.49615657 117.23654799 103 119 C103.66 119.33 104.32 119.66 105 120 C105 121.98 105 123.96 105 126 C105.66 126.33 106.32 126.66 107 127 C107.41755362 129.31974234 107.7355646 131.65785793 108 134 C108.185625 135.299375 108.37125 136.59875 108.5625 137.9375 C108.7790625 139.4534375 108.7790625 139.4534375 109 141 C109.66 141 110.32 141 111 141 C111.12375 142.010625 111.2475 143.02125 111.375 144.0625 C111.97417301 147.83728996 112.94238053 151.33358584 114 155 C114 155.99 114 156.98 114 158 C114.66 158.33 115.32 158.66 116 159 C115.67 159.99 115.34 160.98 115 162 C115.66 162.33 116.32 162.66 117 163 C116.67 163.66 116.34 164.32 116 165 C116.66 165.33 117.32 165.66 118 166 C118.5625 168.0390625 118.5625 168.0390625 119 170.625 C119.56687011 173.77427837 120.18106818 176.81719269 121.125 179.875 C122 183 122 183 122 187 C122.66 187.33 123.32 187.66 124 188 C124.72450734 190.33790605 125.32684081 192.61971771 125.875 195 C126.04499512 195.70390869 126.21499023 196.40781738 126.39013672 197.13305664 C127.32265111 201.01682067 128.20682162 204.91069926 129.078125 208.80859375 C129.34133545 209.9697168 129.34133545 209.9697168 129.60986328 211.15429688 C129.94965 212.6603089 130.28154023 214.16812726 130.60498047 215.67773438 C131.00752953 217.46702906 131.49615657 219.23654799 132 221 C132.66 221.33 133.32 221.66 134 222 C134 223.98 134 225.96 134 228 C134.66 228.33 135.32 228.66 136 229 C136.41755362 231.31974234 136.7355646 233.65785793 137 236 C137.185625 237.299375 137.37125 238.59875 137.5625 239.9375 C137.7790625 241.4534375 137.7790625 241.4534375 138 243 C138.66 243 139.32 243 140 243 C140.12375 244.010625 140.2475 245.02125 140.375 246.0625 C140.97417301 249.83728996 141.94238053 253.33358584 143 257 C143 257.99 143 258.98 143 260 C143.66 260.33 144.32 260.66 145 261 C144.67 261.99 144.34 262.98 144 264 C144.66 264.33 145.32 264.66 146 265 C145.67 265.66 145.34 266.32 145 267 C145.66 267.33 146.32 267.66 147 268 C147.5625 270.0390625 147.5625 270.0390625 148 272.625 C148.56687011 275.77427837 149.18106818 278.81719269 150.125 281.875 C151 285 151 285 151 289 C151.66 289.33 152.32 289.66 153 290 C153.72450734 292.33790605 154.32684081 294.61971771 154.875 297 C155.04499512 297.70390869 155.21499023 298.40781738 155.39013672 299.13305664 C156.32265111 303.01682067 157.20682162 306.91069926 158.078125 310.80859375 C158.25359863 311.58267578 158.42907227 312.35675781 158.60986328 313.15429688 C158.94965 314.6603089 159.28154023 316.16812726 159.60498047 317.67773438 C160.00752953 319.46702906 160.49615657 321.23654799 161 323 C161.66 323.33 162.32 323.66 163 324 C163.41755362 326.31974234 163.7355646 328.65785793 164 331 C164.185625 332.299375 164.37125 333.59875 164.5625 334.9375 C164.7790625 336.4534375 164.7790625 336.4534375 165 338 C165.66 338 166.32 338 167 338 C167.12375 339.010625 167.2475 340.02125 167.375 341.0625 C167.97417301 344.83728996 168.94238053 348.33358584 170 352 C170 352.99 170 353.98 170 355 C170.66 355.33 171.32 355.66 172 356 C171.67 356.99 171.34 357.98 171 359 C171.66 359.33 172.32 359.66 173 360 C172.67 360.66 172.34 361.32 172 362 C172.66 362.33 173.32 362.66 174 363 C173.67 363.99 173.34 364.98 173 366 C173.66 366.33 174.32 366.66 175 367 C175.59765625 369.0390625 175.59765625 369.0390625 176.0625 371.625 C176.22878906 372.52347656 176.39507813 373.42195313 176.56640625 374.34765625 C176.93206349 376.5844244 177.23336677 378.81248975 177.5 381.0625 C177.665 382.031875 177.83 383.00125 178 384 C178.66 384.33 179.32 384.66 180 385 C180.72450734 387.33790605 181.32684081 389.61971771 181.875 392 C182.04499512 392.70390869 182.21499023 393.40781738 182.39013672 394.13305664 C183.32265111 398.01682067 184.20682162 401.91069926 185.078125 405.80859375 C185.25359863 406.58267578 185.42907227 407.35675781 185.60986328 408.15429688 C185.94965 409.6603089 186.28154023 411.16812726 186.60498047 412.67773438 C187.00752953 414.46702906 187.49615657 416.23654799 188 418 C188.66 418.33 189.32 418.66 190 419 C190.23920774 420.60610914 190.46838415 422.21431346 190.6484375 423.828125 C191.19705745 427.21737714 192.30739651 430.4124248 193.37890625 433.66796875 C194 436 194 436 194 440 C194.66 440 195.32 440 196 440 C196.103125 440.969375 196.20625 441.93875 196.3125 442.9375 C197.04666925 447.90750197 197.04666925 447.90750197 200 456 C174.59 456 149.18 456 123 456 C123.66 455.67 124.32 455.34 125 455 C124.74438677 452.6568787 124.40729228 450.32156597 124 448 C123.34 447.67 122.68 447.34 122 447 C121.27969695 444.62118403 120.67518176 442.29395087 120.125 439.875 C119.7799163 438.42027096 119.43352853 436.96585073 119.0859375 435.51171875 C118.90901367 434.76583496 118.73208984 434.01995117 118.54980469 433.25146484 C117.38395671 428.47728632 116.04309586 423.74828155 114.734375 419.01171875 C114 416 114 416 114 413 C113.01 412.67 112.02 412.34 111 412 C111.66 412 112.32 412 113 412 C112.7834375 411.32453125 112.566875 410.6490625 112.34375 409.953125 C111.92609375 408.61507812 111.92609375 408.61507812 111.5 407.25 C111.08234375 405.92742187 111.08234375 405.92742187 110.65625 404.578125 C110 402 110 402 110 398 C109.34 397.67 108.68 397.34 108 397 C107.60534792 394.41682273 107.49193848 391.85811719 107.34375 389.25 C107.2303125 388.5075 107.116875 387.765 107 387 C106.34 386.67 105.68 386.34 105 386 C104.30118234 383.68383144 103.71903403 381.4180613 103.1875 379.0625 C101.50417486 371.9345169 99.61002737 364.88930889 97.57495117 357.85375977 C96.70914452 354.81034909 96 352.18140755 96 349 C36.93 349 -22.14 349 -83 349 C-78.72771588 330.84279248 -78.72771588 330.84279248 -76.65234375 325.04296875 C-75.64066707 321.87466394 -75.08101929 318.6352964 -74.46484375 315.37109375 C-73.83350767 312.15074921 -73.05823573 309.10856746 -72 306 C-71.34 305.67 -70.68 305.34 -70 305 C-69.72438035 303.20847229 -69.46616891 301.41291933 -69.28515625 299.609375 C-68.93322501 296.38896315 -68.43717131 293.20069178 -67.9375 290 C-67.76089844 288.865625 -67.58429687 287.73125 -67.40234375 286.5625 C-67.26957031 285.716875 -67.13679688 284.87125 -67 284 C-66.34 284 -65.68 284 -65 284 C-65 283.34 -65 282.68 -65 282 C-46.65042692 281.97666426 -28.30085767 281.9590175 -9.95127296 281.94818783 C-1.43170298 281.94302631 7.0878578 281.93598635 15.60742188 281.92456055 C23.03100675 281.91460932 30.45458497 281.90814552 37.87817633 281.90591151 C41.8107642 281.90460515 45.74333299 281.901524 49.67591476 281.89426994 C53.37434401 281.88750282 57.07274626 281.88538446 60.77118111 281.88689232 C62.78182951 281.8864843 64.79247495 281.88109269 66.80311584 281.87557983 C67.99226089 281.8769545 69.18140594 281.87832916 70.40658569 281.87974548 C71.44452459 281.87882369 72.48246349 281.8779019 73.55185509 281.87695217 C76 282 76 282 78 283 C77.72285156 282.18015625 77.44570312 281.3603125 77.16015625 280.515625 C76.79792969 279.43796875 76.43570313 278.3603125 76.0625 277.25 C75.70285156 276.18265625 75.34320312 275.1153125 74.97265625 274.015625 C74.45975565 272.42542715 73.95759298 270.82932569 73.5546875 269.20776367 C72.83269076 266.33407683 71.98939587 263.50245411 71.15234375 260.66015625 C70.60365108 258.77680575 70.05496619 256.89345296 69.5065918 255.01000977 C69.12753792 253.71283567 68.74635582 252.41628156 68.36303711 251.12036133 C67.80743271 249.23961538 67.26102989 247.35615891 66.71484375 245.47265625 C66.22165649 243.79055054 66.22165649 243.79055054 65.71850586 242.07446289 C65.05722792 239.2448764 64.85225224 236.8886538 65 234 C64.34 233.67 63.68 233.34 63 233 C62.5859375 230.93359375 62.5859375 230.93359375 62.375 228.4375 C62.26285156 227.19806641 62.26285156 227.19806641 62.1484375 225.93359375 C62.09945312 225.29550781 62.05046875 224.65742188 62 224 C61.01 223.67 60.02 223.34 59 223 C59.66 223 60.32 223 61 223 C60.7834375 222.32453125 60.566875 221.6490625 60.34375 220.953125 C59.92609375 219.61507812 59.92609375 219.61507812 59.5 218.25 C59.08234375 216.92742187 59.08234375 216.92742187 58.65625 215.578125 C58 213 58 213 58 209 C57.34 208.67 56.68 208.34 56 208 C55.1484375 205.19921875 55.1484375 205.19921875 54.375 201.6875 C54.11460937 200.53636719 53.85421875 199.38523438 53.5859375 198.19921875 C53 195 53 195 53 191 C52.34 190.67 51.68 190.34 51 190 C51.33 189.34 51.66 188.68 52 188 C51.01 187.67 50.02 187.34 49 187 C49.66 187 50.32 187 51 187 C50.83395264 186.42145264 50.66790527 185.84290527 50.49682617 185.24682617 C48.90226756 179.6877181 47.31377905 174.12691448 45.73095703 168.56445312 C45.13519201 166.47430091 44.53503625 164.3854006 43.93359375 162.296875 C43.66675781 161.35328125 43.39992188 160.4096875 43.125 159.4375 C42.90070312 158.65246094 42.67640625 157.86742187 42.4453125 157.05859375 C42 155 42 155 42 151 C41.34 150.67 40.68 150.34 40 150 C39.21357267 147.28756763 38.5429131 144.62813332 37.9375 141.875 C37.76412109 141.12734375 37.59074219 140.3796875 37.41210938 139.609375 C36.6095865 136.07950429 35.92383464 132.60431082 35.50390625 129.0078125 C35.33761719 128.01523438 35.17132812 127.02265625 35 126 C34.34 125.67 33.68 125.34 33 125 C33.33 124.34 33.66 123.68 34 123 C32.515 122.505 32.515 122.505 31 122 C31.66 122 32.32 122 33 122 C32.65066406 120.81921875 32.30132813 119.6384375 31.94140625 118.421875 C31.48172754 116.86459611 31.02209452 115.30730374 30.5625 113.75 C30.33240234 112.97269531 30.10230469 112.19539063 29.86523438 111.39453125 C29.53168945 110.26337891 29.53168945 110.26337891 29.19140625 109.109375 C28.98717041 108.41811523 28.78293457 107.72685547 28.57250977 107.01464844 C28.20764635 105.73070263 27.86083839 104.44139024 27.53817749 103.14619446 C26.99269129 100.97085363 26.41073549 98.80879642 25.81665039 96.64624023 C25.58293228 95.7953331 25.34921417 94.94442596 25.1084137 94.06773376 C24.04425051 90.20819189 22.97692299 86.34953464 21.9074707 82.49145508 C21.34382377 80.454281 20.78230223 78.41651768 20.22290039 76.37817383 C19.41545927 73.43686598 18.60105558 70.49756498 17.78515625 67.55859375 C17.53613052 66.64605331 17.2871048 65.73351288 17.03053284 64.7933197 C16.79366257 63.94556473 16.5567923 63.09780975 16.31274414 62.22436523 C16.10702286 61.47920151 15.90130157 60.73403778 15.68934631 59.96629333 C14.99382182 57.72186192 14.99382182 57.72186192 13 55 C12.34600379 50.87982387 12 47.17317116 12 43 C11.34 42.67 10.68 42.34 10 42 C10.495 41.01 10.495 41.01 11 40 C9.515 39.505 9.515 39.505 8 39 C8.66 39 9.32 39 10 39 C9.71125 38.02417969 9.4225 37.04835937 9.125 36.04296875 C8.74978981 34.75787385 8.37480138 33.47271419 8 32.1875 C7.62875 30.92292969 7.2575 29.65835937 6.875 28.35546875 C6 25 6 25 6 22 C5.34 21.67 4.68 21.34 4 21 C3.18359375 18.0859375 3.18359375 18.0859375 2.4375 14.375 C2.18871094 13.16585938 1.93992187 11.95671875 1.68359375 10.7109375 C1.0288457 7.15659094 0.51111788 3.57782517 0 0 Z " fill="#040406" transform="translate(2548,0)"/>
<path d="M0 0 C23.43 0 46.86 0 71 0 C71 150.48 71 300.96 71 456 C47.57 456 24.14 456 0 456 C0 305.52 0 155.04 0 0 Z " fill="#030304" transform="translate(1996,0)"/>
<path d="M0 0 C20.79 0 41.58 0 63 0 C60.31957165 9.82823728 57.61556459 19.32502154 53.625 28.6875 C51.70769214 33.19779349 49.98264571 37.7468949 48.375 42.375 C45.24446352 51.37722385 41.96615118 60.32276315 38.67700195 69.26806641 C38.19090574 70.59016478 37.70482209 71.91226776 37.21875 73.234375 C36.9686467 73.91450653 36.7185434 74.59463806 36.46086121 75.29537964 C34.329592 81.09472175 32.21072575 86.89855227 30.09375 92.703125 C29.08281319 95.4732477 28.07178708 98.2433378 27.0607605 101.01342773 C26.40149631 102.82069557 25.74273403 104.62814658 25.08450317 106.43579102 C24.15279379 108.99416773 23.21914872 111.55183105 22.28515625 114.109375 C21.87632202 115.23439423 21.87632202 115.23439423 21.45922852 116.38214111 C19.41428175 121.97387018 17.21415147 127.46462132 15 133 C42.06 133 69.12 133 97 133 C95.41890118 136.95274704 94.11979027 139.51167936 91.7265625 142.88671875 C91.07300781 143.81540771 90.41945313 144.74409668 89.74609375 145.70092773 C89.04613281 146.68649658 88.34617187 147.67206543 87.625 148.6875 C86.15751552 150.7751013 84.69138099 152.86365217 83.2265625 154.953125 C82.1422998 156.4990332 82.1422998 156.4990332 81.03613281 158.07617188 C78.30605753 161.99648141 75.63943928 165.95577783 73 169.9375 C72.53303711 170.64124756 72.06607422 171.34499512 71.58496094 172.07006836 C70.05508926 174.3790223 68.52754597 176.68950683 67 179 C51.32102294 202.68705674 51.32102294 202.68705674 44.55688477 212.02148438 C41.02987863 216.90715398 37.69413681 221.90862986 34.36743164 226.93212891 C28.85893808 235.2396018 23.27421695 243.49503547 17.6875 251.75 C17.18224792 252.49680023 16.67699585 253.24360046 16.15643311 254.01303101 C9.7056397 263.54665361 3.22995202 273.06261967 -3.27294922 282.56079102 C-7.06148858 288.1116244 -10.80228716 293.69294615 -14.5234375 299.2890625 C-15.25351265 300.38664131 -15.25351265 300.38664131 -15.99833679 301.50639343 C-18.41555405 305.14180168 -20.82946107 308.77935013 -23.23852539 312.42016602 C-27.72287823 319.18349849 -32.2878228 325.84423642 -37.10327148 332.37866211 C-40.4840636 337.05102212 -43.63713228 341.87428215 -46.8125 346.6875 C-51.96365639 354.45745099 -57.15411048 362.19391797 -62.45556641 369.86206055 C-65.68967759 374.54017291 -68.87267514 379.24963313 -72 384 C-73.388608 379.83417601 -71.85404875 376.96726234 -70.4375 373 C-69.87488104 371.37158403 -69.3137302 369.74266022 -68.75390625 368.11328125 C-68.46273926 367.27104004 -68.17157227 366.42879883 -67.87158203 365.56103516 C-66.47481536 361.4568104 -65.17186569 357.32418401 -63.875 353.1875 C-63.62363281 352.38787842 -63.37226563 351.58825684 -63.11328125 350.7644043 C-61.38275348 345.24777779 -59.67494832 339.7243187 -57.984375 334.1953125 C-57.29519921 331.95822599 -56.59647606 329.72406868 -55.890625 327.4921875 C-53.37769991 319.54546985 -50.99597844 311.57108479 -48.6875 303.5625 C-45.32854028 291.93732147 -41.66587451 280.42126475 -37.93896484 268.90966797 C-36.52517514 264.52861085 -35.1351651 260.14017761 -33.75 255.75 C-33.52820068 255.0489917 -33.30640137 254.3479834 -33.07788086 253.62573242 C-29.14846728 241.17357142 -25.4069166 228.66930148 -21.73632812 216.13867188 C-21.39666016 214.98560547 -21.05699219 213.83253906 -20.70703125 212.64453125 C-20.4025708 211.60659424 -20.09811035 210.56865723 -19.78442383 209.49926758 C-19 207 -19 207 -18 205 C-38.46 205 -58.92 205 -80 205 C-76.62790698 193.75968992 -76.62790698 193.75968992 -74.875 189.3125 C-74.45089844 188.2296875 -74.02679688 187.146875 -73.58984375 186.03125 C-73.3460498 185.41378906 -73.10225586 184.79632813 -72.85107422 184.16015625 C-71.8336559 181.57779329 -70.82493811 178.99209634 -69.81640625 176.40625 C-63.68914321 160.70687414 -63.68914321 160.70687414 -61.00390625 154.01171875 C-58.80225533 148.52091996 -56.65014845 143.01113134 -54.5 137.5 C-50.57350698 127.43584894 -46.60661341 117.40066544 -42.39746094 107.45092773 C-38.69272961 98.67742451 -35.13398722 89.90774516 -32.05175781 80.89599609 C-29.62743168 73.8218747 -26.82270654 66.92375924 -24 60 C-21.305423 53.29825073 -18.64524697 46.58308931 -15.99609375 39.86328125 C-15.24809485 37.96808002 -14.50004652 36.0728983 -13.75195312 34.17773438 C-12.59074299 31.23546068 -11.42983946 28.29306756 -10.26977539 25.3503418 C-9.13781369 22.47928613 -8.00455818 19.60874393 -6.87109375 16.73828125 C-6.52727158 15.86520828 -6.1834494 14.99213531 -5.82920837 14.09260559 C-5.50199295 13.26451889 -5.17477753 12.43643219 -4.83764648 11.58325195 C-4.55436996 10.8650679 -4.27109344 10.14688385 -3.97923279 9.40693665 C-2.69620989 6.25328936 -1.34115719 3.12936677 0 0 Z " fill="#030305" transform="translate(227,46)"/>
<path d="M0 0 C72.93 0 145.86 0 221 0 C221 21.45 221 42.9 221 65 C148.07 65 75.14 65 0 65 C0 43.55 0 22.1 0 0 Z " fill="#030304" transform="translate(927,391)"/>
<path d="M0 0 C72.93 0 145.86 0 221 0 C221 21.45 221 42.9 221 65 C148.07 65 75.14 65 0 65 C0 43.55 0 22.1 0 0 Z " fill="#030304" transform="translate(927,0)"/>
<path d="M0 0 C72.93 0 145.86 0 221 0 C221 21.12 221 42.24 221 64 C148.07 64 75.14 64 0 64 C0 42.88 0 21.76 0 0 Z " fill="#030304" transform="translate(927,195)"/>
<path d="M0 0 C0 4.95 0 9.9 0 15 C-2.97 15 -5.94 15 -9 15 C-9 14.01 -9 13.02 -9 12 C-9.66 11.67 -10.32 11.34 -11 11 C-10.09066991 9.72390677 -9.17217147 8.45434447 -8.25 7.1875 C-7.73953125 6.47980469 -7.2290625 5.77210937 -6.703125 5.04296875 C-2.49904398 0 -2.49904398 0 0 0 Z M-3 3 C-3.66 3.66 -4.32 4.32 -5 5 C-4.01 5 -3.02 5 -2 5 C-2.33 4.34 -2.66 3.68 -3 3 Z " fill="#FFFFFF" transform="translate(1517,69)"/>
<path d="M0 0 C0 4.29 0 8.58 0 13 C-2.64 13 -5.28 13 -8 13 C-8.33 13.66 -8.66 14.32 -9 15 C-9 14.34 -9 13.68 -9 13 C-9.66 13 -10.32 13 -11 13 C-9.51082643 8.08572721 -6.55813338 4.59680874 -3 1 C-1 0 -1 0 0 0 Z M-3 3 C-3.66 3.66 -4.32 4.32 -5 5 C-4.01 5 -3.02 5 -2 5 C-2.33 4.34 -2.66 3.68 -3 3 Z " fill="#FFFFFF" transform="translate(1528,51)"/>
<path d="M0 0 C0 2.97 0 5.94 0 9 C-0.66 9 -1.32 9 -2 9 C-2 10.32 -2 11.64 -2 13 C-4.64 13 -7.28 13 -10 13 C-10 8.90367503 -8.44601804 7.23932119 -6 4 C-1.47368421 0 -1.47368421 0 0 0 Z M-3 3 C-3.66 3.66 -4.32 4.32 -5 5 C-4.01 5 -3.02 5 -2 5 C-2.33 4.34 -2.66 3.68 -3 3 Z " fill="#FFFFFF" transform="translate(1506,87)"/>
<path d="M0 0 C0.33 0 0.66 0 1 0 C1 4.29 1 8.58 1 13 C-0.32 13 -1.64 13 -3 13 C-3 13.66 -3 14.32 -3 15 C-4.65 15 -6.3 15 -8 15 C-6.62859834 11.32305352 -4.96304199 8.04681411 -2.9375 4.6875 C-2.41027344 3.80449219 -1.88304687 2.92148438 -1.33984375 2.01171875 C-0.89769531 1.34785156 -0.45554687 0.68398437 0 0 Z " fill="#FFFFFF" transform="translate(1436,195)"/>
<path d="M0 0 C0.33 0 0.66 0 1 0 C1 4.95 1 9.9 1 15 C-0.98 15 -2.96 15 -5 15 C-4.72569093 8.82804592 -3.96185965 4.82851645 0 0 Z " fill="#FFFFFF" transform="translate(1535,33)"/>
<path d="M0 0 C1.35015859 4.05047576 0.62084998 6.7920168 0 11 C-2.97 11 -5.94 11 -9 11 C-4.59586466 1.99154135 -4.59586466 1.99154135 0 0 Z M-2 3 C-2.66 3.66 -3.32 4.32 -4 5 C-3.01 5 -2.02 5 -1 5 C-1.33 4.34 -1.66 3.68 -2 3 Z " fill="#FFFFFF" transform="translate(1472,141)"/>
<path d="M0 0 C3.96 0 7.92 0 12 0 C12 1.32 12 2.64 12 4 C7.38 4 2.76 4 -2 4 C-1.34 2.68 -0.68 1.36 0 0 Z " fill="#FFFFFF" transform="translate(1460,156)"/>
<path d="M0 0 C0.66 0.33 1.32 0.66 2 1 C2 3.64 2 6.28 2 9 C0.68 9 -0.64 9 -2 9 C-2.33 9.66 -2.66 10.32 -3 11 C-3 10.34 -3 9.68 -3 9 C-3.66 9 -4.32 9 -5 9 C-3.7508258 5.54074837 -2.32472205 2.85306797 0 0 Z " fill="#FFFFFF" transform="translate(1478,127)"/>
<path d="M0 0 C0.4125 0.474375 0.825 0.94875 1.25 1.4375 C3.182185 3.16266518 4.48192275 3.56584875 7 4 C7 6.64 7 9.28 7 12 C4.04485124 9.24865461 1.8475191 6.60266225 0 3 C0 2.01 0 1.02 0 0 Z " fill="#FFFFFF" transform="translate(1512,380)"/>
<path d="M0 0 C0.4125 0.474375 0.825 0.94875 1.25 1.4375 C3.182185 3.16266518 4.48192275 3.56584875 7 4 C7 6.64 7 9.28 7 12 C4.04485124 9.24865461 1.8475191 6.60266225 0 3 C0 2.01 0 1.02 0 0 Z " fill="#FFFFFF" transform="translate(1484,334)"/>
<path d="M0 0 C0.4125 0.474375 0.825 0.94875 1.25 1.4375 C3.182185 3.16266518 4.48192275 3.56584875 7 4 C7 6.64 7 9.28 7 12 C4.04485124 9.24865461 1.8475191 6.60266225 0 3 C0 2.01 0 1.02 0 0 Z " fill="#FFFFFF" transform="translate(1445,270)"/>
<path d="M0 0 C0.4125 0.474375 0.825 0.94875 1.25 1.4375 C3.182185 3.16266518 4.48192275 3.56584875 7 4 C7 6.31 7 8.62 7 11 C6.34 11 5.68 11 5 11 C3.7109375 9.35546875 3.7109375 9.35546875 2.375 7.1875 C1.92898438 6.47980469 1.48296875 5.77210938 1.0234375 5.04296875 C0 3 0 3 0 0 Z " fill="#FFFFFF" transform="translate(1551,444)"/>
<path d="M0 0 C0 2.31 0 4.62 0 7 C-2.31 7 -4.62 7 -7 7 C-5.80061288 4.10148113 -3.63852862 0 0 0 Z M-3 3 C-3.66 3.66 -4.32 4.32 -5 5 C-4.01 5 -3.02 5 -2 5 C-2.33 4.34 -2.66 3.68 -3 3 Z " fill="#FFFFFF" transform="translate(1495,105)"/>
<path d="M0 0 C2.97 0.495 2.97 0.495 6 1 C6 3.64 6 6.28 6 9 C2.91910327 6.22719294 1.31224548 3.93673644 0 0 Z " fill="#FFFFFF" transform="translate(1418,227)"/>
<path d="M0 0 C0.33 0 0.66 0 1 0 C1 2.64 1 5.28 1 8 C-0.65 8 -2.3 8 -4 8 C-2.87548273 5.0280615 -1.77706209 2.66559313 0 0 Z " fill="#FFFFFF" transform="translate(1487,112)"/>
<path d="M0 0 C0.433125 0.474375 0.86625 0.94875 1.3125 1.4375 C3.02309613 3.23686957 3.02309613 3.23686957 6 4 C6 6.31 6 8.62 6 11 C0 3.6 0 3.6 0 0 Z " fill="#FFFFFF" transform="translate(1498,357)"/>
<path d="M0 0 C2.97 0.495 2.97 0.495 6 1 C6 2.98 6 4.96 6 7 C5.67 6.34 5.34 5.68 5 5 C4.01 5 3.02 5 2 5 C1.34 3.35 0.68 1.7 0 0 Z " fill="#FFFFFF" transform="translate(1338,137)"/>
<path d="M0 0 C2.97 0.495 2.97 0.495 6 1 C6 2.98 6 4.96 6 7 C5.67 6.34 5.34 5.68 5 5 C4.01 5 3.02 5 2 5 C1.34 3.35 0.68 1.7 0 0 Z " fill="#FFFFFF" transform="translate(1314,96)"/>
<path d="M0 0 C2.97 0.495 2.97 0.495 6 1 C6 2.98 6 4.96 6 7 C5.67 6.34 5.34 5.68 5 5 C4.01 5 3.02 5 2 5 C1.34 3.35 0.68 1.7 0 0 Z " fill="#FFFFFF" transform="translate(1290,55)"/>
<path d="M0 0 C2.97 0.495 2.97 0.495 6 1 C6 1.99 6 2.98 6 4 C4.68 4.33 3.36 4.66 2 5 C1.34 3.35 0.68 1.7 0 0 Z " fill="#FFFFFF" transform="translate(1543,432)"/>
<path d="M0 0 C2.97 0.495 2.97 0.495 6 1 C6 1.99 6 2.98 6 4 C4.68 4.33 3.36 4.66 2 5 C1.34 3.35 0.68 1.7 0 0 Z " fill="#FFFFFF" transform="translate(1476,322)"/>
<path d="M0 0 C2.97 0.495 2.97 0.495 6 1 C6 1.99 6 2.98 6 4 C4.68 4.33 3.36 4.66 2 5 C1.34 3.35 0.68 1.7 0 0 Z " fill="#FFFFFF" transform="translate(1504,368)"/>
<path d="M0 0 C2.97 0.495 2.97 0.495 6 1 C6 1.99 6 2.98 6 4 C4.68 4.33 3.36 4.66 2 5 C1.34 3.35 0.68 1.7 0 0 Z " fill="#FFFFFF" transform="translate(1437,258)"/>
<path d="M0 0 C2.97 0.495 2.97 0.495 6 1 C6 1.99 6 2.98 6 4 C4.68 4.33 3.36 4.66 2 5 C1.34 3.35 0.68 1.7 0 0 Z " fill="#FFFFFF" transform="translate(1345,149)"/>
<path d="M0 0 C2.97 0.495 2.97 0.495 6 1 C6 1.99 6 2.98 6 4 C4.68 4.33 3.36 4.66 2 5 C1.34 3.35 0.68 1.7 0 0 Z " fill="#FFFFFF" transform="translate(1321,108)"/>
<path d="M0 0 C0.33 0.66 0.66 1.32 1 2 C0.22265625 3.7265625 0.22265625 3.7265625 -0.9375 5.625 C-1.618125 6.73875 -2.29875 7.8525 -3 9 C-3.33 8.34 -3.66 7.68 -4 7 C-3.22265625 5.2734375 -3.22265625 5.2734375 -2.0625 3.375 C-1.381875 2.26125 -0.70125 1.1475 0 0 Z " fill="#FFFFFF" transform="translate(1324,343)"/>
<path d="M0 0 C0 1.65 0 3.3 0 5 C-1.65 4.67 -3.3 4.34 -5 4 C-1.125 0 -1.125 0 0 0 Z " fill="#FFFFFF" transform="translate(1484,123)"/>
<path d="M0 0 C1.70884005 1.62339805 3.37446717 3.29319053 5 5 C5 5.66 5 6.32 5 7 C4.34 7 3.68 7 3 7 C0 2.61538462 0 2.61538462 0 0 Z " fill="#FFFFFF" transform="translate(1300,209)"/>
<path d="M0 0 C1.70884005 1.62339805 3.37446717 3.29319053 5 5 C5 5.66 5 6.32 5 7 C4.34 7 3.68 7 3 7 C0 2.61538462 0 2.61538462 0 0 Z " fill="#FFFFFF" transform="translate(1256,137)"/>
<path d="M0 0 C1.70884005 1.62339805 3.37446717 3.29319053 5 5 C5 5.66 5 6.32 5 7 C4.34 7 3.68 7 3 7 C0 2.61538462 0 2.61538462 0 0 Z " fill="#FFFFFF" transform="translate(1201,47)"/>
<path d="M0 0 C0.33 1.32 0.66 2.64 1 4 C-0.32 3.34 -1.64 2.68 -3 2 C-2.01 1.34 -1.02 0.68 0 0 Z " fill="#FFFFFF" transform="translate(1428,213)"/>
<path d="M0 0 C0.33 0 0.66 0 1 0 C1 1.65 1 3.3 1 5 C0.67 5 0.34 5 0 5 C0 3.35 0 1.7 0 0 Z " fill="#FFFFFF" transform="translate(1261,451)"/>
<path d="M0 0 C0.33 0 0.66 0 1 0 C1 1.65 1 3.3 1 5 C0.67 5 0.34 5 0 5 C0 3.35 0 1.7 0 0 Z " fill="#FFFFFF" transform="translate(1338,319)"/>
<path d="M0 0 C0.99 0.495 0.99 0.495 2 1 C1.67 1.66 1.34 2.32 1 3 C0.67 2.01 0.34 1.02 0 0 Z " fill="#FFFFFF" transform="translate(1299,205)"/>
<path d="M0 0 C0.99 0.495 0.99 0.495 2 1 C1.67 1.66 1.34 2.32 1 3 C0.67 2.01 0.34 1.02 0 0 Z " fill="#FFFFFF" transform="translate(1255,133)"/>
<path d="M0 0 C0.99 0.495 0.99 0.495 2 1 C1.67 1.66 1.34 2.32 1 3 C0.67 2.01 0.34 1.02 0 0 Z " fill="#FFFFFF" transform="translate(1233,97)"/>
<path d="M0 0 C0.99 0.495 0.99 0.495 2 1 C1.67 1.66 1.34 2.32 1 3 C0.67 2.01 0.34 1.02 0 0 Z " fill="#FFFFFF" transform="translate(1200,43)"/>
<path d="M0 0 C0.66 0 1.32 0 2 0 C1.67 0.66 1.34 1.32 1 2 C0.67 1.34 0.34 0.68 0 0 Z " fill="#FFFFFF" transform="translate(2379,392)"/>
<path d="" fill="#FFFFFF" transform="translate(0,0)"/>
<path d="" fill="#FFFFFF" transform="translate(0,0)"/>
<path d="M0 0 C0.66 0 1.32 0 2 0 C1.67 0.66 1.34 1.32 1 2 C0.67 1.34 0.34 0.68 0 0 Z " fill="#FFFFFF" transform="translate(1358,282)"/>
<path d="" fill="#FFFFFF" transform="translate(0,0)"/>
<path d="M0 0 C0.66 0 1.32 0 2 0 C1.67 0.66 1.34 1.32 1 2 C0.67 1.34 0.34 0.68 0 0 Z " fill="#FFFFFF" transform="translate(2430,208)"/>
<path d="" fill="#FFFFFF" transform="translate(0,0)"/>
<path d="" fill="#FFFFFF" transform="translate(0,0)"/>
<path d="" fill="#FFFFFF" transform="translate(0,0)"/>
<path d="M0 0 C2 1 2 1 2 1 Z " fill="#FFFFFF" transform="translate(1558,455)"/>
<path d="M0 0 C2 1 2 1 2 1 Z " fill="#FFFFFF" transform="translate(1168,455)"/>
<path d="" fill="#FFFFFF" transform="translate(0,0)"/>
<path d="M0 0 C2 1 2 1 2 1 Z " fill="#FFFFFF" transform="translate(1185,433)"/>
<path d="" fill="#FFFFFF" transform="translate(0,0)"/>
<path d="" fill="#FFFFFF" transform="translate(0,0)"/>
<path d="" fill="#FFFFFF" transform="translate(0,0)"/>
<path d="" fill="#FFFFFF" transform="translate(0,0)"/>
<path d="" fill="#FFFFFF" transform="translate(0,0)"/>
<path d="" fill="#FFFFFF" transform="translate(0,0)"/>
<path d="M0 0 C2 1 2 1 2 1 Z " fill="#FFFFFF" transform="translate(1266,300)"/>
<path d="M0 0 C2 1 2 1 2 1 Z " fill="#FFFFFF" transform="translate(1368,280)"/>
<path d="" fill="#FFFFFF" transform="translate(0,0)"/>
<path d="" fill="#FFFFFF" transform="translate(0,0)"/>
<path d="" fill="#FFFFFF" transform="translate(0,0)"/>
<path d="" fill="#FFFFFF" transform="translate(0,0)"/>
<path d="" fill="#FFFFFF" transform="translate(0,0)"/>
<path d="" fill="#FFFFFF" transform="translate(0,0)"/>
<path d="" fill="#FFFFFF" transform="translate(0,0)"/>
<path d="" fill="#FFFFFF" transform="translate(0,0)"/>
<path d="" fill="#FFFFFF" transform="translate(0,0)"/>
<path d="" fill="#FFFFFF" transform="translate(0,0)"/>
<path d="" fill="#FFFFFF" transform="translate(0,0)"/>
<path d="" fill="#FFFFFF" transform="translate(0,0)"/>
<path d="" fill="#FFFFFF" transform="translate(0,0)"/>
<path d="" fill="#FFFFFF" transform="translate(0,0)"/>
<path d="" fill="#FFFFFF" transform="translate(0,0)"/>
<path d="" fill="#FFFFFF" transform="translate(0,0)"/>
<path d="" fill="#FFFFFF" transform="translate(0,0)"/>
<path d="" fill="#FFFFFF" transform="translate(0,0)"/>
<path d="" fill="#FFFFFF" transform="translate(0,0)"/>
<path d="" fill="#FFFFFF" transform="translate(0,0)"/>
<path d="" fill="#FFFFFF" transform="translate(0,0)"/>
<path d="" fill="#FFFFFF" transform="translate(0,0)"/>
<path d="" fill="#FFFFFF" transform="translate(0,0)"/>
<path d="" fill="#FFFFFF" transform="translate(0,0)"/>
<path d="" fill="#FFFFFF" transform="translate(0,0)"/>
<path d="" fill="#FFFFFF" transform="translate(0,0)"/>
<path d="" fill="#FFFFFF" transform="translate(0,0)"/>
<path d="" fill="#FFFFFF" transform="translate(0,0)"/>
<path d="" fill="#FFFFFF" transform="translate(0,0)"/>
<path d="" fill="#FFFFFF" transform="translate(0,0)"/>
<path d="" fill="#FFFFFF" transform="translate(0,0)"/>
<path d="" fill="#FFFFFF" transform="translate(0,0)"/>
<path d="" fill="#FFFFFF" transform="translate(0,0)"/>
<path d="" fill="#FFFFFF" transform="translate(0,0)"/>
<path d="" fill="#FFFFFF" transform="translate(0,0)"/>
<path d="" fill="#FFFFFF" transform="translate(0,0)"/>
<path d="" fill="#FFFFFF" transform="translate(0,0)"/>
<path d="" fill="#FFFFFF" transform="translate(0,0)"/>
<path d="" fill="#FFFFFF" transform="translate(0,0)"/>
<path d="" fill="#FFFFFF" transform="translate(0,0)"/>
<path d="" fill="#FFFFFF" transform="translate(0,0)"/>
<path d="" fill="#FFFFFF" transform="translate(0,0)"/>
<path d="" fill="#FFFFFF" transform="translate(0,0)"/>
<path d="" fill="#FFFFFF" transform="translate(0,0)"/>
<path d="" fill="#FFFFFF" transform="translate(0,0)"/>
<path d="" fill="#FFFFFF" transform="translate(0,0)"/>
<path d="" fill="#FFFFFF" transform="translate(0,0)"/>
<path d="" fill="#FFFFFF" transform="translate(0,0)"/>
<path d="" fill="#FFFFFF" transform="translate(0,0)"/>
<path d="" fill="#FFFFFF" transform="translate(0,0)"/>
<path d="" fill="#FFFFFF" transform="translate(0,0)"/>
<path d="" fill="#FFFFFF" transform="translate(0,0)"/>
<path d="" fill="#FFFFFF" transform="translate(0,0)"/>
<path d="" fill="#FFFFFF" transform="translate(0,0)"/>
<path d="" fill="#FFFFFF" transform="translate(0,0)"/>
<path d="" fill="#FFFFFF" transform="translate(0,0)"/>
<path d="" fill="#FFFFFF" transform="translate(0,0)"/>
<path d="" fill="#FFFFFF" transform="translate(0,0)"/>
<path d="" fill="#FFFFFF" transform="translate(0,0)"/>
<path d="" fill="#FFFFFF" transform="translate(0,0)"/>
<path d="" fill="#FFFFFF" transform="translate(0,0)"/>
<path d="" fill="#FFFFFF" transform="translate(0,0)"/>
<path d="" fill="#FFFFFF" transform="translate(0,0)"/>
<path d="" fill="#FFFFFF" transform="translate(0,0)"/>
<path d="" fill="#FFFFFF" transform="translate(0,0)"/>
<path d="" fill="#FFFFFF" transform="translate(0,0)"/>
<path d="" fill="#FFFFFF" transform="translate(0,0)"/>
<path d="" fill="#FFFFFF" transform="translate(0,0)"/>
<path d="" fill="#FFFFFF" transform="translate(0,0)"/>
<path d="" fill="#FFFFFF" transform="translate(0,0)"/>
<path d="" fill="#FFFFFF" transform="translate(0,0)"/>
<path d="" fill="#FFFFFF" transform="translate(0,0)"/>
<path d="" fill="#FFFFFF" transform="translate(0,0)"/>
<path d="" fill="#FFFFFF" transform="translate(0,0)"/>
<path d="" fill="#FFFFFF" transform="translate(0,0)"/>
<path d="" fill="#FFFFFF" transform="translate(0,0)"/>
<path d="" fill="#FFFFFF" transform="translate(0,0)"/>
<path d="" fill="#FFFFFF" transform="translate(0,0)"/>
</svg>
