<?xml version="1.0" encoding="utf-8"?>
<!-- Generator: Adobe Illustrator 22.1.0, SVG Export Plug-In . SVG Version: 6.00 Build 0)  -->
<svg version="1.1" id="Capa_1" xmlns="http://www.w3.org/2000/svg" xmlns:xlink="http://www.w3.org/1999/xlink" x="0px" y="0px"
	 viewBox="0 0 108 106" style="enable-background:new 0 0 108 106;" xml:space="preserve">
<style type="text/css">
	.st0{fill:#101E51;}
	.st1{filter:url(#Adobe_OpacityMaskFilter);}
	.st2{fill:#FFFFFF;}
	.st3{mask:url(#b_1_);fill:#FFFFFF;}
	.st4{filter:url(#Adobe_OpacityMaskFilter_1_);}
	.st5{mask:url(#d_1_);fill:#FFFFFF;}
</style>
<g>
	<ellipse class="st0" cx="50.1" cy="50.2" rx="50.1" ry="50.2"/>
	<g transform="translate(25.043 23.157)">
		<defs>
			<filter id="Adobe_OpacityMaskFilter" filterUnits="userSpaceOnUse" x="0" y="2" width="50.4" height="50.5">
				<feColorMatrix  type="matrix" values="1 0 0 0 0  0 1 0 0 0  0 0 1 0 0  0 0 0 1 0"/>
			</filter>
		</defs>
		<mask maskUnits="userSpaceOnUse" x="0" y="2" width="50.4" height="50.5" id="b_1_">
			<g class="st1">
				<path id="a_1_" class="st2" d="M0,2h50.4v50.5H0V2z"/>
			</g>
		</mask>
		<path class="st3" d="M12.2,8.8c-1.4,0-2.8,0.6-3.8,1.6c-2.1,2.1-2.1,5.5,0,7.7l26,26.1c2.1,2.1,5.5,2.1,7.6,0c0,0,0,0,0,0
			c2.1-2.1,2.1-5.5,0-7.7l-26-26C15,9.4,13.7,8.8,12.2,8.8 M38.2,52.5c-3.2,0-6.4-1.3-8.6-3.6l-26-26c-4.8-4.8-4.8-12.6,0-17.3
			c4.8-4.8,12.5-4.8,17.3,0l26,26c4.8,4.8,4.8,12.6,0,17.3C44.6,51.2,41.4,52.5,38.2,52.5"/>
	</g>
	<g transform="translate(25.043 23.157)">
		<defs>
			<filter id="Adobe_OpacityMaskFilter_1_" filterUnits="userSpaceOnUse" x="0" y="2" width="50.4" height="50.5">
				<feColorMatrix  type="matrix" values="1 0 0 0 0  0 1 0 0 0  0 0 1 0 0  0 0 0 1 0"/>
			</filter>
		</defs>
		<mask maskUnits="userSpaceOnUse" x="0" y="2" width="50.4" height="50.5" id="d_1_">
			<g class="st4">
				<path id="c_1_" class="st2" d="M0,2h50.4v50.5H0V2z"/>
			</g>
		</mask>
		<path class="st5" d="M38.2,8.8c-1.4,0-2.8,0.6-3.8,1.6l-26,26.1c-2.1,2.1-2.1,5.5,0,7.7c2.1,2.1,5.5,2.1,7.6,0c0,0,0,0,0,0l26-26
			c2.1-2.1,2.1-5.5,0-7.7C41,9.4,39.6,8.8,38.2,8.8 M12.2,52.5c-3.2,0-6.4-1.3-8.6-3.6c-4.8-4.8-4.8-12.6,0-17.3l26-26
			c4.8-4.8,12.5-4.8,17.3,0c4.8,4.8,4.8,12.6,0,17.3l-26,26C18.6,51.2,15.5,52.5,12.2,52.5"/>
	</g>
</g>
</svg>
