<?xml version="1.0" encoding="UTF-8"?>
<svg version="1.1" xmlns="http://www.w3.org/2000/svg" width="2501" height="522">
<path d="M0 0 C1.65994625 1.49788049 3.31109169 3.00563181 4.94921875 4.52734375 C6.51083233 5.94280978 8.12692907 7.29955783 9.78125 8.60546875 C11.94549099 10.36129652 13.70730057 12.08634852 15.515625 14.1953125 C16.1034375 14.87980469 16.69125 15.56429687 17.296875 16.26953125 C20.09803139 19.65043517 22.80993028 23.09969847 25.50390625 26.56640625 C27.0524887 28.65872607 27.0524887 28.65872607 29.203125 29.5703125 C29.450625 29.01601562 29.698125 28.46171875 29.953125 27.890625 C46.38288901 -2.60712443 87.27736638 -25.03110872 119.390625 -34.7421875 C132.87713063 -38.67748334 146.53689296 -41.54781305 160.62890625 -41.6328125 C161.40985657 -41.63987213 162.19080688 -41.64693176 162.99542236 -41.65420532 C195.56828198 -41.88189423 195.56828198 -41.88189423 209.203125 -38.4296875 C210.04536621 -38.22037598 210.88760742 -38.01106445 211.75537109 -37.79541016 C254.06414032 -27.02188503 290.23810715 -3.69803831 316.203125 31.5703125 C316.82719238 32.40393311 316.82719238 32.40393311 317.46386719 33.25439453 C344.37633516 69.61076978 350.3091249 111.6867414 350.37178993 155.56857872 C350.37903879 159.5931195 350.39441834 163.61754468 350.41313171 167.64204407 C350.41946559 169.0299749 350.42579126 170.41790577 350.43210888 171.80583668 C350.43527469 172.49993912 350.4384405 173.19404157 350.44170225 173.90917742 C350.48350958 183.25201917 350.51678025 192.59481475 350.52905273 201.93774414 C350.53746637 208.27868841 350.56006122 214.61941619 350.5984084 220.96025211 C350.61802575 224.30064615 350.62838397 227.64043796 350.62557411 230.98093224 C350.62320965 234.7059604 350.64547121 238.43011911 350.6730957 242.1550293 C350.66649429 243.23846115 350.65989288 244.32189301 350.65309143 245.43815613 C350.7340478 252.12470776 351.160958 262.5281455 356.203125 267.5703125 C358.51240933 267.98449382 360.82572977 268.37623636 363.140625 268.7578125 C374.42425142 270.87257343 382.53953502 276.07508151 389.203125 285.5703125 C394.14607624 294.29569599 395.24006694 303.9479035 393.140625 313.6953125 C390.17906776 323.85491471 385.22282248 330.97750666 376.203125 336.5703125 C375.5225 337.00472656 374.841875 337.43914062 374.140625 337.88671875 C362.47008055 343.86787278 345.14008053 341.71441293 332.9765625 337.94921875 C320.67112121 333.66559831 311.22630716 326.83920915 302.203125 317.5703125 C301.18798828 316.55130859 301.18798828 316.55130859 300.15234375 315.51171875 C281.78086821 295.91819384 277.06885555 266.62497231 277.04541016 240.83129883 C277.03778908 238.97793411 277.03778908 238.97793411 277.03001404 237.08712769 C277.0193606 234.41847661 277.01034529 231.74987583 277.00389481 229.08121681 C276.9931061 224.84623325 276.97283338 220.61132653 276.95077515 216.37638855 C276.88921393 204.34007301 276.83494536 192.30376386 276.80175781 180.26733398 C276.78330853 173.60487602 276.75424929 166.94254915 276.7137531 160.28018779 C276.69286243 156.76705396 276.67725163 153.25408394 276.67494583 149.74088478 C276.790396 129.44672266 276.790396 129.44672266 273.203125 109.5703125 C273.01129135 108.81957962 272.8194577 108.06884674 272.62181091 107.29536438 C265.61372649 81.30622674 247.51033635 58.83994564 224.32324219 45.48779297 C198.26850535 31.01803851 168.97317102 27.39297301 140.203125 35.5703125 C125.24446649 40.20244657 111.79060233 48.09372901 100.203125 58.5703125 C98.83027344 59.80201172 98.83027344 59.80201172 97.4296875 61.05859375 C72.10217131 85.00267418 66.6674144 115.83562013 65.59033203 149.2578125 C64.09477991 193.68998344 55.37549572 233.58289856 28.203125 269.5703125 C27.53023437 270.47007812 26.85734375 271.36984375 26.1640625 272.296875 C-2.50498405 308.9356951 -45.41761221 333.77216974 -91.57324219 339.94140625 C-141.15290834 345.87829194 -190.23784131 333.37109821 -229.83056641 302.64404297 C-266.60136186 273.30079253 -291.11100786 231.36783358 -297.4609375 184.58203125 C-298.0557607 179.24937212 -298.51519892 173.92886452 -298.796875 168.5703125 C-298.85101562 167.63316406 -298.90515625 166.69601562 -298.9609375 165.73046875 C-299.32803242 154.10023434 -296.60362984 144.35100946 -288.796875 135.5703125 C-279.76785845 126.54129595 -268.90417499 124.08199948 -256.44021606 123.99020386 C-254.99399783 123.99186194 -253.54777993 123.99383716 -252.1015625 123.99609375 C-250.52585452 123.98381155 -248.95015951 123.96976427 -247.3744812 123.95413208 C-243.05223958 123.91606509 -238.73020641 123.90198679 -234.40782166 123.89179611 C-229.75127298 123.87650611 -225.09490584 123.83866234 -220.43847656 123.80297852 C-213.25696419 123.75006867 -206.07546524 123.70507791 -198.89385223 123.66829205 C-183.5070831 123.58916895 -168.12100831 123.45764825 -152.73470736 123.31536794 C-146.68398698 123.25964706 -140.63325207 123.20550425 -134.58251953 123.15112305 C-133.91537233 123.14512459 -133.24822513 123.13912613 -132.56086135 123.1329459 C-91.63855192 122.76528994 -50.72105877 122.49262997 -9.796875 122.5703125 C-10.70919025 119.25380459 -11.63475068 115.94112677 -12.5625 112.62890625 C-12.94462646 111.23883362 -12.94462646 111.23883362 -13.33447266 109.82067871 C-21.18777891 81.92431593 -39.50011837 59.35733354 -64.484375 44.8203125 C-90.06075562 30.49342369 -119.61745872 28.34856563 -147.66796875 35.56640625 C-166.5669703 41.3461009 -182.36516493 51.78139611 -195.99291992 65.95703125 C-204.04000734 74.12444213 -212.42892584 77.78223223 -223.796875 77.9453125 C-233.86358508 77.99905321 -242.83874236 75.41158355 -250.2734375 68.28515625 C-258.02653617 59.55795031 -261.47764542 49.96433773 -261.078125 38.26171875 C-259.24728546 20.74160151 -245.47637641 8.68414005 -232.53051758 -1.87182617 C-165.21607335 -55.08066654 -65.94344713 -57.2860672 0 0 Z M-175.859375 196.0703125 C-177.50028799 196.08824923 -177.50028799 196.08824923 -179.17435074 196.10654831 C-192.38197355 196.25175958 -205.58947608 196.40601821 -218.796875 196.5703125 C-218.00984654 198.65744939 -217.21888774 200.74310449 -216.42626953 202.828125 C-215.98622589 203.98973145 -215.54618225 205.15133789 -215.09280396 206.34814453 C-205.27693059 230.75410646 -182.27403653 249.77131495 -158.703125 260.00390625 C-131.47675133 271.21759702 -102.15298181 271.13441168 -74.91015625 259.97265625 C-64.6048458 255.33074101 -55.58896426 249.66350722 -46.796875 242.5703125 C-45.62705078 241.64992188 -45.62705078 241.64992188 -44.43359375 240.7109375 C-31.34878884 229.83404816 -20.4771751 213.56484173 -14.796875 197.5703125 C-14.796875 196.9103125 -14.796875 196.2503125 -14.796875 195.5703125 C-30.23436541 195.53902331 -45.67185699 195.51909924 -61.109375 195.5078125 C-62.27174053 195.50695648 -63.43410606 195.50610046 -64.63169479 195.50521851 C-101.7103159 195.4811614 -138.78297318 195.66480648 -175.859375 196.0703125 Z " fill="#FEB81A" transform="translate(1726.796875,176.4296875)"/>
<path d="M0 0 C9.09666775 8.23869908 16.80599426 17.05710128 24.140625 26.859375 C24.76710938 27.69082031 25.39359375 28.52226562 26.0390625 29.37890625 C49.2416842 61.3505939 63.18010296 103.11972482 60.140625 142.859375 C58.45201641 152.61458513 53.59308666 160.80368593 45.609375 166.7421875 C30.08419867 176.42204142 11.02743461 174.00103802 -6.58154297 173.97290039 C-9.06633503 173.97261793 -11.55112718 173.97277741 -14.03591919 173.9733429 C-19.36027532 173.97356957 -24.6846162 173.97075939 -30.00896835 173.96510506 C-37.70683572 173.95693549 -45.40469717 173.95436928 -53.1025684 173.95311707 C-65.5955633 173.95093507 -78.08855163 173.94429822 -90.58154297 173.93481445 C-102.70849576 173.9256182 -114.83544676 173.91854822 -126.96240234 173.91430664 C-127.7114471 173.91404392 -128.46049186 173.91378119 -129.23223494 173.91351051 C-132.990432 173.91220536 -136.74862908 173.91094168 -140.50682616 173.90969861 C-171.62434722 173.89935257 -202.74186011 173.8816826 -233.859375 173.859375 C-233.06916844 176.59565262 -232.27537799 179.33080387 -231.47949219 182.06542969 C-231.25711884 182.83684296 -231.03474548 183.60825623 -230.80563354 184.40304565 C-222.71939835 212.11375893 -201.68266715 235.65465094 -176.796875 249.734375 C-144.30921221 267.41941192 -109.13475338 271.57225883 -73.609375 261.109375 C-53.28868487 254.81199057 -34.34717708 245.47803728 -19.25 230.22265625 C-12.39090031 223.44201031 -3.66975409 219.88976215 5.953125 219.421875 C16.40735827 219.81637437 25.72330041 223.48700389 33.140625 230.859375 C40.85466949 239.47197852 43.49216046 248.26158168 43.3515625 259.734375 C42.3927029 273.93970244 33.39345085 283.82537548 23.140625 292.859375 C-10.54266129 321.5207251 -58.0444823 340.79884603 -102.56640625 341.0625 C-103.76490204 341.07308945 -103.76490204 341.07308945 -104.98760986 341.08389282 C-138.34848651 341.31183735 -138.34848651 341.31183735 -152.859375 337.859375 C-154.14473145 337.56135986 -154.14473145 337.56135986 -155.45605469 337.25732422 C-192.01476986 328.55752301 -224.45959775 311.62730956 -251.859375 285.859375 C-252.69710449 285.07264404 -252.69710449 285.07264404 -253.55175781 284.27001953 C-286.6510921 252.92446923 -308.28587033 209.93705247 -309.92816162 163.93249512 C-311.56776005 102.61905632 -297.84288993 51.1630758 -255.6484375 5.46484375 C-242.26724612 -8.38059304 -225.85927162 -19.28122614 -208.859375 -28.140625 C-208.25544922 -28.45628418 -207.65152344 -28.77194336 -207.02929688 -29.09716797 C-139.38628247 -63.86538037 -56.00931116 -49.85658823 0 0 Z M-210.14208984 64.89648438 C-217.43672961 73.23440074 -229.859375 89.44060712 -229.859375 100.859375 C-194.62410805 100.91650329 -159.39078234 100.8901596 -124.15625 100.640625 C-123.38285593 100.63514774 -122.60946186 100.62967049 -121.81263161 100.62402725 C-112.44749728 100.5573027 -103.08239604 100.48647601 -93.71730471 100.41399288 C-85.6241475 100.35146103 -77.53096855 100.29197419 -69.43778753 100.23261738 C-52.91162563 100.11134977 -36.3854917 99.98665801 -19.859375 99.859375 C-20.48652347 98.27275698 -21.11555316 96.68688249 -21.74536133 95.10131836 C-22.09544754 94.2181041 -22.44553375 93.33488983 -22.80622864 92.4249115 C-27.21792451 81.67771891 -33.15990886 72.56005376 -40.859375 63.859375 C-41.39820312 63.17746094 -41.93703125 62.49554688 -42.4921875 61.79296875 C-58.96059048 41.31090977 -87.25353073 28.69247684 -112.859375 25.859375 C-151.36572751 23.89054191 -183.86474544 36.37279442 -210.14208984 64.89648438 Z " fill="#00224C" transform="translate(2440.859375,178.140625)"/>
<path d="M0 0 C7.26864344 5.87646375 11.69254329 13.14008051 13.75 22.25 C14.51584375 29.69798226 14.31488109 37.22670245 14.29589844 44.70385742 C14.30464155 46.98132023 14.3151299 49.25877689 14.32722473 51.53622437 C14.35501454 57.69451665 14.35849095 63.85260779 14.35750484 70.01095366 C14.36063995 76.45585969 14.38627067 82.90067593 14.40948486 89.34553528 C14.44540365 100.15492235 14.46753674 110.96424392 14.47900391 121.77368164 C14.49084806 132.90262257 14.5110749 144.03149673 14.54248047 155.16040039 C14.54538462 156.19105942 14.54538462 156.19105942 14.54834744 157.24253985 C14.55811264 160.68988373 14.56804164 164.13722711 14.57805204 167.58457029 C14.66075892 196.13967912 14.71452143 224.6947956 14.75 253.25 C15.97759033 252.12198975 15.97759033 252.12198975 17.22998047 250.97119141 C18.31736182 249.9729589 19.40476534 248.97475054 20.4921875 247.9765625 C21.02996826 247.4822876 21.56774902 246.9880127 22.12182617 246.47875977 C25.62393104 243.26515782 29.16681721 240.10637014 32.7578125 236.9921875 C35.11020635 234.93499601 37.43034966 232.84403085 39.75 230.75 C43.36676345 227.48609152 47.01389608 224.26209051 50.6875 221.0625 C53.05964429 218.97788836 55.40556065 216.86571356 57.75 214.75 C61.36676345 211.48609152 65.01389608 208.26209051 68.6875 205.0625 C71.05964429 202.97788836 73.40556065 200.86571356 75.75 198.75 C79.36676345 195.48609152 83.01389608 192.26209051 86.6875 189.0625 C89.05964429 186.97788836 91.40556065 184.86571356 93.75 182.75 C97.36676345 179.48609152 101.01389608 176.26209051 104.6875 173.0625 C107.05964429 170.97788836 109.40556065 168.86571356 111.75 166.75 C117.07334693 161.95092208 122.43863339 157.2092205 127.90234375 152.5703125 C133.85526311 147.50894976 139.72799191 142.39804901 145.4375 137.0625 C157.07655988 126.25955933 167.02864007 117.03981531 183.75 117.25 C194.68099137 118.22064814 203.28221553 122.13418465 210.75 130.25 C218.07378161 140.32830124 219.72961607 149.9221042 218.75 162.25 C215.57611282 178.97148615 197.95173289 190.97756392 185.671875 201.578125 C183.33894926 203.60758073 181.04488755 205.677647 178.75 207.75 C175.13323655 211.01390848 171.48610392 214.23790949 167.8125 217.4375 C164.5748667 220.2826929 161.3831371 223.17853836 158.18359375 226.06640625 C156.07488854 227.95848685 153.95080199 229.82905758 151.8125 231.6875 C148.58440488 234.49822525 145.41261557 237.365799 142.25 240.25 C138.46337002 243.70328153 134.6452368 247.11099051 130.77734375 250.47265625 C128.41510827 252.54359487 126.08204147 254.64512848 123.75 256.75 C120.13323655 260.01390848 116.48610392 263.23790949 112.8125 266.4375 C110.44035571 268.52211164 108.09443935 270.63428644 105.75 272.75 C102.76937279 275.43983431 99.77754767 278.11310364 96.75 280.75 C92.03298716 284.86081039 87.39361111 289.05667845 82.75 293.25 C76.79085858 298.63128528 70.81161122 303.9841869 64.75 309.25 C66.12352928 312.36836333 67.66838973 314.36865428 70.1640625 316.67578125 C70.84339844 317.30806641 71.52273438 317.94035156 72.22265625 318.59179688 C72.93292969 319.24212891 73.64320313 319.89246094 74.375 320.5625 C75.06207031 321.20123047 75.74914063 321.83996094 76.45703125 322.49804688 C79.86111924 325.64986193 83.30402793 328.74880607 86.8046875 331.79296875 C90.70723907 335.18842804 94.48613585 338.70222408 98.25 342.25 C103.92406993 347.58378417 103.92406993 347.58378417 109.75 352.75 C114.3857496 356.73511808 118.80365889 360.95566456 123.26171875 365.13671875 C126.38315322 368.05878016 129.50704928 370.96220025 132.75 373.75 C137.3857496 377.73511808 141.80365889 381.95566456 146.26171875 386.13671875 C149.38315322 389.05878016 152.50704928 391.96220025 155.75 394.75 C160.3857496 398.73511808 164.80365889 402.95566456 169.26171875 407.13671875 C172.38315322 410.05878016 175.50704928 412.96220025 178.75 415.75 C182.68957646 419.13665344 186.4613489 422.69681739 190.25 426.25 C195.99045268 431.64183844 195.99045268 431.64183844 201.875 436.875 C226.82965928 458.49142635 226.82965928 458.49142635 229.09765625 475.921875 C229.51905478 487.42788695 225.48835763 496.83306801 217.75 505.25 C208.51741672 513.17380414 199.76665543 515.1146773 187.75 515.25 C175.68308473 514.26865448 167.55833317 506.6083064 159.19921875 498.62255859 C157.10865645 496.64258197 154.96195089 494.72816322 152.8125 492.8125 C148.3579009 488.81551622 143.96081521 484.75925591 139.56884766 480.69384766 C135.50118412 476.93272573 131.3943837 473.21790461 127.26953125 469.51953125 C121.87962334 464.66443591 116.55048195 459.74220458 111.20898438 454.83398438 C106.09689626 450.1376188 100.98114844 445.4467486 95.8125 440.8125 C91.3579009 436.81551622 86.96081521 432.75925591 82.56884766 428.69384766 C78.50118412 424.93272573 74.3943837 421.21790461 70.26953125 417.51953125 C64.87962334 412.66443591 59.55048195 407.74220458 54.20898438 402.83398438 C48.27516998 397.38271652 42.32267126 391.95447325 36.32421875 386.57421875 C32.42509299 383.05376377 28.56651631 379.48960124 24.70703125 375.92578125 C22.5162333 373.9433551 20.31060284 372.0014305 18.06518555 370.08276367 C17.44218063 369.55003342 16.81917572 369.01730316 16.17729187 368.46842957 C15.70628555 368.06634781 15.23527924 367.66426605 14.75 367.25 C14.74853344 367.84800069 14.74706688 368.44600138 14.74555588 369.0621233 C14.70840643 383.65352544 14.64928448 398.24472617 14.56609726 412.83593464 C14.52639008 419.89233565 14.49395559 426.94862648 14.47900391 434.00512695 C14.46454358 440.81987796 14.42933749 447.63427485 14.38169098 454.44887352 C14.36689714 457.04383557 14.35896014 459.6388464 14.35811615 462.23385048 C14.35573887 465.87933047 14.32859537 469.52387214 14.29589844 473.16918945 C14.30344398 474.76494812 14.30344398 474.76494812 14.31114197 476.39294434 C14.14771727 488.23316102 10.23794968 497.37946852 2.16015625 505.93359375 C-5.73229744 513.38035594 -15.61597064 515.55167459 -26.25 515.25 C-37.90994024 513.76027791 -45.5286646 508.47582191 -53.42578125 500.08203125 C-60.09543652 489.72764137 -59.81782425 479.18885548 -59.75120544 467.33456421 C-59.755102 465.41344848 -59.76074528 463.49233565 -59.76797634 461.57122958 C-59.78269768 456.31162277 -59.77256943 451.05231638 -59.75823963 445.79271936 C-59.74711504 440.11305442 -59.75907731 434.43343111 -59.76808167 428.75376892 C-59.78200542 417.63556309 -59.77446453 406.51747093 -59.75940608 395.39927052 C-59.74253667 382.4506563 -59.74575738 369.50207033 -59.74950016 356.55344851 C-59.75555455 332.75285254 -59.73978252 308.95232326 -59.71431253 285.15174364 C-59.69119303 263.43252362 -59.68581182 241.71337018 -59.69604492 219.99414062 C-59.69864702 214.43098135 -59.70123205 208.86782207 -59.70364285 203.3046627 C-59.70394029 202.61973339 -59.70423774 201.93480407 -59.7045442 201.22911932 C-59.71216117 183.06932528 -59.70568603 164.90953899 -59.69494683 146.74974692 C-59.69342099 144.14656616 -59.69190064 141.54338539 -59.69038582 138.94020462 C-59.689628 137.65940462 -59.68887019 136.37860462 -59.68808941 135.0589925 C-59.68334673 126.03314216 -59.68519787 117.00730686 -59.68945122 107.98145676 C-59.69437735 96.98358106 -59.68839565 85.98577423 -59.66855692 74.98791431 C-59.65868439 69.37670148 -59.65357951 63.76559351 -59.66144943 58.15437508 C-59.66850672 53.01748922 -59.6617003 47.88081496 -59.6438458 42.743957 C-59.6398017 40.88613391 -59.64080054 39.02829154 -59.64736467 37.17047565 C-59.69209055 23.3266459 -58.71531835 12.85441982 -48.5859375 2.55859375 C-34.90304798 -9.90595629 -14.99672808 -10.29794086 0 0 Z " fill="#00224C" transform="translate(1192.25,6.75)"/>
<path d="M0 0 C2.5613412 2.25931475 5.09998166 4.53963504 7.62109375 6.84375 C9.77510509 8.79615436 11.97027726 10.68277359 14.1875 12.5625 C18.1958001 16.06676236 21.58629399 19.92466849 25 24 C25.73863281 24.83917969 26.47726562 25.67835938 27.23828125 26.54296875 C61.29457032 65.92225037 75.95122822 116.84011443 72.69140625 168.40625 C69.26141953 214.62706272 50.99994009 255.6126921 19 289 C18.44715332 289.58539551 17.89430664 290.17079102 17.32470703 290.77392578 C3.91758885 304.91823069 -10.87830321 316.65561633 -28 326 C-28.94045166 326.51554443 -28.94045166 326.51554443 -29.89990234 327.04150391 C-75.17197625 351.52127794 -128.63539516 354.67750249 -177.70703125 340.69140625 C-227.31994869 325.67182829 -267.45008639 287.92040177 -291.625 242.875 C-296.8340296 232.90584028 -300.79150843 222.77044906 -304 212 C-304.35916504 210.80455566 -304.35916504 210.80455566 -304.72558594 209.58496094 C-319.37944913 159.5260635 -313.24947518 104.39315481 -288.7097168 58.59179688 C-264.29613482 14.16440223 -222.04171565 -21.16572519 -173.22265625 -35.44140625 C-113.95944367 -51.75096545 -47.12330893 -40.41396008 0 0 Z M-208.609375 70.4453125 C-230.75080939 95.19893859 -241.22845232 126.60351848 -239.8125 159.6875 C-237.94967845 192.42591601 -224.81524815 219.86250258 -202 243 C-200.72382812 244.29550781 -200.72382812 244.29550781 -199.421875 245.6171875 C-175.24589781 268.85218354 -144.87920179 276.50869885 -112.20703125 276.2109375 C-81.4175394 275.56841558 -54.29854667 260.56814852 -33 239 C-7.68150573 212.53918983 0.93220603 179.71489865 0.23699951 143.83998108 C-0.69312741 111.11930437 -17.64970925 83.42349324 -40.171875 60.8203125 C-65.7669657 36.86099827 -97.23751337 29.97812418 -131.33447266 30.82080078 C-161.22293552 32.28197913 -188.7038567 48.8992295 -208.609375 70.4453125 Z " fill="#00224C" transform="translate(1002,173)"/>
<path d="M0 0 C1.48727918 1.30312647 2.96982153 2.61165316 4.45214844 3.92041016 C5.29648437 4.64228516 6.14082031 5.36416016 7.01074219 6.10791016 C11.24325132 9.76228566 15.0577174 13.54550235 18.65917969 17.82275391 C19.89082569 19.26369923 21.16193687 20.67154548 22.46386719 22.04931641 C53.0111982 54.46129599 69.30947309 99.75352384 70.45214844 143.92041016 C70.49210937 145.13857422 70.53207031 146.35673828 70.57324219 147.61181641 C71.43954216 198.11200907 54.31284037 247.01464743 19.40917969 283.86572266 C18.69882568 284.59903809 18.69882568 284.59903809 17.97412109 285.34716797 C16.90493142 286.45237462 15.84269374 287.5643286 14.78564453 288.68115234 C1.37578587 302.83166098 -13.42031486 314.57283928 -30.54785156 323.92041016 C-31.48830322 324.43595459 -31.48830322 324.43595459 -32.44775391 324.96191406 C-77.71982781 349.4416881 -131.18324673 352.59791264 -180.25488281 338.61181641 C-226.11099514 324.7295557 -267.38414934 289.87709799 -290.41064453 248.05029297 C-316.66878517 198.8712421 -321.58870417 142.60450303 -305.66503906 89.17578125 C-299.85989323 70.98048579 -290.99505337 53.21172122 -279.54785156 37.92041016 C-279.12713379 37.3485498 -278.70641602 36.77668945 -278.27294922 36.1875 C-247.58692339 -5.26919405 -203.70820082 -34.32488339 -152.47705078 -42.48999023 C-97.65892654 -50.35046826 -42.14582252 -36.43351728 0 0 Z M-169.54785156 37.92041016 C-171.27261719 38.69191406 -171.27261719 38.69191406 -173.03222656 39.47900391 C-185.46552183 45.35631488 -195.58900876 53.53741881 -205.54785156 62.92041016 C-206.22332031 63.53142578 -206.89878906 64.14244141 -207.59472656 64.77197266 C-229.43037783 85.29748484 -241.5749395 116.3100431 -242.54785156 145.92041016 C-242.60779297 147.30486328 -242.60779297 147.30486328 -242.66894531 148.71728516 C-243.44768829 182.61550885 -230.77264522 212.55566453 -208.04785156 237.31494141 C-187.51940259 258.70943432 -160.22952751 273.42388751 -130.08300781 274.12353516 C-93.83054331 274.50672283 -64.93254026 265.04730539 -38.42675781 239.79541016 C-15.80668711 217.5912886 -2.53694651 187.55712245 -2.16748047 155.8581543 C-2.16925293 154.55869873 -2.17102539 153.25924316 -2.17285156 151.92041016 C-2.17339539 151.24332001 -2.17393921 150.56622986 -2.17449951 149.86862183 C-2.29930051 115.91925633 -15.29446986 86.59025487 -39.0546875 62.390625 C-63.8942848 37.93280045 -93.63151414 28.40449146 -127.8830719 28.61372375 C-142.63973035 28.79952085 -156.08514686 31.84866268 -169.54785156 37.92041016 Z " fill="#00224C" transform="translate(578.5478515625,175.07958984375)"/>
<path d="M0 0 C9.19966667 6.91673609 15.52215532 14.57446804 17.53977966 26.07740784 C18.07600717 30.6478313 18.1322642 35.10269091 18.11352539 39.69897461 C18.11367142 40.64609314 18.11381744 41.59321167 18.1139679 42.56903076 C18.1132747 45.68015889 18.10551015 48.79122615 18.09765625 51.90234375 C18.09578996 54.06710274 18.09436705 56.23186214 18.09336853 58.3966217 C18.08955994 64.07981544 18.07974385 69.7629834 18.06866455 75.44616699 C18.05841473 81.25121716 18.05386327 87.05627151 18.04882812 92.86132812 C18.03812006 104.2408967 18.02106361 115.62044621 18 127 C18.62703323 126.99111755 19.25406647 126.98223511 19.90010071 126.9730835 C26.47082331 126.88407056 33.04137252 126.82404335 39.61254883 126.78027344 C42.0595598 126.7602517 44.50652349 126.73302602 46.95336914 126.69824219 C50.48595907 126.64930837 54.01791229 126.62693584 57.55078125 126.609375 C58.63144363 126.58872986 59.71210602 126.56808472 60.82551575 126.54681396 C72.83894804 126.54332485 82.00593172 130.3953926 90.68359375 138.58984375 C97.71119205 146.03804643 100.42345328 156.05503483 100.2734375 166.12109375 C99.2463245 176.93512634 95.02671692 185.504697 87.05078125 192.77734375 C79.96509497 198.47095021 71.92781556 201.13652612 62.8425293 201.11352539 C61.84186935 201.11344986 60.84120941 201.11337433 59.81022644 201.11329651 C58.7423439 201.10813522 57.67446136 201.10297394 56.57421875 201.09765625 C54.92012749 201.09553383 54.92012749 201.09553383 53.23262024 201.09336853 C49.71755233 201.08778004 46.20254859 201.07522959 42.6875 201.0625 C40.30143321 201.05748352 37.91536543 201.05292087 35.52929688 201.04882812 C29.6861761 201.03781437 23.84309263 201.02108764 18 201 C18.00075944 201.59502221 18.00151888 202.19004442 18.00230134 202.80309761 C18.04707664 238.08436893 18.08138281 273.36563536 18.10213066 308.6469292 C18.10463201 312.88506222 18.10722066 317.12319519 18.10986328 321.36132812 C18.1103879 322.205049 18.11091252 323.04876988 18.11145304 323.91805805 C18.12015097 337.5718485 18.13591758 351.22562206 18.15430559 364.8794025 C18.17302166 378.89386353 18.18412034 392.90831573 18.18817699 406.92278874 C18.1909185 415.56749499 18.19957129 424.21215353 18.21583293 432.8568451 C18.22642088 438.78824772 18.22959653 444.71962576 18.22700275 450.65103714 C18.22572428 454.07095869 18.22765695 457.49079699 18.23841095 460.91070366 C18.24838093 464.62509533 18.24596119 468.33928392 18.24050903 472.05368042 C18.24633472 473.12569037 18.2521604 474.19770033 18.25816262 475.30219543 C18.2098092 487.5142507 16.14022932 498.07128428 7.76953125 507.33203125 C-0.93265529 515.53475455 -10.25348605 517.87547865 -22 518 C-32.40759672 517.08039468 -40.93101262 512.66780655 -48 505 C-55.02642476 495.47080005 -56.30230929 486.73806834 -56.24050903 475.18029785 C-56.24221788 474.00556648 -56.24392673 472.8308351 -56.24568737 471.62050581 C-56.24840247 468.37767028 -56.24218846 465.13499641 -56.23213124 461.89217997 C-56.22346639 458.38853889 -56.22641905 454.88490488 -56.22793579 451.3812561 C-56.22898273 445.31686127 -56.22272616 439.25250959 -56.21146011 433.18812561 C-56.19518209 424.42013145 -56.18999475 415.65215808 -56.18748413 406.88415045 C-56.18311064 392.65745567 -56.16981092 378.43078387 -56.15087891 364.20410156 C-56.13251115 350.38704544 -56.11835903 336.56999556 -56.10986328 322.75292969 C-56.10933783 321.90075074 -56.10881239 321.04857179 -56.10827102 320.17056924 C-56.10566088 315.89528998 -56.10313348 311.62001067 -56.10064721 307.34473133 C-56.07992548 271.89647117 -56.04470937 236.44823771 -56 201 C-56.90296562 201.00999275 -56.90296562 201.00999275 -57.82417297 201.02018738 C-64.13541275 201.08697515 -70.44655081 201.13197947 -76.75805664 201.16479492 C-79.10803308 201.1798061 -81.45798186 201.20022135 -83.80786133 201.22631836 C-87.20140442 201.26304034 -90.5945745 201.27980365 -93.98828125 201.29296875 C-95.54365349 201.31619453 -95.54365349 201.31619453 -97.13044739 201.33988953 C-109.18093166 201.34261952 -119.08538163 198.49015664 -127.97265625 190.1484375 C-136.15267398 181.43003219 -138.33203188 172.28287321 -138.2109375 160.609375 C-137.57659751 149.75511292 -132.97313277 142.55484668 -125.1875 135.25 C-118.69506598 129.79186929 -111.23538361 126.86593353 -102.77246094 126.88647461 C-101.73168396 126.88655014 -100.69090698 126.88662567 -99.61859131 126.88670349 C-98.50179993 126.89186478 -97.38500854 126.89702606 -96.234375 126.90234375 C-94.51157318 126.90446617 -94.51157318 126.90446617 -92.75396729 126.90663147 C-89.08595169 126.91222857 -85.41799715 126.92478056 -81.75 126.9375 C-79.26302171 126.94251537 -76.77604247 126.94707822 -74.2890625 126.95117188 C-68.1926875 126.96219705 -62.09634811 126.97893231 -56 127 C-56.00999275 125.15409775 -56.00999275 125.15409775 -56.02018738 123.27090454 C-56.08112063 111.64829304 -56.12603126 100.02571415 -56.15543652 88.4029789 C-56.17106247 82.4282526 -56.19224473 76.45365573 -56.22631836 70.47900391 C-56.25902116 64.70831411 -56.27687609 58.93774846 -56.28463173 53.16697311 C-56.29015564 50.97025983 -56.30094235 48.77355299 -56.31719017 46.57689285 C-56.33910943 43.48942874 -56.34196086 40.40247136 -56.34057617 37.31494141 C-56.351362 36.41582031 -56.36214783 35.51669922 -56.3732605 34.59033203 C-56.31845361 23.22543029 -52.67176724 14.11725088 -44.9609375 5.80078125 C-33.55485227 -5.10150163 -13.93784936 -9.07298047 0 0 Z " fill="#00224C" transform="translate(138,4)"/>
<path d="M0 0 C8.91303761 5.14167067 14.28795034 12.12196934 17.1875 21.875 C18.39986046 32.30129994 16.80999291 41.02309296 10.875 49.875 C5.86467507 56.05228668 -1.7153756 60.19677642 -9.5 61.5625 C-18.71300233 62.48813917 -26.5444388 60.96989015 -34.23828125 55.6796875 C-41.63301851 49.5667047 -45.86531925 43.28034461 -46.93359375 33.65625 C-47.41025073 23.8732125 -45.88256356 15.59163865 -39.75 7.75 C-29.65776353 -3.05582895 -13.42649823 -6.16662323 0 0 Z " fill="#FEB81A" transform="translate(1877.5,273.4375)"/>
</svg>
