<svg xmlns="http://www.w3.org/2000/svg" xmlns:xlink="http://www.w3.org/1999/xlink" viewBox="0 0 158 39">
  <path d="M 151.614 2.774 L 151.62 11.236 L 151.62 11.238 C 151.62 11.604 151.205 11.815 150.91 11.598 C 150.273 11.127 149.354 10.483 148.792 10.232 C 147.948 9.854 147.009 9.763 146.094 9.722 C 144.544 9.652 143.171 10.111 141.982 10.885 C 140.793 11.661 139.865 12.772 139.202 14.223 C 138.538 15.673 138.208 17.448 138.208 19.548 C 138.208 21.649 138.527 23.311 139.166 24.76 C 139.804 26.21 140.706 27.316 141.869 28.079 C 143.034 28.841 144.392 29.222 145.945 29.222 C 147.148 29.222 148.217 28.965 149.156 28.454 C 150.096 27.941 150.871 27.223 151.485 26.298 L 151.699 25.975 C 151.819 25.794 152.1 25.869 152.113 26.085 L 152.113 28.266 C 152.135 28.594 152.407 28.85 152.738 28.85 L 157.375 28.847 C 157.721 28.847 158.001 28.568 158.001 28.222 L 158.001 2.774 C 158.001 2.429 157.721 2.149 157.375 2.149 L 152.242 2.149 C 151.897 2.149 151.616 2.428 151.616 2.774 Z M 147.53 23.588 C 145.227 23.588 143.36 21.766 143.36 19.516 C 143.36 17.267 145.227 15.444 147.53 15.444 C 149.832 15.444 151.699 17.267 151.699 19.516 C 151.699 21.766 149.832 23.588 147.53 23.588 Z M 70.339 10.099 C 70.774 10.099 71.077 10.53 70.927 10.938 L 64.398 28.848 C 63.697 30.823 62.934 32.398 62.107 33.574 C 61.281 34.748 60.305 35.598 59.178 36.124 C 58.052 36.648 56.7 36.911 55.122 36.911 C 54.07 36.911 53.106 36.799 52.229 36.574 C 51.55 36.4 50.94 36.174 50.398 35.895 C 50.128 35.756 49.994 35.449 50.08 35.158 L 50.986 32.1 C 51.095 31.729 51.514 31.542 51.861 31.716 C 52.114 31.843 52.376 31.943 52.643 32.018 C 53.144 32.155 53.781 32.224 54.558 32.224 C 55.284 32.224 55.872 32.085 56.342 31.849 C 57.496 31.27 58.135 29.844 57.834 29.018 L 55.759 24.161 L 50.469 10.955 C 50.305 10.545 50.608 10.098 51.05 10.098 L 56.669 10.098 C 56.952 10.098 57.2 10.288 57.274 10.559 L 60.04 20.785 L 60.366 22.226 C 60.511 22.865 61.421 22.879 61.583 22.242 L 61.993 20.636 L 64.76 10.559 C 64.834 10.288 65.081 10.099 65.364 10.099 Z M 109.418 10.099 L 114.66 10.099 C 115.094 10.099 115.396 10.529 115.249 10.936 L 108.94 28.435 C 108.85 28.683 108.614 28.849 108.35 28.848 L 101.606 28.848 C 101.341 28.848 101.105 28.683 101.016 28.435 L 94.706 10.936 C 94.56 10.529 94.861 10.099 95.296 10.099 L 100.649 10.099 C 100.931 10.099 101.18 10.289 101.253 10.561 L 104.397 22.174 C 104.564 22.789 105.436 22.791 105.605 22.177 L 108.812 10.558 C 108.887 10.286 109.134 10.099 109.416 10.099 Z M 125.704 9.706 C 120.16 9.706 115.668 14.094 115.668 19.509 C 115.668 24.923 120.162 29.311 125.704 29.311 C 131.245 29.311 135.74 24.923 135.74 19.509 C 135.74 14.094 131.247 9.706 125.704 9.706 Z M 125.704 23.581 C 123.401 23.581 121.534 21.758 121.534 19.509 C 121.534 17.259 123.401 15.436 125.704 15.436 C 128.006 15.436 129.873 17.259 129.873 19.509 C 129.873 21.758 128.006 23.581 125.704 23.581 Z M 79.834 29.224 C 78.557 29.224 77.436 29.005 76.472 28.568 C 75.508 28.131 74.75 27.424 74.2 26.448 C 73.65 25.474 73.373 24.199 73.373 22.623 L 73.373 10.723 C 73.373 10.378 73.654 10.098 74 10.098 L 79.133 10.098 C 79.478 10.098 79.759 10.378 79.759 10.723 L 79.759 21.123 C 79.759 22.323 79.996 23.16 80.473 23.635 C 80.949 24.11 81.625 24.348 82.501 24.348 C 82.951 24.348 83.377 24.268 83.778 24.104 C 84.177 23.942 84.529 23.692 84.83 23.355 C 85.13 23.017 85.362 22.581 85.525 22.043 C 85.687 21.506 85.769 20.874 85.769 20.149 L 85.769 10.723 C 85.769 10.378 86.05 10.098 86.395 10.098 L 91.529 10.098 C 91.874 10.098 92.155 10.378 92.155 10.723 L 92.155 28.223 C 92.155 28.568 91.874 28.848 91.529 28.848 L 86.928 28.837 C 86.596 28.837 86.321 28.577 86.303 28.245 L 86.303 26.155 C 86.29 25.931 85.994 25.86 85.882 26.053 C 85.323 27.014 84.609 27.751 83.741 28.266 C 82.665 28.902 81.363 29.222 79.835 29.222 Z" fill="rgb(11,37,49)"></path>
  <path d="M 19.996 13.015 C 16.312 13.015 13.325 15.932 13.325 19.531 C 13.325 23.13 16.312 26.045 19.996 26.045 C 23.68 26.045 26.667 23.128 26.667 19.531 C 26.667 15.933 23.68 13.015 19.996 13.015 Z M 19.996 0 C 8.953 0 0 8.744 0 19.529 C 0 30.315 8.953 39.058 19.996 39.058 C 31.038 39.058 39.993 30.315 39.993 19.529 C 39.993 8.744 31.041 0 19.996 0 Z M 19.996 31.72 C 13.102 31.72 7.514 26.263 7.514 19.531 C 7.514 12.798 13.102 7.34 19.996 7.34 C 26.889 7.34 32.478 12.797 32.478 19.531 C 32.478 26.264 26.889 31.72 19.996 31.72 Z" fill="rgb(126,152,243)"></path>
</svg>