<?xml version="1.0" encoding="UTF-8"?>
<svg version="1.1" xmlns="http://www.w3.org/2000/svg" width="1536" height="1536">
<path d="M0 0 C3.77921142 0.00457882 7.55840532 -0.00248581 11.33761311 -0.00795984 C18.71665218 -0.01679829 26.09565031 -0.01495678 33.47469091 -0.00913456 C39.47811465 -0.00459605 45.48152701 -0.00401457 51.48495197 -0.00618219 C52.34322885 -0.00648866 53.20150573 -0.00679513 54.08579099 -0.00711088 C55.83000422 -0.00775041 57.57421744 -0.00839883 59.31843066 -0.00905606 C75.6288051 -0.0147431 91.93915696 -0.00822709 108.24952769 0.00254467 C122.20881209 0.01147869 136.1680632 0.00992619 150.12734699 0.00070715 C166.38405688 -0.01002432 182.64074705 -0.01419393 198.89745998 -0.00806832 C200.63483524 -0.0074313 202.3722105 -0.00680256 204.10958576 -0.00618219 C205.39142547 -0.00571937 205.39142547 -0.00571937 206.69916093 -0.00524719 C212.68717036 -0.00352886 218.67516716 -0.00641664 224.66317463 -0.0111413 C231.97228449 -0.01678223 239.28135146 -0.01516677 246.59045649 -0.00457981 C250.31122507 0.00063404 254.03192245 0.00280796 257.75269032 -0.00387812 C295.10225478 -0.0653669 295.10225478 -0.0653669 313.17226887 4.82394934 C314.13141193 5.08079504 315.090555 5.33764074 316.07876301 5.60226965 C332.31384794 10.17477978 346.91023926 17.78968394 360.79726887 27.26144934 C361.45775227 27.70295324 362.11823566 28.14445715 362.79873371 28.59933996 C364.50286653 29.76647229 366.15527495 31.00840404 367.79726887 32.26144934 C367.79726887 32.92144934 367.79726887 33.58144934 367.79726887 34.26144934 C368.61131184 34.60369543 368.61131184 34.60369543 369.44180012 34.95285559 C388.81504668 45.71577034 401.81446057 69.84227006 410.79726887 89.26144934 C411.50496418 90.75031652 411.50496418 90.75031652 412.22695637 92.26926184 C427.99949887 127.43909263 427.32128775 169.76080519 413.9681673 205.47922277 C412.11662926 210.17628245 410.01202124 214.72642374 407.79726887 219.26144934 C407.50658527 219.87649328 407.21590168 220.49153723 406.91640949 221.12521887 C390.85524906 254.86961058 359.86214429 281.24378782 324.93130207 293.95285559 C314.78866677 297.39799213 304.32616548 299.39306476 293.79726887 301.26144934 C294.78082355 301.3968009 295.76437824 301.53215246 296.77773762 301.67160559 C314.86407313 304.38555125 331.87821859 310.27196285 347.79726887 319.26144934 C348.46065266 319.63108801 349.12403645 320.00072668 349.80752277 320.38156652 C360.44360995 326.39315732 369.18323511 333.63435302 377.79726887 342.26144934 C378.65578449 343.11351965 379.51430012 343.96558996 380.39883137 344.84348059 C408.63164384 373.30620195 423.22443346 411.28752136 424.17226887 451.26144934 C423.12801929 493.5970676 407.13890348 531.7182788 376.79726887 561.26144934 C376.32418293 561.7680509 375.85109699 562.27465246 375.36367512 562.79660559 C351.02470591 588.41964511 314.23415598 600.86408689 279.66787434 602.18649817 C244.47732583 603.03100168 211.30125845 592.31760604 183.79726887 570.26144934 C182.73634802 569.42906483 181.67514524 568.59703954 180.61367512 567.76535559 C174.87734971 563.19821753 174.87734971 563.19821753 172.79726887 561.26144934 C172.79726887 560.60144934 172.79726887 559.94144934 172.79726887 559.26144934 C171.80726887 558.93144934 170.81726887 558.60144934 169.79726887 558.26144934 C169.79726887 557.60144934 169.79726887 556.94144934 169.79726887 556.26144934 C169.13726887 556.26144934 168.47726887 556.26144934 167.79726887 556.26144934 C148.41606176 535.79422632 135.19978104 509.60602902 129.74355793 482.04196692 C129.56568745 481.14552969 129.38781696 480.24909246 129.20455647 479.32549047 C129.0029491 478.30379011 129.0029491 478.30379011 128.79726887 477.26144934 C128.79667178 477.87345432 128.79607469 478.4854593 128.79545951 479.11600989 C128.7594896 515.46688867 128.70273458 551.8176806 128.61934792 588.16848261 C128.60933162 592.54265153 128.5994873 596.91682081 128.58974934 601.29099035 C128.58683728 602.59710277 128.58683728 602.59710277 128.58386639 603.92960129 C128.55292743 617.98980548 128.53588845 632.04999338 128.52407464 646.11022516 C128.51162093 660.55984128 128.48402497 675.00937257 128.4426558 689.45893508 C128.41764059 698.3600477 128.40414277 707.26101945 128.40583929 716.16216771 C128.40586927 722.28340091 128.39106273 728.40449166 128.36510459 734.52566924 C128.35059693 738.04624826 128.34213432 741.56653528 128.35146618 745.08713865 C128.42244559 785.63607365 117.89216521 819.92478342 91.79726887 851.26144934 C91.10375324 852.17668371 90.41023762 853.09191809 89.69570637 854.03488684 C88.7559798 855.13703527 88.7559798 855.13703527 87.79726887 856.26144934 C87.13726887 856.26144934 86.47726887 856.26144934 85.79726887 856.26144934 C85.42601887 857.18957434 85.42601887 857.18957434 85.04726887 858.13644934 C83.59098247 860.6121362 82.41914381 861.21269936 79.79726887 862.26144934 C79.79726887 862.92144934 79.79726887 863.58144934 79.79726887 864.26144934 C77.88044727 866.00877706 75.96590835 867.61012495 73.92226887 869.19894934 C73.30166584 869.68258947 72.68106281 870.16622961 72.04165363 870.66452551 C56.16343393 882.76528917 38.87655012 891.47358504 19.79726887 897.26144934 C18.33740559 897.71004309 18.33740559 897.71004309 16.84805012 898.16769934 C-17.90811304 907.86258446 -57.70003752 902.08057165 -89.20273113 885.26144934 C-94.68934224 882.16345612 -99.99846261 878.81106448 -105.20273113 875.26144934 C-105.86321453 874.81994543 -106.52369793 874.37844152 -107.20419598 873.92355871 C-108.90832879 872.75642638 -110.56073722 871.51449463 -112.20273113 870.26144934 C-112.20273113 869.60144934 -112.20273113 868.94144934 -112.20273113 868.26144934 C-112.75573895 868.02297277 -113.30874676 867.78449621 -113.87851238 867.53879309 C-122.93109116 862.56367836 -130.05165248 853.30341513 -136.20273113 845.26144934 C-136.85757488 844.43387121 -137.51241863 843.60629309 -138.18710613 842.75363684 C-162.86780711 810.47127996 -172.00133154 769.02535687 -166.68368816 729.11667395 C-164.28282517 713.00966878 -159.33540664 697.8666334 -152.20273113 683.26144934 C-151.91204754 682.64640539 -151.62136395 682.03136145 -151.32187176 681.39767981 C-135.26071132 647.6532881 -104.26760655 621.27911086 -69.33676434 608.57004309 C-59.19412904 605.12490654 -48.73162774 603.12983391 -38.20273113 601.26144934 C-39.19530926 601.09129309 -40.18788738 600.92113684 -41.21054363 600.74582434 C-71.99653829 595.32153439 -98.07301891 583.33829438 -120.73398113 561.65842199 C-122.13500695 560.32586386 -123.55899502 559.01757249 -124.98398113 557.71066809 C-133.01995809 550.10189106 -139.1110835 541.45486206 -145.20273113 532.26144934 C-146.09798504 530.93500402 -146.09798504 530.93500402 -147.01132488 529.58176184 C-167.9785729 496.73875546 -172.31709644 454.93805157 -164.61679363 417.40549231 C-157.60117142 386.31697504 -140.82225551 356.80692431 -116.20273113 336.26144934 C-115.05417645 335.24631262 -115.05417645 335.24631262 -113.88241863 334.21066809 C-92.13627573 315.49036464 -66.14990726 306.05239382 -38.20273113 301.26144934 C-39.43765301 301.04230871 -40.67257488 300.82316809 -41.94491863 300.59738684 C-81.06922365 293.39960529 -116.09101123 273.81240203 -139.57773113 241.01144934 C-164.44375251 204.70773292 -172.94376103 162.40506977 -165.20273113 119.26144934 C-159.66818403 92.76480507 -147.18879191 69.29855213 -129.20273113 49.26144934 C-128.38288738 48.32043371 -127.56304363 47.37941809 -126.71835613 46.40988684 C-122.81366107 41.96796863 -118.98627781 37.76160544 -114.20273113 34.26144934 C-113.54273113 34.26144934 -112.88273113 34.26144934 -112.20273113 34.26144934 C-112.20273113 33.60144934 -112.20273113 32.94144934 -112.20273113 32.26144934 C-110.80429363 31.05978918 -110.80429363 31.05978918 -108.82773113 29.72238684 C-108.09763836 29.22811193 -107.36754559 28.73383703 -106.61532879 28.2245841 C-105.81917156 27.70049963 -105.02301434 27.17641516 -104.20273113 26.63644934 C-102.98335857 25.83001989 -102.98335857 25.83001989 -101.73935223 25.00729895 C-94.17813507 20.09551936 -86.38976703 16.01213799 -78.20273113 12.26144934 C-77.22562176 11.79223059 -76.24851238 11.32301184 -75.24179363 10.83957434 C-69.19367628 8.0950505 -62.98872037 6.2456585 -56.57773113 4.57394934 C-55.82137371 4.37132483 -55.06501629 4.16870031 -54.28573895 3.95993567 C-36.49306059 -0.42963309 -18.19216623 -0.03269062 0 0 Z M127.79726887 301.26144934 C127.79726887 344.49144934 127.79726887 387.72144934 127.79726887 432.26144934 C128.12726887 432.26144934 128.45726887 432.26144934 128.79726887 432.26144934 C128.88701984 431.71955969 128.97677082 431.17767004 129.06924152 430.61935949 C132.31863986 411.40218304 137.47945709 394.3987313 146.79726887 377.26144934 C147.62871418 375.69137121 147.62871418 375.69137121 148.47695637 374.08957434 C153.31536525 365.33876784 159.42288606 356.48654373 166.62539387 349.48410559 C168.02792069 348.30306427 168.02792069 348.30306427 167.79726887 346.26144934 C168.45726887 346.26144934 169.11726887 346.26144934 169.79726887 346.26144934 C171.14362581 344.60528553 172.47463903 342.93662272 173.79726887 341.26144934 C181.19709063 334.49166249 189.45671876 328.79376883 197.79726887 323.26144934 C198.58230793 322.72777746 199.36734699 322.19410559 200.17617512 321.64426184 C217.16993338 310.70914782 237.06699695 305.38048634 256.79726887 302.26144934 C256.79726887 301.93144934 256.79726887 301.60144934 256.79726887 301.26144934 C214.22726887 301.26144934 171.65726887 301.26144934 127.79726887 301.26144934 Z " fill="#A158FE" transform="translate(640.2027311325073,316.7385506629944)"/>
<path d="M0 0 C3.77921142 0.00457882 7.55840532 -0.00248581 11.33761311 -0.00795984 C18.71665218 -0.01679829 26.09565031 -0.01495678 33.47469091 -0.00913456 C39.47811465 -0.00459605 45.48152701 -0.00401457 51.48495197 -0.00618219 C52.34322885 -0.00648866 53.20150573 -0.00679513 54.08579099 -0.00711088 C55.83000422 -0.00775041 57.57421744 -0.00839883 59.31843066 -0.00905606 C75.6288051 -0.0147431 91.93915696 -0.00822709 108.24952769 0.00254467 C122.20881209 0.01147869 136.1680632 0.00992619 150.12734699 0.00070715 C166.38405688 -0.01002432 182.64074705 -0.01419393 198.89745998 -0.00806832 C200.63483524 -0.0074313 202.3722105 -0.00680256 204.10958576 -0.00618219 C205.39142547 -0.00571937 205.39142547 -0.00571937 206.69916093 -0.00524719 C212.68717036 -0.00352886 218.67516716 -0.00641664 224.66317463 -0.0111413 C231.97228449 -0.01678223 239.28135146 -0.01516677 246.59045649 -0.00457981 C250.31122507 0.00063404 254.03192245 0.00280796 257.75269032 -0.00387812 C295.10225478 -0.0653669 295.10225478 -0.0653669 313.17226887 4.82394934 C314.13141193 5.08079504 315.090555 5.33764074 316.07876301 5.60226965 C332.31384794 10.17477978 346.91023926 17.78968394 360.79726887 27.26144934 C361.45775227 27.70295324 362.11823566 28.14445715 362.79873371 28.59933996 C364.50286653 29.76647229 366.15527495 31.00840404 367.79726887 32.26144934 C367.79726887 32.92144934 367.79726887 33.58144934 367.79726887 34.26144934 C368.61131184 34.60369543 368.61131184 34.60369543 369.44180012 34.95285559 C388.81504668 45.71577034 401.81446057 69.84227006 410.79726887 89.26144934 C411.50496418 90.75031652 411.50496418 90.75031652 412.22695637 92.26926184 C427.99949887 127.43909263 427.32128775 169.76080519 413.9681673 205.47922277 C412.11662926 210.17628245 410.01202124 214.72642374 407.79726887 219.26144934 C407.50658527 219.87649328 407.21590168 220.49153723 406.91640949 221.12521887 C391.17847808 254.19050854 361.02368637 280.32101494 326.91836262 293.17551184 C311.24845489 298.71808585 296.04606048 301.41107544 279.44846821 301.40862036 C278.09534513 301.41192452 276.74222303 301.41565124 275.38910216 301.41976184 C271.68519896 301.42972759 267.98131197 301.43348984 264.27739727 301.43615115 C260.27641026 301.44007051 256.27543588 301.44964776 252.27445698 301.45836401 C242.61798545 301.47808444 232.96151294 301.48818987 223.30502632 301.4970918 C218.74864941 301.50148271 214.19227364 301.5068475 209.63589764 301.51208067 C194.47336824 301.52908995 179.31083955 301.54358113 164.14830208 301.55082941 C160.2175703 301.55273906 156.28683852 301.55465943 152.35610676 301.55661535 C151.37923641 301.55709909 150.40236607 301.55758283 149.3958936 301.55808123 C133.59342899 301.56637042 117.79104035 301.59168988 101.98860887 301.62419603 C85.73528434 301.65735485 69.48199829 301.67528619 53.22863978 301.67847365 C44.11495607 301.6806308 35.00138307 301.68926204 25.88773251 301.71493483 C18.12133856 301.73676288 10.35508225 301.74463335 2.58866111 301.73496804 C-1.36539901 301.73045783 -5.31917592 301.73211509 -9.27319622 301.75172949 C-54.35252698 301.96277751 -92.18998974 290.10294145 -125.01523113 258.01144934 C-152.890038 229.78567791 -167.61618899 191.13420714 -168.51523113 151.69894934 C-167.86995321 113.21001892 -154.92267708 77.91437158 -129.20273113 49.26144934 C-128.38288738 48.32043371 -127.56304363 47.37941809 -126.71835613 46.40988684 C-122.81366107 41.96796863 -118.98627781 37.76160544 -114.20273113 34.26144934 C-113.54273113 34.26144934 -112.88273113 34.26144934 -112.20273113 34.26144934 C-112.20273113 33.60144934 -112.20273113 32.94144934 -112.20273113 32.26144934 C-110.80429363 31.05978918 -110.80429363 31.05978918 -108.82773113 29.72238684 C-108.09763836 29.22811193 -107.36754559 28.73383703 -106.61532879 28.2245841 C-105.81917156 27.70049963 -105.02301434 27.17641516 -104.20273113 26.63644934 C-102.98335857 25.83001989 -102.98335857 25.83001989 -101.73935223 25.00729895 C-94.17813507 20.09551936 -86.38976703 16.01213799 -78.20273113 12.26144934 C-77.22562176 11.79223059 -76.24851238 11.32301184 -75.24179363 10.83957434 C-69.19367628 8.0950505 -62.98872037 6.2456585 -56.57773113 4.57394934 C-55.82137371 4.37132483 -55.06501629 4.16870031 -54.28573895 3.95993567 C-36.49306059 -0.42963309 -18.19216623 -0.03269062 0 0 Z " fill="#FE7161" transform="translate(640.2027311325073,316.7385506629944)"/>
<path d="M0 0 C3.8954957 0.01153153 7.79096466 0.01193383 11.68647766 0.01335144 C23.02120987 0.0237769 34.35592055 0.05169934 45.69062805 0.07756042 C83.74375305 0.13943542 83.74375305 0.13943542 122.56562805 0.20256042 C122.56562805 99.53256042 122.56562805 198.86256042 122.56562805 301.20256042 C82.37781555 301.32631042 82.37781555 301.32631042 41.37812805 301.45256042 C32.95515198 301.48897644 24.5321759 301.52539246 15.85395813 301.56291199 C5.47517395 301.58097839 5.47517395 301.58097839 0.59838867 301.58433533 C-2.76829835 301.58802412 -6.13472658 301.60285998 -9.50134277 301.62486267 C-46.53262095 301.85608741 -46.53262095 301.85608741 -63.43437195 297.20256042 C-64.2320955 296.98400611 -65.02981905 296.76545179 -65.85171604 296.54027462 C-103.08656638 286.1814403 -134.16332344 260.40488526 -153.3679657 227.20256042 C-173.53017318 191.08058071 -178.95958691 148.39687456 -167.80937195 108.45256042 C-161.13890319 86.02707974 -150.00246892 66.5459667 -134.43437195 49.20256042 C-133.6145282 48.2615448 -132.79468445 47.32052917 -131.94999695 46.35099792 C-128.04530189 41.90907972 -124.21791862 37.70271653 -119.43437195 34.20256042 C-118.77437195 34.20256042 -118.11437195 34.20256042 -117.43437195 34.20256042 C-117.43437195 33.54256042 -117.43437195 32.88256042 -117.43437195 32.20256042 C-116.03593445 31.00090027 -116.03593445 31.00090027 -114.05937195 29.66349792 C-113.32927917 29.16922302 -112.5991864 28.67494812 -111.8469696 28.16569519 C-111.05081238 27.64161072 -110.25465515 27.11752625 -109.43437195 26.57756042 C-108.21499939 25.77113098 -108.21499939 25.77113098 -106.97099304 24.94841003 C-99.40977589 20.03663044 -91.62140784 15.95324908 -83.43437195 12.20256042 C-82.45726257 11.73334167 -81.4801532 11.26412292 -80.47343445 10.78068542 C-74.4253171 8.03616159 -68.22036118 6.18676958 -61.80937195 4.51506042 C-61.05301453 4.31243591 -60.2966571 4.1098114 -59.51737976 3.90104675 C-40.0429316 -0.90342548 -19.89672241 -0.06854935 0 0 Z " fill="#F14D1D" transform="translate(645.4343719482422,316.7974395751953)"/>
<path d="M0 0 C4.56828804 0.02532458 9.13659124 0.02737975 13.70493865 0.03210163 C22.32104353 0.04444151 30.93694084 0.07713888 39.55295509 0.11749959 C49.37668397 0.16250035 59.20042375 0.18427487 69.02423036 0.20428133 C89.20041094 0.24588154 109.37640582 0.31605502 129.55242705 0.40557575 C129.64625834 22.07771146 129.71659504 43.74981322 129.75967574 65.42211151 C129.78021888 75.48706294 129.80817986 85.55188747 129.85418487 95.61675739 C129.89430721 104.39888853 129.91991964 113.18092768 129.92878103 121.96314794 C129.93395322 126.6045925 129.94593316 131.24577411 129.97534728 135.8871336 C130.24182174 179.67173463 122.13405489 216.08266022 93.55242705 250.40557575 C92.85891143 251.32081013 92.1653958 252.2360445 91.45086455 253.17901325 C90.82438018 253.91377888 90.1978958 254.6485445 89.55242705 255.40557575 C88.89242705 255.40557575 88.23242705 255.40557575 87.55242705 255.40557575 C87.30492705 256.02432575 87.05742705 256.64307575 86.80242705 257.28057575 C85.34614066 259.75626262 84.17430199 260.35682578 81.55242705 261.40557575 C81.55242705 262.06557575 81.55242705 262.72557575 81.55242705 263.40557575 C79.63560546 265.15290348 77.72106654 266.75425136 75.67742705 268.34307575 C74.74652251 269.06853596 74.74652251 269.06853596 73.79681182 269.80865192 C57.91859212 281.90941559 40.63170831 290.61771145 21.55242705 296.40557575 C20.09256377 296.8541695 20.09256377 296.8541695 18.6032083 297.31182575 C-16.15295485 307.00671087 -55.94487934 301.22469807 -87.44757295 284.40557575 C-92.93418405 281.30758254 -98.24330442 277.95519089 -103.44757295 274.40557575 C-104.10805634 273.96407185 -104.76853974 273.52256794 -105.44903779 273.06768513 C-107.15317061 271.9005528 -108.80557903 270.65862105 -110.44757295 269.40557575 C-110.44757295 268.74557575 -110.44757295 268.08557575 -110.44757295 267.40557575 C-111.27708467 267.04786091 -111.27708467 267.04786091 -112.1233542 266.6829195 C-121.17593297 261.70780478 -128.2964943 252.44754154 -134.44757295 244.40557575 C-135.42983857 243.16420856 -135.42983857 243.16420856 -136.43194795 241.89776325 C-161.11264892 209.61540637 -170.24617336 168.16948329 -164.92852998 128.26080036 C-162.52766698 112.1537952 -157.58024846 97.01075982 -150.44757295 82.40557575 C-150.15688935 81.79053181 -149.86620576 81.17548786 -149.56671357 80.54180622 C-133.55009524 46.89099718 -102.61666206 20.46566771 -67.77269673 7.76980686 C-64.04308898 6.48379251 -60.25180615 5.44621351 -56.44757295 4.40557575 C-55.76130641 4.2161314 -55.07503987 4.02668705 -54.36797738 3.83150196 C-36.54169195 -0.83726854 -18.26781523 -0.11867259 0 0 Z " fill="#09CE83" transform="translate(638.4475729465485,917.5944242477417)"/>
<path d="M0 0 C2.34287673 0.01611063 4.68402958 0.00002029 7.02685547 -0.01904297 C21.25021895 -0.04051086 34.92291342 1.87440648 48.40576172 6.57861328 C49.28578857 6.88049561 50.16581543 7.18237793 51.07250977 7.4934082 C59.38618892 10.43398871 67.1709838 14.05857852 74.84326172 18.39111328 C75.8383374 18.94557129 75.8383374 18.94557129 76.85351562 19.51123047 C87.4896028 25.52282126 96.22922797 32.76401697 104.84326172 41.39111328 C106.13103516 42.66921875 106.13103516 42.66921875 107.44482422 43.97314453 C135.67763669 72.4358659 150.27042631 110.4171853 151.21826172 150.39111328 C150.17401214 192.72673154 134.18489633 230.84794274 103.84326172 260.39111328 C103.37017578 260.89771484 102.89708984 261.40431641 102.40966797 261.92626953 C78.07069876 287.54930905 41.28014883 299.99375084 6.71386719 301.31616211 C-28.47668132 302.16066562 -61.6527487 291.44726999 -89.15673828 269.39111328 C-90.21765913 268.55872877 -91.27886191 267.72670348 -92.34033203 266.89501953 C-98.07665743 262.32788147 -98.07665743 262.32788147 -100.15673828 260.39111328 C-100.15673828 259.73111328 -100.15673828 259.07111328 -100.15673828 258.39111328 C-101.14673828 258.06111328 -102.13673828 257.73111328 -103.15673828 257.39111328 C-103.15673828 256.73111328 -103.15673828 256.07111328 -103.15673828 255.39111328 C-103.81673828 255.39111328 -104.47673828 255.39111328 -105.15673828 255.39111328 C-132.01888991 227.02375488 -145.89774093 189.43675471 -145.59423828 150.64111328 C-145.5911969 149.81172241 -145.58815552 148.98233154 -145.58502197 148.12780762 C-145.51507465 135.19843307 -144.74893138 122.8817756 -141.15673828 110.39111328 C-140.94243164 109.62009277 -140.728125 108.84907227 -140.50732422 108.0546875 C-137.31643435 96.85406025 -132.7091408 86.60306967 -127.15673828 76.39111328 C-126.32529297 74.82103516 -126.32529297 74.82103516 -125.47705078 73.21923828 C-121.21156344 65.50462481 -115.97154945 58.71854427 -110.39746094 51.92285156 C-109.21771934 50.46639765 -108.08229693 48.97437203 -106.94970703 47.48095703 C-106.35802734 46.79130859 -105.76634766 46.10166016 -105.15673828 45.39111328 C-104.49673828 45.39111328 -103.83673828 45.39111328 -103.15673828 45.39111328 C-102.82673828 44.40111328 -102.49673828 43.41111328 -102.15673828 42.39111328 C-101.49673828 42.39111328 -100.83673828 42.39111328 -100.15673828 42.39111328 C-99.82673828 41.40111328 -99.49673828 40.41111328 -99.15673828 39.39111328 C-91.92321728 32.51650745 -83.45290069 26.89399024 -75.15673828 21.39111328 C-74.37169922 20.85744141 -73.58666016 20.32376953 -72.77783203 19.77392578 C-51.30476402 5.95647332 -25.28070109 -0.20570568 0 0 Z " fill="#19BBFD" transform="translate(913.15673828125,617.60888671875)"/>
</svg>
