<?xml version="1.0" encoding="utf-8"?>
<!-- Generator: Adobe Illustrator 28.0.0, SVG Export Plug-In . SVG Version: 6.00 Build 0)  -->
<svg version="1.1" id="Layer_1" xmlns="http://www.w3.org/2000/svg" xmlns:xlink="http://www.w3.org/1999/xlink" x="0px" y="0px"
	 viewBox="0 0 512 512" style="enable-background:new 0 0 512 512;" xml:space="preserve">
<style type="text/css">
	.st0{fill:#44D1FD;}
	.st1{fill:#757575;}
	.st2{fill:#1FBCFD;}
	.st3{fill:#08589C;}
</style>
<g>
	<path class="st0" d="M71.57,184.42l44.39-0.05L41.49,258.8l-19.41,19.3L0,256L71.57,184.42z M71.16,250.88
		c0.58-0.76,1.64-0.39,2.44-0.48l42.32,0.01l-38.57,38.53l-22.2-22.06L71.16,250.88z"/>
	<path class="st1" d="M248.4,215.48h-9.94l-0.01,79.75c0,1.34-0.1,2.68,0.15,4.01c1.58-0.04,3.17-0.06,4.76-0.06
		c1.65,0,3.29,0.02,4.94,0.05l0.11-26.81L248.4,215.48 M377.82,222.51c-0.21,5.64,0.17,11.31-0.18,16.94
		c-1.31-0.04-2.62-0.05-3.93-0.05c-0.47,0-0.93,0-1.4,0c-0.46,0-0.93,0-1.39,0c-1.15,0-2.3-0.01-3.44-0.04l-0.02,9.28
		c0.91,0,1.82,0,2.72,0c1,0,2,0,3,0c1.02,0,2.04,0,3.06,0c0.51,0,1.02,0,1.53,0v36.84c0.1,2.59,0.72,5.19,1.83,7.54
		c2.3,4.48,7.09,7.25,11.99,7.9c1.01,0.12,2.04,0.18,3.06,0.18c2.79,0,5.59-0.47,8.15-1.63l0.01-9.82
		c-2.04,1.22-4.47,2.07-6.86,2.07c-1.45,0-2.89-0.31-4.22-1.04c-2.88-1.46-3.73-4.98-3.73-7.95l0.05-34.14
		c2.71,0.02,5.42,0.06,8.13,0.06c2.05,0,4.09-0.02,6.13-0.1l-0.03-9.16c-0.86,0-1.73,0.01-2.59,0.01c-0.94,0-1.89,0-2.83,0
		c-0.95,0-1.9,0-2.85,0c-1.96,0-3.93,0.01-5.89,0.05c-0.3-5.52-0.01-11.07-0.13-16.6l-0.23-0.25c-1.03-0.04-2.06-0.05-3.09-0.05
		c-0.63,0-1.25,0-1.88,0.01c-0.63,0-1.25,0.01-1.88,0.01C379.88,222.56,378.85,222.55,377.82,222.51 M335.71,222.54l-0.03,16.74
		c-1.41,0.11-2.82,0.14-4.23,0.14c-0.82,0-1.63-0.01-2.45-0.02c-0.82-0.01-1.63-0.02-2.45-0.02c-0.46,0-0.92,0-1.38,0.01
		c-0.2,3.07-0.05,6.15-0.08,9.22c0.85,0.03,1.71,0.04,2.56,0.04c0.71,0,1.43-0.01,2.14-0.01c0.72-0.01,1.43-0.01,2.15-0.01
		c1.16,0,2.32,0.02,3.48,0.08l0.24,0.28l0.02,32.68c0.02,3.09-0.23,6.28,0.86,9.23c1.65,5.4,6.86,9.11,12.31,9.94
		c1.22,0.17,2.46,0.26,3.71,0.26c2.7,0,5.4-0.44,7.86-1.56v-9.76c-1.99,1.15-4.34,1.95-6.66,1.95c-1.48,0-2.95-0.33-4.3-1.09
		c-3.02-1.6-3.68-5.36-3.79-8.47l0.04-33.56c2.2,0.03,4.39,0.04,6.59,0.04c2.65,0,5.29-0.01,7.94-0.02
		c0.05-3.02-0.06-6.04,0.08-9.07c-1.91-0.15-3.83-0.19-5.75-0.19c-1.08,0-2.15,0.01-3.23,0.03c-1.07,0.01-2.15,0.03-3.22,0.03
		c-0.82,0-1.63-0.01-2.45-0.03l-0.02-16.85L335.71,222.54 M437.68,237.48c-3.93,0-7.85,0.73-11.48,2.23
		c-7.03,3.08-12.49,9.26-15.2,16.4c-2.58,6.5-2.94,13.75-1.77,20.59c1.61,8.91,7.25,17.2,15.45,21.27
		c3.89,2.09,8.23,2.89,12.61,2.89c2.73,0,5.48-0.31,8.13-0.81c8.39-1.61,15.52-7.55,19.45-15.03c-2.87-1.32-5.67-2.79-8.55-4.08
		c-2.6,4.48-6.56,8.39-11.63,9.88c-1.9,0.6-3.9,0.89-5.89,0.89c-5.59,0-11.2-2.29-14.87-6.57c-3.5-3.78-5.01-8.92-5.4-13.96
		l47.31-0.05c0.21-4.7,0.27-9.49-1.22-14.01c-2.28-8.15-8.51-15.17-16.56-17.95C444.73,238.07,441.2,237.48,437.68,237.48
		 M505.22,237.58c-7.47,0-14.95,4.48-17.85,11.51c-0.53-3.16,0.11-6.35-0.17-9.53c-1.06-0.03-2.12-0.03-3.18-0.03
		c-0.48,0-0.96,0-1.44,0s-0.96,0-1.44,0c-1.15,0-2.31-0.01-3.46-0.04l-0.08,21.52c0.05,12.78-0.11,25.57,0.08,38.34
		c0.97-0.03,1.95-0.04,2.92-0.04c0.58,0,1.17,0,1.75,0.01c0.58,0,1.17,0.01,1.75,0.01c1.24,0,2.48-0.01,3.72-0.07
		c-0.36-4.24,0.13-8.47-0.13-12.71c0.32-4.9-0.32-9.81,0.11-14.71c-0.04-3.79-0.45-7.65,0.64-11.34c1.58-5.47,5.71-10.45,11.28-12.1
		c1.29-0.38,2.61-0.55,3.94-0.55c2.85,0,5.7,0.77,8.34,1.81v-10.74C509.83,238.01,507.53,237.58,505.22,237.58 M268.83,239.37
		c-0.7,0-1.41,0.01-2.12,0.02c-0.71,0.01-1.41,0.02-2.12,0.02c-0.65,0-1.3-0.01-1.95-0.04l-0.12,37.35
		c0.15,5.07,0.82,10.32,3.44,14.77c2.21,4.04,6.05,7.14,10.47,8.47c2.55,0.74,5.23,1.13,7.91,1.13c4.49,0,8.97-1.1,12.8-3.52
		c2.98-1.65,5.17-4.29,7.25-6.91l0.04,8.51c1,0.01,2,0.01,3.01,0.01c0.47,0,0.95,0,1.42,0s0.95,0,1.42,0c1.26,0,2.53,0,3.79,0.03
		l0.06-59.81l-10.15-0.02l-0.11,34.09c0.29,7.52-4.67,15.04-11.77,17.59c-1.7,0.55-3.54,0.83-5.37,0.83c-3.89,0-7.77-1.3-10.41-4.23
		c-3.01-3.38-3.63-8.14-3.6-12.49l0.05-35.62C271.47,239.41,270.15,239.37,268.83,239.37 M402.81,289.66L402.81,289.66
		L402.81,289.66 M419.27,263.05c1.16-6.13,4.89-12.07,10.68-14.75c2.42-1.05,5.1-1.59,7.78-1.59c4.79,0,9.59,1.71,12.89,5.24
		c2.93,2.9,4.36,6.97,4.93,10.97L419.27,263.05 M178.35,215.47l-0.09,1.54l0.01,82.3c0.88,0.02,1.76,0.02,2.64,0.02
		c0.53,0,1.06,0,1.58,0c0.53,0,1.05,0,1.57,0c1.32,0,2.65,0.01,3.97,0.06l0.11-36.18c0.85-0.15,1.7-0.18,2.56-0.18
		c0.65,0,1.29,0.02,1.94,0.02c5.05,0,10.1,0,15.14,0s10.1,0,15.14,0v-9.52l-32.48,0.02c-0.1-0.02-0.21-0.02-0.32-0.02
		c-0.13,0-0.27,0.01-0.41,0.02c-0.14,0.01-0.29,0.02-0.43,0.02c-0.5,0-0.95-0.1-1.13-0.63l-0.04-25.63
		c0.11-0.74-0.35-1.96,0.62-2.28c5.28-0.02,10.57-0.03,15.85-0.03c7.38,0,14.76,0.01,22.14,0.01l0.01-9.53L178.35,215.47"/>
	<polygon class="st2" points="33.03,288.98 55.15,266.88 77.35,288.94 77.44,289.04 55.16,311.12 	"/>
	<path class="st3" d="M55.16,311.12l22.28-22.08l38.5,38.53c-14.5,0.03-29-0.01-43.49,0.02c-0.83,0.18-1.34-0.57-1.86-1.04
		L55.16,311.12L55.16,311.12z"/>
</g>
</svg>
