<svg version="1.1" id="Layer_1" xmlns="http://www.w3.org/2000/svg" xmlns:xlink="http://www.w3.org/1999/xlink" x="0px" y="0px"
	 width="100%" viewBox="0 0 360 267" enable-background="new 0 0 360 267" xml:space="preserve">
<path fill="#000000" opacity="1.000000" stroke="none" 
	d="
M226.000000,268.000000 
	C152.000046,268.000000 78.500046,267.969513 5.000310,268.096252 
	C1.576137,268.102173 0.899262,267.424591 0.904098,264.000031 
	C1.026020,177.666901 1.025994,91.333557 0.904164,5.000455 
	C0.899333,1.576894 1.575172,0.901391 4.999768,0.904732 
	C122.332916,1.019212 239.666214,1.019178 356.999359,0.904853 
	C360.422089,0.901518 361.100800,1.574178 361.095978,4.999575 
	C360.973969,91.332680 360.974030,177.666016 361.095764,263.999146 
	C361.100586,267.421783 360.427643,268.109955 357.000397,268.098206 
	C313.500671,267.949005 270.000244,268.000000 226.000000,268.000000 
z"/>
<path fill="#5514A6" opacity="1.000000" stroke="none" 
	d="
M203.315918,218.210236 
	C202.535904,217.432129 201.934418,216.938766 201.212494,216.176971 
	C199.966385,214.361938 198.958862,212.721008 197.332550,211.163605 
	C197.149689,210.899109 197.063309,210.939087 197.094101,210.902802 
	C196.746811,210.607819 196.481308,210.262589 196.217606,209.514038 
	C195.978180,208.538940 195.844559,207.882141 195.261963,207.050278 
	C194.567169,206.324921 194.016632,205.936737 193.336014,205.198975 
	C193.123138,204.941010 193.059341,204.939682 193.070496,204.909790 
	C192.278488,204.144257 192.451004,203.059402 192.093857,201.793915 
	C192.123581,201.192093 192.167358,200.955429 192.397995,200.414337 
	C194.160248,199.155670 195.906830,198.700287 197.676376,198.256149 
	C200.198868,197.622986 202.150162,197.964188 203.481461,200.543411 
	C205.053970,203.589905 207.908218,205.457367 210.688065,207.210846 
	C213.066788,208.711304 215.212509,208.659225 215.341064,204.594421 
	C215.574860,203.029831 215.765213,201.830505 215.875000,200.203812 
	C216.381683,198.655090 217.189285,197.939545 218.784821,197.604645 
	C221.076416,197.380722 222.928741,198.418488 222.984268,199.914993 
	C223.186264,205.357452 227.479050,207.804062 230.702637,211.536911 
	C230.956146,212.121445 231.004395,212.374146 230.974731,213.001099 
	C230.241241,214.459503 229.044189,214.955765 227.946014,216.059860 
	C227.310486,216.505600 226.965118,216.770538 226.502747,217.356903 
	C225.207748,222.228806 226.032349,224.053360 230.276703,225.552185 
	C234.239410,226.951553 237.954178,229.458511 242.642548,227.543518 
	C243.943893,227.011963 246.951660,226.693192 246.792511,230.350372 
	C244.532364,232.283737 242.080185,231.129410 239.452911,231.683075 
	C236.677734,232.428665 234.287659,231.885620 231.502106,231.672897 
	C228.980179,231.010498 226.872147,230.273605 224.307175,230.204376 
	C224.013260,229.978256 224.000610,229.998779 224.009125,229.990189 
	C220.699249,228.438065 217.532959,226.560059 213.752930,225.229248 
	C212.914429,224.356201 212.725708,223.350082 211.402222,222.991974 
	C209.248383,222.072388 207.558319,220.930832 205.345306,220.158829 
	C205.104645,219.910309 205.047363,219.938660 205.048462,219.906723 
	C204.866089,219.749557 204.682617,219.624344 204.313904,219.222168 
	C204.128647,218.945206 204.052490,218.944122 204.053070,218.906036 
	C203.867233,218.743637 203.680832,218.619308 203.315918,218.210236 
z"/>
<path fill="#6413B0" opacity="1.000000" stroke="none" 
	d="
M213.104843,125.374847 
	C211.301910,127.079262 209.636627,128.221741 207.336029,128.954010 
	C196.514069,134.598663 185.309067,135.573090 173.350891,134.217148 
	C168.514832,130.314697 168.415695,130.227066 172.189697,125.957275 
	C174.002350,123.906464 173.306808,121.255592 174.632141,118.766945 
	C175.979919,116.815201 178.095795,116.972130 179.859528,115.674271 
	C180.821045,115.057426 181.394745,114.551659 182.406372,114.043449 
	C183.245316,113.817863 183.730301,113.732491 184.578186,113.645248 
	C185.406448,113.587074 185.877472,113.572159 186.694183,113.564438 
	C187.495743,113.566925 187.951782,113.576958 188.746155,113.605247 
	C189.535599,113.634071 189.983719,113.679192 190.743484,113.864456 
	C191.432938,114.189217 191.793427,114.423973 192.427719,114.803459 
	C192.924057,114.979477 193.127182,115.040131 193.642746,115.173714 
	C194.600616,115.373611 195.249039,115.482338 196.236145,115.642227 
	C198.028656,116.532295 199.509476,117.270103 201.627228,117.183533 
	C205.952744,118.657288 210.234390,118.959686 214.368164,121.011047 
	C215.344574,122.941864 214.044327,123.913635 213.104843,125.374847 
z"/>
<path fill="#821FB9" opacity="1.000000" stroke="none" 
	d="
M243.525864,129.135773 
	C245.000626,129.197998 246.091583,129.197021 247.590027,129.232971 
	C250.045166,131.166901 254.197510,129.089233 255.051620,133.411194 
	C254.512207,134.516403 253.841568,135.076859 252.998993,135.062439 
	C245.953568,134.941864 243.279465,139.243515 242.419495,145.414505 
	C242.323090,146.106308 241.944290,146.608078 241.094803,147.209244 
	C238.955048,148.314835 237.083221,148.265442 234.770721,147.803955 
	C232.160904,147.757721 230.044968,148.577057 227.439362,148.388824 
	C224.518204,143.683167 220.767120,140.351898 215.881775,137.723633 
	C215.630966,136.861359 215.600555,136.355438 215.748917,135.487091 
	C217.113434,133.134186 219.588348,133.308701 221.600006,131.994781 
	C222.304794,131.732849 222.679230,131.535034 223.284592,131.119827 
	C224.099426,130.653229 224.692505,130.496017 225.650665,130.531738 
	C226.932434,130.832153 227.699692,130.123108 228.955505,130.028534 
	C233.900528,129.289261 238.484360,128.636169 243.525864,129.135773 
z"/>
<path fill="#511B96" opacity="1.000000" stroke="none" 
	d="
M95.232300,221.183441 
	C84.092033,213.337204 78.265236,202.539169 75.851273,189.802567 
	C74.031639,180.201752 74.754234,170.699249 78.689056,161.294128 
	C79.214378,160.909882 79.475769,160.763519 80.159241,160.769379 
	C82.583588,163.093552 82.411789,165.755280 82.223175,168.830490 
	C81.947617,170.576935 81.500237,171.866394 81.444916,173.625183 
	C80.350395,177.041534 80.653183,180.263458 80.083801,183.727844 
	C80.412987,185.368057 80.990715,186.546997 81.095306,188.226593 
	C80.959450,190.458893 81.475830,192.256454 81.438065,194.136047 
	C81.369400,197.553299 83.195580,200.792145 86.294334,201.560135 
	C95.096458,203.741592 98.536331,210.971588 102.930557,217.514816 
	C104.642029,220.063248 105.627670,222.368332 103.513824,225.389130 
	C102.662262,225.705322 102.153214,225.653656 101.322014,225.248535 
	C100.984245,225.049850 100.971558,225.039291 100.963181,225.041382 
	C99.744736,222.915802 97.561584,222.250778 95.232300,221.183441 
z"/>
<path fill="#6C318E" opacity="1.000000" stroke="none" 
	d="
M191.682800,33.573734 
	C214.484970,37.007702 232.126724,57.492306 233.124344,80.355164 
	C233.804733,95.948074 229.646332,109.499313 217.885010,120.647110 
	C215.520493,118.770355 216.382172,117.210121 217.928650,115.385895 
	C220.331696,109.767761 223.556274,104.968643 225.732834,99.272865 
	C227.443893,94.249565 227.899841,89.252220 230.084671,84.696777 
	C231.168365,82.437225 229.692581,80.115723 227.911499,77.897789 
	C226.990707,76.699745 226.961472,75.652824 226.989044,74.222885 
	C229.091385,64.935852 221.761292,60.838623 217.167175,55.004356 
	C216.191772,54.255325 215.714066,53.511967 214.925415,52.626640 
	C214.591965,52.226322 214.457840,52.067890 214.103577,51.689129 
	C213.416595,51.037594 212.921371,50.639317 212.187775,50.008423 
	C209.132233,48.145744 207.198486,45.464130 204.275177,43.471771 
	C202.778854,43.009968 202.121933,41.825394 200.664307,41.395180 
	C199.540894,41.206200 198.910751,40.624992 197.837494,40.267323 
	C196.909714,39.966496 196.369522,39.628208 195.755005,38.847263 
	C195.090088,38.029163 194.415802,37.918137 193.399704,37.704338 
	C192.807892,37.542946 192.579758,37.436150 192.075104,37.062820 
	C191.337143,35.857883 190.828735,34.925850 191.682800,33.573734 
z"/>
<path fill="#7C21B2" opacity="1.000000" stroke="none" 
	d="
M173.821167,199.416672 
	C173.995758,200.764496 173.930008,201.491745 173.804382,202.579254 
	C173.541977,203.459503 173.515198,204.022476 173.158493,204.752014 
	C172.966995,204.952469 172.996933,205.000366 172.974182,204.983459 
	C172.378937,205.537033 171.757065,206.029251 170.553497,206.226028 
	C167.138779,205.374573 164.180359,204.335892 160.810699,203.286087 
	C159.531082,202.557632 159.150787,201.443069 157.965332,200.570282 
	C157.443161,199.485687 157.185974,198.719879 156.731018,197.598267 
	C156.787720,194.508362 158.052704,192.139740 159.313217,189.859055 
	C164.027695,181.328934 163.435226,173.117081 158.306427,165.009827 
	C157.432449,163.628296 156.476715,162.255859 156.020248,160.241409 
	C156.228653,159.316925 156.420074,158.801483 156.818695,157.921692 
	C159.339264,155.566208 161.191483,156.332230 162.938446,158.444962 
	C164.267166,160.051895 164.841293,162.430664 167.733032,163.018311 
	C168.895065,163.553192 169.273392,164.329758 170.060608,165.270477 
	C171.236832,167.301620 171.069641,169.000580 170.472137,170.783920 
	C169.521576,173.621002 169.281540,176.520050 170.299072,179.799805 
	C170.707809,180.865631 170.967361,181.578369 171.283325,182.660919 
	C171.318909,183.271103 171.291748,183.513840 171.171097,184.102951 
	C170.977676,189.394592 172.407776,194.072922 173.821167,199.416672 
z"/>
<path fill="#6C318E" opacity="1.000000" stroke="none" 
	d="
M254.192291,132.982727 
	C252.720932,130.745270 249.985794,131.358871 248.208450,129.474731 
	C266.113037,132.222107 278.792816,142.456802 286.366180,158.852112 
	C293.260498,173.777405 292.482758,188.859863 285.295410,203.869293 
	C282.878479,203.632950 282.999878,201.915131 282.831909,199.985596 
	C282.878967,199.357941 282.926880,199.111176 283.092468,198.510071 
	C283.373962,197.692841 283.530518,197.227478 283.769043,196.409485 
	C283.941132,195.584427 284.015656,195.108185 284.141785,194.273041 
	C284.279999,193.434204 284.348938,192.951630 284.442291,192.097565 
	C287.745392,184.505264 286.387054,177.017105 285.630493,169.223175 
	C283.469940,165.883255 284.234985,161.370743 280.040039,159.196716 
	C278.233368,153.609802 274.122498,149.777191 271.118317,145.330002 
	C269.261841,142.581802 265.512878,141.489227 262.494141,139.836411 
	C259.384125,138.133606 255.743881,137.062790 254.192291,132.982727 
z"/>
<path fill="#812CA6" opacity="1.000000" stroke="none" 
	d="
M178.293793,172.266113 
	C178.983658,173.589111 178.959473,174.811417 178.878448,176.482819 
	C177.836319,177.716324 176.801468,177.254578 175.443176,176.873962 
	C173.408585,173.738007 171.931000,170.655029 172.046082,167.215271 
	C172.128494,164.751022 170.109024,163.572968 169.351776,161.276016 
	C169.133026,160.129333 168.563324,159.645218 167.771683,158.870270 
	C161.328293,148.022095 152.458817,140.498611 141.243286,135.699707 
	C139.415802,134.917770 137.261276,134.635284 137.698380,131.511276 
	C137.961609,130.946457 138.115997,130.745026 138.612091,130.375870 
	C151.948822,131.936752 161.249237,139.600769 169.043274,149.374252 
	C173.504593,154.968613 176.413513,161.457123 177.875198,168.947678 
	C178.804001,170.081696 178.414474,171.062866 178.293793,172.266113 
z"/>
<path fill="#522479" opacity="1.000000" stroke="none" 
	d="
M145.260284,120.988441 
	C124.861801,102.560081 123.659477,68.331268 143.017120,49.235931 
	C145.605682,51.212658 145.300247,53.204430 143.700012,55.215092 
	C142.484421,56.742443 141.544357,58.460014 140.160538,60.321335 
	C137.464630,63.173546 136.937180,66.356461 137.048126,70.094154 
	C137.088684,71.200325 137.012299,71.932472 136.631912,72.990623 
	C136.072250,74.258873 135.712311,75.197975 135.440063,76.565247 
	C132.467926,81.692757 131.886169,86.784119 133.230988,92.506958 
	C133.307968,94.705330 134.036621,96.101639 136.008331,97.159302 
	C136.801315,98.265015 137.660400,98.811111 138.467285,99.917122 
	C138.907318,101.001328 138.771301,101.753242 138.676239,102.871674 
	C139.495972,108.328865 141.858719,112.411415 146.611572,115.391724 
	C147.195374,117.023499 147.184631,118.309418 146.404816,119.914703 
	C146.014206,120.462311 145.829544,120.660233 145.260284,120.988441 
z"/>
<path fill="#521D8D" opacity="1.000000" stroke="none" 
	d="
M172.691315,132.613571 
	C184.412537,134.415878 195.437592,132.839539 206.592316,128.975006 
	C204.119568,132.369949 199.893433,133.321152 196.020538,134.236221 
	C181.176086,137.743546 166.812134,136.723526 153.318298,127.980293 
	C152.021896,125.977791 150.354462,125.053337 148.203735,124.232635 
	C147.925720,124.061729 147.973785,124.012962 147.966553,124.046417 
	C147.633667,122.758064 145.775360,122.629120 145.820786,120.773376 
	C149.477234,118.361496 154.371628,119.019081 158.403473,122.672470 
	C162.662888,126.532089 167.712082,129.151199 172.691315,132.613571 
z"/>
<path fill="#521D8D" opacity="1.000000" stroke="none" 
	d="
M187.352936,173.326569 
	C187.634384,166.317535 190.487686,160.425888 193.659821,154.336823 
	C194.733475,154.008820 195.546280,153.791275 196.672821,154.395905 
	C197.298355,155.114868 197.466400,155.619522 197.487671,156.568588 
	C195.139832,163.725250 192.581711,170.421982 191.288055,177.902771 
	C191.418198,181.101349 192.957657,183.423325 194.019424,185.909073 
	C196.082977,190.740158 195.673004,195.509216 193.629089,200.609390 
	C193.389633,200.937653 193.216522,200.990311 193.128220,201.010071 
	C192.282013,201.571838 191.814117,201.139038 191.194229,200.264725 
	C188.687958,198.489777 188.926117,195.896439 188.250580,193.317078 
	C188.834717,191.401428 187.916840,190.035919 187.546204,188.302277 
	C187.287674,184.970901 187.180801,181.923843 187.137024,178.423080 
	C187.767471,176.549103 187.418625,175.074463 187.352936,173.326569 
z"/>
<path fill="#652986" opacity="1.000000" stroke="none" 
	d="
M239.531281,231.842834 
	C241.170242,231.289505 243.257187,230.754211 245.664749,230.047485 
	C246.246674,229.489471 246.539963,229.128662 247.174881,228.638977 
	C248.367172,228.120941 249.001282,227.455307 249.883575,226.522461 
	C250.586136,226.091080 251.018372,225.905563 251.766129,225.585785 
	C252.913177,224.970337 253.800293,225.062134 255.007172,225.156464 
	C255.505951,224.996979 255.689514,224.885864 256.130981,224.577667 
	C259.171478,221.861832 263.401215,221.339203 265.664185,217.528122 
	C270.706238,214.407791 274.115448,209.550858 279.955261,207.627167 
	C280.853668,207.733276 281.300171,207.962189 281.834534,208.682281 
	C280.473419,212.557938 278.092010,215.419083 275.247467,217.949829 
	C265.187683,226.899841 253.910202,232.737091 239.531281,231.842834 
z"/>
<path fill="#7B28AA" opacity="1.000000" stroke="none" 
	d="
M282.012085,209.027298 
	C281.573425,209.042313 281.153625,209.049988 280.419464,209.082809 
	C276.538727,206.724014 277.006775,202.091660 274.519287,199.026703 
	C273.640045,197.943329 273.206421,196.437546 271.696289,195.287827 
	C271.042175,194.279160 270.998566,193.523712 271.238403,192.369553 
	C272.016541,189.510010 273.624573,187.480194 274.891296,184.840195 
	C275.329376,184.335495 275.538300,184.164627 276.120789,183.853027 
	C276.751465,183.661728 277.008606,183.611160 277.652313,183.523361 
	C280.208923,182.974060 282.115631,183.543121 282.777496,185.701202 
	C283.545227,188.204376 285.303070,190.161682 286.088989,192.991302 
	C286.140625,193.661957 286.152466,193.956055 286.110291,194.470917 
	C285.430908,195.552704 284.571411,196.337402 285.035095,197.928192 
	C285.056366,199.906219 285.027344,201.559113 284.993286,203.627289 
	C284.988220,204.042557 284.879303,204.503632 284.777954,204.717743 
	C283.526764,205.875793 283.169678,207.326447 282.200134,208.747559 
	C282.009338,208.987503 282.030914,209.019958 282.012085,209.027298 
z"/>
<path fill="#71299C" opacity="1.000000" stroke="none" 
	d="
M100.821564,135.550217 
	C111.465607,129.643677 122.384354,126.975403 134.605591,129.154190 
	C135.480530,129.604431 135.786224,130.094467 135.919281,131.122803 
	C133.975662,134.883804 130.752869,132.814468 127.798691,133.518372 
	C120.180237,136.028152 112.166512,134.976440 104.813156,138.671661 
	C103.357986,138.702148 102.308426,138.492065 100.991264,137.798370 
	C100.387672,136.990891 100.349007,136.448837 100.821564,135.550217 
z"/>
<path fill="#652986" opacity="1.000000" stroke="none" 
	d="
M196.014465,154.978516 
	C195.199600,154.749130 194.765167,154.556870 194.126038,154.242477 
	C197.072845,147.966568 201.664047,143.077133 207.506317,138.872803 
	C208.363846,138.857956 208.890167,139.030197 209.700455,139.542114 
	C210.453003,140.581573 210.537109,141.375427 210.135818,142.576233 
	C207.793427,144.989807 205.589935,147.025040 203.698517,149.854996 
	C201.600555,152.491837 200.164627,155.440720 196.014465,154.978516 
z"/>
<path fill="#6C318E" opacity="1.000000" stroke="none" 
	d="
M226.392334,131.282074 
	C225.580185,131.337204 225.050598,131.565521 224.207474,132.164795 
	C221.776871,133.298508 219.659790,134.061279 217.172287,134.885651 
	C216.192886,135.659576 215.603912,135.503128 215.038696,134.548035 
	C223.860825,129.212906 233.359695,127.768105 243.613007,128.932144 
	C238.965591,130.754379 233.708206,129.655945 228.308105,131.029480 
	C227.533157,131.372299 227.132050,131.501038 226.392334,131.282074 
z"/>
<path fill="#71299C" opacity="1.000000" stroke="none" 
	d="
M176.500595,175.219971 
	C177.385590,175.491302 177.920334,176.000839 178.634644,176.722015 
	C179.177002,184.878052 179.665894,192.844818 174.404877,199.944855 
	C174.061508,200.037262 173.764786,199.914993 173.622864,199.840118 
	C171.589233,195.924683 173.468597,192.137985 173.721970,187.913025 
	C174.132706,186.441940 174.338654,185.361725 174.404999,183.838776 
	C174.919235,180.751923 173.723358,177.711838 176.500595,175.219971 
z"/>
<path fill="#821FB9" opacity="1.000000" stroke="none" 
	d="
M191.602325,33.238350 
	C192.263779,33.891647 192.560577,34.483379 192.981125,35.293694 
	C192.675919,37.476639 191.231674,38.173851 189.452026,38.235222 
	C183.177597,38.451591 176.886154,39.099495 170.244690,37.396687 
	C169.407684,36.551239 169.179199,35.936275 169.300598,34.775002 
	C175.548660,32.319183 181.849991,33.189377 188.552597,33.086227 
	C189.761063,33.145477 190.499374,33.161133 191.602325,33.238350 
z"/>
<path fill="#652986" opacity="1.000000" stroke="none" 
	d="
M170.343781,33.724617 
	C169.912994,34.288685 169.812134,34.676384 169.675308,35.362511 
	C169.639847,35.913902 169.640366,36.166855 169.648178,36.798508 
	C169.569794,37.413750 169.484131,37.650291 169.159760,38.177284 
	C167.872742,39.167843 166.572128,39.184532 165.110565,39.817486 
	C163.519058,39.794140 162.404694,40.042637 161.190750,41.181782 
	C158.055557,41.029182 156.009933,44.896702 152.683228,42.479809 
	C152.460648,41.875053 152.449966,41.608936 152.594330,40.974644 
	C157.452179,36.350899 163.481812,35.072937 169.648239,33.206772 
	C170.244324,33.294407 170.459015,33.421329 170.343781,33.724617 
z"/>
<path fill="#58238D" opacity="1.000000" stroke="none" 
	d="
M165.228867,215.675568 
	C162.720596,218.184708 161.144882,221.171677 157.458435,222.051605 
	C156.563171,222.467590 156.066498,222.936615 155.270996,223.579834 
	C155.005569,223.793976 154.539124,223.940735 154.300018,223.991730 
	C153.790390,224.165848 153.519882,224.288986 152.835815,224.246521 
	C151.757736,223.429352 151.431290,222.624725 151.423172,221.275375 
	C154.664139,216.075394 158.575333,212.570007 165.102478,213.295197 
	C165.647964,214.167160 165.663071,214.730377 165.228867,215.675568 
z"/>
<path fill="#652986" opacity="1.000000" stroke="none" 
	d="
M100.748627,135.282532 
	C101.084396,135.633957 101.086479,136.056000 101.089012,136.794479 
	C101.218773,137.302628 101.348076,137.494339 101.494019,138.032623 
	C100.716393,139.493347 100.596413,141.026398 99.082626,142.086533 
	C97.906265,143.011108 96.668953,143.370911 96.203468,145.024628 
	C94.206825,147.465714 92.008942,149.084320 89.060707,150.214539 
	C88.415047,150.100281 88.167351,149.998047 87.637917,149.605713 
	C86.978279,148.522171 87.091042,147.747208 87.646606,146.629303 
	C91.110451,141.569260 95.808167,138.513489 100.748627,135.282532 
z"/>
<path fill="#511B96" opacity="1.000000" stroke="none" 
	d="
M87.599907,146.444473 
	C87.880272,146.978546 87.911415,147.679794 87.953430,148.735260 
	C89.752800,152.442245 85.815514,154.214127 85.686325,157.442657 
	C85.453072,159.632172 84.104340,160.545853 82.446808,161.621765 
	C81.782219,161.666000 81.514099,161.613571 80.941956,161.284988 
	C79.200409,158.665466 81.252106,156.839752 81.823448,154.432281 
	C83.837814,151.609482 85.594246,149.110565 87.599907,146.444473 
z"/>
<path fill="#6C318E" opacity="1.000000" stroke="none" 
	d="
M170.479919,33.916218 
	C170.013855,33.900990 170.019806,33.534218 170.024719,33.350853 
	C176.148682,32.569965 182.239578,31.170502 188.724915,32.825600 
	C183.059464,34.802094 176.966003,33.538712 170.479919,33.916218 
z"/>
<path fill="#522479" opacity="1.000000" stroke="none" 
	d="
M213.602936,223.795425 
	C217.443695,225.374527 221.480743,225.773056 223.888840,229.697632 
	C219.224075,230.090927 215.801300,226.783096 211.497650,224.806274 
	C211.197495,224.291611 211.143326,224.028549 211.422546,223.539627 
	C212.299576,223.185898 212.816452,223.255707 213.602936,223.795425 
z"/>
<path fill="#522479" opacity="1.000000" stroke="none" 
	d="
M141.744354,229.640976 
	C136.072906,232.557999 129.923248,232.566544 123.363525,231.841217 
	C123.105881,228.229813 125.817833,228.728027 128.402649,228.380737 
	C129.289368,228.167130 129.775879,227.974121 130.643524,227.635818 
	C132.637741,227.928528 134.263245,227.995972 136.302734,228.075897 
	C138.312515,228.550491 140.092102,228.198792 141.744354,229.640976 
z"/>
<path fill="#511B96" opacity="1.000000" stroke="none" 
	d="
M112.211884,230.226929 
	C111.144371,229.857727 110.289803,229.706451 109.217598,229.311340 
	C108.035294,228.388184 106.965767,227.777100 107.392563,225.902985 
	C110.436562,222.318954 112.695419,226.126389 115.722336,226.175751 
	C116.765625,226.195175 117.342407,226.311203 118.309036,226.705414 
	C119.543159,227.362717 119.962532,228.092148 119.876572,229.471344 
	C118.754097,231.356506 117.199989,230.872726 115.385559,230.994629 
	C114.512634,230.944458 114.069580,230.895660 113.298767,230.781067 
	C112.788948,230.625137 112.606895,230.535019 112.211884,230.226929 
z"/>
<path fill="#522479" opacity="1.000000" stroke="none" 
	d="
M152.430847,40.745598 
	C152.791580,40.836952 152.833786,41.067436 152.930954,41.645065 
	C155.658234,45.157871 152.272675,46.327015 150.613571,48.426147 
	C148.133743,48.679867 146.633987,51.491714 143.853149,49.810696 
	C143.542206,49.539177 143.242920,49.235733 143.093689,49.083614 
	C145.219910,45.359993 148.471527,42.900665 152.430847,40.745598 
z"/>
<path fill="#652986" opacity="1.000000" stroke="none" 
	d="
M165.303909,215.888428 
	C164.973114,215.567886 164.938217,215.084335 164.878265,214.238098 
	C161.970795,210.914627 165.436340,209.367371 166.526123,206.910904 
	C167.120926,205.850937 167.719879,205.387634 169.298065,205.126984 
	C170.794189,205.017899 171.513107,204.967667 172.591736,204.942017 
	C171.439255,209.194031 168.636887,212.539917 165.303909,215.888428 
z"/>
<path fill="#521D8D" opacity="1.000000" stroke="none" 
	d="
M152.538300,223.560547 
	C153.045395,223.896362 153.248688,223.924683 153.756439,223.997864 
	C152.151489,227.257248 148.537018,227.797241 145.281067,229.472107 
	C144.738632,229.368240 144.531784,229.218246 144.101746,228.752197 
	C143.825134,228.180267 143.771744,227.924438 143.725098,227.272186 
	C143.997711,226.103302 144.459274,225.429886 145.024933,224.335129 
	C147.460358,222.745255 149.653473,221.076691 152.538300,223.560547 
z"/>
<path fill="#511B96" opacity="1.000000" stroke="none" 
	d="
M144.554810,227.514374 
	C144.902191,228.271729 144.913605,228.627884 144.935242,229.251129 
	C144.202286,229.668365 143.459106,229.818527 142.334091,229.987961 
	C140.212204,229.955124 138.472122,229.902985 136.296860,229.815918 
	C135.221558,226.926743 137.082764,226.718246 139.118744,226.713104 
	C140.828751,226.708771 142.572205,226.302216 144.554810,227.514374 
z"/>
<path fill="#511B96" opacity="1.000000" stroke="none" 
	d="
M129.352844,230.762802 
	C127.152267,230.699005 125.285950,230.294830 123.280869,231.574097 
	C122.600357,231.756134 122.180496,231.776917 121.445129,231.784454 
	C120.655502,231.381485 120.330704,230.892654 120.177872,229.857361 
	C120.944954,227.078613 122.937721,227.610886 125.076584,227.464874 
	C126.375618,227.416412 127.237854,227.419647 128.521790,227.495773 
	C129.843643,227.472183 130.570511,227.801285 131.252289,228.911102 
	C131.342789,230.413116 130.506424,230.463364 129.352844,230.762802 
z"/>
<path fill="#522479" opacity="1.000000" stroke="none" 
	d="
M107.810150,225.391418 
	C108.334877,226.807388 108.558983,227.633926 108.891525,228.763977 
	C106.026054,228.863724 103.845261,226.936569 101.194809,225.311142 
	C101.484200,224.938568 101.984154,224.827286 102.861412,224.642914 
	C103.597153,224.288193 103.971268,224.029404 104.700737,223.742798 
	C105.963692,223.833344 106.706398,224.384705 107.810150,225.391418 
z"/>
<path fill="#71299C" opacity="1.000000" stroke="none" 
	d="
M214.740662,134.305298 
	C215.487503,134.392090 215.922714,134.594482 216.579895,134.872086 
	C216.773956,135.345596 216.746048,135.743912 216.702240,136.440826 
	C215.707108,139.718231 213.624878,140.300781 210.464569,139.190063 
	C209.850922,138.736511 209.640686,138.510498 209.382233,137.824005 
	C211.032333,136.382629 212.730667,135.401764 214.740662,134.305298 
z"/>
<path fill="#522479" opacity="1.000000" stroke="none" 
	d="
M95.145386,221.244080 
	C97.537025,221.008438 100.209846,220.876190 100.898148,224.678497 
	C98.493385,224.809189 97.033188,222.968460 95.145386,221.244080 
z"/>
<path fill="#522479" opacity="1.000000" stroke="none" 
	d="
M205.221008,220.224854 
	C207.432297,219.754593 209.472427,220.613800 211.760101,221.895370 
	C212.400330,222.449524 212.536804,222.875916 212.275604,223.648605 
	C211.933395,224.039398 211.798859,224.144714 211.457993,224.402344 
	C209.280212,223.216248 207.308777,221.877823 205.221008,220.224854 
z"/>
<path fill="#6C318E" opacity="1.000000" stroke="none" 
	d="
M213.108398,125.599869 
	C213.085785,124.592415 213.390198,123.538994 213.810913,122.178444 
	C213.954315,119.760437 215.278397,119.690643 217.196213,120.266571 
	C217.540756,120.520119 217.735840,120.727615 217.832794,120.831894 
	C216.431671,122.475418 214.933563,124.014664 213.108398,125.599869 
z"/>
<path fill="#522479" opacity="1.000000" stroke="none" 
	d="
M120.688614,229.878296 
	C120.967171,230.531906 121.009041,230.886673 121.090271,231.506317 
	C119.291107,231.649353 117.452576,231.527481 115.284866,231.199432 
	C116.086418,230.668396 117.217155,230.343536 118.702942,229.982895 
	C119.455772,229.570999 119.920410,229.448456 120.688614,229.878296 
z"/>
<path fill="#522479" opacity="1.000000" stroke="none" 
	d="
M196.819946,208.666306 
	C197.098831,209.326538 197.140457,209.765930 197.153488,210.535919 
	C194.941498,209.770081 194.302246,207.510727 193.148376,205.280487 
	C193.917801,205.169266 194.712448,205.397537 195.762711,205.813141 
	C196.734985,206.693481 196.392151,207.631027 196.819946,208.666306 
z"/>
<path fill="#522479" opacity="1.000000" stroke="none" 
	d="
M148.076385,124.349930 
	C150.207809,124.053307 152.268814,124.404732 152.952881,127.452332 
	C151.155930,127.149170 149.525879,126.145035 148.076385,124.349930 
z"/>
<path fill="#522479" opacity="1.000000" stroke="none" 
	d="
M197.159836,211.235901 
	C199.463608,211.413864 200.734650,212.877533 201.077286,215.553970 
	C199.469254,214.748611 197.766174,213.661285 197.159836,211.235901 
z"/>
<path fill="#522479" opacity="1.000000" stroke="none" 
	d="
M81.870331,154.377472 
	C81.755852,156.124588 81.430305,158.140762 81.056351,160.537659 
	C80.907639,161.066055 80.807327,161.213730 80.441216,161.328888 
	C79.971481,161.258194 79.767548,161.220016 79.258301,161.119049 
	C79.118706,158.608780 80.203011,156.549133 81.870331,154.377472 
z"/>
<path fill="#522479" opacity="1.000000" stroke="none" 
	d="
M224.219772,230.290588 
	C226.260315,230.004242 228.548004,229.803558 230.834961,231.384705 
	C228.758255,232.103226 226.657227,230.925247 224.219772,230.290588 
z"/>
<path fill="#6C318E" opacity="1.000000" stroke="none" 
	d="
M187.345093,188.376831 
	C188.874725,189.192673 189.156769,190.671661 188.362701,192.669266 
	C187.912659,191.545624 187.604156,190.140671 187.345093,188.376831 
z"/>
<path fill="#6C318E" opacity="1.000000" stroke="none" 
	d="
M282.307068,208.879745 
	C282.395874,207.486633 282.185760,205.660110 284.422729,204.981232 
	C283.985992,206.211884 283.295410,207.491928 282.307068,208.879745 
z"/>
<path fill="#522479" opacity="1.000000" stroke="none" 
	d="
M191.034653,200.334930 
	C191.506561,200.244522 192.020187,200.500168 192.786865,200.892822 
	C193.093842,202.057846 193.147751,203.085892 193.141663,204.496918 
	C191.767380,203.788712 191.308029,202.289215 191.034653,200.334930 
z"/>
<path fill="#6C318E" opacity="1.000000" stroke="none" 
	d="
M187.160355,173.434937 
	C187.906387,174.451569 187.988098,175.898087 187.318848,177.670807 
	C187.157730,176.592773 187.115356,175.216187 187.160355,173.434937 
z"/>
<path fill="#522479" opacity="1.000000" stroke="none" 
	d="
M145.873276,120.888535 
	C146.568726,121.903526 147.156494,122.710320 147.851791,123.798492 
	C146.925934,123.373215 145.562469,123.079552 144.954742,121.430115 
	C144.875717,121.118729 145.087173,120.920235 145.192902,120.820999 
	C145.298645,120.721771 145.765610,120.680336 145.873276,120.888535 
z"/>
<path fill="#521D8D" opacity="1.000000" stroke="none" 
	d="
M155.303574,223.789352 
	C155.532791,223.284744 156.060013,222.775513 156.846176,222.159470 
	C156.603928,222.630005 156.102753,223.207367 155.303574,223.789352 
z"/>
<path fill="#71299C" opacity="1.000000" stroke="none" 
	d="
M178.201920,172.311127 
	C178.047729,171.680725 177.968750,170.786682 177.916229,169.620819 
	C178.054169,170.248474 178.165649,171.147980 178.201920,172.311127 
z"/>
<path fill="#812CA6" opacity="1.000000" stroke="none" 
	d="
M135.117035,130.940491 
	C134.979126,130.261292 134.992249,129.960663 135.016235,129.434631 
	C135.464722,129.173096 135.906189,129.137161 136.654633,129.235458 
	C137.380127,129.774277 137.517120,130.258942 137.100739,131.119507 
	C136.291946,131.604279 135.771255,131.571442 135.117035,130.940491 
z"/>
<path fill="#71299C" opacity="1.000000" stroke="none" 
	d="
M209.256439,140.097214 
	C208.599045,139.735107 208.366318,139.458115 207.977386,138.958435 
	C208.196426,138.389725 208.571686,138.043747 209.140472,137.530640 
	C209.334000,137.363510 209.669174,137.679291 209.834503,137.839539 
	C210.695007,138.844330 210.531052,139.563431 209.256439,140.097214 
z"/>
<path fill="#71299C" opacity="1.000000" stroke="none" 
	d="
M137.196671,131.259064 
	C136.909042,130.650421 136.911255,130.283905 136.937546,129.643555 
	C137.501389,129.509155 138.041168,129.648621 138.767380,129.998108 
	C138.946808,130.374939 138.939789,130.541748 138.910538,130.958038 
	C138.473053,131.553574 138.005798,131.651505 137.196671,131.259064 
z"/>
<path fill="#652986" opacity="1.000000" stroke="none" 
	d="
M173.246429,204.825195 
	C173.113358,204.428024 173.259735,203.903564 173.575317,203.159332 
	C173.671616,203.525665 173.598724,204.111786 173.246429,204.825195 
z"/>
<path fill="#522479" opacity="1.000000" stroke="none" 
	d="
M112.088669,230.214935 
	C112.252701,230.108429 112.481483,230.248627 112.828140,230.572418 
	C112.636269,230.806992 112.372063,230.708862 112.088669,230.214935 
z"/>
<path fill="#522479" opacity="1.000000" stroke="none" 
	d="
M204.189545,219.176849 
	C204.416687,219.054855 204.653015,219.233063 204.943588,219.677322 
	C204.699921,219.862045 204.433563,219.706619 204.189545,219.176849 
z"/>
<path fill="#522479" opacity="1.000000" stroke="none" 
	d="
M203.197205,218.158630 
	C203.422485,218.042969 203.657181,218.225296 203.947571,218.670212 
	C203.702881,218.851852 203.437347,218.693130 203.197205,218.158630 
z"/>
<path fill="#5E0EB1" opacity="1.000000" stroke="none" 
	d="
M193.755386,200.948715 
	C192.805832,193.395294 191.114868,186.062576 189.177414,178.378876 
	C192.279083,174.436508 195.465775,176.633026 198.596207,177.928925 
	C199.337677,178.235870 199.869965,178.981964 200.480927,179.546707 
	C207.005020,185.577286 207.005859,185.576385 214.045319,179.502991 
	C215.218613,179.176086 215.972031,179.485458 217.110214,179.873978 
	C217.890091,180.462891 218.176590,180.932693 218.406174,181.891937 
	C219.663513,187.575470 219.307236,193.056595 220.463028,198.655960 
	C219.634109,199.495926 218.998428,199.985092 218.196503,200.730560 
	C218.079407,202.199188 217.731720,203.470428 218.783554,204.781769 
	C217.854218,212.335785 214.395798,213.765259 208.706726,209.146805 
	C206.150482,207.071625 203.236862,205.362213 201.417984,202.465668 
	C199.517746,199.439575 196.557877,201.444809 193.755386,200.948715 
z"/>
<path fill="#6613B2" opacity="1.000000" stroke="none" 
	d="
M253.168198,228.665619 
	C252.483780,228.862335 252.071701,228.875305 251.350616,228.899719 
	C249.997223,229.000687 248.953644,229.014389 247.547943,228.715775 
	C244.949051,226.947571 242.534317,227.586411 240.200333,228.125580 
	C236.858093,228.897659 234.293701,227.710052 233.001923,224.771362 
	C231.683746,221.772659 229.829056,219.886368 226.627441,219.173004 
	C224.784164,218.762314 223.734665,217.604324 224.724884,215.237122 
	C225.453262,214.947357 225.877411,214.950272 226.619537,214.961700 
	C227.605011,214.137848 228.710602,214.073730 229.752502,213.300552 
	C229.981873,213.105423 230.027161,213.037567 230.045227,213.001007 
	C231.469116,211.281174 232.571106,212.635223 233.918228,213.190811 
	C237.324005,214.595444 240.829376,215.585190 244.609833,212.901321 
	C245.795792,212.552261 246.615555,212.535355 247.837143,212.731003 
	C251.222916,215.716171 255.766022,216.892105 257.260437,221.466324 
	C257.732147,222.910187 258.587982,224.100632 257.351440,225.919891 
	C257.138306,226.272552 257.106476,226.630798 257.069702,226.806824 
	C256.041687,227.976730 254.558701,227.792175 253.168198,228.665619 
z"/>
<path fill="#6210B3" opacity="1.000000" stroke="none" 
	d="
M224.879410,214.737976 
	C225.232574,215.201859 225.398148,215.638031 225.645065,215.690384 
	C230.935425,216.812027 235.812683,218.101456 236.293579,225.041885 
	C236.413849,226.777893 239.150009,226.811340 241.027069,226.476349 
	C243.319946,226.067154 245.615311,225.691788 247.791138,227.818298 
	C248.384354,228.436890 248.515182,228.850983 248.123779,229.540085 
	C247.429794,229.779083 247.017578,229.811920 246.295380,229.860413 
	C240.153702,228.839584 234.114731,230.140686 228.338638,228.008865 
	C223.969269,226.396225 220.521881,218.222244 223.016052,214.392319 
	C223.440521,213.740540 224.196091,213.956757 224.879410,214.737976 
z"/>
<path fill="#58238D" opacity="1.000000" stroke="none" 
	d="
M245.206787,213.750427 
	C240.029358,217.619827 235.357971,215.843506 230.402664,213.077606 
	C225.625610,209.394196 222.318237,205.038391 220.488800,199.254974 
	C217.344086,194.263000 218.129395,188.659958 216.804520,183.258759 
	C217.960709,182.258316 219.006287,182.624268 220.373291,183.185486 
	C222.581299,186.060699 222.985062,189.224533 223.705673,192.250702 
	C226.146988,202.502625 230.669205,210.532761 242.792343,210.806641 
	C243.648407,210.825974 244.314590,211.382126 245.101074,212.312195 
	C245.325699,212.895691 245.351578,213.150757 245.206787,213.750427 
z"/>
<path fill="#5B0EB0" opacity="1.000000" stroke="none" 
	d="
M218.989594,204.647552 
	C217.571548,204.208740 217.022491,203.099762 217.888641,201.257797 
	C218.344818,202.090698 218.659378,203.194504 218.989594,204.647552 
z"/>
<path fill="#6210B3" opacity="1.000000" stroke="none" 
	d="
M229.669968,213.143341 
	C229.433319,214.045609 228.654877,214.669983 227.250870,214.917831 
	C227.477905,214.013351 228.230209,213.343231 229.669968,213.143341 
z"/>
<path fill="#521D8D" opacity="1.000000" stroke="none" 
	d="
M212.373138,223.960510 
	C212.063416,223.521912 212.058884,223.109741 212.064117,222.390747 
	C212.608444,222.571930 213.143005,223.059937 213.788422,223.807678 
	C213.492279,224.040604 213.085297,224.013779 212.373138,223.960510 
z"/>
<path fill="#521D8D" opacity="1.000000" stroke="none" 
	d="
M197.015640,208.580383 
	C196.738800,208.131226 196.420364,207.375290 196.060120,206.309937 
	C196.336884,206.758209 196.655472,207.515915 197.015640,208.580383 
z"/>
<path fill="#010001" opacity="1.000000" stroke="none" 
	d="
M189.174042,116.434006 
	C188.329544,116.493919 187.864304,116.578514 187.073944,116.807068 
	C186.332245,116.698326 185.891754,116.659454 185.080246,116.802338 
	C183.118256,116.343399 181.468002,116.466301 179.466644,116.495956 
	C178.867462,116.543739 178.627151,116.568550 178.029480,116.668411 
	C177.188339,116.861099 176.706085,116.848930 175.904404,116.544220 
	C174.926315,115.666573 174.647720,114.619438 173.347137,114.028290 
	C171.900803,111.481995 170.285004,109.586060 167.699493,108.058823 
	C167.298233,107.549400 167.174576,107.315315 166.980789,106.692368 
	C166.351562,103.633743 164.424530,101.688911 163.125702,99.018578 
	C162.712402,96.378899 161.589615,94.347786 160.750854,91.867348 
	C160.491852,90.669060 160.368118,89.779617 159.547913,88.797897 
	C158.725601,87.569519 157.546799,87.032440 157.270996,85.441734 
	C157.271332,84.367729 157.158005,83.662437 156.961945,82.601532 
	C156.837082,82.005623 156.785233,81.766304 156.677277,81.161545 
	C156.584702,78.278320 156.188858,75.809906 155.567200,72.981232 
	C155.333267,68.911461 156.254105,65.433258 157.540756,61.623444 
	C159.359177,58.106953 162.777222,56.417240 164.748627,52.926743 
	C165.214005,52.400993 165.422928,52.207767 165.991302,51.769386 
	C172.610413,51.134457 178.615494,48.959522 185.054504,49.488113 
	C195.713135,50.363083 204.843384,54.100033 212.562256,61.632957 
	C214.912155,63.926239 216.532303,66.547569 218.504150,69.544151 
	C219.268127,70.611412 219.311905,71.466774 219.507996,72.696732 
	C222.512024,85.381866 217.848953,95.462181 210.244232,105.102325 
	C206.087540,108.344276 202.378815,111.576355 198.039825,114.600250 
	C195.006577,115.492180 192.338120,116.249748 189.174042,116.434006 
z"/>
<path fill="#5B0EB0" opacity="1.000000" stroke="none" 
	d="
M146.379150,121.093094 
	C145.980942,121.096741 145.640945,120.906364 145.469788,120.814072 
	C145.158768,119.469177 145.018906,118.216591 144.873840,116.583450 
	C142.426682,112.075966 141.095825,107.174637 136.363037,104.211983 
	C135.994522,103.269676 135.928787,102.548637 135.864288,101.465424 
	C136.751587,99.824532 135.894699,98.572021 135.761673,97.327316 
	C135.442780,94.343155 134.661255,90.607849 137.915451,89.426834 
	C141.129883,88.260239 145.391800,89.234459 147.335449,92.205193 
	C149.968933,96.230331 153.938477,99.545128 155.673218,103.754166 
	C158.952026,111.709602 164.655884,114.377792 172.864349,114.535652 
	C174.979675,115.140282 175.616776,116.557762 176.061707,118.501297 
	C176.551559,123.024384 178.459106,127.507759 172.572632,129.694229 
	C171.572098,130.065872 172.446671,131.450623 172.904449,132.589142 
	C167.653671,132.518646 162.921539,130.636917 159.199081,126.733383 
	C155.774643,123.142365 151.554703,121.567612 146.379150,121.093094 
z"/>
<path fill="#7615B8" opacity="1.000000" stroke="none" 
	d="
M217.677338,120.233223 
	C216.530167,120.876602 215.519577,121.233086 214.218109,121.730438 
	C209.551880,122.391380 205.501358,121.351929 201.331665,119.155655 
	C199.872208,118.024635 199.106232,116.904015 199.574371,114.895920 
	C201.494537,110.699440 205.670059,109.305832 208.451477,105.901550 
	C209.728378,105.153687 210.277313,104.104523 211.706573,103.638977 
	C214.770782,103.066650 215.975754,104.514740 216.720566,106.838226 
	C217.621170,109.647766 218.275955,112.551163 219.784546,115.573708 
	C219.206360,117.287125 218.510147,118.616722 217.677338,120.233223 
z"/>
<path fill="#58238D" opacity="1.000000" stroke="none" 
	d="
M176.344009,118.836105 
	C175.110031,118.113548 174.204117,117.319572 173.157043,116.254135 
	C172.427063,115.346680 172.070114,114.627205 172.397461,113.361069 
	C172.834534,112.859993 173.079193,112.728477 173.696869,112.782547 
	C174.841705,113.313690 175.613495,113.659233 176.659256,114.180786 
	C177.268127,114.434647 177.489914,114.636681 177.832092,114.955902 
	C178.065613,114.948914 178.510422,115.063538 178.724152,115.147629 
	C179.494720,115.637146 180.069473,116.019119 180.779327,116.766464 
	C179.543335,117.619789 178.107697,118.192238 176.344009,118.836105 
z"/>
<path fill="#6B13B7" opacity="1.000000" stroke="none" 
	d="
M200.795715,113.756790 
	C201.020386,115.401146 201.015259,116.783722 201.007507,118.580872 
	C199.324738,118.934990 197.586807,119.054497 196.182098,117.224716 
	C195.876892,116.487129 195.839767,116.030113 196.000748,115.251572 
	C196.303589,114.770813 196.466095,114.606483 196.935394,114.279976 
	C198.375534,114.045906 199.327103,113.004082 200.795715,113.756790 
z"/>
<path fill="#652986" opacity="1.000000" stroke="none" 
	d="
M188.943420,116.568085 
	C191.311890,115.451088 193.828979,114.492859 196.687897,113.445633 
	C197.380844,113.656120 197.535736,114.030762 197.253113,114.742592 
	C197.041687,114.993187 197.028992,115.029526 197.010559,115.035080 
	C196.041077,116.076897 194.788376,116.436363 193.215790,116.843216 
	C192.975739,117.069679 192.554413,117.135963 192.341400,117.146255 
	C191.644241,117.416672 191.129089,117.516113 190.206573,117.316322 
	C189.560532,117.066116 189.314484,116.915825 188.943420,116.568085 
z"/>
<path fill="#522479" opacity="1.000000" stroke="none" 
	d="
M181.352875,117.097580 
	C180.405884,116.591476 179.832809,116.135605 179.098785,115.455734 
	C180.796371,115.685715 182.654877,116.139694 184.911819,116.715240 
	C185.310257,116.836815 185.163269,117.227631 184.985718,117.337456 
	C184.808167,117.447281 184.392975,117.403130 184.187576,117.365784 
	C183.230377,117.268219 182.478592,117.208015 181.352875,117.097580 
z"/>
<path fill="#58238D" opacity="1.000000" stroke="none" 
	d="
M193.352173,117.053841 
	C194.103867,116.443871 195.231979,115.818047 196.676102,115.116425 
	C196.760971,115.527283 196.529831,116.013939 196.140045,116.719391 
	C195.230453,116.971458 194.479538,117.004723 193.352173,117.053841 
z"/>
<path fill="#58238D" opacity="1.000000" stroke="none" 
	d="
M190.052979,117.270447 
	C190.340698,117.166191 190.851181,117.154663 191.745026,117.149841 
	C191.510818,117.225418 190.893280,117.294289 190.052979,117.270447 
z"/>
<path fill="#652986" opacity="1.000000" stroke="none" 
	d="
M185.401154,117.170563 
	C185.275925,116.831131 185.290466,116.823891 185.300354,116.830353 
	C185.632355,116.739212 185.960205,116.712700 186.521301,116.854141 
	C186.748825,116.951012 186.384842,117.169624 186.276184,117.172119 
	C185.953827,117.286407 185.740112,117.398193 185.401154,117.170563 
z"/>
<path fill="#58238D" opacity="1.000000" stroke="none" 
	d="
M184.952805,116.956276 
	C185.275925,116.831131 185.723663,116.997833 185.945602,117.086227 
	C185.582123,117.271172 184.996719,117.367729 184.196747,117.396355 
	C184.197998,117.246094 184.413834,117.163757 184.952805,116.956276 
z"/>
<path fill="#941FC6" opacity="1.000000" stroke="none" 
	d="
M253.776154,132.669464 
	C264.193176,136.909866 273.096741,142.699173 279.740387,151.522171 
	C280.872559,153.025696 281.252808,154.823120 281.181885,157.069885 
	C282.456940,161.880310 282.049408,162.437347 276.615326,162.901184 
	C271.020691,161.990311 264.895844,156.401276 263.190552,150.571930 
	C262.190308,146.014557 259.554840,145.391983 254.911697,148.425812 
	C250.964020,148.230713 247.718185,145.501144 243.448685,147.091888 
	C242.444916,147.170639 241.917542,146.990036 241.228394,146.272675 
	C240.952881,142.766403 239.792191,139.829025 242.331741,136.625534 
	C245.454117,132.686874 248.872192,131.723297 253.776154,132.669464 
z"/>
<path fill="#7D19B9" opacity="1.000000" stroke="none" 
	d="
M208.764969,140.264191 
	C209.145477,139.520416 209.459183,139.028732 209.886353,138.268417 
	C211.987137,137.619080 213.974426,137.238388 216.324020,136.798569 
	C222.121826,137.708221 226.522461,139.803314 227.000214,146.575714 
	C226.640503,147.977234 225.865677,148.527786 224.343262,148.797516 
	C220.055969,148.857590 216.607498,150.970383 212.659897,150.396454 
	C207.861572,149.698853 206.340805,147.682312 207.736145,142.348740 
	C208.210037,141.440491 208.454102,140.978378 208.764969,140.264191 
z"/>
<path fill="#6C318E" opacity="1.000000" stroke="none" 
	d="
M224.039825,147.329712 
	C225.082855,147.114517 225.731430,147.085907 226.702057,147.007385 
	C229.063675,146.675598 231.103241,146.393738 233.532013,146.124664 
	C234.595520,146.546295 235.408569,146.458801 236.322784,147.079865 
	C236.716324,149.061981 235.759430,149.913879 234.338577,150.246719 
	C228.596725,151.591766 223.831787,154.329727 220.633133,159.464172 
	C220.180161,160.191284 219.276062,160.368912 218.005463,160.232605 
	C217.107025,159.844879 216.654510,159.509445 215.964447,158.783875 
	C214.916153,153.562775 217.124695,150.529175 224.039825,147.329712 
z"/>
<path fill="#812CA6" opacity="1.000000" stroke="none" 
	d="
M236.362473,147.434891 
	C235.532089,146.828476 234.983459,146.623779 234.178009,146.278275 
	C235.988922,146.077667 238.056625,146.017868 240.566010,145.933121 
	C241.449738,145.939377 241.891815,145.970596 242.665924,146.019287 
	C243.094681,146.349792 243.191391,146.662781 243.069260,147.419006 
	C240.774765,149.531113 238.705856,149.561081 236.362473,147.434891 
z"/>
<path fill="#71299C" opacity="1.000000" stroke="none" 
	d="
M226.280304,131.182281 
	C226.503281,131.090942 226.896820,131.073013 227.584290,131.062042 
	C227.402435,131.131241 226.926636,131.193466 226.280304,131.182281 
z"/>
<path fill="#71299C" opacity="1.000000" stroke="none" 
	d="
M223.947159,132.498627 
	C223.893936,132.535751 223.950226,132.303238 223.983658,132.189880 
	C224.017090,132.076523 224.000381,132.461487 223.947159,132.498627 
z"/>
<path fill="#6413B0" opacity="1.000000" stroke="none" 
	d="
M78.259682,185.249969 
	C77.991631,181.305573 78.003204,177.617020 78.028893,173.468628 
	C78.744232,172.370483 78.989082,171.403992 79.968842,170.576660 
	C81.811401,168.955933 83.243973,169.778778 84.817162,170.465912 
	C88.436607,172.046799 91.899452,172.090012 94.865891,168.949142 
	C96.775459,166.927261 98.513702,167.021820 99.770111,168.937592 
	C99.069359,167.413193 98.402794,165.304962 99.882965,162.775024 
	C100.333893,162.285904 100.564789,162.130295 101.216751,161.875061 
	C103.960625,161.746506 104.372696,163.912735 105.746506,165.612885 
	C105.603699,173.263000 104.794357,180.430984 107.828400,187.491180 
	C108.999962,190.217407 110.459450,193.180923 110.119431,196.819550 
	C109.063202,198.332291 108.026230,199.204926 106.115761,199.330353 
	C101.382805,200.490448 97.687706,198.674271 94.871437,195.866516 
	C90.140732,191.150085 85.220451,187.019424 78.259682,185.249969 
z"/>
<path fill="#5B0EB0" opacity="1.000000" stroke="none" 
	d="
M105.320900,224.887268 
	C104.608238,224.783249 104.215271,224.728363 103.530518,224.621643 
	C101.342934,217.611069 96.033646,212.804321 92.145821,207.107391 
	C91.652245,206.384125 90.388077,205.631348 89.606415,205.746216 
	C81.999756,206.864120 81.887169,200.672913 80.251007,196.152008 
	C79.530380,194.160812 79.518860,191.912994 79.102829,189.390198 
	C81.445007,186.355713 83.806137,187.093292 84.814087,189.952362 
	C86.493462,194.715958 90.069054,196.622742 94.439857,197.631577 
	C99.768250,198.861450 103.950233,201.273651 105.670113,206.885208 
	C106.206978,208.636871 107.446785,210.204086 109.336815,210.504715 
	C114.304306,211.294891 115.658035,215.057617 116.285316,219.071793 
	C116.707092,221.770782 117.629387,224.584229 116.279053,227.700256 
	C113.619118,227.369675 111.227997,226.720901 108.473816,226.026489 
	C108.110764,225.980865 108.039154,225.941620 108.001724,225.925293 
	C107.338615,225.229065 106.525131,224.997864 105.320900,224.887268 
z"/>
<path fill="#5E0EB1" opacity="1.000000" stroke="none" 
	d="
M116.336823,228.032593 
	C116.181206,217.421036 107.802650,211.720932 102.382874,204.346649 
	C100.129227,201.280258 96.313789,201.142776 93.055687,199.996384 
	C88.418594,198.364807 82.481476,198.353302 82.378746,191.125824 
	C82.361938,189.943268 80.934135,189.408127 79.382156,189.068527 
	C78.721001,187.888962 78.421730,186.779221 78.051254,185.331802 
	C84.082367,182.951172 88.684425,185.390015 92.411903,190.014786 
	C95.560310,193.921066 99.526985,196.448547 104.652382,197.900757 
	C105.607529,198.398895 106.272545,198.735260 106.722839,199.772125 
	C108.105461,205.195007 110.045845,206.670990 114.644958,205.908112 
	C116.667786,206.912079 116.612091,209.109314 118.282486,210.437302 
	C119.312988,211.711197 119.555717,212.883591 119.704979,214.478592 
	C121.286766,217.678558 123.536102,219.547272 126.519257,220.853424 
	C129.847687,222.310715 131.803528,224.696075 129.202240,228.797302 
	C128.198502,229.075027 127.462570,229.079758 126.359131,229.063644 
	C123.729385,227.333160 121.102875,227.567810 118.238937,227.853729 
	C117.535255,228.060242 117.099327,228.053497 116.336823,228.032593 
z"/>
<path fill="#6B13B7" opacity="1.000000" stroke="none" 
	d="
M100.725708,163.658783 
	C100.831284,167.717377 101.401604,171.496811 100.468819,175.678543 
	C98.286446,174.295486 99.577957,171.970428 98.050751,170.436157 
	C92.624130,176.058502 86.700737,175.303726 80.353714,171.105225 
	C79.866310,170.819061 79.709923,170.650055 79.730377,170.184341 
	C79.963165,167.301865 80.019096,164.716064 80.125214,161.713318 
	C80.175407,161.296371 80.591766,161.109085 80.799850,161.013733 
	C81.007942,160.918365 81.474716,160.941650 81.708237,160.950073 
	C83.140907,160.177307 84.506859,159.789398 86.256607,159.326050 
	C87.242294,159.358795 87.804588,159.369797 88.786438,159.376892 
	C93.289680,159.752365 97.715927,159.154266 100.725708,163.658783 
z"/>
<path fill="#5B0EB0" opacity="1.000000" stroke="none" 
	d="
M79.650726,170.071472 
	C79.927986,170.070923 79.948746,170.254211 79.996109,170.712769 
	C79.529694,171.566620 79.036690,172.145187 78.293343,172.866272 
	C78.159256,171.926971 78.480011,170.945526 79.650726,170.071472 
z"/>
<path fill="#981DC9" opacity="1.000000" stroke="none" 
	d="
M218.988617,52.705051 
	C225.218597,58.371346 229.225723,64.921654 229.992706,73.592255 
	C229.996460,74.905357 229.712906,75.775848 229.774536,77.128456 
	C229.985413,79.190842 230.249237,80.793793 230.339066,82.399925 
	C230.671494,88.343948 228.294968,90.479042 221.901489,89.573204 
	C221.196640,89.290230 220.924942,89.160011 220.322235,88.731094 
	C219.462677,87.687195 219.526077,86.785789 219.255402,85.549164 
	C219.541946,82.805153 219.675156,80.458092 219.227661,77.734726 
	C219.099335,77.121040 219.068863,76.873283 219.030396,76.256058 
	C219.033096,75.643486 219.043777,75.400398 219.117157,74.801102 
	C219.618240,73.307709 219.295792,72.099434 219.627884,70.622841 
	C220.243942,69.144371 222.261490,68.088242 219.685699,66.607422 
	C217.334412,65.428528 216.021439,63.227242 213.338593,62.540688 
	C211.621078,60.622562 210.235260,58.878807 208.139679,57.331352 
	C207.215973,55.762875 206.106918,55.224907 204.352219,55.052914 
	C200.057877,53.337910 196.180481,51.560486 191.747910,50.089813 
	C186.866455,42.467945 186.866455,42.467945 193.641754,36.067085 
	C194.690079,35.930859 195.502304,36.147118 196.713959,36.496399 
	C197.482040,36.780163 197.860626,36.899307 198.545502,37.020454 
	C199.492981,37.393089 200.144135,37.732140 200.963379,38.296387 
	C201.595581,40.495216 203.649643,39.644764 205.058426,40.685616 
	C209.405273,40.935650 209.590637,46.286087 213.724991,46.786987 
	C214.517761,47.568775 215.128128,48.082844 216.041199,48.668526 
	C216.327484,48.756905 216.663193,48.908264 216.819595,49.005432 
	C218.048920,50.015701 217.735519,51.608833 218.988617,52.705051 
z"/>
<path fill="#8D1DC7" opacity="1.000000" stroke="none" 
	d="
M193.693298,35.630768 
	C193.938446,37.332611 194.336563,39.499893 192.932861,40.262623 
	C188.596588,42.618828 190.934296,45.490185 191.919312,48.673241 
	C189.916672,51.037144 187.634598,49.385822 185.466049,49.521305 
	C182.512436,49.705830 179.522141,49.194763 176.177521,50.057503 
	C175.190430,50.327438 174.619003,50.431450 173.606506,50.510242 
	C172.599838,50.568619 172.024216,50.588242 171.017151,50.611267 
	C168.882843,50.655060 167.384109,50.935463 165.814682,51.946827 
	C161.519165,54.714912 160.017487,54.070591 158.072281,49.115105 
	C156.846741,45.993023 154.440796,42.730995 159.218872,39.946198 
	C161.090027,39.411499 162.525818,38.907017 163.812103,37.387440 
	C165.187943,36.818275 166.278122,36.488895 167.689453,36.037125 
	C168.010605,35.914730 168.288025,36.308048 168.288025,36.308048 
	C168.288025,36.308048 168.765625,36.248489 168.893799,36.044811 
	C169.021973,35.841133 169.324890,35.724434 169.482117,35.692688 
	C177.153702,36.227928 184.669693,36.145664 192.645721,35.615162 
	C193.104874,35.512276 193.508774,35.546928 193.693298,35.630768 
z"/>
<path fill="#7D19B9" opacity="1.000000" stroke="none" 
	d="
M220.133850,115.706383 
	C216.775085,115.454948 215.638000,113.183365 215.017227,110.456116 
	C214.578400,108.528152 214.282074,106.530441 212.130371,105.122482 
	C210.193283,102.568756 212.346954,101.292114 213.612244,99.411560 
	C214.427383,98.604881 215.116211,98.230675 215.789948,97.287888 
	C216.342407,96.275368 216.542831,95.499474 217.544708,94.836746 
	C218.423767,94.577271 218.946060,94.503143 219.869461,94.411026 
	C224.159439,93.975983 225.651306,97.286331 228.093536,99.728638 
	C225.821289,105.328537 223.979401,110.846283 220.133850,115.706383 
z"/>
<path fill="#8D1DC7" opacity="1.000000" stroke="none" 
	d="
M228.416046,99.768478 
	C224.954681,100.380966 222.592285,98.811615 220.395447,96.157684 
	C219.515610,95.475914 218.993134,94.917358 218.583405,93.821907 
	C218.361893,92.956184 218.260101,92.457489 218.266418,91.581627 
	C218.494217,90.729370 218.684998,90.264961 219.101334,89.491760 
	C219.533325,88.726379 219.865814,88.367371 220.664825,88.041306 
	C228.937149,87.864502 228.937149,87.864502 229.025818,76.432098 
	C229.236313,75.851120 229.440994,75.727707 229.949371,75.794830 
	C233.518829,84.070892 229.858856,91.666878 228.416046,99.768478 
z"/>
<path fill="#8D1DC7" opacity="1.000000" stroke="none" 
	d="
M205.171539,40.552864 
	C203.845947,40.859406 202.326859,40.811211 201.286835,38.866745 
	C202.552994,38.780453 203.938217,39.118195 205.171539,40.552864 
z"/>
<path fill="#8921BA" opacity="1.000000" stroke="none" 
	d="
M219.234711,52.501446 
	C217.825302,52.338470 217.230057,51.210724 217.016998,49.437866 
	C218.278564,49.719612 218.937546,50.797218 219.234711,52.501446 
z"/>
<path fill="#8D1DC7" opacity="1.000000" stroke="none" 
	d="
M198.647003,36.932549 
	C198.333633,36.993992 197.825424,36.933941 197.215302,36.751659 
	C197.559647,36.689968 198.005905,36.750511 198.647003,36.932549 
z"/>
<path fill="#8921BA" opacity="1.000000" stroke="none" 
	d="
M230.329834,75.787460 
	C230.049316,75.985458 229.845596,75.985550 229.336761,75.980080 
	C229.254089,75.468918 229.476547,74.963310 229.856949,74.229591 
	C230.145477,74.530838 230.276047,75.060196 230.329834,75.787460 
z"/>
<path fill="#8921BA" opacity="1.000000" stroke="none" 
	d="
M216.165985,48.500603 
	C215.663376,48.321785 214.999268,47.886665 214.192139,47.180748 
	C214.700912,47.354729 215.352707,47.799515 216.165985,48.500603 
z"/>
<path fill="#010001" opacity="1.000000" stroke="none" 
	d="
M157.790207,159.360382 
	C165.953400,169.435562 167.578552,180.009689 161.786179,191.454407 
	C160.974762,193.057648 160.137009,194.647552 159.111847,196.535629 
	C156.023621,204.012497 149.672043,207.456894 143.126282,211.238739 
	C141.374649,211.533386 140.033936,211.993637 138.808121,212.504852 
	C127.398567,217.263245 118.131165,214.066467 112.323662,201.980042 
	C107.993652,192.968536 105.671310,183.154297 104.046089,173.254517 
	C103.752991,171.469177 103.286926,169.674942 103.500084,167.393524 
	C103.494164,162.354736 103.842056,157.998230 106.702141,153.921539 
	C109.911713,149.346680 114.713448,147.966858 119.446632,146.667969 
	C123.379837,145.588608 127.573448,145.068314 132.166595,145.509537 
	C137.804337,146.012024 142.245972,149.034348 147.655197,150.192642 
	C150.371246,151.004089 152.251907,152.520554 154.476349,154.149017 
	C155.104492,154.684418 155.420135,155.032440 155.919861,155.682648 
	C156.763260,156.940872 156.940613,158.124756 157.790207,159.360382 
z"/>
<path fill="#941ECA" opacity="1.000000" stroke="none" 
	d="
M136.582367,130.949997 
	C137.346420,131.077484 137.786041,131.138062 138.556976,131.203064 
	C140.826553,133.539474 143.863312,133.717606 146.377274,134.832932 
	C154.828690,138.582458 160.768570,145.297684 167.090240,151.594528 
	C168.595444,153.093811 168.823685,155.098907 169.076935,157.462341 
	C169.763000,160.353912 169.479523,162.684067 167.381165,164.929871 
	C163.081421,164.176437 161.913605,160.084396 158.586395,158.025513 
	C158.058060,157.859146 157.829819,157.818954 157.315002,157.581909 
	C156.143005,155.677963 154.868851,154.394669 152.723755,153.561432 
	C152.016968,153.146942 151.614365,152.904083 150.902435,152.482803 
	C149.138000,151.202805 148.059464,149.721497 146.874420,148.379837 
	C146.151703,147.561584 145.428513,146.438110 144.475647,146.690094 
	C140.050186,147.860428 135.727570,146.098450 130.997955,146.497360 
	C129.694046,146.482071 128.746201,146.509964 127.453323,146.447815 
	C125.424614,145.322311 124.287849,143.649048 122.915657,142.262131 
	C121.276291,140.605148 121.120438,137.562653 123.254021,136.900192 
	C126.031380,136.037857 125.184669,133.663849 126.598663,132.049744 
	C129.210953,130.885117 131.935699,132.515640 134.646942,130.753723 
	C135.399216,130.669083 135.828568,130.776077 136.582367,130.949997 
z"/>
<path fill="#7615B8" opacity="1.000000" stroke="none" 
	d="
M169.206314,207.685791 
	C167.695358,209.711349 166.402832,211.491425 164.981750,213.573486 
	C161.399734,216.604767 156.885559,217.670258 153.479126,221.102173 
	C152.017899,221.414902 150.879944,221.383240 149.748352,220.979477 
	C144.421478,219.078812 143.532211,216.510498 146.346710,210.261200 
	C148.962067,205.709747 154.518356,204.856506 157.081390,200.311111 
	C158.733383,200.257156 159.196213,201.795471 160.799500,201.905640 
	C164.157776,202.215393 167.533524,201.271027 169.890320,204.751221 
	C170.075272,205.068130 170.022690,205.047150 170.036133,205.023285 
	C169.240585,205.659271 169.611618,206.621201 169.206314,207.685791 
z"/>
<path fill="#941ECA" opacity="1.000000" stroke="none" 
	d="
M176.721466,174.647949 
	C176.927231,178.032013 177.003632,181.082260 177.073669,184.589691 
	C176.865982,185.269226 176.664658,185.491592 176.050003,185.897385 
	C173.193817,187.489227 171.084900,187.426224 169.265289,184.374939 
	C168.951523,184.043854 168.967758,184.017258 168.965759,184.025726 
	C168.500504,183.514008 168.013824,183.015823 167.291992,182.260864 
	C166.991043,176.896332 166.576309,171.743942 168.784805,166.502930 
	C169.128433,163.826111 169.014938,161.437973 170.660614,159.136139 
	C174.333969,163.542450 174.462372,169.288925 176.721466,174.647949 
z"/>
<path fill="#8D1DC7" opacity="1.000000" stroke="none" 
	d="
M168.948364,184.416504 
	C171.073257,184.371964 173.194992,184.700073 175.724518,185.045914 
	C176.440613,185.438797 176.608109,185.868805 176.506226,186.685226 
	C176.416794,191.220734 174.511261,194.987061 173.581528,199.380417 
	C169.448273,195.536667 167.132339,190.788162 168.948364,184.416504 
z"/>
<path fill="#652986" opacity="1.000000" stroke="none" 
	d="
M158.268250,200.919220 
	C155.790878,204.856888 151.382507,206.260620 148.274902,209.625031 
	C147.592468,210.438705 147.054123,210.906403 146.025818,211.291046 
	C145.196167,211.417709 144.717529,211.403793 143.905518,211.207123 
	C143.400803,210.907043 143.230972,210.737976 142.971344,210.220825 
	C148.693512,206.418533 153.928619,202.273926 158.580231,196.930634 
	C158.938660,197.593918 158.965073,198.360229 158.964218,199.509277 
	C158.966583,200.281647 158.842972,200.609222 158.268250,200.919220 
z"/>
<path fill="#981DC9" opacity="1.000000" stroke="none" 
	d="
M170.820740,158.771027 
	C170.814743,161.247681 171.562744,163.794800 169.146835,165.896927 
	C168.365265,165.887970 167.889755,165.646271 167.191284,165.257599 
	C166.981110,162.758530 167.627167,160.578262 168.927063,158.186630 
	C169.597321,158.099319 170.094879,158.353912 170.820740,158.771027 
z"/>
<path fill="#7717BC" opacity="1.000000" stroke="none" 
	d="
M158.037903,201.285675 
	C158.162750,200.700409 158.359131,200.449020 158.759888,200.055496 
	C159.560547,200.400055 160.184128,200.908112 160.975815,201.670593 
	C160.837967,202.783859 160.736771,203.993027 159.492386,203.824265 
	C158.373108,203.672470 158.301529,202.509354 158.037903,201.285675 
z"/>
<path fill="#6C318E" opacity="1.000000" stroke="none" 
	d="
M157.628479,156.748840 
	C157.966019,157.006027 158.104721,157.459747 158.195511,157.679535 
	C158.236145,158.279480 158.185989,158.659622 158.085571,159.321869 
	C157.079971,158.884979 156.124634,158.166000 155.064362,157.158966 
	C155.647202,156.195023 156.430481,156.106094 157.628479,156.748840 
z"/>
<path fill="#8D1DC7" opacity="1.000000" stroke="none" 
	d="
M167.171188,182.269379 
	C167.604935,182.512192 168.158722,183.014999 168.838135,183.776001 
	C168.406265,183.532578 167.848740,183.030960 167.171188,182.269379 
z"/>
<path fill="#941FC6" opacity="1.000000" stroke="none" 
	d="
M286.392151,193.118652 
	C282.495514,193.115067 280.073853,191.779770 280.527588,187.566498 
	C280.641541,186.508774 279.847290,185.763672 278.665955,185.108292 
	C275.100159,182.680817 277.037537,179.284637 276.647278,175.963684 
	C278.363342,172.354507 276.200104,168.862930 277.638550,165.217957 
	C280.129242,161.844879 282.407959,162.354218 284.204132,165.247253 
	C284.845093,166.279648 285.574097,166.903046 286.928223,167.637100 
	C289.565002,176.240463 290.522400,184.615631 286.392151,193.118652 
z"/>
<path fill="#981DC9" opacity="1.000000" stroke="none" 
	d="
M287.260010,167.522842 
	C283.630859,170.255753 282.516571,164.461212 278.937042,165.337646 
	C274.984161,167.043961 273.933838,165.311523 274.290619,161.611450 
	C276.955170,160.835693 279.831635,161.469864 281.036163,157.843506 
	C286.504181,158.634125 285.435150,163.798355 287.260010,167.522842 
z"/>
<path fill="#941FC6" opacity="1.000000" stroke="none" 
	d="
M285.098816,198.178467 
	C283.157898,196.881821 283.594086,195.817322 285.800171,194.818100 
	C286.073456,195.214508 286.061584,195.738510 285.990997,196.648636 
	C285.793091,197.183807 285.653931,197.332855 285.318970,197.716919 
	C285.123169,197.951920 285.112213,198.103622 285.098816,198.178467 
z"/>
<path fill="#7B28AA" opacity="1.000000" stroke="none" 
	d="
M285.270752,197.810730 
	C285.255310,197.709152 285.420258,197.491211 285.775146,197.166443 
	C285.777252,197.259567 285.605957,197.471161 285.270752,197.810730 
z"/>
<path fill="#6B13B7" opacity="1.000000" stroke="none" 
	d="
M158.510437,81.724014 
	C158.795593,82.691055 158.871094,83.400391 158.988708,84.465050 
	C159.871979,85.754173 159.989258,86.922379 160.206726,88.522858 
	C160.915298,91.234451 161.957321,93.460876 161.007385,96.313362 
	C158.224457,98.967926 155.836700,97.683983 154.415070,95.619278 
	C150.406769,89.797844 144.034027,89.994705 138.254929,89.038353 
	C136.323868,88.718788 134.389572,88.771118 132.417816,87.330696 
	C132.012039,83.505409 131.588196,80.075218 132.715668,76.258621 
	C132.976028,74.824745 133.044678,73.820892 133.169647,72.443314 
	C133.500290,71.587814 133.861374,71.149300 133.980347,70.304543 
	C134.491333,66.601868 134.180435,62.913746 137.446732,60.091343 
	C141.585709,58.112480 143.704895,60.360443 145.122559,63.408363 
	C146.089294,65.486801 146.871811,67.683830 147.672699,69.846390 
	C148.894836,73.146431 151.221603,74.897438 154.892899,75.623978 
	C157.188538,77.136955 156.456528,79.992485 158.510437,81.724014 
z"/>
<path fill="#6210B3" opacity="1.000000" stroke="none" 
	d="
M132.678574,87.296196 
	C138.675003,86.578812 144.261185,87.695908 149.893967,88.082039 
	C152.267654,88.244759 154.004547,89.323822 154.949890,91.534622 
	C155.842590,93.622314 157.133224,95.261581 159.810135,95.923416 
	C163.322205,96.561913 162.790115,99.980858 164.531845,101.713882 
	C165.813385,102.988998 166.750244,104.616547 168.704193,105.764053 
	C168.978241,106.023537 168.951508,105.983856 168.974976,105.979172 
	C170.103851,108.199921 170.615875,110.764153 172.773788,112.779160 
	C172.907013,113.836327 172.955032,114.551605 173.009460,115.624779 
	C169.214798,116.933708 165.434357,115.900703 161.646072,115.820877 
	C158.952789,115.764137 157.470886,113.952789 156.848190,111.505974 
	C155.023148,104.334488 147.971573,100.628967 145.291519,93.926102 
	C144.463669,91.855576 141.413071,91.336571 139.059525,91.929710 
	C136.796173,92.500122 137.235825,94.753075 136.987228,96.509277 
	C136.803223,97.809219 136.493210,99.091324 136.052429,100.742310 
	C135.550903,100.414810 135.236267,99.726379 134.869354,98.759293 
	C133.414612,96.436996 133.718048,93.763344 132.207184,91.313141 
	C132.011490,89.785057 131.919342,88.661301 132.678574,87.296196 
z"/>
<path fill="#7717BC" opacity="1.000000" stroke="none" 
	d="
M155.394958,76.767059 
	C148.567535,78.318199 148.048386,77.838669 145.526215,71.683647 
	C143.818771,67.516876 143.286362,62.460266 138.039520,60.068863 
	C139.565231,56.639641 141.408386,53.401588 143.396881,49.851357 
	C145.114487,48.668739 146.686768,47.798298 148.583069,46.813026 
	C149.685715,46.920765 150.687286,47.075371 150.853180,47.941654 
	C151.721664,52.477108 155.184586,54.506779 159.001556,56.729530 
	C159.627792,58.045322 159.533539,59.015026 158.833710,60.308685 
	C156.100327,64.698624 156.747345,69.337952 156.272186,73.754890 
	C156.167953,74.723953 156.420944,75.714714 155.394958,76.767059 
z"/>
<path fill="#5514A6" opacity="1.000000" stroke="none" 
	d="
M136.165436,104.337364 
	C143.462402,105.192757 145.028839,107.189217 144.900818,115.751053 
	C139.722412,114.065308 137.470078,109.767616 136.165436,104.337364 
z"/>
<path fill="#5514A6" opacity="1.000000" stroke="none" 
	d="
M132.986160,86.549942 
	C132.987564,88.079208 132.984909,89.147728 132.987259,90.617165 
	C133.850327,92.084190 134.072708,93.120163 132.402100,94.070587 
	C130.716171,88.144623 130.140823,82.252777 132.660370,76.131607 
	C132.932266,79.248802 132.957169,82.668999 132.986160,86.549942 
z"/>
<path fill="#5B0EB0" opacity="1.000000" stroke="none" 
	d="
M131.996567,94.398178 
	C132.268524,93.254272 132.579605,92.454842 132.941498,91.336739 
	C135.489914,92.665909 134.887344,95.205780 134.847961,98.027679 
	C133.246414,97.713501 132.232758,96.531891 131.996567,94.398178 
z"/>
<path fill="#5514A6" opacity="1.000000" stroke="none" 
	d="
M133.840942,70.256592 
	C134.330170,70.742126 134.225967,71.355835 133.398254,71.955307 
	C133.380035,71.542229 133.534103,71.014862 133.840942,70.256592 
z"/>
<path fill="#6612B4" opacity="1.000000" stroke="none" 
	d="
M214.234802,180.582092 
	C211.005539,188.886292 206.788757,190.098297 201.440826,184.048569 
	C198.210403,180.394257 194.512833,178.606735 189.535400,178.038330 
	C190.145004,170.810516 190.605301,163.474716 195.702698,157.235291 
	C200.581329,153.613724 202.606140,154.295197 203.364548,159.763687 
	C203.833420,163.144547 204.959045,165.828430 208.462036,166.792099 
	C211.267349,167.563843 210.725189,171.622345 214.071167,172.352020 
	C214.953476,175.174011 215.070648,177.660660 214.234802,180.582092 
z"/>
<path fill="#6B13B7" opacity="1.000000" stroke="none" 
	d="
M213.412323,172.703217 
	C211.509186,173.256927 210.456512,173.029541 209.061356,171.949677 
	C204.628937,168.518890 199.353729,166.012421 200.314560,158.858521 
	C200.509567,157.406769 198.198746,157.152298 196.302048,156.980408 
	C195.849442,156.503250 195.806717,156.055161 195.699005,155.274216 
	C197.479599,153.000214 199.325150,151.059067 201.415100,148.897095 
	C203.966858,148.221176 205.576462,149.289200 206.289703,151.321671 
	C208.002136,156.201508 211.137024,160.115906 214.540680,164.391281 
	C214.873764,167.397919 215.149689,169.995544 213.412323,172.703217 
z"/>
<path fill="#7717BC" opacity="1.000000" stroke="none" 
	d="
M271.910858,194.974213 
	C277.656158,196.972260 280.955780,202.589645 280.127960,208.721603 
	C276.004608,212.328201 272.688507,216.536987 267.579346,219.020386 
	C266.506866,219.445206 265.710510,219.896500 264.910889,219.886169 
	C261.719513,219.844940 258.500977,219.149048 256.732971,216.389359 
	C255.019379,213.714584 258.450806,212.331696 259.350159,209.838852 
	C260.502319,207.216949 262.497772,205.965256 264.378998,204.565826 
	C266.889648,202.698166 269.417572,200.801773 270.082458,197.038239 
	C270.349426,195.893524 270.813660,195.341736 271.910858,194.974213 
z"/>
<path fill="#6B13B7" opacity="1.000000" stroke="none" 
	d="
M260.869537,208.722000 
	C259.336060,216.102905 259.336060,216.102905 266.931335,219.087402 
	C265.123657,222.849655 261.761993,224.847183 257.476013,226.150238 
	C254.995331,221.822266 251.495758,218.439590 248.111664,214.577850 
	C247.856201,212.856552 248.426834,211.936172 250.105530,211.382843 
	C250.649689,211.164368 250.865158,211.075043 251.398178,210.842682 
	C251.923279,210.597626 252.130829,210.495605 252.631500,210.214828 
	C253.830856,209.275818 254.473557,208.226166 255.899872,207.485764 
	C256.513000,207.284256 256.772522,207.245743 257.419159,207.274490 
	C258.814636,207.572968 259.932800,207.488159 260.869537,208.722000 
z"/>
<path fill="#5514A6" opacity="1.000000" stroke="none" 
	d="
M253.238586,228.841858 
	C253.742310,227.669357 254.927246,227.135559 256.688232,227.013138 
	C256.167908,228.132278 255.029343,228.771759 253.238586,228.841858 
z"/>
<path fill="#5514A6" opacity="1.000000" stroke="none" 
	d="
M248.179901,229.744431 
	C247.890411,229.376663 247.938828,229.007111 248.017120,228.359741 
	C248.855606,228.268677 249.664215,228.455383 250.757233,228.776627 
	C250.200348,229.188309 249.359055,229.465469 248.179901,229.744431 
z"/>
<path fill="#010001" opacity="1.000000" stroke="none" 
	d="
M272.364929,194.613739 
	C272.199829,195.419739 272.117126,195.899445 272.021729,196.633728 
	C267.802948,201.505829 264.079590,206.717392 257.323303,208.801407 
	C257.017059,209.029205 256.996185,208.999008 256.999237,209.017487 
	C255.930466,210.384537 254.471405,211.019211 252.528198,211.481918 
	C250.702972,212.016632 249.159668,212.330063 247.366302,212.964828 
	C246.808792,212.993271 246.585800,212.999130 245.695312,213.039322 
	C242.202515,212.998642 239.323364,213.246796 236.562363,212.786392 
	C229.086456,211.539764 225.507263,205.872543 223.049713,199.559998 
	C221.325195,195.130295 220.470963,190.361771 219.087708,185.392242 
	C219.121750,181.059219 214.312698,179.139664 214.854721,174.625549 
	C214.823120,173.964371 214.742828,173.704697 214.655151,173.042114 
	C214.432129,172.075699 214.479996,171.532745 214.773132,170.596863 
	C215.558105,166.539047 214.323196,162.476868 217.490280,159.058762 
	C221.553284,151.637573 227.784729,148.439346 235.786194,147.274780 
	C238.086655,147.093948 240.092590,147.154694 242.524796,147.151611 
	C251.353531,146.294571 258.560791,149.093521 264.831055,154.514252 
	C267.517487,156.836685 270.227264,159.211761 272.524689,161.880173 
	C275.851196,165.743851 278.466614,170.113174 277.577271,176.066818 
	C277.731110,179.083054 278.000458,181.666901 277.164368,184.579697 
	C276.891937,184.917175 276.943665,185.003433 276.927368,184.957260 
	C276.063599,187.414917 275.529083,190.023636 274.095093,192.638367 
	C273.348480,193.326904 272.897919,193.807175 272.364929,194.613739 
z"/>
<path fill="#6C318E" opacity="1.000000" stroke="none" 
	d="
M277.265503,184.937073 
	C276.936523,182.212585 276.981110,179.507980 277.099365,176.355164 
	C277.336182,175.819672 277.499329,175.732422 277.896729,175.794037 
	C278.208130,178.704193 278.285278,181.465469 278.374695,184.602203 
	C278.137695,184.970779 277.888367,184.963882 277.265503,184.937073 
z"/>
<path fill="#6C318E" opacity="1.000000" stroke="none" 
	d="
M274.091309,192.656952 
	C274.113068,190.161880 275.251251,187.754913 276.622009,185.119995 
	C276.889069,187.704254 276.545135,190.389755 274.091309,192.656952 
z"/>
<path fill="#8921BA" opacity="1.000000" stroke="none" 
	d="
M126.385391,131.779968 
	C127.324806,133.985489 128.920837,134.855331 131.084518,135.157333 
	C132.486847,135.353073 133.749954,136.035416 133.213486,137.780960 
	C132.822205,139.054108 131.656052,139.302170 130.395477,139.284988 
	C124.390915,139.202988 124.390709,139.217865 126.995216,145.507751 
	C124.000298,147.112305 120.705086,146.693100 117.135254,147.098175 
	C115.349915,145.440811 113.812309,144.289474 111.761909,143.431595 
	C108.939163,142.250565 105.055878,141.846558 104.785789,137.117264 
	C109.133553,133.173737 114.440804,133.008072 119.581955,132.338593 
	C121.715431,132.060791 123.875290,131.985611 126.385391,131.779968 
z"/>
<path fill="#8D1DC7" opacity="1.000000" stroke="none" 
	d="
M104.465698,136.767883 
	C106.410538,139.068665 108.895859,139.887527 111.393898,140.813156 
	C113.639153,141.645096 116.308220,142.143234 116.916649,145.526062 
	C115.538208,148.717697 112.808334,149.153793 109.651817,149.535004 
	C105.683578,146.449066 101.427818,143.951797 100.742645,138.283173 
	C100.801712,137.887054 100.930237,137.492996 101.009850,137.301971 
	C102.090462,137.014313 103.091461,136.917679 104.465698,136.767883 
z"/>
<path fill="#7717BC" opacity="1.000000" stroke="none" 
	d="
M213.361923,164.271179 
	C208.981308,162.945389 206.964355,159.869766 205.620544,156.246170 
	C204.709930,153.790710 203.747757,151.390259 201.890991,148.992310 
	C202.410706,145.495239 205.451630,144.379211 207.691254,142.097656 
	C208.294922,146.772171 211.212311,148.371704 215.674286,147.961792 
	C218.287689,147.721710 220.894989,147.415207 223.969666,147.140839 
	C221.671082,150.367630 218.411484,153.231689 216.864151,157.767334 
	C216.108795,160.420731 217.419571,163.663177 213.361923,164.271179 
z"/>
<path fill="#812CA6" opacity="1.000000" stroke="none" 
	d="
M176.531342,186.904358 
	C176.309448,186.583954 176.241302,186.151123 176.152725,185.390961 
	C176.132309,185.063644 176.599380,185.052231 176.833344,185.049530 
	C177.316513,185.711014 177.247955,186.305588 176.531342,186.904358 
z"/>
<path fill="#7C21B2" opacity="1.000000" stroke="none" 
	d="
M158.830597,57.168350 
	C150.309494,57.066048 149.940582,56.682777 148.936615,47.134758 
	C150.150497,45.302898 151.393906,43.907604 152.811615,42.252258 
	C155.395874,40.909855 157.805801,39.827503 160.583466,38.696594 
	C161.085190,38.839970 161.219193,39.031902 161.198700,39.539139 
	C155.573502,43.131973 160.096085,46.625195 161.146317,49.699753 
	C162.318466,53.131245 164.576187,50.376202 166.417862,49.819771 
	C167.668060,49.442051 169.006638,49.356789 170.703156,49.155754 
	C172.426483,49.853027 172.982101,50.906853 171.440079,51.673512 
	C169.838165,52.469952 168.243576,53.430553 166.236328,54.047600 
	C166.061722,54.376957 166.225266,54.268406 166.279388,54.350273 
	C165.271545,54.831448 164.130615,55.045368 162.920349,55.953423 
	C161.661377,56.700317 160.796539,57.577076 158.830597,57.168350 
z"/>
<path fill="#7B28AA" opacity="1.000000" stroke="none" 
	d="
M161.359467,39.810863 
	C161.028076,39.654362 161.011902,39.454281 160.973480,38.951122 
	C161.797211,38.161137 162.643219,37.674225 163.793488,37.167484 
	C163.749496,38.445820 163.131119,39.494144 161.359467,39.810863 
z"/>
<path fill="#821FB9" opacity="1.000000" stroke="none" 
	d="
M168.768219,35.846985 
	C168.792618,36.019279 168.537796,36.081093 168.134064,35.970654 
	C168.178574,35.894096 168.346527,35.873466 168.768219,35.846985 
z"/>
<path fill="#6B13B7" opacity="1.000000" stroke="none" 
	d="
M144.730087,210.348450 
	C145.754013,210.030655 146.510849,209.949875 147.649780,209.859451 
	C144.414124,215.706009 149.174484,217.938965 152.952820,220.981400 
	C153.100128,221.917068 153.017181,222.567520 152.888153,223.543030 
	C150.608231,224.159058 148.577530,225.010330 146.312988,226.293488 
	C145.493256,226.492142 145.000519,226.484131 144.141113,226.513763 
	C140.884613,226.456497 138.034088,226.610321 135.190933,227.270935 
	C131.979279,228.017151 130.772598,226.162476 131.429062,223.413071 
	C132.220551,220.098145 133.023819,216.663757 135.871460,213.787186 
	C137.451828,212.545425 139.030060,212.478302 140.821075,211.915314 
	C142.265900,211.418732 143.536514,211.509552 144.730087,210.348450 
z"/>
<path fill="#7717BC" opacity="1.000000" stroke="none" 
	d="
M100.534927,138.007416 
	C103.602226,140.939270 107.450302,143.100510 108.956718,147.679016 
	C109.462334,148.748428 109.830399,149.611816 109.325539,150.315369 
	C106.565239,154.162018 104.726585,158.581421 101.522263,162.612488 
	C101.195709,163.081192 101.155090,163.261551 101.052368,163.711975 
	C97.229485,163.077240 93.468697,162.172440 89.349518,161.133759 
	C88.040703,160.121216 87.526642,159.040085 87.408852,157.280258 
	C86.797653,154.317841 87.816879,152.078308 88.753601,149.369324 
	C89.827370,146.485245 91.907585,145.247269 94.228340,143.820236 
	C96.549187,144.136780 97.086624,142.711639 97.722672,140.958023 
	C98.655457,139.819031 99.461792,138.973404 100.534927,138.007416 
z"/>
<path fill="#6B13B7" opacity="1.000000" stroke="none" 
	d="
M88.734818,148.981873 
	C88.990234,151.341995 88.987793,153.730331 88.983948,156.564758 
	C88.586601,157.401886 88.154961,157.748444 87.293297,158.183441 
	C86.018433,158.461929 85.264664,158.220795 84.348724,157.282379 
	C83.974205,153.919144 86.515114,152.141724 87.810898,149.382355 
	C88.135170,149.063004 88.306061,149.036545 88.734818,148.981873 
z"/>
<path fill="#8D1DC7" opacity="1.000000" stroke="none" 
	d="
M97.558304,140.814255 
	C98.300438,141.783905 99.644279,142.869797 98.643570,144.106110 
	C97.659332,145.322067 96.322212,144.568710 94.842178,143.862274 
	C95.133705,142.471313 96.064445,141.580429 97.558304,140.814255 
z"/>
<path fill="#6613B2" opacity="1.000000" stroke="none" 
	d="
M83.937027,157.289246 
	C84.791306,156.995178 85.528152,157.002335 86.634224,157.011261 
	C87.874954,157.989746 88.122612,159.067627 87.267632,160.636597 
	C85.597252,160.986679 84.192764,160.981369 82.365021,160.967285 
	C82.567711,159.835831 83.193657,158.713150 83.937027,157.289246 
z"/>
<path fill="#6612B4" opacity="1.000000" stroke="none" 
	d="
M136.784790,213.725311 
	C136.376053,216.426041 136.001099,219.036362 135.128601,221.187790 
	C132.996628,226.444916 135.620560,225.743668 139.034729,225.242477 
	C140.795670,224.983978 142.657837,225.414993 144.925125,225.648743 
	C145.516968,226.354797 145.520035,226.945435 145.152649,227.748718 
	C144.943573,227.962646 144.927505,227.932693 144.909149,227.924133 
	C142.052032,228.348099 138.982056,227.339493 136.123459,229.530579 
	C134.539246,230.063812 133.216843,230.346649 131.559021,230.672455 
	C130.929153,230.694336 130.634689,230.673248 130.644836,230.330765 
	C130.453369,229.758957 129.957291,229.508560 129.197815,229.164230 
	C128.426056,225.902740 127.292480,223.394363 123.612038,222.761154 
	C119.792320,222.103973 119.040909,218.809174 118.090210,215.365906 
	C117.864052,214.742050 117.727013,214.476089 117.710281,213.781647 
	C120.079117,210.492905 122.325325,213.736328 124.943115,213.487869 
	C126.508713,214.163574 127.731468,214.471802 129.421448,214.029022 
	C132.081299,214.125092 134.183243,212.233292 136.784790,213.725311 
z"/>
<path fill="#521D8D" opacity="1.000000" stroke="none" 
	d="
M130.694519,230.103683 
	C130.949448,230.009354 131.096222,230.360321 131.159912,230.537857 
	C130.731567,230.781906 130.239517,230.848404 129.377899,230.945007 
	C129.485428,230.716080 129.962509,230.457047 130.694519,230.103683 
z"/>
<path fill="#5B0EB0" opacity="1.000000" stroke="none" 
	d="
M118.131889,228.286896 
	C120.692520,224.830002 123.184723,226.176743 125.811127,228.746338 
	C124.519691,229.290741 123.047745,229.538696 121.250549,229.981903 
	C120.510117,230.126907 120.094940,230.076675 119.368881,229.986755 
	C118.802872,229.466995 118.547737,228.986908 118.131889,228.286896 
z"/>
<path fill="#7C21B2" opacity="1.000000" stroke="none" 
	d="
M169.158783,207.666275 
	C169.228287,207.132095 169.468704,206.332932 169.879333,205.266602 
	C169.809616,205.800034 169.569672,206.600662 169.158783,207.666275 
z"/>
<path fill="#511B96" opacity="1.000000" stroke="none" 
	d="
M145.096222,227.788086 
	C145.028976,227.396606 145.114365,226.830582 145.287872,226.013794 
	C145.539551,225.887131 145.683609,226.030838 145.897339,226.332001 
	C145.740616,226.851089 145.494736,227.232315 145.096222,227.788086 
z"/>
<path fill="#511B96" opacity="1.000000" stroke="none" 
	d="
M105.266960,225.018936 
	C106.048470,224.420685 107.005104,224.399368 107.839363,225.683960 
	C107.153778,225.672562 106.343246,225.436142 105.266960,225.018936 
z"/>
<path fill="#6413B0" opacity="1.000000" stroke="none" 
	d="
M213.021362,164.493683 
	C215.216354,162.926422 215.456161,160.556747 216.607788,158.396088 
	C217.044022,158.251892 217.316254,158.414932 217.761688,158.748215 
	C216.884277,162.517502 216.946014,166.247635 216.892120,170.412933 
	C216.580765,171.388092 216.470093,171.944000 216.754486,172.786011 
	C216.901428,173.036545 216.921738,172.989349 216.936050,173.010666 
	C217.546829,173.501663 217.484604,174.173019 217.494629,175.153458 
	C217.404434,176.155457 217.394791,176.825150 217.495575,177.838074 
	C217.400925,179.085205 217.832230,180.025436 216.965759,180.962189 
	C215.963699,181.018158 215.309250,181.012482 214.327576,181.005096 
	C213.004272,178.703125 212.986679,176.265472 212.987671,173.406357 
	C212.994308,170.304947 213.005768,167.621735 213.021362,164.493683 
z"/>
<path fill="#522479" opacity="1.000000" stroke="none" 
	d="
M216.691559,181.340897 
	C216.671036,179.992798 216.723923,178.961761 216.783844,177.542938 
	C216.725037,176.952805 216.659210,176.750443 216.650543,176.234070 
	C216.730515,175.193665 216.753311,174.467285 216.863251,173.386444 
	C218.398148,176.610901 218.195801,180.497086 218.987762,184.615265 
	C218.409271,184.478973 217.871231,183.917984 217.123413,183.151855 
	C216.864059,182.517120 216.814514,182.087540 216.691559,181.340897 
z"/>
<path fill="#652986" opacity="1.000000" stroke="none" 
	d="
M245.345108,212.853333 
	C247.308594,212.415283 249.259628,211.750458 251.640900,210.997330 
	C252.580368,210.759369 252.973343,210.922287 253.179962,211.703613 
	C253.093475,212.053543 253.046112,212.056427 253.039505,212.033630 
	C252.785110,212.212296 252.546631,212.424225 252.129364,212.794586 
	C250.841904,213.267502 249.742569,213.592468 248.337677,214.084839 
	C247.282623,214.209213 246.533127,214.166153 245.409851,214.109070 
	C245.034088,213.924805 245.032104,213.754593 245.028946,213.329010 
	C245.027786,213.073639 245.280792,212.952240 245.416382,212.988312 
	C245.551987,213.024368 245.332657,212.626541 245.345108,212.853333 
z"/>
<path fill="#812CA6" opacity="1.000000" stroke="none" 
	d="
M166.465698,54.335297 
	C167.124374,52.161514 170.082611,51.946091 171.080063,49.405476 
	C171.526138,49.147461 171.951660,49.124138 172.696869,49.084949 
	C173.467453,49.490536 173.998779,49.515865 174.783432,49.214195 
	C180.371490,47.468559 185.747864,48.152542 191.543991,48.998016 
	C196.397751,49.234013 199.884796,52.361931 204.556641,53.037785 
	C207.064362,52.476208 207.584702,54.291008 208.771561,55.712982 
	C210.927048,57.064293 212.709167,58.310841 213.803635,60.715515 
	C216.747635,62.723232 219.387680,64.555138 219.428436,68.724564 
	C219.302109,69.996490 218.873627,70.636032 217.673431,70.995468 
	C209.353928,53.273640 185.834244,47.487854 171.539871,52.594807 
	C169.979935,53.152122 168.426239,53.726940 166.465698,54.335297 
z"/>
<path fill="#6C318E" opacity="1.000000" stroke="none" 
	d="
M220.991180,87.733749 
	C220.964401,88.393539 220.896637,88.807213 220.806061,89.534439 
	C220.649277,90.167641 220.421295,90.391594 219.999023,90.749573 
	C219.896896,91.416451 219.895035,91.853630 219.895996,92.618698 
	C219.126663,93.662003 219.051971,94.749100 218.327652,95.829491 
	C217.830811,96.502266 217.501999,96.925102 217.017517,97.565964 
	C216.528061,98.508026 215.935425,99.021988 215.193268,99.787819 
	C213.436371,101.040947 212.686630,102.635986 211.931244,104.619431 
	C211.120224,105.291481 210.417496,105.645287 209.434753,106.098663 
	C208.956390,105.980736 208.758057,105.763237 208.679749,105.120827 
	C213.360870,98.442192 217.718750,92.147102 218.670776,84.096359 
	C219.088287,80.565445 218.628372,77.197998 218.117599,73.347923 
	C219.508575,72.181389 220.264771,72.670868 220.274200,74.612938 
	C220.100494,75.014397 220.089203,75.034882 220.081406,75.043594 
	C219.918015,75.203667 219.762436,75.355019 219.845627,75.727722 
	C220.114609,78.638046 220.144806,81.327026 220.168304,84.461960 
	C220.436890,85.410736 220.492767,85.971741 220.742554,86.756721 
	C220.895416,86.991585 220.950211,87.487617 220.991180,87.733749 
z"/>
<path fill="#58238D" opacity="1.000000" stroke="none" 
	d="
M168.906311,105.683212 
	C163.266647,105.527740 161.878174,101.062492 160.279602,96.349716 
	C159.880554,93.898827 159.601212,91.778450 159.244522,89.269363 
	C159.471786,88.301224 159.762329,87.706703 160.800110,87.794724 
	C161.386230,88.715942 161.695587,89.459648 162.041748,90.510155 
	C162.992050,93.004021 162.220505,95.780830 164.671051,97.786209 
	C166.223984,100.484810 167.529190,102.913849 168.906311,105.683212 
z"/>
<path fill="#71299C" opacity="1.000000" stroke="none" 
	d="
M155.054871,77.360474 
	C154.838425,72.989792 156.340195,69.074463 155.400803,65.046341 
	C155.016190,63.397068 156.049500,62.209023 157.680695,61.144897 
	C158.163559,60.838978 158.355606,60.716759 158.808777,60.814529 
	C157.890854,64.725037 156.819992,68.435707 156.958435,72.798126 
	C158.086441,75.443512 157.050278,78.131844 158.608063,80.633110 
	C158.755478,81.149818 158.784378,81.316628 158.766693,81.732574 
	C153.112137,84.366379 155.815582,79.563850 155.054871,77.360474 
z"/>
<path fill="#58238D" opacity="1.000000" stroke="none" 
	d="
M208.496216,104.847610 
	C208.859283,104.945633 208.918793,105.195343 209.066528,105.821640 
	C207.778641,109.852005 204.043182,111.108643 201.301697,113.837158 
	C199.918823,114.292877 198.812119,114.567169 197.373550,114.917328 
	C197.035629,114.629669 197.029572,114.266144 197.026611,113.629639 
	C200.750702,110.570862 204.471680,107.785088 208.496216,104.847610 
z"/>
<path fill="#652986" opacity="1.000000" stroke="none" 
	d="
M159.354614,60.867897 
	C158.886978,61.021801 158.704025,61.009090 158.246307,60.978790 
	C158.026627,59.936161 158.081741,58.911121 158.145569,57.501755 
	C158.154297,57.117432 158.111908,57.050163 158.072189,57.051910 
	C158.923187,55.884739 160.214630,55.568577 161.861908,55.223068 
	C163.308380,54.818619 164.464020,54.581860 165.976593,54.388622 
	C164.102127,56.521854 161.870728,58.611568 159.354614,60.867897 
z"/>
<path fill="#522479" opacity="1.000000" stroke="none" 
	d="
M173.161469,113.080826 
	C169.813019,112.076485 168.763321,109.797630 168.964279,106.370560 
	C170.645584,108.079727 172.292740,110.184959 174.004883,112.629166 
	C173.867920,112.992294 173.665924,113.016449 173.161469,113.080826 
z"/>
<path fill="#7B28AA" opacity="1.000000" stroke="none" 
	d="
M220.270447,74.713867 
	C219.600861,74.411964 219.101227,73.809540 218.341782,73.064369 
	C217.802551,72.458183 217.523117,71.994751 217.255035,71.250946 
	C217.471863,70.488922 217.677338,70.007278 217.952682,69.272919 
	C218.439575,68.626015 218.924652,68.352501 219.898987,68.236877 
	C221.187439,68.669121 221.612549,69.317505 221.242767,70.642250 
	C220.820724,72.135078 220.630554,73.274216 220.270447,74.713867 
z"/>
<path fill="#522479" opacity="1.000000" stroke="none" 
	d="
M164.865921,97.698822 
	C161.358612,97.088806 162.219269,94.152695 162.075424,91.241180 
	C162.990036,92.991928 163.901550,95.166901 164.865921,97.698822 
z"/>
<path fill="#652986" opacity="1.000000" stroke="none" 
	d="
M158.784027,80.606232 
	C156.600571,79.050919 157.146240,76.426758 156.938431,73.613800 
	C158.327408,75.360291 158.263260,77.881218 158.784027,80.606232 
z"/>
<path fill="#522479" opacity="1.000000" stroke="none" 
	d="
M161.019028,87.642570 
	C160.597397,88.198059 160.117920,88.423866 159.402802,88.765152 
	C159.117767,87.800194 159.068390,86.719749 159.024902,85.229836 
	C160.317398,85.153122 160.681961,86.199966 161.019028,87.642570 
z"/>
<path fill="#522479" opacity="1.000000" stroke="none" 
	d="
M177.922119,114.772858 
	C177.731247,114.837868 177.396896,114.726822 176.997864,114.486282 
	C177.257431,114.287422 177.539230,114.367432 177.922119,114.772858 
z"/>
<path fill="#7B28AA" opacity="1.000000" stroke="none" 
	d="
M278.272186,175.576630 
	C278.130951,175.942917 277.651733,175.932755 277.412354,175.919846 
	C273.079742,158.079926 260.182678,150.585159 243.304062,147.218307 
	C242.959793,146.912476 242.968491,146.737183 242.987579,146.299347 
	C246.900116,144.194229 250.576263,145.433441 254.607712,146.952850 
	C258.380432,146.221405 261.628082,146.323364 264.677856,149.023926 
	C264.991760,155.542130 270.883362,157.125412 274.265442,161.062302 
	C275.077179,163.036255 275.922302,164.595612 278.254395,165.242889 
	C278.951477,168.647568 279.235870,171.937149 278.272186,175.576630 
z"/>
<path fill="#981DC9" opacity="1.000000" stroke="none" 
	d="
M264.974426,149.043655 
	C261.467010,150.110031 258.677246,148.153748 255.305145,147.187561 
	C258.286377,143.635880 263.439667,145.463470 267.059296,142.845490 
	C267.265381,142.696426 268.358978,143.297974 268.545380,143.752716 
	C268.688202,144.101135 268.174103,144.930573 267.737030,145.264404 
	C266.533051,146.184052 265.571167,147.234756 264.974426,149.043655 
z"/>
<path fill="#652986" opacity="1.000000" stroke="none" 
	d="
M126.297272,215.219833 
	C123.589821,214.632584 121.235344,214.276215 118.483223,213.907013 
	C117.110718,213.914764 116.442207,213.492676 116.122070,212.222427 
	C115.558510,210.400833 115.009880,208.902466 114.263687,207.124420 
	C110.711655,207.636688 109.916870,205.013123 108.655426,202.530487 
	C108.468452,201.276367 108.442146,200.355698 108.272522,199.123611 
	C108.386467,198.594360 108.476845,198.394775 108.784256,197.579102 
	C106.149353,187.497177 102.744301,178.145157 103.062263,167.594025 
	C103.156021,166.859192 103.237564,166.560181 103.622162,166.613708 
	C105.283707,178.687866 108.014893,190.086487 113.224731,200.687775 
	C119.204147,212.855057 127.727219,215.759155 140.228912,210.527557 
	C140.829361,210.276276 141.483093,210.152328 142.496796,209.920914 
	C142.881577,209.872742 143.119034,210.131866 143.237823,210.261398 
	C143.927277,211.474991 143.366898,212.106003 142.173676,212.778458 
	C140.492722,213.281326 139.108841,213.608261 137.370789,213.984467 
	C134.617126,214.296432 132.217636,214.559113 129.429626,214.906097 
	C128.348297,215.684769 127.478600,215.460373 126.297272,215.219833 
z"/>
<path fill="#71299C" opacity="1.000000" stroke="none" 
	d="
M103.973358,166.575500 
	C103.925209,166.966263 103.501518,167.070694 103.287994,167.114441 
	C102.878983,165.795105 102.834778,164.378418 101.479263,163.120483 
	C101.895981,157.177048 106.006393,153.251068 108.880676,148.297928 
	C111.673485,148.136856 113.850952,146.678925 116.617783,145.965881 
	C120.085808,145.870865 123.192192,145.869919 126.679825,145.860168 
	C128.120285,145.902267 129.179504,145.953171 130.636780,145.984406 
	C131.543808,145.445465 132.161743,145.500000 133.005188,145.867859 
	C133.247681,146.314392 133.279083,146.523712 133.108215,146.977753 
	C128.230423,146.798492 123.613953,147.081818 119.054932,148.270798 
	C109.249672,150.827972 105.242851,155.583328 103.973358,166.575500 
z"/>
<path fill="#6B13B7" opacity="1.000000" stroke="none" 
	d="
M109.641907,197.702942 
	C109.956970,198.771942 110.098602,199.607880 110.192093,200.699097 
	C108.943703,202.715271 107.463005,202.823151 105.394440,201.352600 
	C105.011780,200.255539 105.007439,199.501862 105.002853,198.371185 
	C106.106911,197.681595 107.211212,197.369003 108.658401,197.009705 
	C109.001297,196.962982 109.039001,197.005234 109.048538,197.031906 
	C109.194870,197.195679 109.331673,197.332764 109.641907,197.702942 
z"/>
<path fill="#6413B0" opacity="1.000000" stroke="none" 
	d="
M105.060577,201.378006 
	C106.437943,200.998596 107.859764,200.988007 109.712784,200.965881 
	C111.329651,202.739914 112.515335,204.525452 113.883568,206.577881 
	C109.422112,210.083649 107.104454,208.765137 105.060577,201.378006 
z"/>
<path fill="#5B0EB0" opacity="1.000000" stroke="none" 
	d="
M116.009193,212.149261 
	C116.651405,212.415985 117.195671,212.932770 117.912750,213.671875 
	C118.070595,214.079712 118.055611,214.265244 118.020859,214.729401 
	C116.786354,214.553513 115.507896,214.150055 116.009193,212.149261 
z"/>
<path fill="#6413B0" opacity="1.000000" stroke="none" 
	d="
M87.333389,160.994476 
	C87.001694,159.930771 87.001648,158.869568 87.002525,157.410706 
	C87.443512,157.011154 87.883591,157.009277 88.653107,157.009140 
	C88.988419,158.074249 88.994278,159.137604 88.995636,160.600418 
	C88.549095,160.998901 88.107071,160.997940 87.333389,160.994476 
z"/>
<path fill="#941FC6" opacity="1.000000" stroke="none" 
	d="
M221.307129,70.862900 
	C220.782318,70.462410 220.553741,69.928879 220.177002,69.145447 
	C219.097336,67.956863 218.896515,66.883415 219.717911,65.336578 
	C221.729828,65.181175 224.095016,64.507767 224.800095,66.509171 
	C225.650604,68.923279 223.123856,69.634933 221.307129,70.862900 
z"/>
<path fill="#8D1DC7" opacity="1.000000" stroke="none" 
	d="
M219.776489,64.750717 
	C220.006149,66.040092 220.011078,67.080711 220.022430,68.508438 
	C219.582779,68.924561 219.136688,68.953590 218.356567,69.001404 
	C218.337967,65.754501 215.632050,64.027130 214.107300,61.312920 
	C216.493713,61.097206 218.122604,62.639923 219.776489,64.750717 
z"/>
<path fill="#941ECA" opacity="1.000000" stroke="none" 
	d="
M209.004425,55.580933 
	C207.477966,55.645683 206.268463,54.823460 205.126053,53.334534 
	C208.587845,49.406925 208.534103,52.794746 209.004425,55.580933 
z"/>
<path fill="#7B28AA" opacity="1.000000" stroke="none" 
	d="
M220.867432,86.712463 
	C220.681320,86.481056 220.467209,85.970535 220.207367,85.183960 
	C220.387558,85.416389 220.613510,85.924866 220.867432,86.712463 
z"/>
<path fill="#7B28AA" opacity="1.000000" stroke="none" 
	d="
M220.089844,75.724777 
	C219.906647,75.744209 219.857407,75.514648 220.005142,75.156342 
	C220.073608,75.052307 220.095291,75.500488 220.089844,75.724777 
z"/>
<path fill="#7C21B2" opacity="1.000000" stroke="none" 
	d="
M174.673004,49.037140 
	C174.469070,49.109882 173.933517,49.174244 173.207260,49.153839 
	C173.458160,49.055641 173.899780,49.042198 174.673004,49.037140 
z"/>
<path fill="#7B28AA" opacity="1.000000" stroke="none" 
	d="
M218.483673,96.061600 
	C218.210541,94.994392 218.469757,94.000992 219.641556,93.121246 
	C219.955109,93.703888 220.011398,94.461189 220.089813,95.596634 
	C219.677200,95.997780 219.242462,96.020775 218.483673,96.061600 
z"/>
<path fill="#7615B8" opacity="1.000000" stroke="none" 
	d="
M215.249512,99.848892 
	C215.447922,99.367264 215.910690,98.742401 216.617661,97.950760 
	C216.412537,98.424545 215.963196,99.065109 215.249512,99.848892 
z"/>
<path fill="#7B28AA" opacity="1.000000" stroke="none" 
	d="
M220.072174,90.811676 
	C220.101349,90.646622 220.303925,90.313965 220.644867,89.914642 
	C220.644028,90.140373 220.464813,90.405731 220.072174,90.811676 
z"/>
<path fill="#6C318E" opacity="1.000000" stroke="none" 
	d="
M148.304184,151.151093 
	C143.222534,150.379578 138.631378,148.078796 133.189423,147.464630 
	C132.905930,147.222488 132.959732,146.905075 132.995026,146.748047 
	C138.444687,146.882004 144.644180,143.894287 148.304184,151.151093 
z"/>
<path fill="#8921BA" opacity="1.000000" stroke="none" 
	d="
M157.871857,156.678253 
	C157.216949,156.946793 156.467880,156.887558 155.339111,156.849625 
	C154.648514,156.844833 154.406357,156.702042 154.147049,156.241699 
	C153.231308,155.121017 152.033264,154.401245 152.540787,152.543442 
	C155.245758,152.594437 156.888779,154.012939 157.871857,156.678253 
z"/>
<path fill="#6C318E" opacity="1.000000" stroke="none" 
	d="
M152.460327,152.162933 
	C153.149811,153.268509 153.554398,154.316071 154.010071,155.702240 
	C152.167847,154.876144 150.274506,153.711487 148.199677,152.265991 
	C148.018188,151.985153 148.305099,151.653793 148.448807,151.488342 
	C149.249664,150.980560 149.886322,151.002457 150.769089,151.638550 
	C151.417160,151.932907 151.796295,152.018921 152.460327,152.162933 
z"/>
<path fill="#8921BA" opacity="1.000000" stroke="none" 
	d="
M150.913269,151.531128 
	C150.417953,151.743927 149.797897,151.640976 148.885162,151.430466 
	C144.512344,147.206070 139.139359,147.174149 133.471924,146.634125 
	C132.532120,146.433289 132.033890,146.275574 131.285263,146.041306 
	C137.761795,142.623886 147.056747,145.094543 150.913269,151.531128 
z"/>
<path fill="#6612B4" opacity="1.000000" stroke="none" 
	d="
M142.208221,212.893494 
	C142.268921,212.267136 142.661255,211.579865 143.205093,210.641769 
	C143.719147,210.317200 144.081696,210.243469 144.720703,210.140594 
	C144.727295,211.514465 144.025818,212.527740 142.208221,212.893494 
z"/>
<path fill="#652986" opacity="1.000000" stroke="none" 
	d="
M257.415649,209.068375 
	C261.784698,205.031052 266.552338,201.032867 271.664490,196.961487 
	C270.724060,202.776520 265.432831,205.092392 261.272766,208.866592 
	C259.950470,209.095596 258.882355,209.101562 257.415649,209.068375 
z"/>
<path fill="#58238D" opacity="1.000000" stroke="none" 
	d="
M253.417908,211.985916 
	C252.865845,211.799271 252.638199,211.545013 252.240845,211.099899 
	C253.485306,210.295746 254.899475,209.682465 256.657959,209.052551 
	C256.532318,210.694183 255.337540,211.532669 253.417908,211.985916 
z"/>
<path fill="#58238D" opacity="1.000000" stroke="none" 
	d="
M252.148468,212.818390 
	C252.166870,212.716217 252.404144,212.502838 252.842987,212.156631 
	C252.846710,212.277817 252.620972,212.505615 252.148468,212.818390 
z"/>
<path fill="#58238D" opacity="1.000000" stroke="none" 
	d="
M216.942673,172.673309 
	C216.813644,172.450760 216.725861,171.864960 216.743225,171.066925 
	C216.893570,171.339798 216.938736,171.824936 216.942673,172.673309 
z"/>
<path fill="#6613B2" opacity="1.000000" stroke="none" 
	d="
M245.377167,213.041687 
	C245.357559,213.080139 245.492462,213.057053 245.522217,213.040710 
	C245.551987,213.024368 245.396790,213.003235 245.377167,213.041687 
z"/>
<path fill="#7717BC" opacity="1.000000" stroke="none" 
	d="
M161.794281,55.067886 
	C160.997833,55.682953 159.842926,56.310524 158.360245,56.995872 
	C158.757370,55.689518 159.941223,55.116970 161.794281,55.067886 
z"/>
<path fill="#5B0EB0" opacity="1.000000" stroke="none" 
	d="
M126.189911,215.116943 
	C126.718346,214.985138 127.492393,214.981323 128.653778,214.983948 
	C128.212585,215.484818 127.354706,215.678589 126.189911,215.116943 
z"/>
<path fill="#58238D" opacity="1.000000" stroke="none" 
	d="
M216.658447,176.071564 
	C216.723297,176.125595 216.738892,176.331131 216.772675,176.845917 
	C216.632858,176.862595 216.572296,176.551895 216.658447,176.071564 
z"/>
<path fill="#6413B0" opacity="1.000000" stroke="none" 
	d="
M109.704910,197.777191 
	C109.628799,197.757690 109.454315,197.568268 109.174980,197.213165 
	C109.256767,197.226120 109.435570,197.412720 109.704910,197.777191 
z"/>
</svg>