<?xml version="1.0" encoding="utf-8"?>
<!-- Generator: Adobe Illustrator 24.3.0, SVG Export Plug-In . SVG Version: 6.00 Build 0)  -->
<svg version="1.1" id="Layer_1" xmlns="http://www.w3.org/2000/svg" xmlns:xlink="http://www.w3.org/1999/xlink" x="0px" y="0px"
	 viewBox="0 0 512 512" style="enable-background:new 0 0 512 512;" xml:space="preserve">
<g>
	<path d="M509,129.51L452.11,15.74c-4.83-9.64-14.67-15.72-25.44-15.72H284.46c-10.8,0-20.64,6.08-25.47,15.72l-49,98.05H85.36
		c-10.8,0-20.64,6.08-25.47,15.72L3,243.28c-4,8-4,17.44,0,25.47l56.89,113.77c4.83,9.61,14.67,15.69,25.47,15.69h124.63
		l49.03,98.05c4.81,9.64,14.64,15.72,25.44,15.72h142.21c10.78,0,20.61-6.08,25.44-15.72L509,382.49c4-8,4-17.44,0-25.47L458.45,256
		l50.53-101.05C512.97,146.95,512.97,137.51,509,129.51z M302.01,56.9h107.08l42.66,85.33l-42.66,85.33H302.01l-42.66-85.33
		L302.01,56.9z M60.25,256l42.66-85.33h107.08L252.65,256l-42.66,85.33H102.91L60.25,256z M409.09,455.1H302.01l-42.66-85.33
		l42.66-85.33h107.08l42.66,85.33L409.09,455.1z"/>
</g>
</svg>
