<?xml version="1.0" encoding="UTF-8"?>
<svg version="1.1" xmlns="http://www.w3.org/2000/svg" width="1280" height="720">
<path d="M0 0 C422.4 0 844.8 0 1280 0 C1280 237.6 1280 475.2 1280 720 C857.6 720 435.2 720 0 720 C0 482.4 0 244.8 0 0 Z " fill="#EBEBEB" transform="translate(0,0)"/>
<path d="M0 0 C13.86 0 27.72 0 42 0 C44.35565306 4.71130611 45.806863 8.60870816 46.9375 13.625 C48.34459879 19.55627453 50.02045179 25.28847043 52.01171875 31.0546875 C53.42530114 35.26749826 54.61177191 39.53490619 55.8125 43.8125 C56.70589289 46.98623139 57.62903328 50.15032564 58.5625 53.3125 C61.67452527 63.86328384 64.68005264 74.42962565 67.5 85.0625 C69.9290783 94.21444761 72.56611338 103.27476285 75.375 112.31665039 C77.92503867 120.59218045 80.16125527 128.93787149 82.375 137.30859375 C84.52233748 145.37069563 86.89635185 153.34141154 89.37280273 161.30761719 C91.94724975 169.65927589 94.19750188 178.08429083 96.42993164 186.53271484 C98.98475717 196.12329321 101.89942453 205.57334197 105 215 C108.49015771 206.81132987 111.70910148 198.55787758 114.74609375 190.19140625 C115.18946579 188.97655045 115.63283783 187.76169464 116.08964539 186.51002502 C117.29164152 183.21586363 118.49006551 179.92041343 119.68772125 176.62467194 C120.70285471 173.83267532 121.720194 171.04148439 122.73745728 168.25026321 C130.14169715 147.93196909 137.48160947 127.59070595 144.80236816 107.2422142 C153.96283159 81.78066772 163.27318609 56.37642153 172.67315674 31.00234985 C174.4891332 26.09936861 176.29645796 21.19370728 178.07861328 16.27832031 C178.40023941 15.39443634 178.72186554 14.51055237 179.05323792 13.59988403 C179.64636949 11.96801669 180.23639586 10.33501576 180.82261658 8.70065308 C181.9829089 5.51450029 183.10936659 2.83595012 185 0 C187.70556641 -0.34057617 187.70556641 -0.34057617 191.1015625 -0.29296875 C192.31328125 -0.28330078 193.525 -0.27363281 194.7734375 -0.26367188 C196.04445313 -0.23853516 197.31546875 -0.21339844 198.625 -0.1875 C199.90375 -0.17396484 201.1825 -0.16042969 202.5 -0.14648438 C205.66708282 -0.11103196 208.83333541 -0.06161441 212 0 C216.5102657 10.97614203 220.62245165 22.07044124 224.62927246 33.2387085 C226.49538495 38.43870231 228.37139032 43.63512984 230.24609375 48.83203125 C230.63673004 49.91552856 231.02736633 50.99902588 231.42984009 52.11535645 C235.67331349 63.87949713 239.9566577 75.6289813 244.25 87.375 C244.64002197 88.4422934 245.03004395 89.50958679 245.43188477 90.60922241 C252.25779875 109.28307775 259.13131544 127.93928699 266.01290894 146.59268188 C274.41453455 169.36884958 282.73157663 192.17516929 291 215 C293.92565748 207.3718213 296.26453165 199.71758537 298.3125 191.8125 C302.42302041 176.26347785 306.88521754 160.83220897 311.625 145.46362305 C314.77009259 135.2605004 317.6448673 125.0136853 320.375 114.69189453 C322.52286295 106.6266212 324.89898831 98.65325637 327.375 90.68359375 C329.58884448 83.49848241 331.57784909 76.26813311 333.5 69 C335.67426013 60.77857889 337.97692022 52.62122912 340.5 44.5 C344.06548478 33.02274578 347.1860886 21.4385781 350.24145508 9.81640625 C351.12537951 6.53447761 352.06625615 3.26810349 353 0 C367.52 0 382.04 0 397 0 C395.02913033 7.22652212 393.01584861 14.413689 390.85546875 21.58203125 C390.2544828 23.58786831 389.65357391 25.59372846 389.05273438 27.59960938 C388.12597906 30.6880646 387.19840248 33.77626759 386.26928711 36.86401367 C382.67389 48.82075465 379.17088702 60.7898448 375.94889832 72.85334778 C374.48098182 78.33516103 372.83679039 83.71373429 370.98046875 89.078125 C369.33405183 93.98457862 367.92461063 98.96093349 366.48046875 103.9296875 C365.37494523 107.73170366 364.24812201 111.52694453 363.11328125 115.3203125 C359.59914204 127.07981398 356.18537956 138.85070539 353.00805664 150.70581055 C351.54516651 156.12397793 349.89631225 161.42540761 348.05078125 166.7265625 C346.60371193 171.23453308 345.40698905 175.80102781 344.1875 180.375 C341.91724162 188.86554977 339.38955418 197.23597511 336.6809082 205.59594727 C333.50867201 215.42665228 330.64871187 225.34329968 327.7890625 235.26855469 C326.46669718 239.84609901 325.11872939 244.41603199 323.77075195 248.98608398 C322.77206393 252.37309936 321.77759362 255.76121015 320.79296875 259.15234375 C317.68811392 269.82119282 314.3723634 280.41234747 311 291 C299.45 291 287.9 291 276 291 C275.05382812 288.39222656 274.10765625 285.78445313 273.1328125 283.09765625 C266.18686416 263.96434363 259.21618712 244.84057215 252.18533325 225.73828125 C244.19977136 204.04120162 236.30220892 182.31360031 228.4546051 160.56628418 C225.45600903 152.25823138 222.44971976 143.95297499 219.44140625 135.6484375 C219.20475943 134.9951264 218.9681126 134.3418153 218.72429466 133.66870689 C216.60947183 127.83031759 214.49446981 121.99199323 212.3789978 116.15383911 C203.0115885 90.30052482 203.0115885 90.30052482 199 79 C196.70031328 81.29968672 196.14348054 82.95036986 195.05493164 86.00146484 C194.67520203 87.05678909 194.29547241 88.11211334 193.90423584 89.19941711 C193.49368958 90.35821884 193.08314331 91.51702057 192.66015625 92.7109375 C191.99496761 94.56592591 191.32977643 96.42091341 190.66448402 98.2758646 C189.95234293 100.26472324 189.24295495 102.25454465 188.53433228 104.24465942 C187.05052745 108.41124372 185.5588105 112.57496443 184.06518555 116.73803711 C183.81481946 117.43590552 183.56445337 118.13377394 183.30650043 118.85278988 C182.79828566 120.26932484 182.29004363 121.68585003 181.78177452 123.10236549 C181.01162508 125.24943246 180.2421706 127.39674744 179.47285461 129.54411316 C174.80493824 142.56937091 170.0707504 155.56997683 165.3125 168.5625 C164.53609678 170.68406884 163.75972964 172.8056509 162.98339844 174.92724609 C161.43610509 179.15498976 159.88817797 183.38250072 158.33984375 187.60986328 C154.72675457 197.47557455 151.12027944 207.34370334 147.51419067 217.2119751 C146.32748202 220.45900672 145.14021302 223.70583305 143.95288086 226.95263672 C140.04820828 237.63344389 136.15599488 248.31859994 132.28515625 259.01171875 C131.5341147 261.08464136 130.7830571 263.15755815 130.03198242 265.23046875 C128.62143125 269.12386637 127.21458911 273.01857749 125.80981445 276.9140625 C125.18323587 278.64457847 124.55653436 280.37504994 123.9296875 282.10546875 C123.64525284 282.89749191 123.36081818 283.68951508 123.06776428 284.50553894 C121.11364085 289.88635915 121.11364085 289.88635915 120 291 C117.40640678 291.08851529 114.83960309 291.11525945 112.24609375 291.09765625 C111.47064713 291.0962413 110.6952005 291.09482635 109.89625549 291.09336853 C107.40996506 291.08775345 104.9237634 291.07519846 102.4375 291.0625 C100.75586067 291.05748694 99.07421994 291.0529237 97.39257812 291.04882812 C93.26168434 291.03777913 89.13085724 291.02050445 85 291 C84.82984375 290.41436279 84.6596875 289.82872559 84.484375 289.2253418 C81.0198157 277.30785674 77.53273331 265.39746744 74 253.5 C69.98018719 239.95886572 66.02066704 226.40059638 62.08105469 212.8359375 C61.46010447 210.69804817 60.83876755 208.56027112 60.21704102 206.42260742 C59.63851479 204.43344534 59.06079927 202.44404717 58.48413086 200.4543457 C57.06049065 195.56082435 55.60021802 190.68119733 54.09375 185.8125 C51.71827692 178.12560781 49.45134105 170.40776453 47.1875 162.6875 C46.74663946 161.18658795 46.30572076 159.68569298 45.86474609 158.18481445 C43.00426647 148.44467292 40.15477266 138.70131843 37.33276367 128.94995117 C35.96431534 124.23728328 34.55598879 119.5396635 33.10546875 114.8515625 C30.72630737 107.15157663 28.4551675 99.42081369 26.1875 91.6875 C25.74663946 90.18658795 25.30572076 88.68569298 24.86474609 87.18481445 C22.00426647 77.44467292 19.15477266 67.70131843 16.33276367 57.94995117 C14.6263547 52.07341305 12.84549096 46.22240989 11.03955078 40.37573242 C9.29053889 34.69616749 7.57758631 29.00612989 5.875 23.3125 C5.52824219 22.16716797 5.18148438 21.02183594 4.82421875 19.84179688 C4.48777344 18.71451172 4.15132813 17.58722656 3.8046875 16.42578125 C3.50546387 15.42973877 3.20624023 14.43369629 2.89794922 13.4074707 C1.73280146 8.98605493 0.8967138 4.48356901 0 0 Z " fill="#1F1F1F" transform="translate(456,102)"/>
<path d="M0 0 C13.2 0 26.4 0 40 0 C40.06784362 27.08699959 40.12305541 54.17392988 40.15543652 81.260993 C40.17087439 93.83930959 40.19190479 106.41756945 40.22631836 118.99584961 C40.25631525 129.96509182 40.27559736 140.93429292 40.28226548 151.903575 C40.28616035 157.70625021 40.29524911 163.50880787 40.31719017 169.31144524 C40.33771818 174.78529556 40.34380116 180.25898113 40.33932304 185.73286629 C40.340141 187.73014347 40.34600859 189.72742679 40.35761642 191.72467041 C40.44127177 206.87557028 40.07639775 222.41664674 33.3125 236.3125 C32.96292236 237.05902832 32.61334473 237.80555664 32.25317383 238.57470703 C21.95631949 259.99013284 5.32049976 276.46469508 -17 285 C-17.90105469 285.36609375 -18.80210937 285.7321875 -19.73046875 286.109375 C-31.30893976 290.61665003 -42.47164058 291.34912745 -54.7590332 291.31567383 C-57.16599495 291.31252811 -59.5717061 291.33599847 -61.97851562 291.36132812 C-75.15433804 291.41660681 -88.34523339 290.28215624 -100.5625 284.9375 C-101.60809082 284.48914795 -101.60809082 284.48914795 -102.67480469 284.03173828 C-126.72643802 273.26893178 -143.06588836 253.94510627 -152.8125 229.75 C-155.77413685 220.39746258 -156.2600655 211.65589376 -156.125 201.875 C-156.08375 197.62625 -156.0425 193.3775 -156 189 C-143.13 189 -130.26 189 -117 189 C-116.6875 199.375 -116.6875 199.375 -116.61206055 202.57958984 C-116.05912984 217.07955854 -110.37189816 229.8663429 -99.72265625 239.89453125 C-87.71762784 249.17819023 -75.93271259 252.37420092 -60.8659668 252.37060547 C-58.8336038 252.37495484 -56.8034615 252.41129311 -54.77148438 252.44921875 C-43.75469654 252.54536794 -33.25589701 250.86342919 -24 244.5 C-23.154375 243.9328125 -22.30875 243.365625 -21.4375 242.78125 C-16.60381945 239.24894498 -12.93274415 235.98015655 -9.4375 231.0625 C-8.69371094 230.04285156 -7.94992187 229.02320313 -7.18359375 227.97265625 C-0.08785303 216.12288526 -0.41685335 203.48131928 -0.45410156 190.1550293 C-0.4453531 188.07431266 -0.43486292 185.99360274 -0.42277527 183.91290283 C-0.39505071 178.30016116 -0.39150759 172.68764049 -0.39249516 167.07484031 C-0.38935438 161.19582473 -0.36371197 155.31690699 -0.34051514 149.4379425 C-0.30004068 138.32130456 -0.27963454 127.20472516 -0.26654124 116.08802491 C-0.25064219 103.42527596 -0.21221433 90.7626262 -0.17194796 78.09993494 C-0.08966601 52.06663697 -0.03847415 26.03340211 0 0 Z " fill="#202020" transform="translate(368,102)"/>
<path d="M0 0 C65.67 0 131.34 0 199 0 C199 12.54 199 25.08 199 38 C172.6 38 146.2 38 119 38 C119 121.49 119 204.98 119 291 C106.13 291 93.26 291 80 291 C80 207.51 80 124.02 80 38 C53.6 38 27.2 38 0 38 C0 25.46 0 12.92 0 0 Z " fill="#1E1E1E" transform="translate(868,102)"/>
<path d="M0 0 C3.96 0 7.92 0 12 0 C12.24234375 1.00417969 12.4846875 2.00835938 12.734375 3.04296875 C14.29448544 9.43532842 15.87410989 15.79080244 17.875 22.0625 C20.45461738 30.20057863 22.50865952 38.4765228 24.6328125 46.7421875 C25.69067946 50.84894147 26.80955413 54.92980887 28 59 C33.08196408 47.54242485 37.09362508 35.68981171 41.25 23.875 C42.34628474 20.76597493 43.44352783 17.65729372 44.54217529 14.54910278 C45.22148863 12.62652957 45.89931629 10.70343062 46.57550049 8.77975464 C46.87961853 7.91770416 47.18373657 7.05565369 47.49707031 6.16748047 C47.76400696 5.40869598 48.0309436 4.6499115 48.30596924 3.86813354 C49 2 49 2 50 0 C52.64 0 55.28 0 58 0 C61.62042214 9.7661061 65.21109773 19.54151512 68.7109375 29.3515625 C69.1645163 30.62202423 69.1645163 30.62202423 69.6272583 31.91815186 C70.86255767 35.38000361 72.09681937 38.84221596 73.32763672 42.30566406 C74.24456099 44.88436624 75.16496116 47.46180525 76.0859375 50.0390625 C76.36504974 50.82737457 76.64416199 51.61568665 76.93173218 52.42788696 C77.99239336 55.98608074 77.99239336 55.98608074 80 59 C80.21914063 58.07703125 80.43828125 57.1540625 80.6640625 56.203125 C82.55141501 48.39339047 84.64772767 40.68305206 87 33 C89.28302301 25.54045492 91.31835054 18.06528658 93.140625 10.48046875 C94.01078491 6.9563211 94.9829038 3.48400058 96 0 C99.96 0 103.92 0 108 0 C105.4412008 10.47542293 102.6890769 20.87396329 99.70703125 31.23828125 C99.31136505 32.62064078 98.91591791 34.00306302 98.52067566 35.38554382 C97.70297126 38.24373914 96.88358822 41.10144505 96.06274414 43.95874023 C95.01137192 47.61851637 93.96296089 51.27913232 92.91560841 54.94006062 C91.90951798 58.45640222 90.90212218 61.97236936 89.89453125 65.48828125 C89.70394449 66.15363703 89.51335773 66.81899281 89.31699562 67.50451088 C88.77951127 69.37992178 88.24097689 71.25503165 87.70239258 73.13012695 C87.39690994 74.19439407 87.09142731 75.25866119 86.77668762 76.35517883 C86.22087525 78.24786295 85.62379328 80.12862016 85 82 C81.7 82 78.4 82 75 82 C72.38680649 74.62187709 69.77866313 67.24199057 67.17697144 59.85980511 C65.96877247 56.43210079 64.75883564 53.00503074 63.54492188 49.5793457 C62.37372422 46.2740033 61.20709885 42.96708016 60.04364014 39.65900612 C59.38204035 37.78169596 58.71570312 35.90605757 58.04931641 34.03044128 C57.64890137 32.88948502 57.24848633 31.74852875 56.8359375 30.57299805 C56.48063965 29.567061 56.1253418 28.56112396 55.75927734 27.52470398 C55 25 55 25 55 22 C54.34 22 53.68 22 53 22 C52.75000244 23.25248535 52.50000488 24.5049707 52.24243164 25.79541016 C50.98127554 31.45477831 49.08530195 36.82531591 47.12109375 42.2734375 C46.74896255 43.31899811 46.37683136 44.36455872 45.99342346 45.44180298 C44.81310385 48.75467393 43.62547464 52.06486737 42.4375 55.375 C41.63557197 57.6209168 40.83413479 59.86700893 40.03320312 62.11328125 C38.27746526 67.03635409 36.51697537 71.95769915 34.75218201 76.87753296 C34.14937731 78.57849507 33.57067027 80.28798918 33 82 C29.7 82 26.4 82 23 82 C17.94947313 67.11942326 13.6586513 52.00446581 9.64160156 36.81713867 C7.29708799 27.98812444 4.76651748 19.22182486 2.1328125 10.47485352 C1.85308594 9.53569092 1.57335937 8.59652832 1.28515625 7.62890625 C1.03644775 6.80463135 0.78773926 5.98035645 0.53149414 5.13110352 C0 3 0 3 0 0 Z " fill="#212121" transform="translate(523,534)"/>
<path d="M0 0 C3.3 0 6.6 0 10 0 C10 11.22 10 22.44 10 34 C12.97 32.02 15.94 30.04 19 28 C26.98531588 26.40293682 34.87768154 27.28890101 41.91796875 31.45703125 C47.933461 35.91504145 51.94755813 41.78186175 54 49 C55.35217428 58.29964762 52.84452313 66.43152346 47.9375 74.3125 C41.75280935 79.970834 35.75740207 83.35667576 27.25 83.5625 C20.2840573 83.21544236 15.40469208 81.53994135 10 77 C10 78.65 10 80.3 10 82 C6.7 82 3.4 82 0 82 C0 54.94 0 27.88 0 0 Z " fill="#202020" transform="translate(704,534)"/>
<path d="M0 0 C12 0 12 0 15.81811523 3.62988281 C16.94105802 5.29286149 18.01912958 6.9867297 19.05859375 8.703125 C19.95240501 10.06361969 19.95240501 10.06361969 20.86427307 11.45159912 C22.76239123 14.36050889 24.59980676 17.30263299 26.4375 20.25 C27.66606591 22.15483627 28.89845938 24.0572096 30.13476562 25.95703125 C32.46465273 29.55086796 34.77108367 33.15744561 37.05249023 36.78222656 C42.62998103 45.5674041 48.32877497 54.27503842 54 63 C54.33 42.21 54.66 21.42 55 0 C58.3 0 61.6 0 65 0 C65 27.06 65 54.12 65 82 C53 82 53 82 49.13427734 78.18310547 C47.99163632 76.43867392 46.89430117 74.66400032 45.8359375 72.8671875 C45.2329483 71.92376495 44.62995911 70.98034241 44.00869751 70.0083313 C42.08977765 66.98752086 40.23202375 63.93416672 38.375 60.875 C37.12119722 58.87118341 35.86341791 56.86984917 34.6015625 54.87109375 C32.75793532 51.94838203 30.91813533 49.0239256 29.09588623 46.08782959 C24.96655054 39.44362562 20.61866762 33.04024101 15.97509766 26.74658203 C14.18340698 24.25504679 12.57891558 21.63152597 11 19 C10.67 39.79 10.34 60.58 10 82 C6.7 82 3.4 82 0 82 C0 54.94 0 27.88 0 0 Z " fill="#1F1F1F" transform="translate(415,534)"/>
<path d="M0 0 C7.18931244 3.26385964 12.6973507 8.63055778 15.984375 15.84375 C18.20278712 22.88720849 18.242358 31.09756821 15.484375 37.96875 C11.59580444 45.33942033 6.88506672 50.7907699 -1.140625 53.53125 C-8.79515049 55.23225567 -16.45337725 55.41030012 -23.3125 51.2890625 C-23.85390625 50.91523437 -24.3953125 50.54140625 -24.953125 50.15625 C-25.860625 49.5375 -26.768125 48.91875 -27.703125 48.28125 C-34.05445459 42.28277205 -37.03307223 35.00242258 -37.515625 26.40625 C-37.30028808 18.67369699 -34.31691575 11.97155629 -29.20703125 6.17578125 C-20.8520964 -1.3604072 -10.84844432 -3.09955552 0 0 Z " fill="#222222" transform="translate(890.953125,562.84375)"/>
<path d="M0 0 C0.86625 0.66 1.7325 1.32 2.625 2 C3.8315625 2.89138672 3.8315625 2.89138672 5.0625 3.80078125 C7.72738515 6.08787018 9.37903949 8.22728166 11.25 11.1875 C12.10464844 12.50814453 12.10464844 12.50814453 12.9765625 13.85546875 C18.63253556 24.64470645 19.51607228 36.70486167 16.81640625 48.546875 C12.9036907 58.99883488 4.70406788 68.12147354 -5.375 73 C-16.18819718 76.85348355 -26.70044242 77.53583437 -37.375 73 C-40.60236448 71.25404872 -43.49129571 69.26499908 -46.375 67 C-47.0040625 66.50886719 -47.633125 66.01773438 -48.28125 65.51171875 C-54.85219995 59.70449764 -59.18137435 50.66041718 -60.375 42 C-61.25673706 27.1630783 -58.87449465 16.71562892 -49.0625 5.3125 C-34.3071096 -7.38399872 -17.25490705 -10.22513011 0 0 Z M-44.64453125 16.546875 C-49.5580737 23.51234827 -51.44211839 30.54209872 -50.375 39 C-48.51371869 49.12167855 -43.61276614 55.76253522 -35.40234375 61.7734375 C-28.69796836 65.8296492 -22.03168404 65.78658831 -14.375 65 C-5.59892238 62.5268509 0.50894396 56.36947511 5.0078125 48.6171875 C8.70467378 40.57716051 9.01759873 32.09079815 6.0625 23.75 C1.94642839 14.75241187 -4.68802036 9.34348982 -13.375 5 C-27.02357467 3.89549107 -35.54221159 5.57322016 -44.64453125 16.546875 Z " fill="#212121" transform="translate(381.375,540)"/>
<path d="M0 0 C3.39608087 2.21868209 5.73247343 4.59871015 8 8 C8 8.99 8 9.98 8 11 C5.03 12.32 2.06 13.64 -1 15 C-1.66 13.68 -2.32 12.36 -3 11 C-5.45704762 9.76709799 -5.45704762 9.76709799 -8 9 C-8.66 8.67 -9.32 8.34 -10 8 C-18.14293763 7.16351161 -18.14293763 7.16351161 -25.625 9.8125 C-28.87357105 12.80460491 -30.34170817 15.00634175 -30.625 19.375 C-30.50945369 22.78626576 -30.50945369 22.78626576 -28.55810547 25.44433594 C-22.26049308 29.22448768 -15.89314222 30.87283413 -8.77734375 32.49609375 C-0.78438361 34.53214619 4.62802818 38.52975933 9.5 45.1875 C12.38731998 50.96213996 11.99028748 57.74619827 10.15234375 63.78515625 C7.02836229 70.80617221 2.64343955 75.00126907 -4.38671875 78.02734375 C-13.14521997 81.011009 -21.1091614 81.12381786 -29.609375 77.328125 C-36.32552778 73.59692901 -40.64685199 68.84601051 -44 62 C-37.76817289 58.04518664 -37.76817289 58.04518664 -34.875 57.875 C-32.46696128 59.31982323 -31.06050925 61.3309404 -29.32421875 63.5 C-26.41154528 66.79931155 -23.4482523 67.85832314 -19.125 68.28125 C-13.307995 68.45233838 -9.93797477 68.23492975 -5 65 C-4.34 65 -3.68 65 -3 65 C-0.73225268 60.60623956 -0.02035237 55.84842556 -1 51 C-3.74604809 46.5670938 -6.15147351 45.20526853 -11.125 43.875 C-12.27613281 43.55144531 -13.42726563 43.22789062 -14.61328125 42.89453125 C-16.28970703 42.45173828 -16.28970703 42.45173828 -18 42 C-27.74400846 39.42431105 -34.91963374 36.29140853 -41 28 C-43.45494359 23.09011282 -42.57239128 15.86530401 -40.9375 10.75 C-37.95232703 3.97435159 -32.32172695 -0.66902559 -25.51171875 -3.33984375 C-16.60576101 -5.68060092 -8.12612203 -4.06962492 0 0 Z " fill="#222222" transform="translate(300,537)"/>
<path d="M0 0 C7.79870745 8.23196898 9.25 15.02989405 9.25 26.375 C-3.95 26.375 -17.15 26.375 -30.75 26.375 C-27.50844373 33.98550578 -27.50844373 33.98550578 -21.75 38.375 C-17.27840657 39.09291638 -12.84306424 39.47639885 -8.73828125 37.31640625 C-6.59827226 35.57020037 -4.98926215 33.85352431 -3.75 31.375 C-0.19219804 31.98490891 2.9328589 32.9533681 6.25 34.375 C5.31460598 39.61320653 2.07512924 42.85962699 -1.75 46.375 C-8.17767293 50.79940202 -15.14167622 51.36376985 -22.75 50.375 C-29.85851823 48.52113773 -34.62649334 43.22374393 -38.75 37.375 C-42.43417717 30.65969378 -42.80345451 22.84495017 -41.75 15.375 C-39.14255386 7.33298663 -35.25720753 1.40429218 -27.75 -2.625 C-17.7007798 -7.64000281 -9.38634369 -5.54647582 0 0 Z " fill="#242424" transform="translate(1019.75,566.625)"/>
<path d="M0 0 C7.79870745 8.23196898 9.25 15.02989405 9.25 26.375 C-3.95 26.375 -17.15 26.375 -30.75 26.375 C-27.50844373 33.98550578 -27.50844373 33.98550578 -21.75 38.375 C-17.27840657 39.09291638 -12.84306424 39.47639885 -8.73828125 37.31640625 C-6.59827226 35.57020037 -4.98926215 33.85352431 -3.75 31.375 C-0.19219804 31.98490891 2.9328589 32.9533681 6.25 34.375 C5.31460598 39.61320653 2.07512924 42.85962699 -1.75 46.375 C-8.17767293 50.79940202 -15.14167622 51.36376985 -22.75 50.375 C-29.85851823 48.52113773 -34.62649334 43.22374393 -38.75 37.375 C-42.43417717 30.65969378 -42.80345451 22.84495017 -41.75 15.375 C-39.14255386 7.33298663 -35.25720753 1.40429218 -27.75 -2.625 C-17.7007798 -7.64000281 -9.38634369 -5.54647582 0 0 Z " fill="#242424" transform="translate(680.75,566.625)"/>
<path d="M0 0 C3.3 0 6.6 0 10 0 C10.33 16.17 10.66 32.34 11 49 C13.31 46.69 15.62 44.38 18 42 C19.98712556 40.211587 22.01089187 38.49090281 24.0625 36.77734375 C26.04340901 35.06900513 26.04340901 35.06900513 27.5 33.00390625 C29.63086596 30.24598858 31.2849327 28.2763488 34.86669922 27.69921875 C39.59691707 27.39551295 44.27920616 27.64296517 49 28 C46.2649891 31.37051257 43.6703365 34.48215213 40.3125 37.25 C36.9413192 40.14973214 33.65568379 43.1180558 30.4375 46.1875 C29.56996094 47.00605469 28.70242188 47.82460938 27.80859375 48.66796875 C25.74609897 50.76646962 25.74609897 50.76646962 26.22070312 52.92456055 C27.07900915 55.2104188 28.09869036 56.66674566 29.66015625 58.5390625 C30.20325439 59.19769287 30.74635254 59.85632324 31.3059082 60.53491211 C31.8855835 61.22464111 32.46525879 61.91437012 33.0625 62.625 C34.24500188 64.05581588 35.42729367 65.48680541 36.609375 66.91796875 C37.18751953 67.61325684 37.76566406 68.30854492 38.36132812 69.02490234 C40.53471213 71.64449064 42.67867651 74.28557189 44.8125 76.9375 C45.43769531 77.70964844 46.06289063 78.48179687 46.70703125 79.27734375 C48 81 48 81 48 82 C43.25895013 83.10240217 38.61974239 83.79774294 34 82 C28.27098012 77.37936894 24.17350094 70.99056005 20 65 C19.00519208 63.66278836 18.00665512 62.32831594 17 61 C14.53199953 62.15173355 12.95216435 63.04783565 11 65 C10.69324768 67.89967757 10.48826629 70.71783178 10.375 73.625 C10.33632813 74.42679688 10.29765625 75.22859375 10.2578125 76.0546875 C10.16346069 78.03607556 10.08063785 80.01800645 10 82 C6.7 82 3.4 82 0 82 C0 54.94 0 27.88 0 0 Z " fill="#202020" transform="translate(922,534)"/>
<path d="M0 0 C17.82 0 35.64 0 54 0 C54 3.3 54 6.6 54 10 C47.07 10 40.14 10 33 10 C33 33.76 33 57.52 33 82 C29.37 82 25.74 82 22 82 C22 58.24 22 34.48 22 10 C14.74 10 7.48 10 0 10 C0 6.7 0 3.4 0 0 Z " fill="#232323" transform="translate(793,534)"/>
<path d="M0 0 C3.3 0 6.6 0 10 0 C10.11629831 8.18903597 10.20491793 16.3777219 10.25906086 24.56738186 C10.28505846 28.3709848 10.32027275 32.17401914 10.37719727 35.97729492 C10.43187361 39.65373819 10.46149436 43.32963763 10.47438622 47.00645638 C10.48356288 48.40302138 10.50148207 49.79955955 10.52865028 51.19589043 C10.7070448 60.7522693 9.90681184 67.63146926 3.32197571 74.83592224 C-2.7607558 80.79135574 -9.70846598 82.16084145 -18 82.5 C-25.69813445 82.30112462 -30.41353906 80.35484995 -35.99609375 75.1328125 C-41.03272297 69.75063491 -44.1404726 64.58688385 -44.1875 57.0625 C-44.125625 55.721875 -44.06375 54.38125 -44 53 C-40.37 53 -36.74 53 -33 53 C-32.7525 54.546875 -32.505 56.09375 -32.25 57.6875 C-31.37235694 62.08816414 -30.29280266 64.80697924 -27 68 C-21.9093124 71.39379173 -15.94145634 70.54634081 -10 70 C-6.16737041 68.77355853 -4.42065857 66.71820492 -2.38249207 63.2383728 C-0.92138465 59.81585009 -0.60663706 57.50919324 -0.56762695 53.81103516 C-0.54783279 52.61024323 -0.52803864 51.40945129 -0.50764465 50.17227173 C-0.50125473 48.89081268 -0.49486481 47.60935364 -0.48828125 46.2890625 C-0.4714189 44.95240647 -0.45326657 43.61576614 -0.43388367 42.27914429 C-0.38654567 38.7775768 -0.35663223 35.27607301 -0.33044434 31.77429199 C-0.30055642 28.19445215 -0.25405461 24.61483144 -0.20898438 21.03515625 C-0.12313616 14.0235627 -0.05570917 7.01189605 0 0 Z " fill="#212121" transform="translate(232,534)"/>
<path d="M0 0 C4.36148551 3.71424989 7.76359179 7.15901139 8.62338257 13.09036255 C9.06635447 19.236171 8.86240303 25.3819607 8.69140625 31.53515625 C8.66127132 33.42118143 8.63390174 35.30725293 8.609375 37.19335938 C8.5436526 41.78761273 8.44032769 46.37961925 8.31640625 50.97265625 C5.01640625 50.97265625 1.71640625 50.97265625 -1.68359375 50.97265625 C-1.7086499 49.90305664 -1.73370605 48.83345703 -1.75952148 47.73144531 C-1.85378903 43.75801898 -1.95396233 39.78475957 -2.0559082 35.81152344 C-2.09918391 34.0928132 -2.14086416 32.37406201 -2.1809082 30.65527344 C-2.2387894 28.18281725 -2.30243211 25.71056578 -2.3671875 23.23828125 C-2.38389999 22.47147034 -2.40061249 21.70465942 -2.41783142 20.91461182 C-2.53833677 15.85857469 -2.53833677 15.85857469 -3.68359375 10.97265625 C-9.61461461 7.76669903 -18.0948651 7.99436583 -24.4921875 9.73828125 C-26.83153818 10.7347322 -26.83153818 10.7347322 -27.307724 12.81488037 C-27.9092491 16.26808817 -27.92380512 19.74227005 -28 23.23828125 C-28.0207811 24.03167908 -28.04156219 24.8250769 -28.06297302 25.64251709 C-28.12819348 28.16914469 -28.18722519 30.69587346 -28.24609375 33.22265625 C-28.28930515 34.93881241 -28.33292028 36.65495847 -28.37695312 38.37109375 C-28.48384658 42.57151171 -28.58519104 46.77203114 -28.68359375 50.97265625 C-31.98359375 50.97265625 -35.28359375 50.97265625 -38.68359375 50.97265625 C-38.68359375 33.48265625 -38.68359375 15.99265625 -38.68359375 -2.02734375 C-35.38359375 -2.02734375 -32.08359375 -2.02734375 -28.68359375 -2.02734375 C-28.68359375 -1.36734375 -28.68359375 -0.70734375 -28.68359375 -0.02734375 C-27.63171875 -0.52234375 -26.57984375 -1.01734375 -25.49609375 -1.52734375 C-16.85416 -4.70879901 -8.19326926 -3.97551674 0 0 Z " fill="#202020" transform="translate(1080.68359375,565.02734375)"/>
<path d="M0 0 C5.19908134 2.88294924 8.66247279 6.61790116 10.890625 12.15234375 C12.0310484 17.34984862 10.80026703 21.75722781 8.19921875 26.3203125 C5.16042408 30.57462504 2.23196729 32.70146628 -2.94921875 33.69921875 C-8.62537725 34.07142586 -12.31804841 33.63490393 -16.734375 29.90234375 C-20.76813212 25.91964685 -22.40869718 22.59201858 -22.546875 16.90234375 C-22.42419312 11.15929807 -21.0323814 7.36264102 -17.109375 3.15234375 C-12.07575282 -1.16044419 -6.16137869 -2.47596144 0 0 Z " fill="#E7E7E7" transform="translate(887.109375,572.84765625)"/>
<path d="M0 0 C4.50177243 2.51363558 7.12294587 5.64753671 8.875 10.5 C9.73825787 15.88581238 9.61583113 20.04479599 7.125 24.9375 C0.7243374 32.22714351 0.7243374 32.22714351 -4.61328125 32.73828125 C-10.64643861 32.89682895 -14.49051304 32.79537816 -19.125 28.5 C-23.18138354 23.12803261 -24.67841254 19.25163305 -24.125 12.5 C-22.1694596 6.61102975 -19.15544398 3.03201386 -14.125 -0.5 C-9.1250025 -2.16666583 -4.83845913 -2.07623861 0 0 Z " fill="#E8E8E8" transform="translate(738.125,573.5)"/>
<path d="M0 0 C4.34962369 2.30274195 7.17808567 4.98419883 10 9 C10 9.33 10 9.66 10 10 C1.09 10 -7.82 10 -17 10 C-12.55677269 2.59462115 -8.71687396 -0.72640616 0 0 Z " fill="#E7E7E7" transform="translate(1007,572)"/>
<path d="M0 0 C4.34962369 2.30274195 7.17808567 4.98419883 10 9 C10 9.33 10 9.66 10 10 C1.09 10 -7.82 10 -17 10 C-12.55677269 2.59462115 -8.71687396 -0.72640616 0 0 Z " fill="#E7E7E7" transform="translate(668,572)"/>
</svg>
