<?xml version="1.0" encoding="UTF-8"?>
<svg version="1.1" xmlns="http://www.w3.org/2000/svg" width="600" height="600">
<path d="M0 0 C198 0 396 0 600 0 C600 198 600 396 600 600 C402 600 204 600 0 600 C0 402 0 204 0 0 Z " fill="#FEFEFE" transform="translate(0,0)"/>
<path d="M0 0 C14.19 0 28.38 0 43 0 C47.41295752 13.97436549 51.81832568 27.92922264 55.93164062 41.99169922 C60.44742353 57.38424323 65.14709243 72.73070008 69.953125 88.03515625 C71.44226381 92.80394603 72.89810066 97.57150867 74.1875 102.3984375 C74.39511963 103.17034424 74.60273926 103.94225098 74.81665039 104.73754883 C75.21385955 106.22501355 75.60433044 107.71430438 75.98608398 109.20581055 C77.72742677 115.72043751 80.31681861 121.82235176 83 128 C85.52207105 122.12553069 88.04273139 116.25045727 90.5625 110.375 C90.95593597 109.45763062 91.34937195 108.54026123 91.75473022 107.59509277 C98.30352388 92.32195401 104.82058595 77.03546074 111.32608032 61.74383545 C125.04514077 29.49712852 125.04514077 29.49712852 131.875 13.75 C132.39811768 12.54375977 132.92123535 11.33751953 133.46020508 10.09472656 C136.84967953 2.30064093 136.84967953 2.30064093 138 0 C155.82 0 173.64 0 192 0 C189.82256548 9.79845533 189.82256548 9.79845533 187.02587891 15.03448486 C185.33064051 18.28244786 184.02942339 21.68039607 182.6875 25.0859375 C182.24410278 26.19867538 182.24410278 26.19867538 181.79174805 27.33389282 C180.8578768 29.67963708 179.92883103 32.02725609 179 34.375 C178.37792849 35.9402331 177.75553502 37.50533829 177.1328125 39.0703125 C175.93661785 42.07784438 174.74189701 45.08595334 173.54882812 48.09472656 C168.92648669 59.75127574 164.20632671 71.36776877 159.49072266 82.98681641 C154.73836477 94.69581544 154.73836477 94.69581544 150.03320312 106.42382812 C147.26157748 113.33455446 144.44223045 120.22621933 141.63623047 127.12304688 C140.78850544 129.20693716 139.94112223 131.29096623 139.09375 133.375 C138.71700134 134.30046631 138.71700134 134.30046631 138.3326416 135.24462891 C136.8953171 138.77970193 135.47055618 142.31955633 134.0546875 145.86328125 C132.06132864 150.85224645 130.04897543 155.83334788 128.03125 160.8125 C127.66906372 161.70686768 127.30687744 162.60123535 126.93371582 163.52270508 C125.4045304 167.29879294 123.87485102 171.07468065 122.34521484 174.85058594 C121.21955357 177.62948726 120.094147 180.40849164 118.96875 183.1875 C118.63008911 184.02321533 118.29142822 184.85893066 117.94250488 185.7199707 C115.61244518 191.47382089 113.3055462 197.2361345 111 203 C93.18 203 75.36 203 57 203 C54.46816843 194.89813897 51.93788081 186.79849142 49.4375 178.6875 C48.04860149 174.20566706 46.58465099 169.76954738 44.9375 165.375 C43.46883695 161.43711063 42.25205838 157.48656159 41.125 153.4375 C39.59947986 147.95759237 37.8903703 142.57360141 36.0625 137.1875 C34.11731464 131.44932416 32.29004477 125.70054905 30.625 119.875 C27.45323609 108.79925394 23.69614462 97.90934373 20 87 C19.67386719 87.97839844 19.34773438 88.95679688 19.01171875 89.96484375 C18.13671875 92.58984375 17.26171875 95.21484375 16.38671875 97.83984375 C16.17360046 98.48052795 15.96048218 99.12121216 15.74090576 99.78131104 C15.2654784 101.20500823 14.78706058 102.62771229 14.30487061 104.0491333 C12.49051087 109.4211456 10.84698885 114.82849763 9.25390625 120.26953125 C6.11627378 130.84921696 2.56327063 141.26696267 -1.0625 151.6875 C-4.72754028 162.22362897 -8.34739065 172.73903341 -11.37770081 183.4785614 C-12.69714872 188.13161597 -14.28652189 192.58149536 -16.203125 197.01953125 C-16.99842471 198.99608493 -17.50364097 200.93138876 -18 203 C-66.35785201 207.87523999 -66.35785201 207.87523999 -76.06494141 200.42773438 C-82.2419951 194.2831655 -85.10912054 185.74981861 -87.72363281 177.62060547 C-89.49064383 172.60821576 -92.15877571 168.49748333 -95.125 164.125 C-97.5078733 160.52845837 -99.03705517 157.97324317 -98.8671875 153.51171875 C-95.76416944 140.94589336 -91.58889062 128.80078156 -87.30541992 116.59643555 C-84.92678883 109.78551087 -82.71928381 102.9658056 -80.75317383 96.02563477 C-78.44721609 87.92703047 -75.71250769 79.9697391 -73 72 C-72.34 72 -71.68 72 -71 72 C-70.54431641 72.91281738 -70.08863281 73.82563477 -69.61914062 74.76611328 C-66.14369683 81.72419097 -62.6609554 88.67847307 -59.16186523 95.62469482 C-57.38945972 99.14431006 -55.62035873 102.66558151 -53.8515625 106.18701172 C-52.93757039 108.00475976 -52.02216695 109.82179874 -51.10546875 111.63818359 C-49.76451831 114.29600403 -48.42863113 116.95631474 -47.09375 119.6171875 C-46.68137085 120.43162323 -46.2689917 121.24605896 -45.84411621 122.08517456 C-45.46952271 122.83421051 -45.0949292 123.58324646 -44.70898438 124.35498047 C-44.37781616 125.01287567 -44.04664795 125.67077087 -43.70544434 126.34860229 C-43 128 -43 128 -43 130 C-42.34 130 -41.68 130 -41 130 C-40.7525 128.78828125 -40.505 127.5765625 -40.25 126.328125 C-38.84607706 120.03010707 -36.92444647 113.90523991 -35 107.75 C-34.60844727 106.4909082 -34.21689453 105.23181641 -33.81347656 103.93457031 C-30.59802781 93.66110092 -27.136652 83.48074359 -23.5390625 73.33496094 C-21.37393962 67.18551011 -19.38761807 61.0210615 -17.5859375 54.7578125 C-14.99612276 45.76783552 -11.9667974 36.95266764 -8.875 28.125 C-7.82642845 25.1290813 -6.78299931 22.13143452 -5.7421875 19.1328125 C-5.51087128 18.47733429 -5.27955505 17.82185608 -5.04122925 17.14651489 C-3.07018387 11.46780114 -1.5943988 5.84612893 0 0 Z " fill="#FA8C01" transform="translate(268,198)"/>
<path d="M0 0 C116.38756856 0 116.38756856 0 137.87890625 19.82421875 C138.57886719 20.54222656 139.27882812 21.26023438 140 22 C141.15822266 23.12341797 141.15822266 23.12341797 142.33984375 24.26953125 C144.21344776 27.35105878 144.2767165 29.02065923 143.62255859 32.52783203 C142.22847372 38.06371574 140.54221984 43.49863234 138.8125 48.9375 C138.40175645 50.24503498 137.99127655 51.55265281 137.58105469 52.86035156 C135.21135296 60.37769892 132.71848374 67.83849054 130.02416992 75.24536133 C128.37073011 79.82601474 126.95496847 84.44095885 125.625 89.125 C122.81287692 99.02011418 119.34478131 108.67995821 115.91699219 118.375 C114.56829705 122.23580142 113.27701939 126.11498328 112 130 C92.35090812 135.79131129 72.28900094 134.27052001 52 134 C52 156.77 52 179.54 52 203 C34.84 203 17.68 203 0 203 C0 136.01 0 69.02 0 0 Z " fill="#626262" transform="translate(30,198)"/>
<path d="M0 0 C2.92781499 3.38475721 4.05645444 6.75233646 5.375 11 C6.79543787 15.56086172 8.36076221 19.94381043 10.22265625 24.34375 C13.39156914 31.83990055 16.26584788 39.4410652 19.13891602 47.05419922 C20.06137113 49.49701057 20.98849616 51.93801398 21.91601562 54.37890625 C24.8168177 62.03711114 27.65446293 69.69157865 30.14916992 77.49438477 C31.41187039 81.21291987 32.97474242 84.79068729 34.51171875 88.40234375 C39.09417679 99.47962422 43.34216812 110.71484872 47.01220703 122.12695312 C47.9853678 124.95744149 49.09024148 127.68147036 50.265625 130.43359375 C53.19266924 137.3959494 55.89052396 144.43649607 58.5625 151.5 C59.03107422 152.72847656 59.49964844 153.95695313 59.98242188 155.22265625 C62.52244509 161.92263357 64.91241243 168.64560763 67.14428711 175.45410156 C68.13595069 178.40447755 69.26699945 181.26743791 70.5 184.125 C70.91636719 185.1046875 71.33273437 186.084375 71.76171875 187.09375 C72.17035156 188.0528125 72.57898438 189.011875 73 190 C73.77757316 191.872215 74.5489045 193.74704075 75.3125 195.625 C75.63863281 196.42164063 75.96476563 197.21828125 76.30078125 198.0390625 C77 200 77 200 77 202 C58.19 202 39.38 202 20 202 C18.68 198.04 17.36 194.08 16 190 C15.01306001 187.32703754 14.01462917 184.66214584 13 182 C12.28644413 180.10612615 11.5784024 178.21016836 10.875 176.3125 C10.37613281 174.97638672 10.37613281 174.97638672 9.8671875 173.61328125 C9 171 9 171 8 166 C-16.09 166 -40.18 166 -65 166 C-64.22517535 161.3510521 -63.38867974 158.02665 -61.6875 153.75 C-61.23890625 152.61433594 -60.7903125 151.47867188 -60.328125 150.30859375 C-59.88984375 149.21675781 -59.4515625 148.12492188 -59 147 C-58.46632813 145.65615234 -58.46632813 145.65615234 -57.921875 144.28515625 C-57.27698359 142.66525045 -56.62866995 141.04670191 -55.9765625 139.4296875 C-55.27646592 137.68784722 -54.58471515 135.94264354 -53.8984375 134.1953125 C-53.54007812 133.28523437 -53.18171875 132.37515625 -52.8125 131.4375 C-52.32716797 130.19806641 -52.32716797 130.19806641 -51.83203125 128.93359375 C-51 127 -51 127 -50 126 C-48.61839885 125.9072167 -47.23211962 125.88252957 -45.84741211 125.88647461 C-44.96657455 125.88655014 -44.085737 125.88662567 -43.1782074 125.88670349 C-42.22092239 125.89186478 -41.26363739 125.89702606 -40.27734375 125.90234375 C-38.81452721 125.90446617 -38.81452721 125.90446617 -37.32215881 125.90663147 C-34.19390857 125.91224867 -31.06572877 125.92480407 -27.9375 125.9375 C-25.82226666 125.94251278 -23.70703219 125.94707607 -21.59179688 125.95117188 C-16.39450704 125.96222369 -11.19725855 125.97897854 -6 126 C-9.71137387 113.9017172 -9.71137387 113.9017172 -14 102 C-15.49199613 97.81683329 -16.93869446 93.61773649 -18.39453125 89.421875 C-20.55682089 83.21124571 -22.76423043 77.02763544 -25.25 70.9375 C-26.81668513 64.80131659 -24.53592041 59.1982588 -22.19140625 53.5390625 C-21.90882965 52.83892029 -21.62625305 52.13877808 -21.33511353 51.41741943 C-20.41820515 49.15024036 -19.49051439 46.88765288 -18.5625 44.625 C-17.92738562 43.06101629 -17.29303245 41.49672325 -16.65942383 39.93212891 C-15.38520854 36.78742039 -14.10736507 33.64422281 -12.82714844 30.50195312 C-11.15866145 26.39991895 -9.51449267 22.28866993 -7.8828125 18.171875 C-7.42318115 17.01349121 -6.9635498 15.85510742 -6.48999023 14.66162109 C-5.6368058 12.5087497 -4.7847138 10.35544498 -3.93383789 8.20166016 C-3.55735107 7.25597168 -3.18086426 6.3102832 -2.79296875 5.3359375 C-2.30606567 4.10689697 -2.30606567 4.10689697 -1.80932617 2.85302734 C-1 1 -1 1 0 0 Z " fill="#636363" transform="translate(493,199)"/>
<path d="M0 0 C4.764375 -0.061875 9.52875 -0.12375 14.4375 -0.1875 C15.9217749 -0.21481201 17.4060498 -0.24212402 18.93530273 -0.27026367 C29.73644462 -0.33794821 37.34499351 0.63014796 45.33984375 8.1640625 C50.84043902 14.24707374 51.30620678 21.01042368 51.2109375 28.83203125 C50.75531648 35.67478399 49.05312611 42.36963278 44.09204102 47.35205078 C35.23130024 54.33186175 24.45785163 54.66378146 13.6875 54.3125 C9.170625 54.209375 4.65375 54.10625 0 54 C0 36.18 0 18.36 0 0 Z " fill="#FDFDFD" transform="translate(82,238)"/>
</svg>
