<?xml version="1.0" encoding="utf-8"?>
<!-- Generator: Adobe Illustrator 27.0.0, SVG Export Plug-In . SVG Version: 6.00 Build 0)  -->
<svg version="1.1" id="Layer_1" xmlns="http://www.w3.org/2000/svg" xmlns:xlink="http://www.w3.org/1999/xlink" x="0px" y="0px"
	 viewBox="0 0 512 512" style="enable-background:new 0 0 512 512;" xml:space="preserve">
<style type="text/css">
	.st0{fill:#FB2D26;}
</style>
<g id="XMLID_1_">
	<path id="XMLID_3_" class="st0" d="M502.4,401.65c11.5,20.05,12.62,41.23,3.08,57.91s-28.32,26.22-51.46,26.22h-43.75
		c0.56-8.13,0.84-16.27,0.84-24.54c0-9.25-0.42-18.37-1.12-27.48h28.75c7.01,0,12.76-5.75,12.76-12.76c0-2.24-0.56-4.21-1.54-6.17
		L267.25,96.95c-2.1-3.93-6.31-6.45-11.08-6.45c-4.63,0-8.69,2.52-10.94,6.17l-29.03,50.48c88.2,66.46,147.51,169.53,155.65,286.61
		c0.7,9.11,1.12,18.23,1.12,27.48c0,8.27-0.28,16.41-0.84,24.54H229.53c0.84-8.13,1.26-16.27,1.26-24.54
		c0-9.25-0.56-18.51-1.54-27.48c-7.01-64.36-38.56-121.43-84.97-161.68l-20.05,34.77c35.06,32.67,59.03,77.12,65.48,127.04
		c1.12,8.97,1.82,18.23,1.82,27.48c0,8.27-0.56,16.55-1.54,24.54H57.9c-23.14,0-41.93-9.54-51.46-26.22
		c-9.68-16.69-8.55-37.86,3.08-57.91l27.06-46.41c15.56,8.41,29.45,19.21,41.37,32.11l-16.13,27.48c-0.98,1.82-1.54,3.93-1.54,6.17
		c0,7.01,5.75,12.76,12.76,12.76h64.08c-5.33-30.71-19.49-58.33-39.82-80.35c-11.92-12.9-25.94-23.84-41.51-32.11l71.51-124.24
		c15.28,8.55,29.59,18.23,43.05,29.17c61.7,50.06,103.2,123.82,110.77,207.53h38.28c-7.85-97.73-56.93-183.97-129.85-241.04
		c-13.6-10.66-28.18-20.33-43.33-28.89l61-106.01c11.5-20.05,29.17-31.69,48.38-31.69s36.88,11.5,48.38,31.69L502.4,401.65z"/>
</g>
</svg>
