<?xml version="1.0" encoding="UTF-8"?>
<svg version="1.1" xmlns="http://www.w3.org/2000/svg" width="256" height="256">
<path d="M0 0 C0.98315186 -0.00287018 1.96630371 -0.00574036 2.97924805 -0.00869751 C5.04313742 -0.01072503 7.1070466 -0.00528785 9.17089844 0.00732422 C12.30447946 0.02339636 15.43677091 0.00743013 18.5703125 -0.01171875 C20.58854447 -0.00973609 22.60677565 -0.00589193 24.625 0 C25.54821045 -0.00607269 26.4714209 -0.01214539 27.42260742 -0.0184021 C35.65057355 0.06922675 43.38504637 1.8120669 50.5 6.0859375 C51.63501953 6.74142578 51.63501953 6.74142578 52.79296875 7.41015625 C55.3125 9.3984375 55.3125 9.3984375 56.73576355 11.32008362 C59.92355695 15.66890274 59.92355695 15.66890274 64.58592224 18.07829285 C67.22105103 18.25592554 69.74636084 18.19548871 72.3828125 18.0390625 C73.81994095 18.00785309 73.81994095 18.00785309 75.28610229 17.97601318 C78.33910101 17.90508753 81.38659455 17.78074964 84.4375 17.6484375 C115.76964295 16.49578349 115.76964295 16.49578349 127.38671875 26.5625 C128.02222656 27.16835937 128.65773437 27.77421875 129.3125 28.3984375 C130.15748047 29.18347656 130.15748047 29.18347656 131.01953125 29.984375 C139.70998561 39.00484661 141.15707548 50.25023572 141.01928711 62.17089844 C141.00000888 64.39741198 141.03962997 66.61769807 141.08398438 68.84375 C141.14292773 78.96317948 139.47063996 87.31105669 132.68896484 95.31445312 C124.98551262 102.53908424 116.50296101 103.98652495 106.27734375 103.7890625 C105.15807999 103.78340271 104.03881622 103.77774292 102.88563538 103.77191162 C99.33997313 103.74967001 95.79535252 103.69949481 92.25 103.6484375 C89.83399905 103.62835679 87.41798214 103.61010879 85.00195312 103.59375 C79.10511835 103.54984534 73.20888363 103.48305599 67.3125 103.3984375 C67.3125 102.0784375 67.3125 100.7584375 67.3125 99.3984375 C65.72782272 99.68271167 64.1447943 99.97618568 62.5625 100.2734375 C61.68078125 100.43585938 60.7990625 100.59828125 59.890625 100.765625 C57.35555225 101.26934552 57.35555225 101.26934552 55.44921875 102.42578125 C52.965303 103.55648513 51.26512131 103.62859931 48.546875 103.59375 C47.65742188 103.58730469 46.76796875 103.58085937 45.8515625 103.57421875 C44.47097656 103.54908203 44.47097656 103.54908203 43.0625 103.5234375 C41.65871094 103.50990234 41.65871094 103.50990234 40.2265625 103.49609375 C37.92161343 103.47257386 35.6171884 103.43970603 33.3125 103.3984375 C33.3125 102.0784375 33.3125 100.7584375 33.3125 99.3984375 C32.3225 99.3984375 31.3325 99.3984375 30.3125 99.3984375 C30.3125 100.7184375 30.3125 102.0384375 30.3125 103.3984375 C18.4325 103.3984375 6.5525 103.3984375 -5.6875 103.3984375 C-5.6875 102.0784375 -5.6875 100.7584375 -5.6875 99.3984375 C-6.6775 99.3984375 -7.6675 99.3984375 -8.6875 99.3984375 C-8.6875 100.7184375 -8.6875 102.0384375 -8.6875 103.3984375 C-11.89565845 103.48617816 -15.10350462 103.53907456 -18.3125 103.5859375 C-19.21613281 103.61107422 -20.11976562 103.63621094 -21.05078125 103.66210938 C-26.48336756 103.72159025 -29.89279214 103.19535042 -34.6875 100.3984375 C-36.9595581 99.84795738 -36.9595581 99.84795738 -39.0625 99.7109375 C-40.25875 99.6078125 -41.455 99.5046875 -42.6875 99.3984375 C-42.6875 100.7184375 -42.6875 102.0384375 -42.6875 103.3984375 C-49.78576323 103.50030407 -56.88383619 103.57009832 -63.98266602 103.61816406 C-66.39484705 103.63821302 -68.80697989 103.66545942 -71.21899414 103.70019531 C-74.69689873 103.74900801 -78.17415772 103.77147433 -81.65234375 103.7890625 C-82.72145493 103.80970764 -83.7905661 103.83035278 -84.89207458 103.85162354 C-93.8583357 103.85427836 -101.41482239 101.55030687 -108.06396484 95.31445312 C-115.44653874 86.60190576 -116.63236686 77.54544347 -116.41479492 66.62597656 C-116.37502326 64.3997394 -116.39418808 62.1794659 -116.41992188 59.953125 C-116.41476009 46.91201677 -113.21906002 36.9966763 -104.00390625 27.5234375 C-94.58383108 18.88174966 -84.51026268 17.10626503 -72.015625 17.38671875 C-70.55725723 17.41835869 -70.55725723 17.41835869 -69.06942749 17.45063782 C-64.99077599 17.55216579 -60.91397743 17.67118015 -56.83740234 17.8371582 C-53.83410594 17.95230284 -50.83300237 18.0166865 -47.828125 18.07421875 C-46.45759979 18.15027092 -46.45759979 18.15027092 -45.05938721 18.2278595 C-41.11908576 18.27472634 -38.6840492 18.23406879 -35.59138489 15.64079285 C-33.83891419 13.62723145 -32.27389949 11.54269119 -30.6875 9.3984375 C-28.16796875 7.41015625 -28.16796875 7.41015625 -25.875 6.0859375 C-25.12605469 5.63605469 -24.37710938 5.18617188 -23.60546875 4.72265625 C-15.80249916 1.18154957 -8.52366103 -0.05606693 0 0 Z " fill="#1F82CE" transform="translate(115.6875,152.6015625)"/>
<path d="M0 0 C0.96424393 -0.0066568 1.92848785 -0.0133136 2.92195129 -0.02017212 C4.95844626 -0.03027175 6.99497415 -0.03498997 9.03149414 -0.03466797 C12.11726778 -0.03902401 15.20159002 -0.07532534 18.28710938 -0.11328125 C42.10656998 -0.25047176 42.10656998 -0.25047176 51.4609375 8.6328125 C58.82971528 17.0212906 60.27066512 25.1864242 60.29296875 36.0859375 C60.30295395 37.78314941 60.30295395 37.78314941 60.31314087 39.51464844 C60.32324458 41.90167622 60.3279586 44.28873211 60.32763672 46.67578125 C60.33201618 50.3233892 60.36837926 53.96979289 60.40625 57.6171875 C60.41211736 59.94010004 60.41608729 62.26301831 60.41796875 64.5859375 C60.43233978 65.67358398 60.44671082 66.76123047 60.46151733 67.88183594 C60.41635273 75.37783016 59.26784354 78.65725718 54.26953125 84.2109375 C51.95703125 85.3359375 51.95703125 85.3359375 42.95703125 85.3359375 C42.95703125 65.8659375 42.95703125 46.3959375 42.95703125 26.3359375 C39.98703125 26.3359375 37.01703125 26.3359375 33.95703125 26.3359375 C33.95703125 47.4559375 33.95703125 68.5759375 33.95703125 90.3359375 C32.96703125 90.3359375 31.97703125 90.3359375 30.95703125 90.3359375 C30.95703125 91.6559375 30.95703125 92.9759375 30.95703125 94.3359375 C19.07703125 94.3359375 7.19703125 94.3359375 -5.04296875 94.3359375 C-5.04296875 93.0159375 -5.04296875 91.6959375 -5.04296875 90.3359375 C-6.03296875 90.3359375 -7.02296875 90.3359375 -8.04296875 90.3359375 C-8.04296875 69.2159375 -8.04296875 48.0959375 -8.04296875 26.3359375 C-11.01296875 26.3359375 -13.98296875 26.3359375 -17.04296875 26.3359375 C-17.04296875 45.8059375 -17.04296875 65.2759375 -17.04296875 85.3359375 C-26.04296875 85.3359375 -26.04296875 85.3359375 -29.48046875 83.0859375 C-33.10479334 79.19641842 -34.28953464 76.64749185 -34.31762695 71.34301758 C-34.32715897 70.35131058 -34.33669098 69.35960358 -34.34651184 68.33784485 C-34.34560043 67.27116074 -34.34468903 66.20447662 -34.34375 65.10546875 C-34.34803513 64.00047531 -34.35232025 62.89548187 -34.35673523 61.75700378 C-34.36247809 59.41768071 -34.36297912 57.07833978 -34.35864258 54.73901367 C-34.35549595 51.17920959 -34.37889686 47.62024741 -34.40429688 44.06054688 C-34.40657135 41.78385521 -34.40727268 39.50716132 -34.40625 37.23046875 C-34.41545975 36.17390579 -34.42466949 35.11734283 -34.43415833 34.02876282 C-34.37200776 23.97629881 -32.17709231 15.6708048 -25.04296875 8.3359375 C-17.09791672 1.91439903 -10.0633377 0.02437565 0 0 Z " fill="#9AC8FE" transform="translate(115.04296875,161.6640625)"/>
<path d="M0 0 C0.78012451 -0.00287018 1.56024902 -0.00574036 2.36401367 -0.00869751 C4.00798268 -0.01073253 5.6519762 -0.00524202 7.29589844 0.00732422 C9.80459001 0.02338685 12.31167071 0.00745746 14.8203125 -0.01171875 C16.42187854 -0.00973622 18.02344358 -0.00589233 19.625 0 C20.37096436 -0.00607269 21.11692871 -0.01214539 21.88549805 -0.0184021 C26.37061803 0.04182453 29.25018205 0.62806775 32.8125 3.3984375 C36.50185091 8.60034226 36.17008033 13.65926767 36 19.7734375 C35.98646484 20.70027344 35.97292969 21.62710937 35.95898438 22.58203125 C35.92383881 24.85477748 35.87464132 27.12629597 35.8125 29.3984375 C36.51238037 29.59977295 37.21226074 29.8011084 37.93334961 30.00854492 C43.08661323 31.49099062 47.90952293 33.23482463 52.8125 35.3984375 C53.72773438 34.47160156 54.64296875 33.54476562 55.5859375 32.58984375 C56.7863261 31.38007711 57.98685417 30.17044885 59.1875 28.9609375 C59.79078125 28.34927734 60.3940625 27.73761719 61.015625 27.10742188 C61.88574219 26.2324707 61.88574219 26.2324707 62.7734375 25.33984375 C63.57467041 24.53075562 63.57467041 24.53075562 64.39208984 23.70532227 C67.06600692 21.24511634 69.3959796 21.09573669 72.9375 20.8984375 C73.84757813 20.82625 74.75765625 20.7540625 75.6953125 20.6796875 C80.55231957 21.79959891 83.31059813 24.98198757 86.8125 28.3984375 C87.50714355 29.05682617 88.20178711 29.71521484 88.91748047 30.39355469 C91.0313779 32.41383876 93.1121339 34.46364638 95.1875 36.5234375 C95.89777344 37.21308594 96.60804688 37.90273438 97.33984375 38.61328125 C98.01917969 39.28746094 98.69851562 39.96164063 99.3984375 40.65625 C100.0073584 41.2558252 100.6162793 41.85540039 101.24365234 42.47314453 C103.94900474 45.79315838 105.21651222 49.31182588 105 53.5859375 C104.01704288 60.93354194 97.65452818 65.72586586 92.51953125 70.5546875 C90.56481046 72.24719121 90.56481046 72.24719121 90.8125 74.5859375 C92.00156477 77.93018217 93.43844354 81.11303862 94.97265625 84.3125 C95.8125 86.3984375 95.8125 86.3984375 95.8125 89.3984375 C96.39217529 89.38272705 96.97185059 89.3670166 97.5690918 89.35083008 C100.21262739 89.28820959 102.85600655 89.24936232 105.5 89.2109375 C106.41201172 89.18580078 107.32402344 89.16066406 108.26367188 89.13476562 C113.27340844 89.08011395 116.77487335 89.07193883 120.8125 92.3984375 C126.64189374 98.87554165 126.02906551 104.68278411 126.05273438 113.05761719 C126.06240159 115.127368 126.0934194 117.19610871 126.125 119.265625 C126.13273437 121.24175781 126.13273437 121.24175781 126.140625 123.2578125 C126.1499707 124.45889648 126.15931641 125.65998047 126.16894531 126.89746094 C125.61426269 132.34550811 124.22348554 136.20216715 119.9375 139.8359375 C116.83589511 141.38673995 115.20802589 141.79791113 111.8125 141.3984375 C111.73153197 139.94101287 111.67332226 138.48230943 111.625 137.0234375 C111.59019531 136.21132812 111.55539063 135.39921875 111.51953125 134.5625 C111.61621094 133.84835938 111.71289062 133.13421875 111.8125 132.3984375 C112.8025 131.7384375 113.7925 131.0784375 114.8125 130.3984375 C115.23104048 127.19418425 115.23104048 127.19418425 115.10546875 123.421875 C115.10122391 122.7366275 115.09697906 122.05138 115.09260559 121.34536743 C115.07579753 119.15432621 115.03814405 116.96420118 115 114.7734375 C114.98495579 113.28907577 114.97126693 111.80469965 114.95898438 110.3203125 C114.92843687 106.67904964 114.869727 103.03977027 114.8125 99.3984375 C106.2325 99.3984375 97.6525 99.3984375 88.8125 99.3984375 C85.5625 90.3359375 85.5625 90.3359375 84.56542969 87.52319336 C83.15005329 83.63173986 81.70310913 80.05235583 79.515625 76.52734375 C77.8125 73.3984375 77.8125 73.3984375 77.99267578 71.42138672 C79.0008242 68.93373996 80.24877817 67.71079897 82.2265625 65.90234375 C83.24363281 64.94038086 83.24363281 64.94038086 84.28125 63.95898438 C85.72101835 62.6248512 87.16637334 61.29672228 88.6171875 59.97460938 C89.63039062 59.01071289 89.63039062 59.01071289 90.6640625 58.02734375 C91.29135254 57.45056885 91.91864258 56.87379395 92.56494141 56.27954102 C94.04725879 54.4344054 94.04725879 54.4344054 93.75268555 51.95043945 C91.92017735 46.97635268 87.70773483 43.68234856 84 40.0234375 C82.76926758 38.75693359 82.76926758 38.75693359 81.51367188 37.46484375 C80.71896484 36.67207031 79.92425781 35.87929688 79.10546875 35.0625 C78.3786792 34.33498535 77.65188965 33.6074707 76.90307617 32.85791016 C74.96049979 31.1954996 74.96049979 31.1954996 72.78735352 31.44458008 C70.34037071 32.6264767 68.82119116 34.05082639 66.921875 35.99609375 C66.21289062 36.71474609 65.50390625 37.43339844 64.7734375 38.17382812 C64.04382813 38.92857422 63.31421875 39.68332031 62.5625 40.4609375 C61.81742188 41.21955078 61.07234375 41.97816406 60.3046875 42.75976562 C58.46703306 44.63275957 56.63674276 46.51239361 54.8125 48.3984375 C49.91200301 46.46605835 45.20123518 44.22087333 40.45703125 41.93359375 C36.04005802 40.07306805 31.40319745 38.77564674 26.8125 37.3984375 C26.4825 28.4884375 26.1525 19.5784375 25.8125 10.3984375 C15.2525 10.3984375 4.6925 10.3984375 -6.1875 10.3984375 C-6.5175 19.3084375 -6.8475 28.2184375 -7.1875 37.3984375 C-9.415 38.0996875 -11.6425 38.8009375 -13.9375 39.5234375 C-21.07326077 41.83767466 -27.5838561 44.81992656 -34.1875 48.3984375 C-35.52670838 47.28043764 -36.85872556 46.15381853 -38.1875 45.0234375 C-38.93 44.39695313 -39.6725 43.77046875 -40.4375 43.125 C-41.015 42.55523437 -41.5925 41.98546875 -42.1875 41.3984375 C-42.1875 40.7384375 -42.1875 40.0784375 -42.1875 39.3984375 C-42.72375 39.1921875 -43.26 38.9859375 -43.8125 38.7734375 C-46.67329129 37.11718991 -48.47975485 35.03215266 -50.625 32.54296875 C-52.11303975 31.18480869 -52.11303975 31.18480869 -54.01245117 31.58569336 C-58.69449943 33.33522065 -62.02358589 37.68012692 -65.5 41.1484375 C-66.77327148 42.36660156 -66.77327148 42.36660156 -68.07226562 43.609375 C-68.86955078 44.40085938 -69.66683594 45.19234375 -70.48828125 46.0078125 C-71.22216064 46.72936523 -71.95604004 47.45091797 -72.7121582 48.19433594 C-74.4335496 50.30972958 -74.4335496 50.30972958 -74.13208008 52.94824219 C-73.06348672 55.720122 -71.96503373 57.00645659 -69.7734375 58.9921875 C-68.75636719 59.94931641 -68.75636719 59.94931641 -67.71875 60.92578125 C-66.2769918 62.24478105 -64.83164791 63.55987174 -63.3828125 64.87109375 C-62.70734375 65.50917969 -62.031875 66.14726563 -61.3359375 66.8046875 C-60.70864746 67.37509766 -60.08135742 67.94550781 -59.43505859 68.53320312 C-58.1875 70.3984375 -58.1875 70.3984375 -58.42724609 72.98657227 C-59.20919803 75.46727335 -60.18887906 77.55601889 -61.4375 79.8359375 C-64.71348257 86.14912841 -66.88136746 92.67770839 -69.1875 99.3984375 C-77.7675 99.3984375 -86.3475 99.3984375 -95.1875 99.3984375 C-95.25631766 103.77727949 -95.31606132 108.15425147 -95.35229492 112.53320312 C-95.367396 114.02317659 -95.38787858 115.51310551 -95.41381836 117.00292969 C-95.45014584 119.1426898 -95.46721221 121.28186316 -95.48046875 123.421875 C-95.4961792 124.71013184 -95.51188965 125.99838867 -95.52807617 127.32568359 C-95.35949097 128.84669678 -95.35949097 128.84669678 -95.1875 130.3984375 C-94.1975 131.0584375 -93.2075 131.7184375 -92.1875 132.3984375 C-91.89453125 134.5625 -91.89453125 134.5625 -92 137.0234375 C-92.02707031 137.84070313 -92.05414063 138.65796875 -92.08203125 139.5 C-92.11683594 140.12648437 -92.15164062 140.75296875 -92.1875 141.3984375 C-97.42958995 140.98729319 -100.52310611 140.27222533 -104.1875 136.3984375 C-106.76364283 130.15133334 -106.52468111 124.12048645 -106.50317383 117.45800781 C-106.5000082 115.40375956 -106.52353289 113.35094634 -106.54882812 111.296875 C-106.54947266 109.98976563 -106.55011719 108.68265625 -106.55078125 107.3359375 C-106.55376221 106.14871094 -106.55674316 104.96148437 -106.55981445 103.73828125 C-105.92918851 98.08125635 -103.50830975 94.04412073 -99.1875 90.3984375 C-96.30484851 89.43755367 -94.51087729 89.28172809 -91.51953125 89.30078125 C-90.62685547 89.30400391 -89.73417969 89.30722656 -88.81445312 89.31054688 C-87.42129883 89.32311523 -87.42129883 89.32311523 -86 89.3359375 C-85.05962891 89.34044922 -84.11925781 89.34496094 -83.15039062 89.34960938 C-80.82936288 89.36139124 -78.50846356 89.37784192 -76.1875 89.3984375 C-76.06632812 88.66753906 -75.94515625 87.93664062 -75.8203125 87.18359375 C-75.0237813 83.67787312 -73.53646451 80.77896343 -71.9296875 77.58203125 C-71.01099996 74.87915579 -70.98397045 73.99216649 -72.1875 71.3984375 C-74.42209879 68.99167059 -76.74041757 66.77756226 -79.15039062 64.55273438 C-82.80126705 61.07640184 -84.89196251 58.28640909 -85.41015625 53.22265625 C-85.07337682 48.72952584 -84.21548133 45.97903151 -81.140625 42.6328125 C-80.510354 41.94405029 -79.88008301 41.25528809 -79.23071289 40.5456543 C-75.82636334 36.96801608 -72.37677916 33.4432443 -68.875 29.9609375 C-68.16021484 29.24228516 -67.44542969 28.52363281 -66.70898438 27.78320312 C-66.02513672 27.10064453 -65.34128906 26.41808594 -64.63671875 25.71484375 C-64.02143311 25.10068604 -63.40614746 24.48652832 -62.7722168 23.85375977 C-59.29712513 20.66241461 -55.6063261 20.88432943 -51.0703125 20.92578125 C-46.08303161 21.74347907 -43.49830308 24.79550474 -40.1875 28.3984375 C-38.85694658 29.71375557 -37.52375272 31.02640984 -36.1875 32.3359375 C-35.18489287 33.35421037 -34.18386187 34.37405295 -33.1875 35.3984375 C-31.59808594 34.74875 -31.59808594 34.74875 -29.9765625 34.0859375 C-28.58861517 33.52325615 -27.2005903 32.96076605 -25.8125 32.3984375 C-25.11382812 32.11226562 -24.41515625 31.82609375 -23.6953125 31.53125 C-18.4140625 29.3984375 -18.4140625 29.3984375 -16.1875 29.3984375 C-16.20321045 28.82399902 -16.2189209 28.24956055 -16.23510742 27.65771484 C-16.29785513 25.02972441 -16.33661506 22.40189213 -16.375 19.7734375 C-16.40013672 18.86980469 -16.42527344 17.96617188 -16.45117188 17.03515625 C-16.5089244 11.76042582 -16.34794177 7.85459185 -13.1875 3.3984375 C-8.98759511 0.13222443 -5.13415186 -0.04179573 0 0 Z " fill="#1D82CE" transform="translate(118.1875,-0.3984375)"/>
<path d="M0 0 C1.35444466 0.00212242 1.35444466 0.00212242 2.73625183 0.00428772 C5.60935838 0.00986802 8.48238591 0.02241691 11.35546875 0.03515625 C13.30794158 0.0401738 15.26041564 0.04473626 17.21289062 0.04882812 C21.9896136 0.059831 26.76627779 0.07708207 31.54296875 0.09765625 C31.38161942 0.64299011 31.22027008 1.18832397 31.05403137 1.75018311 C30.46837265 4.44029987 30.39364094 6.90340139 30.3659668 9.65722656 C30.35313156 10.77228577 30.34029633 11.88734497 30.32707214 13.03619385 C30.31968521 14.23725769 30.31229828 15.43832153 30.3046875 16.67578125 C30.29257988 18.53659332 30.29257988 18.53659332 30.28022766 20.43499756 C30.26639791 23.06098029 30.2556708 25.68698092 30.24780273 28.31298828 C30.23894952 30.99583697 30.21808836 33.67816657 30.1862793 36.36083984 C30.14358397 40.23681226 30.12742991 44.11210279 30.1171875 47.98828125 C30.09092537 49.77773163 30.09092537 49.77773163 30.06413269 51.60333252 C30.08702918 60.42884454 31.79250546 66.1971003 37.54296875 73.09765625 C34.57296875 73.09765625 31.60296875 73.09765625 28.54296875 73.09765625 C28.54296875 71.77765625 28.54296875 70.45765625 28.54296875 69.09765625 C16.00296875 69.09765625 3.46296875 69.09765625 -9.45703125 69.09765625 C-9.45703125 53.58765625 -9.45703125 38.07765625 -9.45703125 22.09765625 C-12.09703125 22.09765625 -14.73703125 22.09765625 -17.45703125 22.09765625 C-17.45703125 37.27765625 -17.45703125 52.45765625 -17.45703125 68.09765625 C-21.7419174 67.24067902 -23.24174346 66.92670321 -26.51953125 64.53515625 C-27.17050781 64.08011719 -27.82148438 63.62507813 -28.4921875 63.15625 C-35.05256778 56.28284959 -35.11774869 48.82228178 -35.03344727 39.79882812 C-35.01959875 37.73272743 -35.05369759 35.67118739 -35.09179688 33.60546875 C-35.15219585 23.2911222 -33.10201774 15.93221744 -26.14453125 8.22265625 C-18.33957163 1.01284605 -10.23862127 -0.06066972 0 0 Z " fill="#97C7FD" transform="translate(43.45703125,178.90234375)"/>
<path d="M0 0 C5.63756289 -0.09970521 11.2746 -0.17185967 16.9128418 -0.21972656 C18.82634434 -0.23970419 20.73978692 -0.26689599 22.65307617 -0.30175781 C47.97712784 -0.75125808 47.97712784 -0.75125808 58.27734375 9.0625 C65.52357792 17.21245952 66.2360838 24.46783425 66.29516602 35.03149414 C66.30665085 36.4599806 66.32704736 37.88842533 66.35668945 39.31665039 C66.70416902 56.07137758 66.70416902 56.07137758 60.03515625 63.05859375 C59.38417969 63.51363281 58.73320312 63.96867187 58.0625 64.4375 C57.41410156 64.91058594 56.76570313 65.38367188 56.09765625 65.87109375 C54 67 54 67 49 68 C49 52.82 49 37.64 49 22 C46.36 22 43.72 22 41 22 C41 37.51 41 53.02 41 69 C28.46 69 15.92 69 3 69 C3 70.32 3 71.64 3 73 C0.03 73 -2.94 73 -6 73 C-5.36771484 72.07767578 -5.36771484 72.07767578 -4.72265625 71.13671875 C-4.17480469 70.32847656 -3.62695312 69.52023438 -3.0625 68.6875 C-2.51722656 67.88699219 -1.97195312 67.08648437 -1.41015625 66.26171875 C0.88206627 62.58527321 1.12600062 59.73022286 1.12939453 55.49047852 C1.13254669 54.36243301 1.13569885 53.23438751 1.13894653 52.07215881 C1.13591019 50.24399879 1.13591019 50.24399879 1.1328125 48.37890625 C1.13376923 47.12746323 1.13472595 45.8760202 1.13571167 44.58665466 C1.13639273 41.93786169 1.13504438 39.28916071 1.13037109 36.64038086 C1.12467981 33.24979999 1.12795093 29.85929839 1.13394356 26.46872044 C1.13843266 23.23044623 1.13528626 19.9921815 1.1328125 16.75390625 C1.13483673 15.53715714 1.13686096 14.32040802 1.13894653 13.06678772 C1.13579437 11.93559006 1.13264221 10.8043924 1.12939453 9.63891602 C1.12859894 8.6442482 1.12780334 7.64958038 1.12698364 6.62477112 C1.01253043 4.25900579 0.67517893 2.26138236 0 0 Z " fill="#97C7FD" transform="translate(181,179)"/>
<path d="M0 0 C5.69979249 3.26763348 9.78599199 7.73994035 13 13.4375 C14.97799494 21.54727925 15.29371891 28.79854785 11.3984375 36.390625 C7.45600416 42.75754944 3.22093714 46.60158 -3.75 49.3125 C-12.29190593 50.93251664 -20.18460532 50.47866878 -27.578125 45.5234375 C-34.05240453 40.27207743 -37.19638314 34.87961426 -38.3125 26.625 C-38.73030277 18.87957933 -37.07651058 12.65825951 -32.125 6.625 C-23.70371619 -2.20664298 -11.34791318 -5.19459006 0 0 Z " fill="#1F82CE" transform="translate(67.375,117)"/>
<path d="M0 0 C6.28820294 3.67586247 10.77788024 8.65083786 13.0234375 15.64453125 C14.6770443 23.60081972 14.17298207 30.57978975 10.109375 37.6796875 C5.33557826 44.37690719 -0.42301581 48.33922751 -8.5 49.9375 C-16.09088425 50.79453532 -23.34281635 48.89815109 -29.6171875 44.4296875 C-34.83772335 39.61245485 -38.02084155 34.06479663 -38.84375 26.9765625 C-39.1117794 18.10925657 -37.50014464 11.11384612 -31.33984375 4.546875 C-22.53137468 -3.15819773 -10.72826389 -4.8632642 0 0 Z " fill="#1E82CE" transform="translate(140.5,100.0625)"/>
<path d="M0 0 C5.92981658 3.93776882 9.89706038 8.43515626 12 15.328125 C13.77681105 24.43614802 12.73586466 31.68453898 7.546875 39.4375 C2.62867561 45.44863259 -3.37391501 48.75826372 -11.12109375 49.54296875 C-18.39232494 49.85801343 -24.91786257 48.22178195 -30.75 43.765625 C-36.37728717 38.4785924 -39.62947942 31.23299037 -40.0625 23.546875 C-39.80124884 14.27245884 -36.21167488 8.32381655 -29.5625 2.015625 C-20.57317069 -3.90417723 -9.80488387 -5.11872614 0 0 Z " fill="#1F82CE" transform="translate(214,117.671875)"/>
<path d="M0 0 C0.59554687 0.41636719 1.19109375 0.83273438 1.8046875 1.26171875 C10.5072448 7.93902654 16.76609827 18.6729547 20 29 C20.22300781 29.66257813 20.44601563 30.32515625 20.67578125 31.0078125 C22.34638662 36.62195571 22.19235919 42.18647789 22 48 C19.03 48 16.06 48 13 48 C12.78085938 46.83984375 12.56171875 45.6796875 12.3359375 44.484375 C8.97070676 27.55470368 3.39270742 14.41165015 -11.37109375 4.5390625 C-23.46204086 -2.53944145 -38.37484022 -4.51405986 -52.04296875 -1.1640625 C-63.84406134 2.73907356 -73.26927665 9.52409725 -80 20 C-80.46019531 20.71285156 -80.92039062 21.42570312 -81.39453125 22.16015625 C-85.90543011 30.10533461 -87.27086098 39.132125 -89 48 C-91.97 48 -94.94 48 -98 48 C-99.32911912 34.05901721 -94.33747582 21.02059439 -86 10 C-85.45472656 9.27296875 -84.90945312 8.5459375 -84.34765625 7.796875 C-63.20753387 -18.26765235 -25.67494893 -18.71144802 0 0 Z " fill="#1D82CE" transform="translate(166,68)"/>
<path d="M0 0 C4.90336841 2.57295031 8.13733112 6.04089962 9.87890625 11.265625 C10.35751591 18.4447699 9.27807094 23.34772199 4.56640625 29.078125 C-0.29884648 33.03821443 -4.93536538 33.81792218 -11.12109375 33.265625 C-17.00481879 31.22433264 -21.34642246 26.81496758 -24.12109375 21.265625 C-24.75202138 15.6079625 -24.71195449 10.60839663 -21.43359375 5.8046875 C-15.68146699 -0.9403659 -8.60779912 -2.98023248 0 0 Z " fill="#98C7FE" transform="translate(135.12109375,107.734375)"/>
<path d="M0 0 C3.77702297 2.63513231 6.60374735 5.7074947 8.6875 9.875 C9.28131502 15.74500746 9.51394408 21.3623709 6.07421875 26.37109375 C2.20674706 30.56539403 -2.05675463 33.13218898 -7.8125 33.5 C-14.21216229 33.10209354 -18.41353639 29.77396361 -22.8125 25.375 C-25.16451268 19.88697041 -25.39033113 14.73526066 -24.3125 8.875 C-18.95487356 -0.65777946 -10.21598074 -3.46957837 0 0 Z " fill="#99C8FE" transform="translate(63.3125,125.125)"/>
<path d="M0 0 C3.685222 2.59640641 6.66955101 4.86239372 8.75 8.9375 C9.64779154 14.38264217 9.33341033 19.2179748 7.5625 24.4375 C4.45252106 28.72712612 0.87045317 31.50853633 -4.25 32.9375 C-10.12858588 33.61209182 -13.62662253 32.90559549 -18.484375 29.47265625 C-22.2413368 26.20609434 -23.93335091 23.20352006 -24.625 18.25390625 C-24.88289714 12.31421275 -24.37051994 8.50348155 -20.25 3.9375 C-13.97255253 -1.5926323 -8.06097693 -2.63531938 0 0 Z " fill="#99C8FE" transform="translate(208.25,125.0625)"/>
<path d="M0 0 C11.22 0 22.44 0 34 0 C34.495 4.455 34.495 4.455 35 9 C23.12 9 11.24 9 -1 9 C-0.67 6.03 -0.34 3.06 0 0 Z " fill="#2484D0" transform="translate(111,247)"/>
</svg>
