<?xml version="1.0" encoding="UTF-8"?>
<svg version="1.1" xmlns="http://www.w3.org/2000/svg" width="512" height="512">
<path d="M0 0 C0.53351074 0.46051758 1.06702148 0.92103516 1.61669922 1.39550781 C13.39250278 11.66380704 22.72199105 22.80039451 31 36 C31.70253906 37.10085937 32.40507812 38.20171875 33.12890625 39.3359375 C53.16160231 72.34480264 57.60742232 113.53950568 48.93359375 150.76953125 C45.99982753 162.4228273 41.45404704 173.30684373 36 184 C36.72574219 184.26554688 37.45148438 184.53109375 38.19921875 184.8046875 C41.00170928 186.00072948 43.30479352 187.40329107 45.8125 189.125 C46.60269531 189.66382813 47.39289063 190.20265625 48.20703125 190.7578125 C48.79871094 191.16773438 49.39039063 191.57765625 50 192 C50.41507812 191.62488281 50.83015625 191.24976563 51.2578125 190.86328125 C60.6169607 183.09009749 73.12199823 179.53623371 85.21875 179.72265625 C95.69606411 180.7674446 105.51704539 183.6568898 114 190 C114.70511719 190.52464844 115.41023438 191.04929687 116.13671875 191.58984375 C127.14211228 200.49897184 133.27879356 213.08160224 135 227 C136.21800352 241.50919977 131.619981 255.64423982 122.25 266.8125 C112.32995081 277.24272315 100.76645857 282.97566377 86.44873047 283.34399414 C70.25895917 283.51791572 58.20947573 280.44859536 46 269 C36.29024948 257.80991046 31.61641923 246.70930665 31.75 231.9375 C31.74226563 231.07833984 31.73453125 230.21917969 31.7265625 229.33398438 C31.74233861 224.17125224 32.32855507 219.88831314 34 215 C32.23871656 213.63343543 30.46563912 212.28205915 28.6875 210.9375 C27.70136719 210.18339844 26.71523438 209.42929687 25.69921875 208.65234375 C24.80847656 208.10707031 23.91773438 207.56179688 23 207 C19.73858395 208.08713868 19.20884837 208.68028025 17.125 211.25 C6.98965078 223.07457409 -3.91504984 232.54215514 -17 241 C-17.58861816 241.38526855 -18.17723633 241.77053711 -18.78369141 242.16748047 C-35.33759958 252.83791617 -58.91276148 262.36495816 -78.875 262.0625 C-80.23625 262.041875 -81.5975 262.02125 -83 262 C-82.67 267.61 -82.34 273.22 -82 279 C-80.205625 279.680625 -78.41125 280.36125 -76.5625 281.0625 C-70.51530168 283.58809459 -65.88314351 286.67520042 -61 291 C-60.39671875 291.47566406 -59.7934375 291.95132812 -59.171875 292.44140625 C-50.84848038 299.62127143 -45.32410805 312.24166578 -44.11328125 323.0078125 C-43.50150415 339.16716623 -47.38600894 352.43567134 -57.65625 365.03125 C-66.33066776 374.3603408 -79.44359888 380.37960942 -92.12890625 381.203125 C-108.73542289 381.42983512 -121.65863352 376.86783822 -133.78125 365.33984375 C-142.02505616 356.64611155 -147.39867531 345.02649381 -148 333 C-148.05027344 332.33097656 -148.10054687 331.66195313 -148.15234375 330.97265625 C-148.7448992 317.86532968 -143.85158974 305.13226893 -135.78125 294.94140625 C-128.58653049 287.0997931 -120.01469626 282.33823209 -110 279 C-109.67 273.39 -109.34 267.78 -109 262 C-110.299375 262.03351563 -111.59875 262.06703125 -112.9375 262.1015625 C-117.79084161 262.09587499 -122.27008604 261.41335886 -127 260.375 C-128.22940308 260.10768066 -128.22940308 260.10768066 -129.48364258 259.83496094 C-161.05518771 252.64952407 -186.30154768 235.29268182 -208.66235352 212.36938477 C-209.76702253 211.23850531 -210.88214894 210.11785106 -212 209 C-213.98010159 210.31110799 -215.95911037 211.62381336 -217.9375 212.9375 C-218.50146484 213.31068359 -219.06542969 213.68386719 -219.64648438 214.06835938 C-222.46033611 215.85965717 -222.46033611 215.85965717 -225 218 C-224.68437207 219.33763519 -224.3475608 220.6703044 -224 222 C-222.69249139 237.50975733 -224.47427041 251.23796485 -234 264 C-239.23977493 270.00464141 -244.76502788 275.52139366 -252 279 C-252.77730469 279.39058594 -253.55460937 279.78117187 -254.35546875 280.18359375 C-265.52448904 284.84138143 -281.72865657 285.27794781 -293.25 281.4375 C-295.6640625 280.31640625 -295.6640625 280.31640625 -298 279 C-299.37285156 278.27103516 -299.37285156 278.27103516 -300.7734375 277.52734375 C-313.41847438 270.20015115 -321.34412793 259.11450394 -325.875 245.33984375 C-329.13677983 231.40932571 -327.08714837 217.02394491 -319.83984375 204.7265625 C-311.55153954 192.4436828 -301.19093652 184.37944152 -286.6875 181 C-271.72061357 178.44184183 -257.25248424 180.89697171 -244.609375 189.65625 C-242.70954202 191.0645178 -240.84998645 192.52686264 -239 194 C-235.37 191.36 -231.74 188.72 -228 186 C-229.31739203 182.04782391 -230.53152347 178.73467637 -232.3125 175.0625 C-248.22933731 140.27952907 -249.53605823 99.57796146 -236.97021484 63.58544922 C-222.43730538 24.85784196 -193.51042017 -5.69239075 -155.953125 -22.9140625 C-104.2790241 -44.53734507 -42.69987118 -36.94708805 0 0 Z M-168 28 C-168.79664063 28.66386719 -169.59328125 29.32773438 -170.4140625 30.01171875 C-191.19117652 47.92635112 -205.02234256 73.60555153 -208 101 C-209.50498593 131.59645257 -203.60936211 161.30593943 -183 185 C-181.96939453 186.21042969 -181.96939453 186.21042969 -180.91796875 187.4453125 C-162.21041954 208.87217272 -137.36675129 222.56048518 -109 226 C-104.74505378 226.27704317 -100.51313534 226.33482509 -96.25 226.3125 C-95.11183838 226.30686035 -93.97367676 226.3012207 -92.80102539 226.29541016 C-63.57547449 225.87615291 -37.13754562 213.72117892 -16.125 193.5625 C5.12546251 170.9410399 17.18921414 141.99554516 16.28125 110.82421875 C14.98709538 84.18081048 5.69364223 61.54830208 -11 41 C-11.55042969 40.22011719 -12.10085938 39.44023438 -12.66796875 38.63671875 C-13.32732422 37.82654297 -13.32732422 37.82654297 -14 37 C-14.66 37 -15.32 37 -16 37 C-16.33 36.01 -16.66 35.02 -17 34 C-20.46437661 30.75933775 -24.25663281 27.91045616 -28 25 C-29.32837891 23.95005859 -29.32837891 23.95005859 -30.68359375 22.87890625 C-71.22528042 -8.0243408 -129.7840453 -4.60431822 -168 28 Z " fill="#000000" transform="translate(352,83)"/>
<path d="M0 0 C1.46623979 -0.00458096 2.93247746 -0.00989207 4.39871216 -0.0158844 C7.44932866 -0.02473901 10.49968232 -0.02248143 13.55029297 -0.01245117 C17.41163547 -0.00097661 21.27206125 -0.02118853 25.13328362 -0.05036831 C28.15525842 -0.06893494 31.17702178 -0.06839771 34.19903946 -0.06273079 C35.62044688 -0.06258003 37.04187099 -0.06841506 38.4632225 -0.08102226 C56.05042644 -0.21510177 71.91398214 3.46766651 85.41015625 15.17578125 C95.34080812 26.91385238 90.3203125 43.09097957 90.3203125 57.43359375 C42.8003125 57.43359375 -4.7196875 57.43359375 -53.6796875 57.43359375 C-53.6796875 21.32450284 -53.6796875 21.32450284 -47.9609375 14.33203125 C-33.96404712 2.36100658 -17.91368898 -0.05008087 0 0 Z " fill="#000000" transform="translate(237.6796875,196.56640625)"/>
<path d="M0 0 C5.54720768 3.97549884 9.26704316 8.52873269 12.53125 14.4921875 C12.8715625 15.08257812 13.211875 15.67296875 13.5625 16.28125 C17.16434702 23.85179882 16.67633693 33.89593581 14.6875 41.87890625 C10.63618973 52.56834314 4.11786277 59.21907236 -5.953125 64.3984375 C-14.12947316 67.95337148 -25.60760988 68.00587094 -33.96875 64.8671875 C-44.28544403 59.91655916 -51.81589911 52.29641989 -55.76953125 41.453125 C-58.33231113 30.60068281 -57.14325533 20.14172702 -51.46875 10.4921875 C-46.42410474 2.93802328 -39.47970405 -1.38779348 -31.21875 -4.8828125 C-19.92713738 -6.76474794 -9.86894639 -6.0275527 0 0 Z " fill="#000000" transform="translate(276.46875,120.5078125)"/>
</svg>
