<?xml version="1.0" encoding="UTF-8"?>
<!-- Generator: visioncortex VTracer 0.6.4 -->
<svg version="1.1" xmlns="http://www.w3.org/2000/svg" width="225" height="225">
<path d="M0 0 C74.25 0 148.5 0 225 0 C225 74.25 225 148.5 225 225 C150.75 225 76.5 225 0 225 C0 150.75 0 76.5 0 0 Z " fill="#000000" transform="translate(0,0)"/>
<path d="M0 0 C74.25 0 148.5 0 225 0 C225 74.25 225 148.5 225 225 C150.75 225 76.5 225 0 225 C0 150.75 0 76.5 0 0 Z M32 46 C21.81 58.8 14.72 73.08 11 89 C10.82 89.65 10.65 90.29 10.47 90.96 C6.24 107.54 7.89 126.78 13 143 C13.21 143.68 13.42 144.36 13.63 145.06 C18.74 161.2 27.16 174.03 39 186 C39.59 186.65 40.19 187.31 40.8 187.98 C52.78 200.95 71.03 209.89 88 214 C88.71 214.18 89.42 214.35 90.15 214.53 C107.25 218.4 126.32 217.25 143 212 C143.68 211.79 144.36 211.58 145.06 211.37 C161.65 206.12 174.87 197.37 187 185 C187.85 184.14 188.69 183.28 189.56 182.4 C209.56 161.11 217.01 133.7 216.34 105.1 C215.14 77.35 201.34 53.6 181.77 34.53 C168.66 22.55 152.17 14.96 135 11 C133.96 10.76 132.92 10.51 131.85 10.26 C93.67 2.94 57.63 17.44 32 46 Z " fill="#FDFDFD" transform="translate(0,0)"/>
<path d="M0 0 C5.67 1.93 9.32 5.64 12 11 C12.52 16.26 12.67 20.65 10.31 25.44 C7.02 29.09 3.69 32.73 -1.39 33.24 C-7.48 33.4 -11.27 33.26 -16 29 C-20.62 23.75 -21.35 20.65 -21.28 13.76 C-20.76 8.61 -18.12 5.99 -14.38 2.69 C-9.69 -0.64 -5.63 -0.47 0 0 Z " fill="#F4F4F4" transform="translate(117,39)"/>
<path d="M0 0 C5.63 0.76 9.58 1.4 14 5 C18.53 11.03 18.5 17.24 18.25 24.5 C18.17 27.97 18.09 31.43 18 35 C7.11 35 -3.78 35 -15 35 C-14.11 30.53 -12.77 27 -10.84 22.95 C-10.53 22.29 -10.22 21.63 -9.9 20.95 C-8.92 18.86 -7.93 16.77 -6.94 14.69 C-6.27 13.27 -5.6 11.84 -4.93 10.42 C-3.29 6.94 -1.65 3.47 0 0 Z " fill="#F5F5F5" transform="translate(129,76)"/>
<path d="M0 0 C1.56 2.4 2.72 4.54 3.88 7.12 C4.21 7.84 4.55 8.55 4.89 9.28 C5.59 10.76 6.28 12.25 6.96 13.75 C7.97 15.94 9.02 18.12 10.07 20.29 C10.71 21.63 11.36 22.97 12 24.31 C12.3 24.94 12.61 25.57 12.92 26.21 C14.23 29.02 15 30.86 15 34 C4.11 34 -6.78 34 -18 34 C-18.1 30.37 -18.21 26.74 -18.31 23 C-18.36 21.87 -18.4 20.74 -18.45 19.58 C-18.54 12.77 -17.59 8.17 -13 3 C-10.94 1.31 -10.94 1.31 -9 0.44 C-8.36 0.13 -7.72 -0.18 -7.06 -0.5 C-4.18 -1.2 -2.76 -1.15 0 0 Z " fill="#F4F4F4" transform="translate(96,77)"/>
<path d="M0 0 C1.98 0 3.96 0 6 0 C6 4.29 6 8.58 6 13 C10.62 13 15.24 13 20 13 C20 8.71 20 4.42 20 0 C21.98 0 23.96 0 26 0 C26 10.23 26 20.46 26 31 C24.02 31 22.04 31 20 31 C20 26.71 20 22.42 20 18 C15.38 18 10.76 18 6 18 C6 22.29 6 26.58 6 31 C4.02 31 2.04 31 0 31 C0 20.77 0 10.54 0 0 Z " fill="#F2F2F2" transform="translate(139,143)"/>
<path d="M0 0 C1.16 -0.03 1.16 -0.03 2.35 -0.06 C8.09 -0.1 8.09 -0.1 10.3 1.54 C12.32 4.27 11.75 6.97 11.56 10.25 C9.58 10.25 7.6 10.25 5.56 10.25 C5.56 8.6 5.56 6.95 5.56 5.25 C1.6 5.25 -2.36 5.25 -6.44 5.25 C-6.46 8.23 -6.48 11.21 -6.5 14.19 C-6.51 15.04 -6.52 15.89 -6.53 16.76 C-6.53 17.98 -6.53 17.98 -6.54 19.21 C-6.54 19.96 -6.55 20.71 -6.55 21.48 C-6.63 23.28 -6.63 23.28 -5.44 24.25 C-3.75 24.32 -2.06 24.33 -0.38 24.31 C0.54 24.3 1.46 24.29 2.41 24.29 C3.12 24.27 3.83 24.26 4.56 24.25 C5.22 22.6 5.88 20.95 6.56 19.25 C8.54 19.25 10.52 19.25 12.56 19.25 C12.08 26.68 12.08 26.68 9.98 28.99 C6.6 30.75 3.86 30.61 0.06 30.56 C-1.25 30.56 -2.56 30.55 -3.91 30.55 C-9.17 30.1 -9.17 30.1 -11.44 28.25 C-13.59 23.67 -13.77 19.17 -13.75 14.19 C-13.77 13.15 -13.77 13.15 -13.8 12.08 C-13.8 7.63 -13.19 4.79 -10.44 1.25 C-7.17 -0.39 -3.59 0.02 0 0 Z " fill="#F2F2F2" transform="translate(123.4375,143.75)"/>
<path d="M0 0 C6.93 0 13.86 0 21 0 C21 1.65 21 3.3 21 5 C16.05 5 11.1 5 6 5 C6 7.64 6 10.28 6 13 C10.62 13 15.24 13 20 13 C20 14.32 20 15.64 20 17 C15.38 17 10.76 17 6 17 C6 19.97 6 22.94 6 26 C10.95 26 15.9 26 21 26 C21 27.65 21 29.3 21 31 C14.07 31 7.14 31 0 31 C0 20.77 0 10.54 0 0 Z " fill="#F2F2F2" transform="translate(86,143)"/>
<path d="M0 0 C7.92 0 15.84 0 24 0 C24 1.98 24 3.96 24 6 C21.03 6 18.06 6 15 6 C15 14.25 15 22.5 15 31 C12.69 31 10.38 31 8 31 C8 22.75 8 14.5 8 6 C5.36 6 2.72 6 0 6 C0 4.02 0 2.04 0 0 Z " fill="#E5E5E5" transform="translate(60,143)"/>
<path d="M0 0 C3.03 2.06 4.67 3.52 5.48 7.16 C5.74 11.31 5.32 13.5 3.06 17.06 C-1.06 19.67 -4.25 20.04 -9 19 C-12.06 17.06 -12.06 17.06 -14 14 C-14.69 10.85 -14.73 8.15 -14 5 C-9.58 -0.58 -6.9 -1.64 0 0 Z " fill="#050505" transform="translate(117,46)"/>
<path d="M0 0 C6.93 0 13.86 0 21 0 C19.03 5.92 17.15 11.12 14.31 16.56 C13.99 17.19 13.67 17.82 13.34 18.46 C12.57 19.98 11.78 21.49 11 23 C8.68 20.88 7.29 18.93 5.96 16.09 C5.43 14.98 5.43 14.98 4.89 13.84 C4.54 13.07 4.18 12.3 3.81 11.5 C3.44 10.73 3.08 9.96 2.7 9.16 C0 3.39 0 3.39 0 0 Z " fill="#F9F9F9" transform="translate(102,77)"/>
<path d="M0 0 C3.28 0.57 4.9 1.4 7 4 C7.34 5.9 7.34 5.9 7.29 8.01 C7.28 8.77 7.27 9.53 7.26 10.31 C7.24 11.09 7.21 11.88 7.19 12.69 C7.17 13.88 7.17 13.88 7.15 15.1 C7.11 17.07 7.06 19.03 7 21 C1.72 21 -3.56 21 -9 21 C-6.77 13.56 -3.6 6.88 0 0 Z " fill="#0D0D0D" transform="translate(133,84)"/>
<path d="M0 0 C1.51 3.12 3 6.25 4.5 9.38 C4.93 10.26 5.36 11.15 5.8 12.07 C6.21 12.92 6.61 13.77 7.03 14.65 C7.41 15.43 7.79 16.22 8.17 17.03 C9 19 9 19 9 21 C3.72 21 -1.56 21 -7 21 C-7.11 18.25 -7.19 15.5 -7.25 12.75 C-7.28 11.97 -7.32 11.2 -7.35 10.39 C-7.45 4.63 -7.45 4.63 -5.17 1.45 C-3 0 -3 0 0 0 Z " fill="#0B0B0B" transform="translate(92,84)"/>
</svg>
