<?xml version="1.0" encoding="UTF-8"?>
<!-- Generator: visioncortex VTracer 0.6.4 -->
<svg version="1.1" xmlns="http://www.w3.org/2000/svg" width="500" height="113">
<path d="M0 0 C37.52 -0.32 75.04 -0.57 112.56 -0.71 C117 -0.73 121.43 -0.75 125.86 -0.77 C127.18 -0.77 127.18 -0.77 128.53 -0.78 C142.81 -0.84 157.09 -0.95 171.37 -1.08 C186.02 -1.21 200.68 -1.29 215.33 -1.32 C224.37 -1.34 233.41 -1.4 242.45 -1.51 C248.65 -1.58 254.85 -1.61 261.06 -1.59 C264.64 -1.58 268.21 -1.59 271.79 -1.67 C294.35 -2.12 294.35 -2.12 300.07 3.08 C303.01 6.43 304.98 10.04 307 14 C308.75 16.3 308.75 16.3 310.38 18.04 C311.07 18.84 311.07 18.84 311.78 19.65 C312.22 20.16 312.67 20.66 313.12 21.19 C318.2 27.04 323.14 32.97 328 39 C328.76 39.82 329.53 40.65 330.31 41.5 C332 44 332 44 332.05 46.44 C330.66 49.82 328.54 52.26 326.12 54.94 C325.11 56.09 324.1 57.25 323.09 58.41 C322.32 59.3 322.32 59.3 321.53 60.21 C319.63 62.43 317.82 64.7 316.04 67.01 C315.14 68.15 314.23 69.29 313.31 70.43 C310.79 73.55 308.58 76.64 306.61 80.14 C303.22 85.73 299.64 90.82 293.2 92.91 C285.35 94.27 277.4 94.05 269.47 93.86 C265.84 93.79 262.22 93.81 258.6 93.82 C252.33 93.83 246.07 93.78 239.81 93.69 C230.75 93.56 221.7 93.52 212.64 93.5 C197.94 93.46 183.25 93.36 168.55 93.21 C154.29 93.06 140.02 92.95 125.75 92.88 C124.87 92.87 123.99 92.87 123.08 92.87 C118.66 92.85 114.24 92.83 109.83 92.81 C73.22 92.64 36.61 92.36 0 92 C4.37 85.41 4.37 85.41 6.63 82.62 C7.1 82.04 7.57 81.45 8.06 80.85 C8.8 79.93 8.8 79.93 9.56 79 C10.63 77.67 11.7 76.35 12.77 75.02 C13.31 74.35 13.85 73.68 14.4 72.99 C16.87 69.91 19.31 66.8 21.75 63.69 C26.13 58.1 30.55 52.54 35 47 C33.56 42.56 31.11 39.5 28.06 36.06 C22.64 29.8 17.5 23.36 12.42 16.82 C10.91 14.89 9.39 12.96 7.86 11.04 C7.35 10.39 6.84 9.75 6.32 9.09 C5.33 7.84 4.34 6.6 3.35 5.35 C0 1.11 0 1.11 0 0 Z M180.12 33.94 C176.58 39.05 175.36 42.72 176 49 C178.13 55.15 181.21 58.78 186.85 62.08 C191.74 64.17 197.31 63.55 202.25 61.94 C206.67 58.82 210.27 55.18 212 50 C212.79 43.64 212.28 38.94 208.47 33.69 C204.89 29.57 201.44 27.84 196.12 27 C189.42 26.59 184.56 28.95 180.12 33.94 Z M255 30 C252.77 33.23 251.98 35.13 252.06 39.06 C253.22 42.69 254.18 44.39 257 47 C260.26 48.57 263.58 49.83 267 51 C267 52.65 267 54.3 267 56 C260.38 56.12 260.38 56.12 257 55 C254.81 56.37 254.81 56.37 253 58 C253.79 60 253.79 60 255 62 C259.07 63.36 262.75 63.53 267 63 C270.19 61.38 272.22 59.98 274.44 57.19 C275.31 53.78 274.89 51.39 274 48 C270.63 43.26 267.27 42.23 261.79 41.26 C261.2 41.18 260.61 41.09 260 41 C259.96 39.33 259.96 37.67 260 36 C260.33 35.67 260.66 35.34 261 35 C262.09 35.04 263.19 35.08 264.31 35.12 C268.16 34.99 269.3 34.59 272 32 C271.33 28.84 271.33 28.84 268.75 27.81 C263.27 26.19 259.82 26.85 255 30 Z M53 28 C57.04 39.8 61.23 51.48 66 63 C68.64 63 71.28 63 74 63 C77.42 55.21 80.41 47.3 83.31 39.31 C83.67 38.32 84.04 37.33 84.41 36.3 C86.16 32.25 86.16 32.25 87 28 C84.69 28 82.38 28 80 28 C79.73 28.72 79.47 29.44 79.19 30.19 C77.98 33.44 76.77 36.69 75.56 39.94 C75.14 41.07 74.72 42.21 74.29 43.38 C73.88 44.46 73.48 45.54 73.07 46.65 C72.69 47.65 72.32 48.65 71.94 49.68 C71 52 71 52 70 53 C69.73 52.28 69.47 51.56 69.19 50.81 C67.98 47.56 66.77 44.31 65.56 41.06 C64.93 39.36 64.93 39.36 64.29 37.62 C63.88 36.54 63.48 35.46 63.07 34.35 C62.51 32.85 62.51 32.85 61.94 31.32 C61.21 29.08 61.21 29.08 60 28 C57.67 27.96 55.33 27.96 53 28 Z M92 28 C92 39.55 92 51.1 92 63 C94.31 63 96.62 63 99 63 C99 51.45 99 39.9 99 28 C96.69 28 94.38 28 92 28 Z M107 28 C107 39.55 107 51.1 107 63 C121.95 63.84 121.95 63.84 133.81 57.69 C137.55 53.1 139.67 49.17 139.41 43.09 C138.34 37.67 135.16 33.92 130.94 30.56 C122.89 26.28 117.27 28 107 28 Z M146 28 C146 39.55 146 51.1 146 63 C153.59 63 161.18 63 169 63 C169 60.69 169 58.38 169 56 C163.39 56 157.78 56 152 56 C152 53.36 152 50.72 152 48 C157.28 48 162.56 48 168 48 C168 46.02 168 44.04 168 42 C162.72 42 157.44 42 152 42 C152 39.69 152 37.38 152 35 C157.61 35 163.22 35 169 35 C169 32.69 169 30.38 169 28 C161.41 28 153.82 28 146 28 Z M239 28 C238.97 28.81 238.95 29.63 238.92 30.46 C238.81 34.12 238.69 37.78 238.56 41.44 C238.5 43.36 238.5 43.36 238.44 45.31 C238.4 46.53 238.36 47.74 238.32 49 C238.26 50.68 238.26 50.68 238.21 52.41 C238 55 238 55 237 56 C234.29 56.15 231.98 55.99 229.31 55.44 C226.98 54.76 226.98 54.76 225 56 C225.93 59.14 226.67 60.73 229.25 62.81 C232.63 64.27 234.36 64.66 238 64 C241.43 61.88 244.54 59.79 245.58 55.76 C246.03 52.81 246.11 50.03 246.1 47.04 C246.09 45.93 246.09 44.82 246.09 43.67 C246.08 42.52 246.07 41.37 246.06 40.19 C246.06 39.02 246.05 37.85 246.05 36.64 C246.04 33.76 246.02 30.88 246 28 C243.69 28 241.38 28 239 28 Z " fill="#FFFFFF" transform="translate(168,10)"/>
<path d="M0 0 C0.72 -0 1.44 -0 2.19 -0 C4.57 0 6.95 0.03 9.33 0.06 C10.98 0.07 12.64 0.08 14.29 0.08 C18.64 0.1 22.98 0.14 27.33 0.18 C31.77 0.22 36.21 0.24 40.64 0.26 C49.35 0.3 58.05 0.37 66.75 0.45 C65.81 1.72 64.87 2.98 63.93 4.24 C63.41 4.94 62.89 5.64 62.35 6.37 C60 9.44 57.48 12.35 54.94 15.27 C50.63 20.25 46.4 25.28 42.25 30.39 C40.25 32.84 38.24 35.28 36.23 37.7 C35.6 38.46 34.98 39.21 34.33 39.98 C33.1 41.47 31.86 42.96 30.62 44.44 C27.41 48.32 24.45 52.21 21.75 56.45 C22.14 56.92 22.52 57.38 22.91 57.86 C35.85 73.52 35.85 73.52 41.64 80.81 C43.89 83.62 46.16 86.4 48.43 89.19 C53.21 95.04 57.95 100.91 62.57 106.89 C62.99 107.44 63.42 107.99 63.86 108.56 C66.75 112.33 66.75 112.33 66.75 113.45 C57.3 113.78 47.84 114.03 38.38 114.18 C33.98 114.25 29.59 114.35 25.2 114.51 C20.95 114.66 16.71 114.75 12.46 114.78 C10.84 114.81 9.23 114.86 7.62 114.93 C-4.65 115.49 -4.65 115.49 -9 112.09 C-12.23 108.76 -14.77 105.05 -17.2 101.11 C-18.6 98.9 -20.23 96.92 -21.93 94.93 C-22.46 94.29 -22.99 93.65 -23.53 92.99 C-24.06 92.36 -24.58 91.73 -25.12 91.08 C-26.31 89.64 -27.49 88.21 -28.68 86.77 C-29.27 86.06 -29.86 85.35 -30.47 84.62 C-34.96 79.16 -39.42 73.67 -43.86 68.16 C-45.11 66.62 -46.38 65.11 -47.65 63.59 C-48.3 62.81 -48.95 62.02 -49.62 61.2 C-50.17 60.56 -50.71 59.92 -51.27 59.25 C-52.25 57.45 -52.25 57.45 -52.16 55.54 C-50.93 52.73 -49.23 50.73 -47.25 48.39 C-46.02 46.93 -46.02 46.93 -44.77 45.44 C-43.94 44.46 -43.11 43.47 -42.25 42.45 C-40.79 40.66 -39.33 38.87 -37.87 37.08 C-34.59 33.06 -31.24 29.09 -27.87 25.14 C-23.41 19.92 -19.14 14.57 -14.95 9.12 C-13.74 7.55 -12.49 6 -11.25 4.45 C-10.69 3.74 -10.13 3.03 -9.55 2.3 C-6.32 -0.29 -4.11 -0.03 0 0 Z " fill="#FFFFFF" transform="translate(52.2470703125,-0.4541015625)"/>
<path d="M0 0 C20.92 -1.6 20.92 -1.6 26.71 3.34 C29.38 6.23 31.53 9.42 33.56 12.77 C35.08 15.23 36.88 17.41 38.73 19.63 C39.35 20.42 39.98 21.21 40.62 22.02 C43.02 25 45.5 27.91 47.98 30.81 C52.49 36.09 56.81 41.49 61.05 46.98 C63.13 49.66 65.18 52.25 67.67 54.56 C66.1 59.82 62.71 63.41 59.23 67.5 C57.96 69.02 56.68 70.54 55.41 72.07 C54.78 72.82 54.14 73.58 53.49 74.36 C50.89 77.51 48.36 80.71 45.86 83.94 C41.22 89.89 36.47 95.74 31.67 101.56 C29.25 104.52 26.83 107.48 24.42 110.45 C21.87 113.53 21.87 113.53 19.62 113.88 C2.14 115.41 2.14 115.41 -3.32 112.51 C-6.64 109.7 -8.88 106.17 -11.12 102.48 C-13.23 99.14 -15.78 96.13 -18.27 93.06 C-19.16 91.93 -20.04 90.79 -20.92 89.66 C-23.04 86.94 -25.17 84.25 -27.33 81.56 C-25.86 78.32 -24.02 75.76 -21.77 73 C-21.07 72.14 -20.36 71.27 -19.64 70.38 C-18.5 68.99 -18.5 68.99 -17.33 67.56 C-16.5 66.54 -15.66 65.52 -14.8 64.47 C-12.65 61.83 -10.49 59.19 -8.33 56.56 C-12.66 50.55 -17.37 44.95 -22.28 39.4 C-24.54 36.81 -26.23 34.86 -27.33 31.56 C-25.95 29.46 -25.95 29.46 -23.77 26.94 C-22.95 25.98 -22.13 25.01 -21.29 24.02 C-20.83 23.48 -20.36 22.94 -19.89 22.39 C-16.84 18.82 -13.88 15.18 -10.89 11.56 C-10.28 10.82 -9.66 10.08 -9.03 9.31 C-8.45 8.61 -7.87 7.91 -7.27 7.19 C-6.75 6.56 -6.24 5.93 -5.7 5.29 C-1.86 0.45 -1.86 0.45 0 0 Z " fill="#FFFFFF" transform="translate(128.33154296875,-0.562744140625)"/>
<path d="M0 0 C3.41 1.71 5.38 3.04 7.44 6.25 C8.21 10.04 8.18 13.29 7 17 C3.58 21.12 1.57 22.84 -3.75 23.38 C-7.27 23.32 -8.18 22.89 -11.38 20.94 C-14.39 17.56 -15.37 15.47 -16 11 C-15.11 6.46 -13.52 3.97 -10 1 C-6.78 -0.61 -3.49 -0.47 0 0 Z " fill="#FFFFFF" transform="translate(366,44)"/>
<path d="M0 0 C12.06 -0.44 12.06 -0.44 16 3 C18.67 7 18.83 10.29 18 15 C15.82 17.76 14.13 19.44 11 21 C7.33 21.14 3.67 21.04 0 21 C0 14.07 0 7.14 0 0 Z " fill="#FFFFFF" transform="translate(282,45)"/>
</svg>
